<?xml version="1.0" encoding="utf-8"?>
<!-- Generator: Adobe Illustrator 18.0.0, SVG Export Plug-In . SVG Version: 6.00 Build 0)  -->
<!DOCTYPE svg PUBLIC "-//W3C//DTD SVG 1.1//EN" "http://www.w3.org/Graphics/SVG/1.1/DTD/svg11.dtd">
<svg version="1.1" id="Layer_1" xmlns="http://www.w3.org/2000/svg" xmlns:xlink="http://www.w3.org/1999/xlink" x="0px" y="0px"
	 width="759px" height="912px" viewBox="0 720 759 912" style="enable-background:new 0 720 759 912;" xml:space="preserve">
<style type="text/css">
	.styled-0{fill:none;}
	.styled-1{fill:#77848F;}
	.styled-2{fill:none;stroke:#231F20;stroke-width:2;}
	.styled-3{fill:#FFFFFF;}
	.styled-4{fill:#2E557A;}
	.styled-5{fill:#B3B5B8;}
	.styled-6{clip-path:url(#SVG_CLIP_3_);fill:#2E557A;}
	.styled-7{clip-path:url(#SVG_CLIP_5_);fill:#2E557A;}
	.styled-8{fill:none;stroke:#FFFFFF;stroke-width:2;stroke-miterlimit:3.864;stroke-dasharray:3,2;}
	.styled-9{fill:none;stroke:#231F20;}
	.styled-10{fill:none;stroke:#000000;stroke-dasharray:3,2;}
	.styled-11{fill:#231F20;}
	.styled-12{font-family:"ff-dagny-web-pro", Helvetica Neue, Helvetica, sans-serif;}
	.styled-13{font-size:14.8824px;}
	.styled-14{font-size:13.6422px;}
	.styled-15{font-family:"ff-dagny-web-pro", Helvetica Neue, Helvetica, sans-serif;}
	.styled-16{font-size:18.6029px;}
	.styled-17{fill:none;stroke:#231F20;stroke-miterlimit:3.864;}
	.styled-18{fill:none;stroke:#231F20;stroke-width:5;}
	.styled-19{fill:#1A2E5A;}
	.styled-20{clip-path:url(#SVG_CLIP_8_);}
	.styled-21{fill:#77C25F;}
	.styled-22{clip-path:url(#SVG_CLIP_11_);}
	.styled-23{fill:url(#SVG_CLIP_12_);}
	.styled-24{fill:#DBB896;}
	.styled-25{fill:none;stroke:#231F20;stroke-width:4;}
	.styled-26{clip-path:url(#SVG_CLIP_15_);fill:#DBB896;}
	.styled-27{clip-path:url(#SVG_CLIP_17_);fill:none;stroke:#000000;stroke-width:2;}
	.styled-28{clip-path:url(#SVG_CLIP_19_);fill:none;stroke:#000000;stroke-width:2;}
	.styled-29{clip-path:url(#SVG_CLIP_21_);fill:#315679;}
	.styled-30{clip-path:url(#SVG_CLIP_23_);fill:none;stroke:#9C6750;}
	.styled-31{clip-path:url(#SVG_CLIP_25_);fill:none;stroke:#9C6750;}
	.styled-32{clip-path:url(#SVG_CLIP_27_);fill:none;stroke:#9C6750;}
	.styled-33{clip-path:url(#SVG_CLIP_29_);fill:none;stroke:#9C6750;}
	.styled-34{clip-path:url(#SVG_CLIP_31_);fill:#315679;}
	.styled-35{clip-path:url(#SVG_CLIP_33_);fill:#DBB896;}
	.styled-36{clip-path:url(#SVG_CLIP_35_);fill:#315679;}
	.styled-37{clip-path:url(#SVG_CLIP_37_);fill:none;stroke:#9C6750;}
	.styled-38{clip-path:url(#SVG_CLIP_39_);fill:none;stroke:#9C6750;}
	.styled-39{clip-path:url(#SVG_CLIP_41_);fill:none;stroke:#9C6750;}
	.styled-40{clip-path:url(#SVG_CLIP_43_);fill:#315679;}
	.styled-41{clip-path:url(#SVG_CLIP_45_);fill:#DBB896;}
	.styled-42{clip-path:url(#SVG_CLIP_47_);fill:#2E557A;}
	.styled-43{clip-path:url(#SVG_CLIP_49_);fill:none;stroke:#9C6750;}
	.styled-44{clip-path:url(#SVG_CLIP_51_);fill:none;stroke:#9C6750;}
	.styled-45{clip-path:url(#SVG_CLIP_53_);fill:none;stroke:#9C6750;}
	.styled-46{clip-path:url(#SVG_CLIP_55_);fill:none;stroke:#9C6750;}
	.styled-47{clip-path:url(#SVG_CLIP_57_);fill:#315679;}
	.styled-48{clip-path:url(#SVG_CLIP_59_);fill:#DBB896;}
	.styled-49{clip-path:url(#SVG_CLIP_61_);fill:#2E557A;}
	.styled-50{clip-path:url(#SVG_CLIP_63_);fill:none;stroke:#9C6750;}
	.styled-51{clip-path:url(#SVG_CLIP_65_);fill:none;stroke:#9C6750;}
	.styled-52{clip-path:url(#SVG_CLIP_67_);fill:none;stroke:#9C6750;}
	.styled-53{clip-path:url(#SVG_CLIP_69_);fill:#315679;}
	.styled-54{fill:none;stroke:#A6A8AB;stroke-dasharray:3.946,3.946;}
	.styled-55{fill:none;stroke:#231F20;stroke-width:0.6;}
	.styled-56{fill:none;stroke:#A6A8AB;stroke-dasharray:3,3.946;}
	.styled-57{fill:#315679;}
	.styled-58{font-family:"ff-dagny-web-pro", Helvetica Neue, Helvetica, sans-serif;}
	.styled-59{font-size:12.402px;}
	.styled-60{font-family:"ff-dagny-web-pro", Helvetica Neue, Helvetica, sans-serif;}
	.styled-61{font-size:11.9059px;}
	.styled-62{font-family:"ff-dagny-web-pro", Helvetica Neue, Helvetica, sans-serif;}
	.styled-63{fill:none;stroke:#000000;stroke-miterlimit:3.864;}
	.styled-64{font-size:12px;}
	.styled-65{font-size:15px;}
</style>
<pattern  y="1632" width="196.7" height="250.3" patternUnits="userSpaceOnUse" id="SVG_CLIP_13_" viewBox="0 -250.3 196.7 250.3" style="overflow:visible;">
	<g>
		<polygon class="styled-0" points="0,0 196.7,0 196.7,-250.3 0,-250.3 		"/>
		<g>
			<polygon class="styled-0" points="0,-250.3 196.7,-250.3 196.7,0 0,0 			"/>
			<g>
				<polygon class="styled-0" points="0,0 196.7,0 196.7,-250.3 0,-250.3 				"/>
				<g>
					<polygon class="styled-0" points="0,0 196.7,0 196.7,-250.3 0,-250.3 					"/>
					<path class="styled-1" d="M196.7-125.1L196.7-125.1v10.2l-54.7-1.4h-4.6c7.8,3.8,9.7,13.5,15.5,22.7c7.6,11.8,21.1,17.5,43.8,23.6
						v14.9c-24.6,5.1-36.2,11.9-43.8,23.7c-6,9.2-7.8,18.9-15.8,22.7h16.6l42.9-1.1V0H98.3l0,0H0v-9.9l59.8-1.6
						c10.4,0,18.9-7.3,18.9-16.4V-97c0-9.1-8.4-16.4-18.9-16.4L0-115v-10.2l0,0v-125.1h196.7V-125.1z M139.1-187.8
						c0,0-22.4,3.6-39.9,7.2c-25.1,5.1-37,11.9-44.6,23.8c-6,9.2-7.8,18.9-15.8,22.7h16.6l102.7-2.7c10.4,0,18.9-7.3,18.9-16.4
						v-69.1c0-9.1-8.4-16.4-18.9-16.4l-114.6-2.9h-4.6c7.8,3.8,9.7,13.5,15.5,22.7c7.7,11.9,21.3,17.6,44.6,23.8
						C116.5-190.4,139.1-187.8,139.1-187.8"/>
				</g>
			</g>
		</g>
	</g>
</pattern>
<g id="Layer_1_1_">
	<g>
		<path class="styled-2" d="M299.1,904.9"/>
		<path class="styled-3" d="M429.6,847.4"/>
		<path class="styled-3" d="M299.8,903.8"/>
		<path class="styled-2" d="M429.6,847.4"/>
		<path class="styled-2" d="M298.5,903.8"/>
	</g>
	<g>
		<g>
			<path id="SVG_CLIP_1_" class="styled-4" d="M298.5,904.3"/>
		</g>
		<g>
			<path class="styled-0" d="M298.5,904.3"/>
			<path class="styled-4" d="M298.5,904.3"/>
		</g>
	</g>
	<path class="styled-2" d="M298.5,904.3"/>
	<g>
		<g>
			<path class="styled-0" d="M299.8,981.6"/>
		</g>
		<g>
			<path class="styled-0" d="M299.8,981.6"/>
			<path class="styled-0" d="M299.8,1053.5"/>
			<g>
				<path class="styled-3" d="M383.6,1027.4c3.7-0.4,15.6-2,25.4-6.7c5.7-2.7,9.5-6.8,11-11.9c0.5-1.5,0.6-3.1,0.6-4.7
					c0-4.7-1.7-10-5.3-15.5c-7.3-11.5-14.1-15.6-14.5-15.9c-4.2-3-8.3-3.1-8.3-3.1s3.6,4.2,4.8,8.3c1.2,4.2-3.2,4.7-3.2,4.7"/>
				<path class="styled-3" d="M275.1,991.9c-6.1,0-12.4,0-15.6,5c-3.2,5.1-1.5,10,4.1,20c0.4,0.7,17.2,32.2,17.2,32.2s1.7-2.1,3.5-3.5"/>
				<path class="styled-3" d="M394.3,982.6c-7.4,1.5-17.1,1.9-21.3,1.9"/>
				<path class="styled-4" d="M373.1,987.3c3.3,0,13.8-0.4,21.8-2c10.8-2.1,3.8-11.3,3.8-11.3s7.2,4.7,14.4,16c7.9,12.5,6,22.7-5.2,28"/>
				<path class="styled-4" d="M378.1,1018.2"/>
				<line class="styled-0" x1="281.5" y1="1044.6" x2="268.4" y2="1020"/>
				<path class="styled-4" d="M407.9,1018c-11.2,5.3-25.5,6.6-25.5,6.6"/>
				<path class="styled-3" d="M404.8,988.4c13.4,22.6-6.4,26.3-16.7,27.7"/>
				<path class="styled-3" d="M388.1,1016.1c-5.1,1.2-0.7,4.2-0.7,4.2c-7.3-1.5-10-7.4-10.7-9.2c-0.1-0.2-0.2-0.5-0.4-0.7"/>
				<path class="styled-3" d="M403.2,986.1"/>
				<path class="styled-3" d="M373.1,1012.3"/>
				<path class="styled-5" d="M275.1,994.6c-6.7,0-11,0.2-13.3,3.7c-2.2,3.3-1.7,6.6,4.1,17.1"/>
			</g>
		</g>
	</g>
	<path class="styled-3" d="M44.3,1330.6"/>
	<path class="styled-2" d="M45.3,1330.6"/>
	<g>
		<path class="styled-2" d="M301.2,1085.8c0,0.2,0,0.5-0.2,0.6l0,0c-0.2,0.1-0.5,0.2-0.7,0.1c-0.2-0.1-0.4-0.2-0.4-0.5l-9.2-27.7H114.5
			l-6.6,27.7v194.3l8.4,28.3l175.9-0.4l7.7-27.8c0.1-0.2,0.2-0.4,0.5-0.4c0.2,0,0.4,0,0.6,0.1c0.1,0.1,0.4,0.4,0.4,0.6v193.6h136
			l0,0l31.1-9.2v-176l-31.1-8.1c-0.2-0.1-0.4-0.4-0.4-0.6v-0.6c0-0.2,0.1-0.4,0.2-0.5c0.2-0.1,0.5-0.2,0.7-0.1
			c0.2,0.1,0.4,0.4,0.4,0.5H631v-31.6h-91.7c-2.1,0-4.1-0.2-6-0.9c-13-2.7-22.7-12.5-22.7-24.1v-79.9c0-11.5,9.4-21.1,22.3-24.1
			c2-0.6,4.1-1,6.3-1H631v-31.6H437.7c-0.1,0-0.4-0.1-0.5-0.2c-0.1-0.1-0.2-0.4-0.2-0.6s0.1-0.4,0.4-0.5l31.3-8.2V901.1l-31.3-9.2
			h-136v193.9L301.2,1085.8L301.2,1085.8z"/>
		<polyline class="styled-3" points="107.2,1279.9 57.8,1269.6 57.8,1092.5 107.5,1086.3 		"/>
		<polyline class="styled-3" points="632,1248.9 694.9,1250.6 694.9,1280.1 631.8,1281.2 		"/>
		<polyline class="styled-2" points="632,1248.9 694.9,1250.6 694.9,1280.1 631.8,1281.2 		"/>
		<polyline class="styled-3" points="632,1086.3 694.9,1088 694.9,1117.4 631.8,1118.5 		"/>
		<polyline class="styled-2" points="631.8,1118.5 694.9,1117.4 694.9,1088 632,1086.3 		"/>
		<polyline class="styled-3" points="301.9,890.8 309.1,849.3 431.8,849.3 436.1,891.2 		"/>
		<polyline class="styled-2" points="300.6,890.8 309.1,849.3 431.8,849.3 436.1,891.2 		"/>
		<polyline class="styled-3" points="436.1,1475.9 429,1517.5 306.2,1517.5 301.9,1475.6 		"/>
		<polyline class="styled-2" points="436.1,1475.9 429,1517.5 306.2,1517.5 300.6,1475.6 		"/>
	</g>
	<g>
		<g>
			<path id="SVG_CLIP_7_" class="styled-4" d="M107.2,1281.1h524.4l-0.1-32.9h-92.1c-2.1,0-4.1-0.2-6-0.9c-13-2.7-22.7-12.5-22.7-24.1v-79.9
				c0-11.5,9.4-21.1,22.3-24.1c2-0.6,4.1-1,6.3-1h91.9l-0.2-32.7H106.7L107.2,1281.1z"/>
		</g>
		<g>
			<g>
				<g>
					<defs>
						<path id="SVG_CLIP_2_" d="M107.2,1281.1h524.4l-0.1-32.9h-92.1c-2.1,0-4.1-0.2-6-0.9c-13-2.7-22.7-12.5-22.7-24.1v-79.9
							c0-11.5,9.4-21.1,22.3-24.1c2-0.6,4.1-1,6.3-1h91.9l-0.2-32.7H106.7L107.2,1281.1z"/>
					</defs>
					<clipPath id="SVG_CLIP_3_">
						<use xlink:href="#SVG_CLIP_2_"  style="overflow:visible;"/>
					</clipPath>
					<rect x="106.7" y="1085.5" class="styled-6" width="524.9" height="195.5"/>
				</g>
			</g>
		</g>
	</g>
	<g>
		<g>
			<path id="SVG_CLIP_9_" class="styled-4" d="M437.7,1475.1V891.3h-137v583.8H437.7z"/>
		</g>
		<g>
			<g>
				<g>
					<defs>
						<rect id="SVG_CLIP_4_" x="300.6" y="891.3" width="137" height="583.8"/>
					</defs>
					<clipPath id="SVG_CLIP_5_">
						<use xlink:href="#SVG_CLIP_4_"  style="overflow:visible;"/>
					</clipPath>
					<rect x="300.6" y="891.3" class="styled-7" width="137" height="583.8"/>
				</g>
			</g>
		</g>
	</g>
	<path class="styled-2" d="M437.7,1475.1V891.3h-137v583.8H437.7z"/>
	<line class="styled-8" x1="416.6" y1="955.3" x2="392.6" y2="925.4"/>
	<line class="styled-8" x1="392.6" y1="1441.2" x2="416.6" y2="1411.3"/>
	<g>
		<path class="styled-3" d="M107.6,1236v-98c0-3.1,1.5-4,5-1.9l18.6,15.5c2.5,3.5,3.7,6.6,3.7,8.7v53.3c0,2.1-1.2,5.2-3.7,8.7l-18.6,15.5
			C109.3,1239.9,107.6,1239.1,107.6,1236"/>
		<path class="styled-9" d="M107.6,1236v-98c0-3.1,1.5-4,5-1.9l18.6,15.5c2.5,3.5,3.7,6.6,3.7,8.7v53.3c0,2.1-1.2,5.2-3.7,8.7l-18.6,15.5
			C109.3,1239.9,107.6,1239.1,107.6,1236z"/>
	</g>
	<line class="styled-10" x1="480.7" y1="1410.7" x2="452.2" y2="1410.7"/>
	<path d="M634.5,1285.4c0,1.4-1.1,2.5-2.5,2.5s-2.5-1.1-2.5-2.5s1.1-2.5,2.5-2.5C633.4,1283,634.5,1284.1,634.5,1285.4"/>
	<line class="styled-10" x1="632" y1="1302.2" x2="632" y2="1285.4"/>
	<path class="styled-11" d="M437,1472.1c1.4,0,2.5,1.1,2.5,2.5s-1.1,2.5-2.5,2.5s-2.5-1.1-2.5-2.5C434.6,1473.2,435.7,1472.1,437,1472.1"
		/>
	<line class="styled-10" x1="450.1" y1="1488.6" x2="437" y2="1474.6"/>
	<path class="styled-11" d="M437,888.3c1.4,0,2.5,1.1,2.5,2.5s-1.1,2.5-2.5,2.5s-2.5-1.1-2.5-2.5C434.6,889.4,435.7,888.3,437,888.3"/>
	<line class="styled-10" x1="450.1" y1="874.3" x2="437" y2="890.8"/>
	<polygon class="styled-11" points="456.5,1416.4 443.5,1410.8 456.4,1405.4 	"/>
	<g>
		<path class="styled-2" d="M367,1428.4c-7.4,0-13.5-6.1-13.5-13.5s6.1-13.5,13.5-13.5s13.5,6.1,13.5,13.5
			C380.5,1422.5,374.4,1428.4,367,1428.4"/>
		<path class="styled-2" d="M367,964.8c-7.4,0-13.5-6.1-13.5-13.5s6.1-13.4,13.5-13.4s13.5,6.1,13.5,13.4
			C380.5,958.8,374.4,964.8,367,964.8"/>
	</g>
	<g>
		<text transform="matrix(0 -1 1 0 496.2637 1455.4375)" class="styled-12 styled-13">Cut slits to insert ends</text>
		<text transform="matrix(0 -1 1 0 514.1229 1455.4375)" class="styled-12 styled-13">of facemask</text>
	</g>
	<g>
		<text transform="matrix(0 -1 1 0 465.4082 881.0625)" class="styled-12 styled-14">Fold</text>
	</g>
	<g>
		<text transform="matrix(0 -1 1 0 465.4082 1510.3711)" class="styled-12 styled-14">Fold</text>
	</g>
	<g>
		<text transform="matrix(0 -1 1 0 633.7627 1331.7832)" class="styled-12 styled-14">Fold</text>
	</g>
	<polygon class="styled-2" points="107.5,1086.3 57.8,1092.5 57.8,1269.6 107.2,1279.9 	"/>
	<g>
		<text transform="matrix(0 -1 1 0 89.2645 1213.1191)" class="styled-15 styled-16">HELMET</text>
	</g>
	<path d="M614.3,1350.2"/>
	<path class="styled-17" d="M614.3,1350.2"/>
	<circle class="styled-18" cx="367" cy="1415" r="13.5"/>
	<circle class="styled-18" cx="367" cy="951.3" r="13.5"/>
	<path class="styled-19" d="M119.6,1189.9v2l4.2-2.2v-2l-0.5,0.2l-2.2-1.2v-0.5l-0.6,0.2l-0.9-0.5v1.5l0.7,0.4v1.7L119.6,1189.9z
		 M121,1188.3l0.9,0.4l-0.9,0.4V1188.3z M119.6,1163.5c0-1.7,0.4-2.6,0.4-2.6l-0.4-0.9h2c0,0-1,1.2-1,3c0,0.5,0.1,0.7,0.4,0.7
		c0.6,0,0.4-3.7,2.5-3.7c0.9,0,1.7,1.4,1.7,3c0,1.4-0.4,2.2-0.4,2.2l0.4,0.9h-1.7c0,0,0.7-1,0.7-2.7c0-0.5-0.1-0.7-0.4-0.7
		c-0.6,0-0.4,4-2.5,4C120.2,1166.6,119.6,1165,119.6,1163.5 M122.9,1169.6h-0.7v2.7h-0.9v-2.7h-0.7v2.7h-0.9v-5.2l0.7,0.5h2.9
		l0.7-0.5v5.2h-0.9v-2.7H122.9z M123.9,1185.5h-4.2v-1.9h1.6v-1.6h-1.6v-2.4l0.7,0.5h2.9l0.7-0.5v2.4h-1.6v1.6h1.6L123.9,1185.5
		L123.9,1185.5z M119.6,1210.7c0-1.4,0.2-2,0.2-2l-0.2-0.6h1.6c0,0-0.7,1-0.7,2.4c0,0.4,0.1,0.6,0.4,0.6c0.5,0,0.2-2.9,2-2.9
		c0.7,0,1.4,1,1.4,2.4c0,1.1-0.2,1.7-0.2,1.7l0.2,0.6h-1.4c0,0,0.6-0.7,0.6-2.1c0-0.4-0.1-0.6-0.4-0.6c-0.5,0-0.2,3.1-2,3.1
		C120.1,1213.1,119.6,1211.9,119.6,1210.7 M119.6,1176.9v2l4.2-2.2v-2l-0.5,0.2l-2.2-1.2v-0.6l-0.6,0.2l-0.9-0.5v1.5l0.7,0.4v1.6
		L119.6,1176.9z M121,1175.3l0.9,0.4l-0.9,0.4V1175.3z M120.2,1198.5l-0.6,0.2v-1.9l2.2-1.1l-1.7-0.9l-0.6,0.2v-1.9l4.2-2v1.9
		l-2.2,1.1l1.7,0.9l0.6-0.2v1.9l-2.2,1.1l2.2,1.1v1.4L120.2,1198.5z M121.3,1203.8l-0.4-0.5h-1.2v-2.5l0.7,0.5h2.9l0.7-0.5v2.5h-2
		l1.4,1.6l0.6-0.4v2.2l-1.5-1.7l-2.7,2.1v-2.1L121.3,1203.8z"/>
	<path class="styled-3" d="M218,1183c1.4-1.1,2.6-2.6,3.6-4.5c0.9-1.6,1.6-3.6,2.2-5.8c2.5-9.7,3.8-16.7,4.8-21.3c0.2-1.1,0.4-2,0.6-2.9
		c0.9-4.2,7.6-20.8,7.6-21c0.1-0.4,8.6-20.5,10.5-25.7l7.4-15.9h-8.6l0.6-0.2l-44.5-0.4l-8.2,16.1l-2.6,4.8
		c-0.9,1.6-1.9,3.5-3.1,5.6l-1,1.9l0,0c0,0,0,0,0,0.1c-1.2,2.7-2.1,4.8-2.5,6.4c-0.7,3.1-2.4,11.5-4.1,20.6
		c-1.6,8.3-3.2,17-4.2,21.2c-1,4.3-2.6,8.8-4.5,12.2c-1,1.9-2,3.3-3,4.5l-0.2,0.2c-2,2-8.6,4.1-8.6,4.1"/>
	<path class="styled-3" d="M160.7,1183.2l-0.2,0.1c0,0,6.7,2.1,8.7,4.1l0.2,0.2c1,1.1,2,2.6,3,4.5c1.9,3.5,3.5,7.9,4.5,12.2
		c1,4.2,2.6,12.9,4.2,21.2c1.7,8.9,3.3,17.4,4.1,20.6c0.4,1.6,1.2,3.7,2.5,6.4c0,0,0,0,0,0.1l0,0l1,1.9c1.1,2,2.1,4,3.1,5.6l2.6,4.8
		l8.2,16.1l44.5-0.4l-0.6-0.2h8.6l-7.4-15.9c-2-5.2-10.4-25.3-10.5-25.7c0-0.1-6.7-16.7-7.6-21c-0.1-0.9-0.4-1.7-0.6-2.9
		c-0.9-4.6-2.4-11.7-4.8-21.3c-0.6-2.2-1.4-4.2-2.2-5.8c-1-1.9-2.1-3.3-3.6-4.5l-0.5-0.2l0.5-0.2"/>
	<g>
		<g>
			<g>
				<g>
					<defs>
						<rect id="SVG_CLIP_6_" x="301.9" y="968.6" width="124.9" height="71.9"/>
					</defs>
					<clipPath id="SVG_CLIP_8_">
						<use xlink:href="#SVG_CLIP_6_"  style="overflow:visible;"/>
					</clipPath>
					<g class="styled-20">
						<path class="styled-3" d="M396.4,984.4c-7.4,1.5-17.1,1.9-21.3,1.9h-98c-6.1,0-12.4,0-15.6,5c-3.2,5.1-1.5,10,4.1,20
							c0.4,0.7,17.2,32.2,17.2,32.2s1.7-2.1,3.5-3.5c1.7-1.4,3.5-2.1,8.2-2.1c8.3,0,61.9,0.1,62.4,0.1c10.9,0,21.8-1.1,29-8.9
							c3.7-0.4,15.6-2,25.4-6.7c5.7-2.7,9.5-6.8,11-11.9c0.5-1.5,0.6-3.1,0.6-4.7c0-4.7-1.7-10-5.3-15.5
							c-7.3-11.5-14.1-15.6-14.5-15.9c-4.2-3-8.3-3.1-8.3-3.1s3.6,4.2,4.8,8.3C401,983.9,396.4,984.4,396.4,984.4"/>
						<path class="styled-4" d="M410,1020c-11.2,5.3-25.5,6.6-25.5,6.6c-6.3,7.7-16.9,8.8-27.7,8.8c0,0-53.9-0.1-62.4-0.1
							c-9.8,0-10.8,3.8-10.8,3.8l-13.1-24.6h34c10.7,0,11.3,1.1,18.4,6.3c7.6,5.6,13.5,7.6,20.7,7.6c7.1,0,11.9-1.6,19.8-5.1
							c7.9-3.5,12.2-5.2,16.9-3.2c0,0-3.7-5-15-0.2c-11.3,4.7-14.3,5.7-21.1,5.7c-6.7,0-14.5-3.2-24.2-12.9l11.5-9.3
							c0,0-2.6-4.1-4.5-6.7c-1.7-2.6-1.6-4.3-0.6-5.7c1-1.2,2.1-1.9,6.3-1.9c4.2,0,38.4,0.1,42.3,0.1c3.3,0,13.8-0.4,21.8-2
							c10.8-2.1,3.8-11.3,3.8-11.3s7.2,4.7,14.4,16C423.2,1004.4,421.2,1014.6,410,1020"/>
						<path class="styled-3" d="M390.2,1017.9c-5.1,1.2-0.7,4.2-0.7,4.2c-7.3-1.5-10-7.4-10.7-9.2c-0.1-0.2-0.2-0.5-0.4-0.7
							c-4.1-8.2-7.7-7.7-14.6-7.7h-11.9c-9.5,0-14.1-4.7-18.7-12.9h5.5c5,7.4,8.7,9.4,18.5,9.9c22.4,0,40.3-6.4,49.7-11.4
							C420.3,1012.8,400.3,1016.6,390.2,1017.9"/>
						<path class="styled-3" d="M348.5,991.8c2.5,3.8,7.6,5.1,15.9,4.6c20.3-1.1,32-5.1,41.1-8.6c-11.2,6.6-31.1,11.3-44.9,11.2
							c-6.8,0-12.7-1.2-16.1-7.3h4.1v0.1H348.5z"/>
						<path class="styled-3" d="M370.2,1014.2c-2.6-3.7-6.1-5-16-4.2c-11.5,0.7-8.6,5.6-7.2,8.1l0,0c0.4,0.6,1,1.9,1.6,3
							c-8.8,0.5-15.3-6.2-15.3-6.2c6.6-6.4,10.9-7.2,16.9-7.2h11c10.3,0,12.8,4.6,13.8,6.7C373.3,1014,371.7,1014,370.2,1014.2"/>
						<path class="styled-21" d="M365.2,1015.3c-0.2,0.1-0.4,0.1-0.6,0.2c-1-1.1-2.7-1.7-4.5-1.5c-2.2,0.2-3.5,1.9-2.9,3.6
							c0.1,0.2,0.2,0.5,0.4,0.7c-1.1,0.5-2.2,0.9-3.3,1.2c-2.2-3.7-3.6-6.2,4.3-6.8c5-0.4,6.3,0.4,7.3,2.2
							C365.6,1015.1,365.5,1015.2,365.2,1015.3"/>
						<path class="styled-5" d="M325.4,1001.2c-4.1-7.1-5.7-8.7-2.9-12.2h-45.4c-6.7,0-11,0.2-13.3,3.7c-2.2,3.3-1.7,6.6,4.1,17.1h38.6
							c6.7,0,8.3-0.4,11.9-3.2C322.2,1003.9,325.4,1001.2,325.4,1001.2"/>
					</g>
				</g>
			</g>
		</g>
	</g>
	<g>
		<g>
			<g>
				<g>
					<defs>
						<rect id="SVG_CLIP_10_" x="302.4" y="1321.7" width="124.9" height="71.9"/>
					</defs>
					<clipPath id="SVG_CLIP_11_">
						<use xlink:href="#SVG_CLIP_10_"  style="overflow:visible;"/>
					</clipPath>
					<g class="styled-22">
						<path class="styled-3" d="M396.9,1377.7c-7.4-1.5-17.1-1.9-21.3-1.9h-98c-6.1,0-12.4,0-15.6-5c-3.2-5.1-1.5-10,4.1-20
							c0.4-0.7,17.2-32.2,17.2-32.2s1.7,2.1,3.5,3.5c1.7,1.4,3.5,2.1,8.2,2.1c8.3,0,61.9-0.1,62.4-0.1c10.9,0,21.8,1.1,29,8.9
							c3.7,0.4,15.6,2,25.4,6.7c5.7,2.7,9.5,6.8,11,11.9c0.5,1.5,0.6,3.1,0.6,4.7c0,4.7-1.7,10-5.3,15.5
							c-7.3,11.5-14.1,15.6-14.5,15.9c-4.2,3-8.3,3.1-8.3,3.1s3.6-4.2,4.8-8.3C401.3,1378.2,396.9,1377.7,396.9,1377.7"/>
						<path class="styled-4" d="M410.4,1342.2c-11.2-5.3-25.5-6.6-25.5-6.6c-6.3-7.7-16.9-8.8-27.7-8.8c0,0-53.9,0.1-62.4,0.1
							c-9.8,0-10.8-3.8-10.8-3.8l-13.1,24.6h34c10.7,0,11.3-1.1,18.4-6.3c7.6-5.6,13.5-7.6,20.7-7.6c7.1,0,11.9,1.6,19.8,5.1
							s12.2,5.2,16.9,3.2c0,0-3.7,5-15,0.2s-14.3-5.7-21.1-5.7c-6.7,0-14.5,3.2-24.2,12.9l11.5,9.3c0,0-2.6,4.1-4.5,6.7
							c-1.7,2.6-1.6,4.3-0.6,5.7c1,1.2,2.1,1.9,6.3,1.9c4.2,0,38.4-0.1,42.3-0.1c3.3,0,13.8,0.4,21.8,2c10.8,2.1,3.8,11.3,3.8,11.3
							s7.2-4.7,14.4-16C423.5,1357.9,421.5,1347.6,410.4,1342.2"/>
						<path class="styled-3" d="M390.5,1344.2c-5.1-1.2-0.7-4.2-0.7-4.2c-7.3,1.5-10,7.4-10.7,9.2c-0.1,0.2-0.2,0.5-0.4,0.7
							c-4.1,8.2-7.7,7.7-14.6,7.7h-11.9c-9.5,0-14.1,4.7-18.7,12.9h5.5c5-7.4,8.7-9.4,18.5-9.9c22.4,0,40.3,6.4,49.7,11.4
							C420.7,1349.4,400.8,1345.6,390.5,1344.2"/>
						<path class="styled-3" d="M348.9,1370.4c2.5-3.8,7.6-5.1,15.9-4.6c20.3,1.1,32,5.1,41.1,8.6c-11.2-6.6-31.1-11.3-44.9-11.2
							c-6.8,0-12.7,1.2-16.1,7.3h4.1v-0.1H348.9z"/>
						<path class="styled-3" d="M370.6,1348.1c-2.6,3.7-6.1,5-16,4.2c-11.5-0.7-8.6-5.6-7.2-8.1l0,0c0.4-0.6,1-1.9,1.6-3
							c-8.8-0.5-15.3,6.2-15.3,6.2c6.6,6.4,10.9,7.2,16.9,7.2h11c10.3,0,12.8-4.6,13.8-6.7C373.8,1348.2,372.2,1348.2,370.6,1348.1"
							/>
						<path class="styled-21" d="M365.6,1347c-0.2-0.1-0.4-0.1-0.6-0.2c-1,1.1-2.7,1.7-4.5,1.5c-2.2-0.2-3.5-1.9-2.9-3.6
							c0.1-0.2,0.2-0.5,0.4-0.7c-1.1-0.5-2.2-0.9-3.3-1.2c-2.2,3.7-3.6,6.2,4.3,6.8c5,0.4,6.3-0.4,7.3-2.2
							C366.1,1347.1,365.9,1347.1,365.6,1347"/>
						<path class="styled-5" d="M325.8,1361c-4.1,7.1-5.7,8.7-2.9,12.2h-45.4c-6.7,0-11-0.2-13.3-3.7c-2.2-3.3-1.7-6.6,4.1-17.1h38.6
							c6.7,0,8.3,0.4,11.9,3.2C322.6,1358.2,325.8,1361,325.8,1361"/>
					</g>
				</g>
			</g>
		</g>
	</g>
	<path class="styled-4" d="M212.3,1183.2c3.1,0,7.3,2.2,9.8,11.2c3.3,11.8,4.5,19.6,5.3,24.1c0.1,0.4,0.1,0.7,0.4,1.2l0,0
		c1,3.6,3.3,10.3,5.1,15h0.1l8.1,21.7l10.9,23.9l-21.3,0.2c-11-27.4-20-46-22.3-54.6c-3-10.7-5.7-38.9-14.8-42.9l0,0
		c9.1-4,11.8-32.1,14.8-42.9c2.5-8.6,11.3-27.3,22.3-54.7l21.5,0.2l-10.9,23.9l-8.1,21.7H233c-1.7,4.7-4.1,11.4-5.1,15l0,0
		c-0.1,0.5-0.2,1-0.4,1.2c-0.9,4.5-2.1,12.3-5.3,24.1C219.5,1181.1,215.3,1183.2,212.3,1183.2L212.3,1183.2z"/>
	<path class="styled-5" d="M180.8,1183.2c1.4,0,2.2-0.1,2.9-0.1c2.6-0.2,11.7-0.9,14.8-11.3c3.1-10.9,5.5-22.7,6.2-27.3
		c1.2-7.4,12-34.4,13.1-36.3c1.6-3.1,8.8-22.3,8.8-22.3l-21.1-0.4l-8.6,17.5c-0.4,0.6-7.2,13-9.1,18.4c-2,5.8-6.1,33.2-8.1,41.9
		c-2,8.7-7.7,18.4-12.3,20"/>
	<path class="styled-5" d="M180.8,1183.2c1.4,0,2.2,0.1,2.9,0.1c2.6,0.2,11.7,0.9,14.8,11.3c3.1,10.9,5.5,22.7,6.2,27.3
		c1.2,7.4,12,34.4,13.1,36.3c1.6,3.1,9.2,22.4,9.2,22.4l-21.3,0.5l-8.7-17.7c-0.4-0.6-7.2-13-9.1-18.4c-2-5.8-6.1-33.2-8.1-41.9
		c-2-8.7-7.7-18.4-12.3-20"/>
	
		<pattern  id="SVG_CLIP_12_" xlink:href="#SVG_CLIP_13_" patternTransform="matrix(0 5.943391e-02 -5.943391e-02 0 -33037.0469 -893.4152)">
	</pattern>
	<polygon class="styled-23" points="487.5,1207.2 219.6,1183.2 487.4,1160.5 	"/>
	<path class="styled-24" d="M367,1428.4c-7.4,0-13.5-6.1-13.5-13.5s6.1-13.5,13.5-13.5s13.5,6.1,13.5,13.5
		C380.5,1422.5,374.4,1428.4,367,1428.4"/>
	<path class="styled-24" d="M367,964.8c-7.4,0-13.5-6.1-13.5-13.5s6.1-13.4,13.5-13.4s13.5,6.1,13.5,13.4
		C380.5,958.8,374.4,964.8,367,964.8"/>
	<rect x="487.5" y="1161" class="styled-9" width="17" height="45.8"/>
	<rect x="487.5" y="1161" class="styled-3" width="17" height="45.8"/>
	<path class="styled-19" d="M497.9,1181.4v-1.5l-3.2,1.7v1.6l0.4-0.2l1.7,1v0.5l0.5-0.2l0.6,0.4v-1.2l-0.5-0.2v-1.2L497.9,1181.4z
		 M496.8,1182.6l-0.6-0.4l0.6-0.4V1182.6z M498.1,1201.7c0,1.4-0.2,2-0.2,2l0.2,0.6h-1.6c0,0,0.7-1,0.7-2.4c0-0.4-0.1-0.6-0.2-0.6
		c-0.5,0-0.2,2.9-1.9,2.9c-0.7,0-1.4-1-1.4-2.2c0-1.1,0.2-1.7,0.2-1.7l-0.2-0.6h1.4c0,0-0.5,0.7-0.5,2.1c0,0.4,0.1,0.6,0.2,0.6
		c0.5,0,0.2-3.1,1.9-3.1C497.6,1199.2,498.1,1200.5,498.1,1201.7 M495.3,1197h0.6v-2.1h0.7v2.1h0.6v-2.1h0.7v4l-0.6-0.4h-2.1
		l-0.5,0.4v-4h0.7v2.1H495.3z M494.7,1184.9h3.2v1.5h-1.2v1.2h1.2v1.9l-0.6-0.4h-2.1l-0.5,0.4v-1.9h1.2v-1.2h-1.2V1184.9z
		 M498.1,1165.5c0,1.1-0.2,1.5-0.2,1.5l0.2,0.5h-1.2c0,0,0.6-0.7,0.6-1.9c0-0.4-0.1-0.5-0.2-0.5c-0.4,0-0.2,2.2-1.5,2.2
		c-0.5,0-1-0.7-1-1.7c0-0.9,0.1-1.4,0.1-1.4l-0.1-0.5h1.1c0,0-0.5,0.6-0.5,1.6c0,0.2,0.1,0.5,0.2,0.5c0.4,0,0.2-2.4,1.5-2.4
		C497.6,1163.6,498.1,1164.6,498.1,1165.5 M497.9,1191.4v-1.6l-3.2,1.7v1.6l0.4-0.1l1.7,0.9v0.5l0.5-0.2l0.6,0.4v-1.2l-0.5-0.2v-1.2
		L497.9,1191.4z M496.8,1192.7l-0.6-0.4l0.6-0.4V1192.7z M497.4,1174.8l0.5-0.2v1.4l-1.7,0.9l1.4,0.6l0.5-0.2v1.5l-3.2,1.5v-1.4
		l1.7-0.9l-1.4-0.6l-0.5,0.2v-1.5l1.7-0.9l-1.7-0.9v-1L497.4,1174.8z M496.7,1170.7l0.4,0.4h1v1.9l-0.6-0.4h-2.1l-0.5,0.4v-1.9h1.5
		l-1-1.2l-0.5,0.2v-1.7l1.1,1.4l2.1-1.6v1.6L496.7,1170.7z"/>
	<polyline class="styled-2" points="631.5,1281.1 107.2,1281.1 300,1281.2 	"/>
	<line class="styled-2" x1="107.2" y1="1085.1" x2="631.5" y2="1085.1"/>
	<g>
		<path class="styled-11" d="M282.5,988.4c0.5,2.4,0.9,4.7,0.9,7.2c0,17-13.8,30.8-30.8,30.8c-14.9,0-27.2-10.4-30.1-24.4
			c0,0,2.6-42.5-34.6-54.9s-72.8,33.5-72.8,33.5L101.8,940l38.8-50.6h49.6c0,0,32.6-0.6,61.6,32.5S282.5,988.4,282.5,988.4"/>
		<path class="styled-25" d="M282.5,988.4c0.5,2.4,0.9,4.7,0.9,7.2c0,17-13.8,30.8-30.8,30.8c-14.9,0-27.2-10.4-30.1-24.4
			c0,0,2.6-42.5-34.6-54.9s-72.8,33.5-72.8,33.5L101.8,940l38.8-50.6h49.6c0,0,32.6-0.6,61.6,32.5S282.5,988.4,282.5,988.4z"/>
		<path class="styled-11" d="M174.2,954.7l-33.5-66.1c0,0-37.1,8.8-60.8,37.5c-33.5,40.6-36.8,86.7-1.9,102.3
			c26.7,11.9,47.6-9.1,55.2-26.8C147.6,967.7,174.2,954.7,174.2,954.7"/>
		<path class="styled-25" d="M174.2,954.7l-33.5-66.1c0,0-37.1,8.8-60.8,37.5c-33.5,40.6-36.8,86.7-1.9,102.3
			c26.7,11.9,47.6-9.1,55.2-26.8C147.6,967.7,174.2,954.7,174.2,954.7z"/>
	</g>
	<g>
		<g>
			<g>
				<g>
					<defs>
						<path id="SVG_CLIP_14_" d="M115.2,980.5c0,0,35.6-45.9,72.8-33.5s34.6,54.9,34.6,54.9c3,14,15.3,24.4,30.1,24.4
							c17,0,30.8-13.8,30.8-30.8c0-2.5-0.2-5-0.9-7.2c0,0-1.6-33.5-30.5-66.6s-61.6-32.5-61.6-32.5h-49.6l-38.8,50.6L115.2,980.5z"
							/>
					</defs>
					<clipPath id="SVG_CLIP_15_">
						<use xlink:href="#SVG_CLIP_14_"  style="overflow:visible;"/>
					</clipPath>
					<path class="styled-26" d="M161.5,955.3l-28.6-69.8l74-0.9c0,0,43.4,14.5,64.9,48.7c21.5,34.4,24.4,62.4,10.8,85.9
						c-13.6,23.5-47.1,14.9-57.4,3.7c-10.3-11.2-12.8-23.9-13.6-26c-0.9-2.1-4.6-28.5-4.6-28.5l-25.2-9.5l-15.3,5L161.5,955.3z"/>
				</g>
			</g>
		</g>
		<g>
			<g>
				<g>
					<defs>
						<path id="SVG_CLIP_16_" d="M115.2,980.5c0,0,35.6-45.9,72.8-33.5s34.6,54.9,34.6,54.9c3,14,15.3,24.4,30.1,24.4
							c17,0,30.8-13.8,30.8-30.8c0-2.5-0.2-5-0.9-7.2c0,0-1.6-33.5-30.5-66.6s-61.6-32.5-61.6-32.5h-49.6l-38.8,50.6L115.2,980.5z"
							/>
					</defs>
					<clipPath id="SVG_CLIP_17_">
						<use xlink:href="#SVG_CLIP_16_"  style="overflow:visible;"/>
					</clipPath>
					<path class="styled-27" d="M362.6,1454c-7.4,0-13.5-6.1-13.5-13.5s6.1-13.5,13.5-13.5s13.5,6.1,13.5,13.5
						C376,1448,370,1454,362.6,1454"/>
				</g>
			</g>
		</g>
		<g>
			<g>
				<g>
					<defs>
						<path id="SVG_CLIP_18_" d="M115.2,980.5c0,0,35.6-45.9,72.8-33.5s34.6,54.9,34.6,54.9c3,14,15.3,24.4,30.1,24.4
							c17,0,30.8-13.8,30.8-30.8c0-2.5-0.2-5-0.9-7.2c0,0-1.6-33.5-30.5-66.6s-61.6-32.5-61.6-32.5h-49.6l-38.8,50.6L115.2,980.5z"
							/>
					</defs>
					<clipPath id="SVG_CLIP_19_">
						<use xlink:href="#SVG_CLIP_18_"  style="overflow:visible;"/>
					</clipPath>
					<path class="styled-28" d="M362.6,990.4c-7.4,0-13.5-6.1-13.5-13.5s6.1-13.4,13.5-13.4s13.5,6.1,13.5,13.4
						C376,984.3,370,990.4,362.6,990.4"/>
				</g>
			</g>
		</g>
		<g>
			<g>
				<g>
					<defs>
						<path id="SVG_CLIP_20_" d="M115.2,980.5c0,0,35.6-45.9,72.8-33.5s34.6,54.9,34.6,54.9c3,14,15.3,24.4,30.1,24.4
							c17,0,30.8-13.8,30.8-30.8c0-2.5-0.2-5-0.9-7.2c0,0-1.6-33.5-30.5-66.6s-61.6-32.5-61.6-32.5h-49.6l-38.8,50.6L115.2,980.5z"
							/>
					</defs>
					<clipPath id="SVG_CLIP_21_">
						<use xlink:href="#SVG_CLIP_20_"  style="overflow:visible;"/>
					</clipPath>
					<path class="styled-29" d="M187,888.1l0.1,75.4l-68.8-27.2c0,0-34.7-29.8-41.7-69.7c-6.9-39.9,1-67,22.4-83.7
						c21.6-16.7,49.2,4,54.6,18.2c5.3,14.3,2.9,27,2.9,29.3s-6.6,28.2-6.6,28.2l19.7,18.4l16,1.1L187,888.1z"/>
				</g>
			</g>
		</g>
		<g>
			<g>
				<g>
					<defs>
						<path id="SVG_CLIP_22_" d="M115.2,980.5c0,0,35.6-45.9,72.8-33.5s34.6,54.9,34.6,54.9c3,14,15.3,24.4,30.1,24.4
							c17,0,30.8-13.8,30.8-30.8c0-2.5-0.2-5-0.9-7.2c0,0-1.6-33.5-30.5-66.6s-61.6-32.5-61.6-32.5h-49.6l-38.8,50.6L115.2,980.5z"
							/>
					</defs>
					<clipPath id="SVG_CLIP_23_">
						<use xlink:href="#SVG_CLIP_22_"  style="overflow:visible;"/>
					</clipPath>
					<path class="styled-30" d="M223.9,1007.4l33.9-2.9c0,0,9.1-3.3,7.4-11.5c-1.6-8.3-10.3-9.1-10.3-9.1l-10.8,1.2c0,0-1.2-6.2-8.7-8.7
						s-15.8,3.7-15.8,3.7"/>
				</g>
			</g>
		</g>
		<g>
			<g>
				<g>
					<defs>
						<path id="SVG_CLIP_24_" d="M115.2,980.5c0,0,35.6-45.9,72.8-33.5s34.6,54.9,34.6,54.9c3,14,15.3,24.4,30.1,24.4
							c17,0,30.8-13.8,30.8-30.8c0-2.5-0.2-5-0.9-7.2c0,0-1.6-33.5-30.5-66.6s-61.6-32.5-61.6-32.5h-49.6l-38.8,50.6L115.2,980.5z"
							/>
					</defs>
					<clipPath id="SVG_CLIP_25_">
						<use xlink:href="#SVG_CLIP_24_"  style="overflow:visible;"/>
					</clipPath>
					<path class="styled-31" d="M250.8,1025.6c0,0,7.8-10.3-3.7-20.2"/>
				</g>
			</g>
		</g>
		<g>
			<g>
				<g>
					<defs>
						<path id="SVG_CLIP_26_" d="M115.2,980.5c0,0,35.6-45.9,72.8-33.5s34.6,54.9,34.6,54.9c3,14,15.3,24.4,30.1,24.4
							c17,0,30.8-13.8,30.8-30.8c0-2.5-0.2-5-0.9-7.2c0,0-1.6-33.5-30.5-66.6s-61.6-32.5-61.6-32.5h-49.6l-38.8,50.6L115.2,980.5z"
							/>
					</defs>
					<clipPath id="SVG_CLIP_27_">
						<use xlink:href="#SVG_CLIP_26_"  style="overflow:visible;"/>
					</clipPath>
					<path class="styled-32" d="M261.9,1024.7c0,0,7.8-10.3-3.7-20.2"/>
				</g>
			</g>
		</g>
		<g>
			<g>
				<g>
					<defs>
						<path id="SVG_CLIP_28_" d="M115.2,980.5c0,0,35.6-45.9,72.8-33.5s34.6,54.9,34.6,54.9c3,14,15.3,24.4,30.1,24.4
							c17,0,30.8-13.8,30.8-30.8c0-2.5-0.2-5-0.9-7.2c0,0-1.6-33.5-30.5-66.6s-61.6-32.5-61.6-32.5h-49.6l-38.8,50.6L115.2,980.5z"
							/>
					</defs>
					<clipPath id="SVG_CLIP_29_">
						<use xlink:href="#SVG_CLIP_28_"  style="overflow:visible;"/>
					</clipPath>
					<path class="styled-33" d="M272.2,1018c0,0,8.7-12.3-7.1-20.1"/>
				</g>
			</g>
		</g>
		<g>
			<g>
				<g>
					<defs>
						<path id="SVG_CLIP_30_" d="M115.2,980.5c0,0,35.6-45.9,72.8-33.5s34.6,54.9,34.6,54.9c3,14,15.3,24.4,30.1,24.4
							c17,0,30.8-13.8,30.8-30.8c0-2.5-0.2-5-0.9-7.2c0,0-1.6-33.5-30.5-66.6s-61.6-32.5-61.6-32.5h-49.6l-38.8,50.6L115.2,980.5z"
							/>
					</defs>
					<clipPath id="SVG_CLIP_31_">
						<use xlink:href="#SVG_CLIP_30_"  style="overflow:visible;"/>
					</clipPath>
					<polygon class="styled-34" points="210.7,976 275.2,940 256.1,914.4 203.3,965.2 					"/>
				</g>
			</g>
		</g>
	</g>
	<g>
		<path class="styled-3" d="M174.2,954.7l-33.5-66.1c0,0-37.1,8.8-60.8,37.5c-33.5,40.6-36.8,86.7-1.9,102.3
			c26.7,11.9,47.6-9.1,55.2-26.8C147.6,967.7,174.2,954.7,174.2,954.7"/>
		<path class="styled-11" d="M282.5,787.4c0.5-2.4,0.9-4.7,0.9-7.2c0-17-13.8-30.8-30.8-30.8c-14.9,0-27.2,10.4-30.1,24.4
			c0,0,2.6,42.5-34.6,54.9c-37.2,12.4-72.8-33.5-72.8-33.5l-13.3,40.6l38.8,50.6h49.6c0,0,32.6,0.6,61.6-32.5
			S282.5,787.4,282.5,787.4"/>
		<path class="styled-25" d="M282.5,787.4c0.5-2.4,0.9-4.7,0.9-7.2c0-17-13.8-30.8-30.8-30.8c-14.9,0-27.2,10.4-30.1,24.4
			c0,0,2.6,42.5-34.6,54.9c-37.2,12.4-72.8-33.5-72.8-33.5l-13.3,40.6l38.8,50.6h49.6c0,0,32.6,0.6,61.6-32.5
			S282.5,787.4,282.5,787.4z"/>
		<path class="styled-11" d="M174.2,821.1l-33.5,66.1c0,0-37.1-8.8-60.8-37.5C46.4,809.1,43.1,763,78,747.4c26.7-11.9,47.6,9.1,55.2,26.8
			C147.6,808.1,174.2,821.1,174.2,821.1"/>
		<path class="styled-25" d="M174.2,821.1l-33.5,66.1c0,0-37.1-8.8-60.8-37.5C46.4,809.1,43.1,763,78,747.4c26.7-11.9,47.6,9.1,55.2,26.8
			C147.6,808.1,174.2,821.1,174.2,821.1z"/>
	</g>
	<g>
		<g>
			<g>
				<g>
					<defs>
						<path id="SVG_CLIP_32_" d="M140.8,886.5h49.6c0,0,32.6,0.6,61.6-32.5c28.9-33.1,30.5-66.6,30.5-66.6c0.5-2.4,0.9-4.7,0.9-7.2
							c0-17-13.8-30.8-30.8-30.8c-14.9,0-27.2,10.4-30.1,24.4c0,0,2.6,42.5-34.6,54.9c-37.2,12.4-72.8-33.5-72.8-33.5l-13.3,40.6
							L140.8,886.5z"/>
					</defs>
					<clipPath id="SVG_CLIP_33_">
						<use xlink:href="#SVG_CLIP_32_"  style="overflow:visible;"/>
					</clipPath>
					<path class="styled-35" d="M161.5,820.5L133,890.3l74,0.9c0,0,43.4-14.5,64.9-48.7c21.5-34.4,24.4-62.4,10.8-85.9
						c-13.6-23.6-47.1-14.9-57.4-3.7c-10.3,11.2-12.8,23.9-13.6,26c-0.8,2.1-4.6,28.5-4.6,28.5l-25.2,9.5l-15.3-5L161.5,820.5z"/>
				</g>
			</g>
		</g>
		<g>
			<g>
				<g>
					<defs>
						<path id="SVG_CLIP_34_" d="M140.8,886.5h49.6c0,0,32.6,0.6,61.6-32.5c28.9-33.1,30.5-66.6,30.5-66.6c0.5-2.4,0.9-4.7,0.9-7.2
							c0-17-13.8-30.8-30.8-30.8c-14.9,0-27.2,10.4-30.1,24.4c0,0,2.6,42.5-34.6,54.9c-37.2,12.4-72.8-33.5-72.8-33.5l-13.3,40.6
							L140.8,886.5z"/>
					</defs>
					<clipPath id="SVG_CLIP_35_">
						<use xlink:href="#SVG_CLIP_34_"  style="overflow:visible;"/>
					</clipPath>
					<path class="styled-36" d="M187,887.7l0.1-75.4l-68.8,27.2c0,0-34.7,29.8-41.7,69.7c-6.9,39.9,1,67,22.4,83.7
						c21.6,16.7,49.2-4,54.6-18.2c5.3-14.3,2.9-27,2.9-29.3s-6.6-28.2-6.6-28.2l19.7-18.4l16-1.1L187,887.7z"/>
				</g>
			</g>
		</g>
		<g>
			<g>
				<g>
					<defs>
						<path id="SVG_CLIP_36_" d="M140.8,886.5h49.6c0,0,32.6,0.6,61.6-32.5c28.9-33.1,30.5-66.6,30.5-66.6c0.5-2.4,0.9-4.7,0.9-7.2
							c0-17-13.8-30.8-30.8-30.8c-14.9,0-27.2,10.4-30.1,24.4c0,0,2.6,42.5-34.6,54.9c-37.2,12.4-72.8-33.5-72.8-33.5l-13.3,40.6
							L140.8,886.5z"/>
					</defs>
					<clipPath id="SVG_CLIP_37_">
						<use xlink:href="#SVG_CLIP_36_"  style="overflow:visible;"/>
					</clipPath>
					<path class="styled-37" d="M240.8,746.6c0,0,11.9,5.3,6.4,19.6"/>
				</g>
			</g>
		</g>
		<g>
			<g>
				<g>
					<defs>
						<path id="SVG_CLIP_38_" d="M140.8,886.5h49.6c0,0,32.6,0.6,61.6-32.5c28.9-33.1,30.5-66.6,30.5-66.6c0.5-2.4,0.9-4.7,0.9-7.2
							c0-17-13.8-30.8-30.8-30.8c-14.9,0-27.2,10.4-30.1,24.4c0,0,2.6,42.5-34.6,54.9c-37.2,12.4-72.8-33.5-72.8-33.5l-13.3,40.6
							L140.8,886.5z"/>
					</defs>
					<clipPath id="SVG_CLIP_39_">
						<use xlink:href="#SVG_CLIP_38_"  style="overflow:visible;"/>
					</clipPath>
					<path class="styled-38" d="M257,746.8c0,0,11.9,5.3,6.4,19.6"/>
				</g>
			</g>
		</g>
		<g>
			<g>
				<g>
					<defs>
						<path id="SVG_CLIP_40_" d="M140.8,886.5h49.6c0,0,32.6,0.6,61.6-32.5c28.9-33.1,30.5-66.6,30.5-66.6c0.5-2.4,0.9-4.7,0.9-7.2
							c0-17-13.8-30.8-30.8-30.8c-14.9,0-27.2,10.4-30.1,24.4c0,0,2.6,42.5-34.6,54.9c-37.2,12.4-72.8-33.5-72.8-33.5l-13.3,40.6
							L140.8,886.5z"/>
					</defs>
					<clipPath id="SVG_CLIP_41_">
						<use xlink:href="#SVG_CLIP_40_"  style="overflow:visible;"/>
					</clipPath>
					<path class="styled-39" d="M269.4,753.6c0,0,11.9,5.3,6.4,19.6"/>
				</g>
			</g>
		</g>
		<g>
			<g>
				<g>
					<defs>
						<path id="SVG_CLIP_42_" d="M140.8,886.5h49.6c0,0,32.6,0.6,61.6-32.5c28.9-33.1,30.5-66.6,30.5-66.6c0.5-2.4,0.9-4.7,0.9-7.2
							c0-17-13.8-30.8-30.8-30.8c-14.9,0-27.2,10.4-30.1,24.4c0,0,2.6,42.5-34.6,54.9c-37.2,12.4-72.8-33.5-72.8-33.5l-13.3,40.6
							L140.8,886.5z"/>
					</defs>
					<clipPath id="SVG_CLIP_43_">
						<use xlink:href="#SVG_CLIP_42_"  style="overflow:visible;"/>
					</clipPath>
					<polygon class="styled-40" points="210.7,799.8 275.2,835.7 256.1,861.4 203.3,810.6 					"/>
				</g>
			</g>
		</g>
	</g>
	<g>
		<path class="styled-3" d="M174.2,821.1l-33.5,66.1c0,0-37.1-8.8-60.8-37.5C46.4,809.1,43.1,763,78,747.4c26.7-11.9,47.6,9.1,55.2,26.8
			C147.6,808.1,174.2,821.1,174.2,821.1"/>
		<path class="styled-11" d="M706.7,788.6c0.5-2.4,0.9-4.7,0.9-7.2c0-17-13.8-30.8-30.8-30.8c-14.9,0-27.2,10.4-30.1,24.4
			c0,0,2.6,42.5-34.6,54.9c-37.2,12.4-72.8-33.5-72.8-33.5L526,837.1l38.8,50.6h49.6c0,0,32.6,0.6,61.6-32.5
			C705.1,822.1,706.7,788.6,706.7,788.6"/>
		<path class="styled-25" d="M706.7,788.6c0.5-2.4,0.9-4.7,0.9-7.2c0-17-13.8-30.8-30.8-30.8c-14.9,0-27.2,10.4-30.1,24.4
			c0,0,2.6,42.5-34.6,54.9c-37.2,12.4-72.8-33.5-72.8-33.5L526,837.1l38.8,50.6h49.6c0,0,32.6,0.6,61.6-32.5
			C705.1,822.1,706.7,788.6,706.7,788.6z"/>
		<path class="styled-11" d="M598.4,822.3l-33.5,66.1c0,0-37.1-8.8-60.8-37.5c-33.5-40.6-36.8-86.7-1.9-102.3
			c26.7-11.9,47.6,9.1,55.2,26.8C571.7,809.3,598.4,822.3,598.4,822.3"/>
		<path class="styled-25" d="M598.4,822.3l-33.5,66.1c0,0-37.1-8.8-60.8-37.5c-33.5-40.6-36.8-86.7-1.9-102.3
			c26.7-11.9,47.6,9.1,55.2,26.8C571.7,809.3,598.4,822.3,598.4,822.3z"/>
	</g>
	<g>
		<g>
			<g>
				<g>
					<defs>
						<path id="SVG_CLIP_44_" d="M564.9,887.7h49.6c0,0,32.6,0.6,61.6-32.5c28.9-33.1,30.5-66.6,30.5-66.6c0.5-2.4,0.9-4.7,0.9-7.2
							c0-17-13.8-30.8-30.8-30.8c-14.9,0-27.2,10.4-30.1,24.4c0,0,2.6,42.5-34.6,54.9c-37.2,12.4-72.8-33.5-72.8-33.5L526,837.1
							L564.9,887.7z"/>
					</defs>
					<clipPath id="SVG_CLIP_45_">
						<use xlink:href="#SVG_CLIP_44_"  style="overflow:visible;"/>
					</clipPath>
					<path class="styled-41" d="M585.6,821.7l-28.5,69.8l74,0.9c0,0,43.4-14.5,64.9-48.7c21.5-34.4,24.4-62.4,10.8-85.9
						s-47.1-14.9-57.4-3.7c-10.3,11.2-12.8,23.9-13.6,26c-0.9,2.1-4.6,28.5-4.6,28.5l-25.2,9.5l-15.3-5L585.6,821.7z"/>
				</g>
			</g>
		</g>
		<g>
			<g>
				<g>
					<defs>
						<path id="SVG_CLIP_46_" d="M564.9,887.7h49.6c0,0,32.6,0.6,61.6-32.5c28.9-33.1,30.5-66.6,30.5-66.6c0.5-2.4,0.9-4.7,0.9-7.2
							c0-17-13.8-30.8-30.8-30.8c-14.9,0-27.2,10.4-30.1,24.4c0,0,2.6,42.5-34.6,54.9c-37.2,12.4-72.8-33.5-72.8-33.5L526,837.1
							L564.9,887.7z"/>
					</defs>
					<clipPath id="SVG_CLIP_47_">
						<use xlink:href="#SVG_CLIP_46_"  style="overflow:visible;"/>
					</clipPath>
					<path class="styled-42" d="M611.2,888.9l0.1-75.4l-68.8,27.2c0,0-34.7,29.8-41.7,69.7s1,67,22.4,83.7c21.6,16.7,49.2-4,54.6-18.2
						c5.4-14.2,2.9-27,2.9-29.3c0-2.2-6.6-28.2-6.6-28.2l19.7-18.4l16-1.1L611.2,888.9z"/>
				</g>
			</g>
		</g>
		<g>
			<g>
				<g>
					<defs>
						<path id="SVG_CLIP_48_" d="M564.9,887.7h49.6c0,0,32.6,0.6,61.6-32.5c28.9-33.1,30.5-66.6,30.5-66.6c0.5-2.4,0.9-4.7,0.9-7.2
							c0-17-13.8-30.8-30.8-30.8c-14.9,0-27.2,10.4-30.1,24.4c0,0,2.6,42.5-34.6,54.9c-37.2,12.4-72.8-33.5-72.8-33.5L526,837.1
							L564.9,887.7z"/>
					</defs>
					<clipPath id="SVG_CLIP_49_">
						<use xlink:href="#SVG_CLIP_48_"  style="overflow:visible;"/>
					</clipPath>
					<path class="styled-43" d="M648,769.6l33.9,2.9c0,0,9.1,3.3,7.4,11.5c-1.6,8.3-10.3,9.1-10.3,9.1l-10.8-1.2c0,0-1.2,6.2-8.7,8.7
						c-7.4,2.5-15.8-3.7-15.8-3.7"/>
				</g>
			</g>
		</g>
		<g>
			<g>
				<g>
					<defs>
						<path id="SVG_CLIP_50_" d="M564.9,887.7h49.6c0,0,32.6,0.6,61.6-32.5c28.9-33.1,30.5-66.6,30.5-66.6c0.5-2.4,0.9-4.7,0.9-7.2
							c0-17-13.8-30.8-30.8-30.8c-14.9,0-27.2,10.4-30.1,24.4c0,0,2.6,42.5-34.6,54.9c-37.2,12.4-72.8-33.5-72.8-33.5L526,837.1
							L564.9,887.7z"/>
					</defs>
					<clipPath id="SVG_CLIP_51_">
						<use xlink:href="#SVG_CLIP_50_"  style="overflow:visible;"/>
					</clipPath>
					<path class="styled-44" d="M674.9,751.4c0,0,7.8,10.3-3.7,20.2"/>
				</g>
			</g>
		</g>
		<g>
			<g>
				<g>
					<defs>
						<path id="SVG_CLIP_52_" d="M564.9,887.7h49.6c0,0,32.6,0.6,61.6-32.5c28.9-33.1,30.5-66.6,30.5-66.6c0.5-2.4,0.9-4.7,0.9-7.2
							c0-17-13.8-30.8-30.8-30.8c-14.9,0-27.2,10.4-30.1,24.4c0,0,2.6,42.5-34.6,54.9c-37.2,12.4-72.8-33.5-72.8-33.5L526,837.1
							L564.9,887.7z"/>
					</defs>
					<clipPath id="SVG_CLIP_53_">
						<use xlink:href="#SVG_CLIP_52_"  style="overflow:visible;"/>
					</clipPath>
					<path class="styled-45" d="M686.1,752.3c0,0,7.8,10.3-3.7,20.2"/>
				</g>
			</g>
		</g>
		<g>
			<g>
				<g>
					<defs>
						<path id="SVG_CLIP_54_" d="M564.9,887.7h49.6c0,0,32.6,0.6,61.6-32.5c28.9-33.1,30.5-66.6,30.5-66.6c0.5-2.4,0.9-4.7,0.9-7.2
							c0-17-13.8-30.8-30.8-30.8c-14.9,0-27.2,10.4-30.1,24.4c0,0,2.6,42.5-34.6,54.9c-37.2,12.4-72.8-33.5-72.8-33.5L526,837.1
							L564.9,887.7z"/>
					</defs>
					<clipPath id="SVG_CLIP_55_">
						<use xlink:href="#SVG_CLIP_54_"  style="overflow:visible;"/>
					</clipPath>
					<path class="styled-46" d="M696.4,759c0,0,7.6,12.4-8.3,20.2"/>
				</g>
			</g>
		</g>
		<g>
			<g>
				<g>
					<defs>
						<path id="SVG_CLIP_56_" d="M564.9,887.7h49.6c0,0,32.6,0.6,61.6-32.5c28.9-33.1,30.5-66.6,30.5-66.6c0.5-2.4,0.9-4.7,0.9-7.2
							c0-17-13.8-30.8-30.8-30.8c-14.9,0-27.2,10.4-30.1,24.4c0,0,2.6,42.5-34.6,54.9c-37.2,12.4-72.8-33.5-72.8-33.5L526,837.1
							L564.9,887.7z"/>
					</defs>
					<clipPath id="SVG_CLIP_57_">
						<use xlink:href="#SVG_CLIP_56_"  style="overflow:visible;"/>
					</clipPath>
					<polygon class="styled-47" points="634.9,801 699.3,837 680.2,862.7 627.4,811.8 					"/>
				</g>
			</g>
		</g>
	</g>
	<g>
		<path class="styled-3" d="M598.4,822.3l-33.5,66.1c0,0-37.1-8.8-60.8-37.5c-33.5-40.6-36.8-86.7-1.9-102.3
			c26.7-11.9,47.6,9.1,55.2,26.8C571.7,809.3,598.4,822.3,598.4,822.3"/>
		<path class="styled-11" d="M706.7,989.6c0.5,2.4,0.9,4.7,0.9,7.2c0,17-13.8,30.8-30.8,30.8c-14.9,0-27.2-10.4-30.1-24.4
			c0,0,2.6-42.5-34.6-54.9s-72.8,33.5-72.8,33.5L526,941.2l38.8-50.6h49.6c0,0,32.6-0.6,61.6,32.5
			C705.1,956.2,706.7,989.6,706.7,989.6"/>
		<path class="styled-25" d="M706.7,989.6c0.5,2.4,0.9,4.7,0.9,7.2c0,17-13.8,30.8-30.8,30.8c-14.9,0-27.2-10.4-30.1-24.4
			c0,0,2.6-42.5-34.6-54.9s-72.8,33.5-72.8,33.5L526,941.2l38.8-50.6h49.6c0,0,32.6-0.6,61.6,32.5
			C705.1,956.2,706.7,989.6,706.7,989.6z"/>
		<path class="styled-11" d="M598.4,955.9l-33.5-66.1c0,0-37.1,8.8-60.8,37.5c-33.5,40.6-36.8,86.7-1.9,102.3
			c26.7,11.9,47.6-9.1,55.2-26.8C571.7,968.9,598.4,955.9,598.4,955.9"/>
		<path class="styled-25" d="M598.4,955.9l-33.5-66.1c0,0-37.1,8.8-60.8,37.5c-33.5,40.6-36.8,86.7-1.9,102.3
			c26.7,11.9,47.6-9.1,55.2-26.8C571.7,968.9,598.4,955.9,598.4,955.9z"/>
	</g>
	<g>
		<g>
			<g>
				<g>
					<defs>
						<path id="SVG_CLIP_58_" d="M539.4,981.7c0,0,35.6-45.9,72.8-33.5s34.6,54.9,34.6,54.9c3,14,15.3,24.4,30.1,24.4
							c17,0,30.8-13.8,30.8-30.8c0-2.5-0.2-5-0.9-7.2c0,0-1.6-33.5-30.5-66.6s-61.6-32.5-61.6-32.5H565L526.2,941L539.4,981.7z"/>
					</defs>
					<clipPath id="SVG_CLIP_59_">
						<use xlink:href="#SVG_CLIP_58_"  style="overflow:visible;"/>
					</clipPath>
					<path class="styled-48" d="M585.6,956.5l-28.5-69.8l74-0.9c0,0,43.4,14.5,64.9,48.7c21.5,34.4,24.4,62.4,10.8,85.9
						c-13.6,23.6-47.1,14.9-57.4,3.7c-10.3-11.2-12.8-23.9-13.6-26c-0.9-2.1-4.6-28.5-4.6-28.5l-25.2-9.5l-15.3,5L585.6,956.5z"/>
				</g>
			</g>
		</g>
		<g>
			<g>
				<g>
					<defs>
						<path id="SVG_CLIP_60_" d="M539.4,981.7c0,0,35.6-45.9,72.8-33.5s34.6,54.9,34.6,54.9c3,14,15.3,24.4,30.1,24.4
							c17,0,30.8-13.8,30.8-30.8c0-2.5-0.2-5-0.9-7.2c0,0-1.6-33.5-30.5-66.6s-61.6-32.5-61.6-32.5H565L526.2,941L539.4,981.7z"/>
					</defs>
					<clipPath id="SVG_CLIP_61_">
						<use xlink:href="#SVG_CLIP_60_"  style="overflow:visible;"/>
					</clipPath>
					<path class="styled-49" d="M611.2,889.3l0.1,75.4l-68.8-27.2c0,0-34.7-29.8-41.7-69.7s1-67,22.4-83.7c21.6-16.7,49.2,4,54.6,18.2
						c5.3,14.3,2.9,27,2.9,29.3s-6.6,28.2-6.6,28.2l19.7,18.4l16,1.1L611.2,889.3z"/>
				</g>
			</g>
		</g>
		<g>
			<g>
				<g>
					<defs>
						<path id="SVG_CLIP_62_" d="M539.4,981.7c0,0,35.6-45.9,72.8-33.5s34.6,54.9,34.6,54.9c3,14,15.3,24.4,30.1,24.4
							c17,0,30.8-13.8,30.8-30.8c0-2.5-0.2-5-0.9-7.2c0,0-1.6-33.5-30.5-66.6s-61.6-32.5-61.6-32.5H565L526.2,941L539.4,981.7z"/>
					</defs>
					<clipPath id="SVG_CLIP_63_">
						<use xlink:href="#SVG_CLIP_62_"  style="overflow:visible;"/>
					</clipPath>
					<path class="styled-50" d="M665,1030.5c0,0,11.9-5.3,6.4-19.6"/>
				</g>
			</g>
		</g>
		<g>
			<g>
				<g>
					<defs>
						<path id="SVG_CLIP_64_" d="M539.4,981.7c0,0,35.6-45.9,72.8-33.5s34.6,54.9,34.6,54.9c3,14,15.3,24.4,30.1,24.4
							c17,0,30.8-13.8,30.8-30.8c0-2.5-0.2-5-0.9-7.2c0,0-1.6-33.5-30.5-66.6s-61.6-32.5-61.6-32.5H565L526.2,941L539.4,981.7z"/>
					</defs>
					<clipPath id="SVG_CLIP_65_">
						<use xlink:href="#SVG_CLIP_64_"  style="overflow:visible;"/>
					</clipPath>
					<path class="styled-51" d="M681.1,1030.2c0,0,11.9-5.3,6.4-19.6"/>
				</g>
			</g>
		</g>
		<g>
			<g>
				<g>
					<defs>
						<path id="SVG_CLIP_66_" d="M539.4,981.7c0,0,35.6-45.9,72.8-33.5s34.6,54.9,34.6,54.9c3,14,15.3,24.4,30.1,24.4
							c17,0,30.8-13.8,30.8-30.8c0-2.5-0.2-5-0.9-7.2c0,0-1.6-33.5-30.5-66.6s-61.6-32.5-61.6-32.5H565L526.2,941L539.4,981.7z"/>
					</defs>
					<clipPath id="SVG_CLIP_67_">
						<use xlink:href="#SVG_CLIP_66_"  style="overflow:visible;"/>
					</clipPath>
					<path class="styled-52" d="M693.5,1023.4c0,0,11.9-5.3,6.4-19.6"/>
				</g>
			</g>
		</g>
		<g>
			<g>
				<g>
					<defs>
						<path id="SVG_CLIP_68_" d="M539.4,981.7c0,0,35.6-45.9,72.8-33.5s34.6,54.9,34.6,54.9c3,14,15.3,24.4,30.1,24.4
							c17,0,30.8-13.8,30.8-30.8c0-2.5-0.2-5-0.9-7.2c0,0-1.6-33.5-30.5-66.6s-61.6-32.5-61.6-32.5H565L526.2,941L539.4,981.7z"/>
					</defs>
					<clipPath id="SVG_CLIP_69_">
						<use xlink:href="#SVG_CLIP_68_"  style="overflow:visible;"/>
					</clipPath>
					<polygon class="styled-53" points="634.9,977.2 699.3,941.3 680.2,915.6 627.4,966.5 					"/>
				</g>
			</g>
		</g>
	</g>
	<g>
		<path class="styled-3" d="M598.4,955.9l-33.5-66.1c0,0-37.1,8.8-60.8,37.5c-33.5,40.6-36.8,86.7-1.9,102.3
			c26.7,11.9,47.6-9.1,55.2-26.8C571.7,968.9,598.4,955.9,598.4,955.9"/>
		<line class="styled-54" x1="56.4" y1="961.9" x2="137" y2="994.1"/>
		<line class="styled-55" x1="142.6" y1="997.3" x2="153.3" y2="1001.6"/>
		<line class="styled-55" x1="113.2" y1="888.3" x2="77.1" y2="888.3"/>
		<line class="styled-54" x1="480.6" y1="815.2" x2="561.2" y2="782.9"/>
		<line class="styled-54" x1="480.6" y1="963.1" x2="561.2" y2="995.4"/>
		<line class="styled-54" x1="539.7" y1="889.1" x2="660" y2="889.1"/>
		<line class="styled-55" x1="537.4" y1="888.7" x2="499.9" y2="888.7"/>
		<line class="styled-54" x1="115.6" y1="888" x2="235.9" y2="888"/>
	</g>
	<g>
		<text transform="matrix(0 -1 1 0 73.7119 903.9785)" class="styled-12 styled-14">Score</text>
	</g>
	<g>
		<text transform="matrix(0 -1 1 0 165.6385 1014.2246)" class="styled-12 styled-14">Tab</text>
	</g>
	<g>
		<text transform="matrix(0 -1 1 0 165.6385 784.4727)" class="styled-12 styled-14">Tab</text>
	</g>
	<g>
		<text transform="matrix(0 -1 1 0 254.8702 899.6035)" class="styled-12 styled-14">Fold</text>
	</g>
	<g>
		<text transform="matrix(0 -1 1 0 494.6111 906.8301)" class="styled-12 styled-14">Score</text>
	</g>
	<g>
		<g>
			<text transform="matrix(0 -1 1 0 319.347 824.4883)" class="styled-15 styled-16">RIGHT ARM</text>
		</g>
	</g>
	<g>
		<g>
			<text transform="matrix(0 -1 1 0 456.494 824.4883)" class="styled-15 styled-16">LEFT ARM</text>
		</g>
	</g>
	<line class="styled-56" x1="56.4" y1="813.9" x2="137" y2="781.7"/>
	<line class="styled-55" x1="142.4" y1="779.3" x2="151.2" y2="775.8"/>
	<line class="styled-55" x1="567.6" y1="999.1" x2="578.3" y2="1003.3"/>
	<g>
		<text transform="matrix(0 -1 1 0 590.6669 1015.9727)" class="styled-12 styled-14">Tab</text>
	</g>
	<g>
		<text transform="matrix(0 -1 1 0 590.6669 786.2217)" class="styled-12 styled-14">Tab</text>
	</g>
	<line class="styled-55" x1="567.5" y1="781" x2="576.2" y2="777.6"/>
	<path class="styled-57" d="M96.1,858.3c0,0-5.2-7.8-4.2-17.6c0.6-6.4,1.2-8.8,2.4-15.8c1.1-7.3,1.5-21.1-0.5-25.3l15.3-6.1
		c0,0,4.5,15.9,1.1,29.8c-4.1,17-2,27.5,5.2,34.1l-13.3,8.9L96.1,858.3z"/>
	<path class="styled-57" d="M86.6,856.7v-0.6c0,0-3.7-17.5-0.7-26.8c3.8-11.9,1.4-27,1.4-27l-28.9,11.8c0,0,6.4,13.9,11.2,21.7
		C75,844.9,85.1,855.1,86.6,856.7z"/>
	<path class="styled-57" d="M96,917.3c0,0-5.2,7.8-4.2,17.6c0.6,6.4,1.2,8.8,2.4,15.8c1.1,7.3,1.5,21.1-0.5,25.3l15.3,6.1
		c0,0,4.5-15.9,1.1-29.8c-4.1-17-2-27.5,5.2-34.1l-13.3-8.9L96,917.3z"/>
	<path class="styled-57" d="M86.3,919v0.6c0,0-3.7,17.5-0.7,26.8c3.8,11.9,1.4,27,1.4,27l-29-11.8c0,0,6.4-13.9,11.2-21.7
		C74.8,930.7,84.8,920.6,86.3,919z"/>
	<path class="styled-4" d="M520.4,859.2c0,0-5.2-7.8-4.2-17.6c0.6-6.4,1.2-8.8,2.4-15.8c1.1-7.3,1.5-21.1-0.5-25.3l15.3-6.1
		c0,0,4.5,15.9,1.1,29.8c-4.1,17-2,27.5,5.2,34.1l-13.3,8.9L520.4,859.2z"/>
	<path class="styled-4" d="M510.8,858.1V857c0,0-3.7-17.5-0.7-26.8c3.8-11.9,1.4-27,1.4-27l-29,11.8c0,0,6,14.9,10.8,22.7
		C498.8,846.9,509.3,856.5,510.8,858.1z"/>
	<path class="styled-4" d="M520.3,919c0,0-5.2,7.8-4.2,17.6c0.6,6.4,1.2,8.8,2.4,15.8c1.1,7.3,1.5,21.1-0.5,25.3l15.3,6.1
		c0,0,4.5-15.9,1.1-29.8c-4.1-17-2-27.5,5.2-34.1l-13.3-8.9L520.3,919z"/>
	<path class="styled-4" d="M510.2,918.8l0.4,2.4c0,0-3.7,17.5-0.7,26.8c3.8,11.9,1.4,27,1.4,27l-28.9-11.8c0,0,6.4-13.9,11.2-21.7
		C499.2,932.2,508.9,920.4,510.2,918.8z"/>
	<g>
		<text transform="matrix(0 -1 1 0 681.1328 903.8496)" class="styled-12 styled-14">Fold</text>
	</g>
	<rect x="549" y="1140.5" class="styled-0" width="139.4" height="93"/>
	<text transform="matrix(1 0 0 1 548.9892 1149.239)" class="styled-58 styled-59">NOTE:</text>
	<text transform="matrix(1 0 0 1 580.3662 1149.239)" class="styled-12 styled-59"> </text>
	<text transform="matrix(1 0 0 1 583.3427 1149.239)" class="styled-60 styled-59">To make the figure </text>
	<text transform="matrix(1 0 0 1 548.9892 1162.8812)" class="styled-60 styled-59">sturdier, you may paste </text>
	<text transform="matrix(1 0 0 1 548.9892 1176.5233)" class="styled-60 styled-59">pieces on to heavy paper </text>
	<text transform="matrix(1 0 0 1 548.9892 1190.165)" class="styled-60 styled-59">before trimming or print </text>
	<text transform="matrix(1 0 0 1 548.9892 1203.8076)" class="styled-60 styled-59">our online version on </text>
	<text transform="matrix(1 0 0 1 548.9892 1217.45)" class="styled-60 styled-59">heavier stock.</text>
	<g>
		<g>
			<path d="M65.5,1386.9c0,4.8-4,8.8-8.8,8.8s-8.8-4-8.8-8.8c0-4.8,4-8.8,8.8-8.8C61.5,1378,65.5,1381.9,65.5,1386.9"/>
			<g>
				<text transform="matrix(1 0 0 1 53.6503 1390.661)" class="styled-3 styled-15 styled-61">2</text>
			</g>
		</g>
		<g>
			<path d="M64.4,1354.4c0,4.8-4,8.8-8.8,8.8s-8.8-4-8.8-8.8s4-8.8,8.8-8.8S64.4,1349.6,64.4,1354.4"/>
			<g>
				<text transform="matrix(1 0 0 1 52.4931 1358.2069)" class="styled-3 styled-15 styled-61">1</text>
			</g>
		</g>
		<g>
			<path d="M65,1421.1c0,4.8-4,8.8-8.8,8.8s-8.8-4-8.8-8.8s4-8.8,8.8-8.8C61,1412.3,65,1416.2,65,1421.1"/>
			<g>
				<text transform="matrix(1 0 0 1 53.1244 1424.9081)" class="styled-3 styled-15 styled-61">3</text>
			</g>
		</g>
		<g>
			<path d="M65,1464c0,4.8-4,8.8-8.8,8.8s-8.8-4-8.8-8.8s4-8.8,8.8-8.8S65,1459.2,65,1464"/>
			<g>
				<text transform="matrix(1 0 0 1 53.1244 1467.8427)" class="styled-3 styled-15 styled-61">4</text>
			</g>
		</g>
		<g>
			<path d="M65.1,1488.7c0,4.8-4,8.8-8.8,8.8s-8.8-4-8.8-8.8s4-8.8,8.8-8.8S65.1,1483.9,65.1,1488.7"/>
			<g>
				<text transform="matrix(1 0 0 1 53.3194 1492.5654)" class="styled-3 styled-15 styled-61">5</text>
			</g>
		</g>
		<g>
			<path d="M65.4,1537.8c0,4.8-4,8.8-8.8,8.8s-8.8-4-8.8-8.8s4-8.8,8.8-8.8C61.4,1528.9,65.4,1532.9,65.4,1537.8"/>
			<g>
				<text transform="matrix(1 0 0 1 53.4848 1541.578)" class="styled-3 styled-15 styled-61">6</text>
			</g>
		</g>
		<g>
			<path d="M65,1583.8c0,4.8-4,8.8-8.8,8.8s-8.8-4-8.8-8.8s4-8.8,8.8-8.8S65,1578.9,65,1583.8"/>
			<g>
				<text transform="matrix(1 0 0 1 53.1244 1587.6105)" class="styled-3 styled-15 styled-61">7</text>
			</g>
		</g>
		<polygon class="styled-0" points="303.8,1599.5 74.4,1599.7 75.9,1331.9 305.3,1331.7 		"/>
		<text transform="matrix(1 0 0 1 75.874 1354.0731)" class="styled-60 styled-59">Trim out all pieces with scissors</text>
		<text transform="matrix(1 0 0 1 75.7499 1367.7148)" class="styled-60 styled-59">or a hobby knife.</text>
		<text transform="matrix(1 0 0 1 75.626 1387.5585)" class="styled-60 styled-59">Assemble the main figure by folding</text>
		<text transform="matrix(1 0 0 1 75.626 1401.201)" class="styled-60 styled-59">tabs and along lines.</text>
		<text transform="matrix(1 0 0 1 75.5019 1421.0439)" class="styled-60 styled-59">Cut slits for arms (dotted lines on</text>
		<text transform="matrix(1 0 0 1 75.3779 1434.6854)" class="styled-60 styled-59">figures sides). Fold arms in half,</text>
		<text transform="matrix(1 0 0 1 75.3779 1448.328)" class="styled-60 styled-59">tape and insert into slits on main body.</text>
		<text transform="matrix(1 0 0 1 75.2538 1468.1709)" class="styled-60 styled-59">Secure back to front with tape.</text>
		<text transform="matrix(1 0 0 1 75.1299 1488.0145)" class="styled-60 styled-59">Assemble helmet, cut slits for facemask</text>
		<text transform="matrix(1 0 0 1 75.0058 1501.6564)" class="styled-60 styled-59">and insert ends of facemask into slits.</text>
		<text transform="matrix(1 0 0 1 74.8818 1515.2988)" class="styled-60 styled-59">Secure with tape.</text>
		<text transform="matrix(1 0 0 1 74.7577 1541.3429)" class="styled-60 styled-59">Fold up tabs at base of main figure and</text>
		<text transform="matrix(1 0 0 1 74.7577 1554.9854)" class="styled-60 styled-59">base of helmet and tape them to the</text>
		<text transform="matrix(1 0 0 1 74.6338 1568.6268)" class="styled-60 styled-59">interior walls for stability.</text>
		<text transform="matrix(1 0 0 1 74.3857 1588.4707)" class="styled-60 styled-59">Put the helmet on the main figure.</text>
	</g>
	<g>
		<text transform="matrix(1 0 0 1 47.8999 1328.7)" class="styled-62 styled-14">(Second of two pages)</text>
	</g>
</g>
<g id="Layer_2">
</g>
<g>
	<polygon class="styled-0" points="626.7,1510.3 619.7,1529 615,1542.1 627.8,1540.6 635.1,1529.3 646.8,1511.5 653.9,1491.1 
		630.8,1489.7 	"/>
	<polygon class="styled-0" points="630.9,1432.3 654,1430.8 646.9,1410.4 635.2,1392.6 627.6,1382.8 614.1,1380.7 619.8,1393 
		626.8,1411.7 	"/>
	<polygon class="styled-0" points="659.3,1450.6 657.6,1441.3 633,1442.9 633.7,1451.2 634,1460.9 633.8,1470.7 633.1,1479.1 658,1480.7 
		659.5,1470.6 659.9,1461 	"/>
	<path d="M624.4,1369.4c-2-1.8-4.6-3.7-7.6-5.6c-0.4-0.4-0.9-0.8-1.5-1l-3-1.4c-0.9-0.4-1.7-0.9-2.6-1.2l-51.9-23.9
		c-3.8-1.9-8.8,1-11.4,6.3c-2.5,5.3-1.5,11.1,2.2,12.9l46.2,21.2c0,0,9.1,4,13.5,8.4c3.2,12.1,15.8,45.2,15.8,77.3
		c0,32.2-13.6,67.1-15.8,77.3c-4.4,4.4-13.5,8.5-13.5,8.5l-48.5,23c-3.7,1.8-4.7,7.5-2.2,12.9c2.5,5.3,7.6,8.2,11.3,6.5l53.1-25.2
		c2.3-0.9,4.6-2,6.7-3.2h0.1c0.2-0.1,0.5-0.2,0.7-0.4c3.1-1.8,6-3.8,8.4-5.8c16.6-10.8,44.1-48.3,44.1-93.6
		S638.9,1377.7,624.4,1369.4z M619.8,1393l-5.7-12.3l13.5,2.1l7.6,9.8l11.7,17.8l7.1,20.4l-23.1,1.5l-4.1-20.6L619.8,1393z
		 M646.8,1511.5l-11.7,17.8l-7.3,11.3l-12.8,1.5l4.7-13.1l7-18.7l4.1-20.6l23.1,1.4L646.8,1511.5z M658,1480.7l-24.9-1.6l0.7-8.4
		l0.2-9.8l-0.3-9.7l-0.7-8.3l24.6-1.6l1.7,9.3l0.6,10.4l-0.4,9.6L658,1480.7z"/>
</g>
<path class="styled-63" d="M546.4,1342.6c-2.5,5.3-1.5,11.1,2.2,12.9l46.2,21.2c0,0,9.1,4,13.5,8.4c3.2,12.1,15.8,45.2,15.8,77.3
	c0,32.2-13.6,67.1-15.8,77.3c-4.4,4.4-13.5,8.5-13.5,8.5l-48.5,23c-3.7,1.8-4.7,7.5-2.2,12.9c2.5,5.3,7.6,8.2,11.3,6.5l53.1-25.2
	c2.3-0.9,4.6-2,6.7-3.2h0.1c0.2-0.1,0.5-0.2,0.7-0.4c3.1-1.8,6-3.8,8.4-5.8c16.6-10.8,44.1-48.3,44.1-93.6s-29.6-84.7-44.1-93
	c-2-1.8-4.6-3.7-7.6-5.6c-0.4-0.4-0.9-0.8-1.5-1l-3-1.4c-0.9-0.4-1.7-0.9-2.6-1.2l-51.9-23.9C554,1334.4,549,1337.3,546.4,1342.6z"
	/>
<g>
	<path d="M636.5,1501.3c1.1,0,2,0.9,2,2s-0.9,2-2,2s-2-0.9-2-2C634.5,1502.2,635.4,1501.3,636.5,1501.3"/>
	<line class="styled-10" x1="677.5" y1="1503.3" x2="636.5" y2="1503.3"/>
	<path d="M636.5,1416.3c1.1,0,2,0.9,2,2s-0.9,2-2,2s-2-0.9-2-2C634.5,1417.2,635.4,1416.3,636.5,1416.3"/>
	<line class="styled-10" x1="677.5" y1="1418.3" x2="636.5" y2="1418.3"/>
</g>
<path d="M648,1459.8c1.1,0,2,0.9,2,2s-0.9,2-2,2s-2-0.9-2-2C646,1460.7,646.9,1459.8,648,1459.8"/>
<line class="styled-10" x1="677.5" y1="1461.8" x2="648" y2="1461.8"/>
<g>
	<text transform="matrix(4.489659e-11 -1 1 4.489659e-11 694.0716 1512.9102)" class="styled-11 styled-12 styled-64">Trim out white areas</text>
</g>
<g>
	<text transform="matrix(4.489659e-11 -1 1 4.489659e-11 605.6937 1496.0176)" class="styled-11 styled-15 styled-65">FACEMASK</text>
</g>
</svg>
