<?xml version="1.0" encoding="utf-8"?>
<!-- Generator: Adobe Illustrator 18.0.0, SVG Export Plug-In . SVG Version: 6.00 Build 0)  -->
<!DOCTYPE svg PUBLIC "-//W3C//DTD SVG 1.1//EN" "http://www.w3.org/Graphics/SVG/1.1/DTD/svg11.dtd">
<svg version="1.1" id="Layer_1" xmlns="http://www.w3.org/2000/svg" xmlns:xlink="http://www.w3.org/1999/xlink" x="0px" y="0px"
	 width="770px" height="930px" viewBox="29.6 1412.2 770 930" style="enable-background:new 29.6 1412.2 770 930;"
	 xml:space="preserve">
<style type="text/css">
	.st0{clip-path:url(#SVGID_2_);fill:#2E557A;}
	.st1{fill:none;stroke:#B2B3B6;stroke-width:2;}
	.st2{clip-path:url(#SVGID_4_);fill:#2E557A;}
	.st3{fill:none;stroke:#5B5C5C;stroke-width:2;}
	.st4{clip-path:url(#SVGID_6_);fill:#2E557A;}
	.st5{clip-path:url(#SVGID_8_);fill:#2E557A;}
	.st6{fill:none;}
	.st7{clip-path:url(#SVGID_10_);fill:none;stroke:#754F3E;stroke-width:0.526;}
	.st8{fill:#322D29;}
	.st9{fill:#D7A37A;}
	.st10{clip-path:url(#SVGID_12_);fill:#926943;}
	.st11{clip-path:url(#SVGID_14_);fill:#D7A37A;}
	.st12{clip-path:url(#SVGID_16_);fill:none;stroke:#754F3E;stroke-width:0.526;}
	.st13{fill:#0071B0;}
	.st14{fill:#FFFFFF;}
	.st15{fill:none;stroke:#B4B4B5;}
	.st16{fill:#76593F;}
	.st17{fill:none;stroke:#B2B3B6;stroke-width:2;stroke-dasharray:3,2;}
	.st18{clip-path:url(#SVGID_18_);fill:#2E557A;}
	.st19{fill:#2E557A;}
	.st20{clip-path:url(#SVGID_20_);fill:none;stroke:#000000;}
	.st21{stroke:#000000;}
	.st22{fill:#315679;}
	.st23{clip-path:url(#SVGID_22_);fill:#315679;}
	.st24{fill:#E5E5E5;}
	.st25{fill:#77C25F;}
	.st26{clip-path:url(#SVGID_24_);fill:#315679;}
	.st27{clip-path:url(#SVGID_26_);fill:#315679;}
	.st28{clip-path:url(#SVGID_28_);fill:#315679;}
	.st29{clip-path:url(#SVGID_30_);fill:#2E557A;}
	.st30{clip-path:url(#SVGID_32_);fill:#2E557A;}
	.st31{fill:none;stroke:#000000;}
	.st32{clip-path:url(#SVGID_34_);fill:#77C25F;}
	.st33{fill:none;stroke:#000000;stroke-width:2;}
	.st34{fill:#79C163;}
	.st35{clip-path:url(#SVGID_36_);fill:#315679;}
	.st36{clip-path:url(#SVGID_38_);fill:#2E557A;}
	.st37{clip-path:url(#SVGID_40_);fill:#79C163;}
	.st38{fill:#7BBF67;}
	.st39{clip-path:url(#SVGID_42_);fill:#315679;}
	.st40{clip-path:url(#SVGID_44_);fill:#2E557A;}
	.st41{clip-path:url(#SVGID_46_);fill:#7BBF67;}
	.st42{clip-path:url(#SVGID_48_);fill:#2E557A;}
	.st43{clip-path:url(#SVGID_50_);fill:url(#SVGID_51_);}
	.st44{clip-path:url(#SVGID_53_);fill:#2E557A;}
	.st45{clip-path:url(#SVGID_55_);fill:#2E557A;}
	.st46{clip-path:url(#SVGID_57_);fill:none;stroke:#754F3E;stroke-width:0.526;}
	.st47{clip-path:url(#SVGID_59_);fill:#77C25F;}
	.st48{clip-path:url(#SVGID_61_);fill:#2E557A;}
	.st49{clip-path:url(#SVGID_63_);fill:#77C25F;}
	.st50{clip-path:url(#SVGID_65_);fill:#315679;}
	.st51{fill:none;stroke:#FFFFFF;stroke-width:2;}
	.st52{fill:none;stroke:#000000;stroke-dasharray:3,2;}
	.st53{font-family:'SunST-Medium';}
	.st54{font-size:15.0972;}
	.st55{fill:#926943;}
	.st56{fill:none;stroke:#6C7E99;stroke-width:2;}
	.st57{display:none;fill:none;stroke:#B2B3B6;stroke-width:3;}
	.st58{fill:#77C25E;}
	.st59{font-family:'SunST-ExtraBold';}
	.st60{font-size:24.7044;}
	.st61{fill:#DBB896;}
	.st62{enable-background:new    ;}
	.st63{font-family:'Impact';}
	.st64{font-size:51.6434;}
	.st65{fill:none;stroke:#B2B3B6;stroke-width:3;}
</style>
<g id="uniform">
	<g>
		<g>
			<g>
				<g>
					<g>
						<g>
							<g>
								<defs>
									<rect id="SVGID_1_" x="590.8" y="2070.1" width="138.4" height="147.2"/>
								</defs>
								<clipPath id="SVGID_2_">
									<use xlink:href="#SVGID_1_"  style="overflow:visible;"/>
								</clipPath>
								<rect x="590.8" y="2070.1" class="st0" width="138.4" height="147.2"/>
							</g>
						</g>
					</g>
				</g>
			</g>
		</g>
	</g>
	<path class="st1" d="M513.9,1878.3c0,0,6.4,53.6,72.8,49.8"/>
	<path class="st1" d="M465.1,1878.3c0,0-6.4,53.6-72.8,49.8"/>
	<g>
		<g>
			<g>
				<g>
					<g>
						<g>
							<g>
								<defs>
									<rect id="SVGID_3_" x="590.3" y="2058.2" width="138.4" height="147.2"/>
								</defs>
								<clipPath id="SVGID_4_">
									<use xlink:href="#SVGID_3_"  style="overflow:visible;"/>
								</clipPath>
								<rect x="590.3" y="2058.2" class="st2" width="138.4" height="147.2"/>
							</g>
						</g>
					</g>
				</g>
			</g>
		</g>
	</g>
	<rect x="590.3" y="2058.2" class="st3" width="138.4" height="147.2"/>
	<g>
		<g>
			<g>
				<g>
					<g>
						<g>
							<g>
								<defs>
									<rect id="SVGID_5_" x="252.5" y="2058.2" width="138.4" height="147.2"/>
								</defs>
								<clipPath id="SVGID_6_">
									<use xlink:href="#SVGID_5_"  style="overflow:visible;"/>
								</clipPath>
								<rect x="252.5" y="2058.2" class="st4" width="138.4" height="147.2"/>
							</g>
						</g>
					</g>
				</g>
			</g>
		</g>
	</g>
	<rect x="252.5" y="2058.2" class="st3" width="138.4" height="147.2"/>
	<g>
		<g>
			<g>
				<g>
					<g>
						<g>
							<g>
								<defs>
									<polygon id="SVGID_7_" points="391.2,2058.9 392.1,2205.5 488,2205.5 488,2118.6 493.4,2118.6 493.4,2205.5 591,2205.5 
										590.1,2058.9 									"/>
								</defs>
								<clipPath id="SVGID_8_">
									<use xlink:href="#SVGID_7_"  style="overflow:visible;"/>
								</clipPath>
								<rect x="391.2" y="2055.5" class="st5" width="199.9" height="150"/>
							</g>
						</g>
					</g>
				</g>
			</g>
		</g>
	</g>
	<g>
		<g>
			<g>
				<g>
					<g>
						<rect x="590.9" y="1597.2" class="st6" width="138.3" height="198.8"/>
					</g>
				</g>
			</g>
		</g>
	</g>
	<g>
		<g>
			<g>
				<g>
					<g>
						<g>
							<g>
								<defs>
									<rect id="SVGID_9_" x="590.6" y="1596.9" width="138.9" height="199.5"/>
								</defs>
								<clipPath id="SVGID_10_">
									<use xlink:href="#SVGID_9_"  style="overflow:visible;"/>
								</clipPath>
								<rect x="590.9" y="1597.2" class="st7" width="138.3" height="198.8"/>
							</g>
						</g>
					</g>
				</g>
			</g>
		</g>
	</g>
	<g>
		<path class="st8" d="M727.6,1717.2l-0.1-121.4l-137.8,0.2l0.2,128.5l0.1,13.1c0,0,1.8,11.1,8.7-7.1c9.2-24.5,35.8-40.9,35.8-40.9
			s11-7.3,25.5-6.8C660,1682.8,699.5,1678.6,727.6,1717.2"/>
		<path class="st9" d="M663.8,1701.9c0,0-13.7-6.1-19.5,5c-4.5,8.2,0.4,11,4.1,14.2c5.2,4.6,12.7,1,8,8.4l-4.6,7.3
			c0,0,11.9-2.2,9.2-10.8c-2.8-8.5-11.7-10.4-11.7-10.4S643.5,1701.7,663.8,1701.9"/>
		<path class="st9" d="M670,1724.7c0,0,4.6-17.5-6.4-23c0,0-1,3.7-1,8.2C662.8,1714.5,670,1718.3,670,1724.7"/>
	</g>
	<g>
		<g>
			<g>
				<g>
					<g>
						<g>
							<g>
								<defs>
									<rect id="SVGID_11_" x="636.7" y="1687.5" width="44.4" height="67.6"/>
								</defs>
								<clipPath id="SVGID_12_">
									<use xlink:href="#SVGID_11_"  style="overflow:visible;"/>
								</clipPath>
								<path class="st10" d="M640.4,1704.3l-3.2-3.6c0,0,15.5-17.5,29.2-12s18.3,21.1,10.1,42.2c-8.2,21.1-17.5,23.9-23,23.9
									c-5.5,0-5.5-9.2-5.5-9.2s3.7,9.2,13.8,0c10.1-9.2,19.3-24.8,12-42.2C666.5,1686.3,644.5,1697.8,640.4,1704.3"/>
							</g>
						</g>
					</g>
				</g>
			</g>
		</g>
		<g>
			<g>
				<g>
					<g>
						<g>
							<g>
								<defs>
									<rect id="SVGID_13_" x="636.7" y="1687.5" width="44.4" height="67.6"/>
								</defs>
								<clipPath id="SVGID_14_">
									<use xlink:href="#SVGID_13_"  style="overflow:visible;"/>
								</clipPath>
								<path class="st11" d="M640.4,1704.3l-3.2-3.6c0,0,15.5-17.5,29.2-12s18.3,21.1,10.1,42.2c-8.2,21.1-17.5,23.9-23,23.9
									c-5.5,0-5.5-9.2-5.5-9.2s3.7,9.2,13.8,0c10.1-9.2,18.5-27.9,11.3-45.4C665.8,1682.9,644.5,1697.8,640.4,1704.3z"/>
							</g>
						</g>
					</g>
				</g>
			</g>
		</g>
	</g>
	<g>
		<g>
			<g>
				<g>
					<g>
						<rect x="251.4" y="1597.2" class="st6" width="138.3" height="198.8"/>
					</g>
				</g>
			</g>
		</g>
	</g>
	<g>
		<g>
			<g>
				<g>
					<g>
						<g>
							<g>
								<defs>
									<rect id="SVGID_15_" x="250.9" y="1596.9" width="138.9" height="199.5"/>
								</defs>
								<clipPath id="SVGID_16_">
									<use xlink:href="#SVGID_15_"  style="overflow:visible;"/>
								</clipPath>
								<rect x="251.4" y="1597.2" class="st12" width="138.3" height="198.8"/>
							</g>
						</g>
					</g>
				</g>
			</g>
		</g>
	</g>
	<g>
		<path class="st8" d="M251.5,1719.2l0.1-124l137.8,0.2l-0.2,131.3l-0.1,13.1c0,0-1.8,11.1-8.7-7.1c-9.2-24.5-35.8-40.9-35.8-40.9
			s-11-7.3-25.5-6.8C319,1684.8,279.6,1680.8,251.5,1719.2"/>
	</g>
	<rect x="251.2" y="1797.3" class="st13" width="139.5" height="261.3"/>
	<rect x="590.3" y="1797.3" class="st14" width="137.5" height="261.3"/>
	<rect x="590.3" y="1797.3" class="st15" width="137.5" height="261.3"/>
	<rect x="251.2" y="1797.3" class="st14" width="139.5" height="261.3"/>
	<rect x="251.2" y="1797.3" class="st15" width="139.5" height="261.3"/>
	<rect x="390.8" y="1457.8" class="st8" width="198.7" height="137.5"/>
	<path class="st16" d="M599,1737.4c0.7-1.3,1.3-3,1.9-4.8C599.8,1735.5,599,1737.4,599,1737.4"/>
	<path class="st16" d="M381.6,1737.4c-0.7-1.3-1.3-3-1.9-4.8C380.7,1735.5,381.6,1737.4,381.6,1737.4"/>
	<line class="st17" x1="659.9" y1="1888.7" x2="659.9" y2="1953.3"/>
	<line class="st17" x1="320.3" y1="1888.7" x2="320.3" y2="1953.3"/>
	<g>
		<g>
			<g>
				<g>
					<g>
						<g>
							<g>
								<defs>
									<rect id="SVGID_17_" x="516.3" y="2058.2" width="73.8" height="25.2"/>
								</defs>
								<clipPath id="SVGID_18_">
									<use xlink:href="#SVGID_17_"  style="overflow:visible;"/>
								</clipPath>
								<rect x="516.3" y="2058.2" class="st18" width="73.8" height="25.2"/>
							</g>
						</g>
					</g>
				</g>
			</g>
		</g>
	</g>
	<rect x="516.3" y="2058.2" class="st19" width="73.8" height="25.2"/>
	<g>
		<g>
			<g>
				<g>
					<g>
						<g>
							<g>
								<defs>
									<rect id="SVGID_19_" x="391.9" y="2058.2" width="71" height="25.2"/>
								</defs>
								<clipPath id="SVGID_20_">
									<use xlink:href="#SVGID_19_"  style="overflow:visible;"/>
								</clipPath>
								<rect x="391.9" y="2058.2" class="st20" width="71" height="25.2"/>
							</g>
						</g>
					</g>
				</g>
			</g>
		</g>
	</g>
	<rect x="391.9" y="2058.2" class="st19" width="71" height="25.2"/>
	<rect x="462.9" y="2058.2" class="st21" width="53.6" height="19.5"/>
	<g>
		<g>
			<rect id="SVGID_145_" x="251.9" y="1866" class="st22" width="138.6" height="16.5"/>
		</g>
		<g>
			<g>
				<g>
					<g>
						<g>
							<g>
								<defs>
									<rect id="SVGID_21_" x="251.9" y="1866" width="138.6" height="16.5"/>
								</defs>
								<clipPath id="SVGID_22_">
									<use xlink:href="#SVGID_21_"  style="overflow:visible;"/>
								</clipPath>
								<rect x="251.9" y="1861.8" class="st23" width="138.6" height="19.4"/>
							</g>
						</g>
					</g>
				</g>
			</g>
		</g>
	</g>
	<rect x="643.9" y="2058.9" width="32" height="146.8"/>
	<rect x="646.1" y="2058.9" class="st19" width="27.4" height="146.8"/>
	<rect x="646.1" y="2058.9" class="st24" width="27.4" height="146.8"/>
	<rect x="651.6" y="2058.9" class="st25" width="16.5" height="146.8"/>
	<rect x="304.8" y="2058.9" width="32" height="146.8"/>
	<rect x="307" y="2058.9" class="st19" width="27.4" height="146.8"/>
	<rect x="305.7" y="2058.9" class="st24" width="29.8" height="146.8"/>
	<rect x="312.7" y="2058.9" class="st25" width="16.5" height="146.8"/>
	<g>
		<g>
			<rect id="SVGID_149_" x="590.8" y="1866" class="st22" width="138.6" height="16.5"/>
		</g>
		<g>
			<g>
				<g>
					<g>
						<g>
							<g>
								<defs>
									<rect id="SVGID_23_" x="590.8" y="1866" width="138.6" height="16.5"/>
								</defs>
								<clipPath id="SVGID_24_">
									<use xlink:href="#SVGID_23_"  style="overflow:visible;"/>
								</clipPath>
								<rect x="590.8" y="1861.8" class="st26" width="138.6" height="19.4"/>
							</g>
						</g>
					</g>
				</g>
			</g>
		</g>
	</g>
	<g>
		<g>
			<polygon id="SVGID_151_" class="st22" points="509.1,1866 680,1866 680,1882.5 513.2,1882.5 			"/>
		</g>
		<g>
			<g>
				<g>
					<g>
						<g>
							<g>
								<defs>
									<polygon id="SVGID_25_" points="509.1,1866 680,1866 680,1882.5 513.2,1882.5 									"/>
								</defs>
								<clipPath id="SVGID_26_">
									<use xlink:href="#SVGID_25_"  style="overflow:visible;"/>
								</clipPath>
								<polygon class="st27" points="525.8,1880.8 588.1,1880.8 588.1,1861.8 541.5,1861.8 								"/>
							</g>
						</g>
					</g>
				</g>
			</g>
		</g>
	</g>
	<g>
		<g>
			<polygon id="SVGID_153_" class="st22" points="469.5,1866 305.7,1866 305.7,1882.5 465.7,1882.5 			"/>
		</g>
		<g>
			<g>
				<g>
					<g>
						<g>
							<g>
								<defs>
									<polygon id="SVGID_27_" points="469.5,1866 305.7,1866 305.7,1882.5 465.7,1882.5 									"/>
								</defs>
								<clipPath id="SVGID_28_">
									<use xlink:href="#SVGID_27_"  style="overflow:visible;"/>
								</clipPath>
								<polygon class="st28" points="459.9,1880.8 391.4,1880.8 391.4,1861.8 432,1862.4 								"/>
							</g>
						</g>
					</g>
				</g>
			</g>
		</g>
	</g>
	<rect x="590.8" y="1783.6" class="st19" width="138.6" height="15.1"/>
	<g>
		<g>
			<g>
				<g>
					<g>
						<g>
							<g>
								<defs>
									<rect id="SVGID_29_" x="252.8" y="2058.2" width="137.8" height="25.2"/>
								</defs>
								<clipPath id="SVGID_30_">
									<use xlink:href="#SVGID_29_"  style="overflow:visible;"/>
								</clipPath>
								<rect x="252.8" y="2058.2" class="st29" width="137.8" height="25.2"/>
							</g>
						</g>
					</g>
				</g>
			</g>
		</g>
	</g>
	<rect x="252.8" y="2058.2" class="st19" width="137.8" height="25.2"/>
	<g>
		<g>
			<g>
				<g>
					<g>
						<g>
							<g>
								<defs>
									<rect id="SVGID_31_" x="590.3" y="2058.2" width="137.8" height="25.2"/>
								</defs>
								<clipPath id="SVGID_32_">
									<use xlink:href="#SVGID_31_"  style="overflow:visible;"/>
								</clipPath>
								<rect x="590.3" y="2058.2" class="st30" width="137.8" height="25.2"/>
							</g>
						</g>
					</g>
				</g>
			</g>
		</g>
	</g>
	<rect x="590.3" y="2058.2" class="st19" width="137.8" height="25.2"/>
	<polyline class="st15" points="728.7,2178.2 728.7,2205.7 590.3,2205.7 590.3,2178.2 	"/>
	<polyline class="st15" points="252.5,2178.2 252.5,2210.1 390.8,2210.1 390.8,2178.2 	"/>
	<rect x="252.5" y="2205.8" class="st19" width="138.4" height="73.2"/>
	<rect x="252.5" y="2205.8" class="st31" width="138.4" height="73.2"/>
	<g>
		<g>
			<g>
				<g>
					<g>
						<g>
							<g>
								<defs>
									<rect id="SVGID_33_" x="392.4" y="2205.8" width="95.7" height="71.9"/>
								</defs>
								<clipPath id="SVGID_34_">
									<use xlink:href="#SVGID_33_"  style="overflow:visible;"/>
								</clipPath>
								<rect x="392.4" y="2205.8" class="st32" width="95.7" height="71.9"/>
							</g>
						</g>
					</g>
				</g>
			</g>
		</g>
	</g>
	<rect x="392.4" y="2205.8" class="st33" width="95.7" height="71.9"/>
	<line class="st33" x1="423.4" y1="2214" x2="457.1" y2="2228.4"/>
	<line class="st33" x1="423.4" y1="2229.4" x2="457.1" y2="2239.6"/>
	<line class="st33" x1="423.4" y1="2240.7" x2="457.1" y2="2247"/>
	<line class="st33" x1="459" y1="2214" x2="425.5" y2="2228.4"/>
	<line class="st33" x1="459" y1="2229.4" x2="425.5" y2="2239.6"/>
	<line class="st33" x1="459" y1="2240.7" x2="425.5" y2="2247"/>
	<g>
		<path class="st34" d="M427.1,2214.3c0,1.6-1.2,2.8-2.8,2.8c-1.6,0-2.8-1.2-2.8-2.8s1.2-2.8,2.8-2.8
			C425.9,2211.5,427.1,2212.8,427.1,2214.3"/>
		<circle class="st33" cx="424.4" cy="2214.3" r="2.8"/>
		<path class="st34" d="M427.1,2229.4c0,1.6-1.2,2.8-2.8,2.8c-1.6,0-2.8-1.2-2.8-2.8s1.2-2.8,2.8-2.8
			C425.9,2226.6,427.1,2227.8,427.1,2229.4"/>
		<circle class="st33" cx="424.4" cy="2229.4" r="2.8"/>
		<path class="st34" d="M427.1,2240c0,1.6-1.2,2.8-2.8,2.8c-1.6,0-2.8-1.2-2.8-2.8c0-1.6,1.2-2.8,2.8-2.8
			C425.9,2237.2,427.1,2238.5,427.1,2240"/>
		<circle class="st33" cx="424.4" cy="2240" r="2.8"/>
		<path class="st34" d="M427.1,2246.5c0,1.6-1.2,2.8-2.8,2.8c-1.6,0-2.8-1.2-2.8-2.8s1.2-2.8,2.8-2.8
			C425.9,2243.7,427.1,2244.9,427.1,2246.5"/>
		<circle class="st33" cx="424.4" cy="2246.5" r="2.8"/>
		<path class="st34" d="M460.5,2214.3c0,1.6-1.2,2.8-2.8,2.8c-1.6,0-2.8-1.2-2.8-2.8s1.2-2.8,2.8-2.8
			C459.3,2211.5,460.5,2212.8,460.5,2214.3"/>
		<circle class="st33" cx="457.8" cy="2214.3" r="2.8"/>
		<path class="st34" d="M460.5,2229.4c0,1.6-1.2,2.8-2.8,2.8c-1.6,0-2.8-1.2-2.8-2.8s1.2-2.8,2.8-2.8
			C459.3,2226.6,460.5,2227.8,460.5,2229.4"/>
		<circle class="st33" cx="457.8" cy="2229.4" r="2.8"/>
		<path class="st34" d="M460.5,2240c0,1.6-1.2,2.8-2.8,2.8c-1.6,0-2.8-1.2-2.8-2.8c0-1.6,1.2-2.8,2.8-2.8
			C459.3,2237.3,460.5,2238.5,460.5,2240"/>
		<circle class="st33" cx="457.8" cy="2240" r="2.8"/>
		<path class="st34" d="M460.5,2246.5c0,1.6-1.2,2.8-2.8,2.8c-1.6,0-2.8-1.2-2.8-2.8s1.2-2.8,2.8-2.8S460.5,2244.9,460.5,2246.5"/>
		<circle class="st33" cx="457.8" cy="2246.5" r="2.8"/>
		<path class="st19" d="M400.1,2206.7c0,0-2.1,9,1.3,18.5c3.5,9.6,9.6,17.2,11,29.5c1.3,12.4,0,12.7,0,12.7H393v-60.7L400.1,2206.7
			L400.1,2206.7z"/>
		<path class="st19" d="M480.6,2206.7c0,0,2.1,9-1.3,18.5c-3.5,9.6-9.6,17.2-11,29.5c-1.3,12.4,0,12.7,0,12.7h19.6v-60.7
			L480.6,2206.7L480.6,2206.7z"/>
	</g>
	<g>
		<g>
			<g>
				<g>
					<g>
						<g>
							<g>
								<defs>
									<rect id="SVGID_35_" x="392.4" y="2268.8" width="95.7" height="8.6"/>
								</defs>
								<clipPath id="SVGID_36_">
									<use xlink:href="#SVGID_35_"  style="overflow:visible;"/>
								</clipPath>
								<rect x="392.4" y="2268.8" class="st35" width="95.7" height="8.6"/>
							</g>
						</g>
					</g>
				</g>
			</g>
		</g>
	</g>
	<rect x="392.4" y="2268.8" class="st6" width="95.7" height="8.6"/>
	<g>
		<g>
			<g>
				<g>
					<g>
						<g>
							<g>
								<defs>
									<path id="SVGID_37_" d="M391.6,2269.4c0,1.1,0.7-0.6,0.7-0.6H488c-0.7-10.8-21.9-19.4-48-19.4
										C413.3,2249.4,391.6,2258.4,391.6,2269.4"/>
								</defs>
								<clipPath id="SVGID_38_">
									<use xlink:href="#SVGID_37_"  style="overflow:visible;"/>
								</clipPath>
								<rect x="391.6" y="2249.4" class="st36" width="96.3" height="21.1"/>
							</g>
						</g>
					</g>
				</g>
			</g>
		</g>
	</g>
	<g>
		<path class="st33" d="M392.4,2268.8h95.7c-0.7-10.8-21.9-19.4-48-19.4c-26.6,0-48.1,9-48.1,20
			C391.6,2270.5,392.4,2268.8,392.4,2268.8z"/>
		<polyline points="395.7,2277.9 404.6,2268.8 413.7,2277.9 		"/>
		<polyline class="st6" points="395.7,2277.9 404.6,2268.8 413.7,2277.9 		"/>
		<polyline points="417,2277.9 425.8,2268.8 434.9,2277.9 		"/>
		<polyline class="st6" points="417,2277.9 425.8,2268.8 434.9,2277.9 		"/>
		<polyline points="438.2,2277.9 447.3,2268.8 456.2,2277.9 		"/>
		<polyline class="st6" points="438.2,2277.9 447.3,2268.8 456.2,2277.9 		"/>
		<polyline points="459.5,2277.9 468.4,2268.8 477.5,2277.9 		"/>
		<polyline class="st6" points="459.5,2277.9 468.4,2268.8 477.5,2277.9 		"/>
	</g>
	<g>
		<g>
			<g>
				<g>
					<g>
						<g>
							<g>
								<defs>
									<rect id="SVGID_39_" x="493.4" y="2205.8" width="95.5" height="71.9"/>
								</defs>
								<clipPath id="SVGID_40_">
									<use xlink:href="#SVGID_39_"  style="overflow:visible;"/>
								</clipPath>
								<rect x="492.5" y="2205.8" class="st37" width="95.5" height="71.9"/>
							</g>
						</g>
					</g>
				</g>
			</g>
		</g>
	</g>
	<rect x="493.4" y="2205.8" class="st33" width="95.5" height="71.9"/>
	<line class="st33" x1="557.9" y1="2214" x2="524.3" y2="2228.4"/>
	<line class="st33" x1="557.9" y1="2229.4" x2="524.3" y2="2239.6"/>
	<line class="st33" x1="557.9" y1="2240.7" x2="524.3" y2="2247"/>
	<line class="st33" x1="522.2" y1="2214" x2="555.9" y2="2228.4"/>
	<line class="st33" x1="522.2" y1="2229.4" x2="555.9" y2="2239.6"/>
	<line class="st33" x1="522.2" y1="2240.7" x2="555.9" y2="2247"/>
	<g>
		<path class="st38" d="M554.1,2214.3c0,1.6,1.2,2.8,2.8,2.8c1.6,0,2.8-1.2,2.8-2.8s-1.2-2.8-2.8-2.8
			C555.3,2211.5,554.1,2212.8,554.1,2214.3"/>
		<circle class="st33" cx="556.8" cy="2214.3" r="2.8"/>
		<path class="st38" d="M554.1,2229.4c0,1.6,1.2,2.8,2.8,2.8c1.6,0,2.8-1.2,2.8-2.8s-1.2-2.8-2.8-2.8
			C555.3,2226.7,554.1,2227.8,554.1,2229.4"/>
		<circle class="st33" cx="556.8" cy="2229.4" r="2.8"/>
		<path class="st38" d="M554.1,2240c0,1.6,1.2,2.8,2.8,2.8c1.6,0,2.8-1.2,2.8-2.8c0-1.6-1.2-2.8-2.8-2.8
			C555.3,2237.3,554.1,2238.5,554.1,2240"/>
		<circle class="st33" cx="556.8" cy="2240" r="2.8"/>
		<path class="st38" d="M554.1,2246.5c0,1.6,1.2,2.8,2.8,2.8c1.6,0,2.8-1.2,2.8-2.8s-1.2-2.8-2.8-2.8
			C555.3,2243.7,554.1,2244.9,554.1,2246.5"/>
		<circle class="st33" cx="556.8" cy="2246.5" r="2.8"/>
		<path class="st38" d="M520.8,2214.3c0,1.6,1.2,2.8,2.8,2.8c1.6,0,2.8-1.2,2.8-2.8s-1.2-2.8-2.8-2.8
			C522.1,2211.5,520.8,2212.8,520.8,2214.3"/>
		<circle class="st33" cx="523.5" cy="2214.3" r="2.8"/>
		<path class="st38" d="M520.8,2229.4c0,1.6,1.2,2.8,2.8,2.8c1.6,0,2.8-1.2,2.8-2.8s-1.2-2.8-2.8-2.8
			C522.1,2226.7,520.8,2227.8,520.8,2229.4"/>
		<circle class="st33" cx="523.5" cy="2229.4" r="2.8"/>
		<path class="st38" d="M520.8,2240c0,1.6,1.2,2.8,2.8,2.8c1.6,0,2.8-1.2,2.8-2.8c0-1.6-1.2-2.8-2.8-2.8
			C522.1,2237.3,520.8,2238.5,520.8,2240"/>
		<circle class="st33" cx="523.5" cy="2240" r="2.8"/>
		<path class="st38" d="M520.8,2246.5c0,1.6,1.2,2.8,2.8,2.8c1.6,0,2.8-1.2,2.8-2.8s-1.2-2.8-2.8-2.8
			C522.1,2243.7,520.8,2244.9,520.8,2246.5"/>
		<circle class="st33" cx="523.5" cy="2246.5" r="2.8"/>
		<path class="st19" d="M581.2,2206.7c0,0,2.1,9-1.3,18.5c-3.5,9.6-9.6,17.2-11,29.5c-1.3,12.4,0,12.7,0,12.7h19.4v-60.7
			L581.2,2206.7L581.2,2206.7z"/>
		<path class="st19" d="M500.5,2206.7c0,0-2.1,9,1.3,18.5c3.5,9.6,9.6,17.2,11,29.5c1.3,12.4,0,12.7,0,12.7h-19.5v-60.7
			L500.5,2206.7L500.5,2206.7z"/>
	</g>
	<g>
		<g>
			<g>
				<g>
					<g>
						<g>
							<g>
								<defs>
									<rect id="SVGID_41_" x="493.4" y="2268.8" width="95.5" height="8.6"/>
								</defs>
								<clipPath id="SVGID_42_">
									<use xlink:href="#SVGID_41_"  style="overflow:visible;"/>
								</clipPath>
								<rect x="493.4" y="2268.8" class="st39" width="95.5" height="8.6"/>
							</g>
						</g>
					</g>
				</g>
			</g>
		</g>
	</g>
	<rect x="493.4" y="2268.8" class="st6" width="95.5" height="8.6"/>
	<g>
		<g>
			<g>
				<g>
					<g>
						<g>
							<g>
								<defs>
									<path id="SVGID_43_" d="M493.4,2268.8h95.5c0,0,0.7,1.7,0.7,0.6c0-11-21.6-20-48.1-20
										C515.1,2249.4,494.1,2258.2,493.4,2268.8"/>
								</defs>
								<clipPath id="SVGID_44_">
									<use xlink:href="#SVGID_43_"  style="overflow:visible;"/>
								</clipPath>
								<rect x="493.4" y="2249.4" class="st40" width="96.1" height="21.1"/>
							</g>
						</g>
					</g>
				</g>
			</g>
		</g>
	</g>
	<g>
		<path class="st33" d="M589,2268.8h-95.5c0.7-10.8,21.7-19.4,47.9-19.4c26.6,0,48.1,9,48.1,20C589.6,2270.5,589,2268.8,589,2268.8z
			"/>
		<polyline points="585.5,2277.9 576.6,2268.8 567.6,2277.9 		"/>
		<polyline class="st6" points="585.5,2277.9 576.6,2268.8 567.6,2277.9 		"/>
		<polyline points="564.2,2277.9 555.4,2268.8 546.4,2277.9 		"/>
		<polyline class="st6" points="564.2,2277.9 555.4,2268.8 546.4,2277.9 		"/>
		<polyline points="542.9,2277.9 534.1,2268.8 525.1,2277.9 		"/>
		<polyline class="st6" points="542.9,2277.9 534.1,2268.8 525.1,2277.9 		"/>
		<polyline points="521.6,2277.9 512.8,2268.8 503.9,2277.9 		"/>
		<polyline class="st6" points="521.6,2277.9 512.8,2268.8 503.9,2277.9 		"/>
	</g>
	<rect x="591.8" y="2205.9" class="st19" width="95.9" height="61.7"/>
	<g>
		<g>
			<g>
				<g>
					<g>
						<g>
							<g>
								<defs>
									<polygon id="SVGID_45_" points="642.3,2205.8 625.1,2227.8 592.9,2233.9 592.9,2277.8 729,2277.8 729,2205.8 									"/>
								</defs>
								<clipPath id="SVGID_46_">
									<use xlink:href="#SVGID_45_"  style="overflow:visible;"/>
								</clipPath>
								<rect x="592.9" y="2205.8" class="st41" width="136" height="71.9"/>
							</g>
						</g>
					</g>
				</g>
			</g>
		</g>
	</g>
	<polygon class="st6" points="592.9,2233.9 625.1,2227.8 642.3,2205.8 729,2205.8 729,2277.8 592.9,2277.8 	"/>
	<line class="st33" x1="656.4" y1="2211.6" x2="638.2" y2="2209.4"/>
	<line class="st33" x1="648.6" y1="2225" x2="630.6" y2="2220.4"/>
	<line class="st33" x1="642.8" y1="2234.6" x2="625.1" y2="2227.8"/>
	<line class="st33" x1="637.6" y1="2210.1" x2="647.3" y2="2223.1"/>
	<line class="st33" x1="629.8" y1="2220.2" x2="641.5" y2="2232.7"/>
	<line class="st33" x1="624.5" y1="2228" x2="637.9" y2="2239"/>
	<g>
		<path class="st38" d="M652.9,2210c-0.8,1.3-0.2,3,1,3.7c1.3,0.8,3,0.2,3.7-1c0.8-1.3,0.2-3-1-3.7
			C655.4,2208.2,653.6,2208.6,652.9,2210"/>
		<circle class="st33" cx="655.3" cy="2211.4" r="2.8"/>
		<path class="st38" d="M645.2,2223.1c-0.8,1.3-0.2,3,1,3.7c1.3,0.8,3,0.2,3.7-1c0.8-1.3,0.2-3-1-3.7
			C647.7,2221.3,646.1,2221.8,645.2,2223.1"/>
		<circle class="st33" cx="647.7" cy="2224.4" r="2.8"/>
		<path class="st38" d="M639.8,2232.2c-0.8,1.3-0.2,3,1,3.7c1.3,0.8,3,0.2,3.7-1c0.8-1.3,0.2-3-1-3.7
			C642.3,2230.5,640.6,2231,639.8,2232.2"/>
		<circle class="st33" cx="642.3" cy="2233.6" r="2.8"/>
		<path class="st38" d="M636.6,2237.9c-0.8,1.3-0.2,3,1,3.7c1.3,0.8,3,0.2,3.7-1c0.8-1.3,0.2-3-1-3.7
			C639,2236.1,637.3,2236.7,636.6,2237.9"/>
		<circle class="st33" cx="639" cy="2239.1" r="2.8"/>
		<line class="st33" x1="629.6" y1="2244.6" x2="617.6" y2="2228.7"/>
		<line class="st33" x1="614.9" y1="2248.3" x2="604.6" y2="2231.7"/>
		<line class="st33" x1="603.9" y1="2251.3" x2="596" y2="2233.2"/>
		<line class="st33" x1="617.8" y1="2228.7" x2="615.4" y2="2246.3"/>
		<line class="st33" x1="605.3" y1="2231.4" x2="604.4" y2="2249.1"/>
		<line class="st33" x1="596" y1="2233.4" x2="597.5" y2="2250.9"/>
		<path class="st38" d="M628.5,2241c-1.6,0.4-2.4,1.9-1.9,3.4c0.4,1.6,1.9,2.4,3.4,1.9c1.6-0.4,2.4-1.9,1.9-3.4
			C631.4,2241.4,629.8,2240.6,628.5,2241"/>
		<circle class="st33" cx="629.2" cy="2243.6" r="2.8"/>
		<path class="st38" d="M613.9,2244.8c-1.6,0.4-2.4,1.9-1.9,3.4c0.4,1.6,1.9,2.4,3.4,1.9c1.6-0.4,2.4-1.9,1.9-3.4
			C616.8,2245.3,615.4,2244.5,613.9,2244.8"/>
		<circle class="st33" cx="614.7" cy="2247.5" r="2.8"/>
		<path class="st38" d="M603.6,2247.5c-1.6,0.4-2.4,1.9-1.9,3.4c0.4,1.6,1.9,2.4,3.4,1.9c1.6-0.4,2.4-1.9,1.9-3.4
			C606.5,2248,605,2247.2,603.6,2247.5"/>
		<circle class="st33" cx="604.4" cy="2250.2" r="2.8"/>
		<path class="st38" d="M597.3,2249.2c-1.6,0.4-2.4,1.9-1.9,3.4c0.4,1.6,1.9,2.4,3.4,1.9c1.6-0.4,2.4-1.9,1.9-3.4
			C600.1,2249.7,598.8,2248.8,597.3,2249.2"/>
		<circle class="st33" cx="598.1" cy="2251.8" r="2.8"/>
		<path class="st19" d="M593.6,2268.2h134.7v-62.7h-49.2c0,0,1.1,9.8-1.3,19.6c0,0,1.1,14.6-17.3,20.1
			c-18.3,5.5-67.5,14.8-67.5,14.8v9.1"/>
	</g>
	<g>
		<g>
			<g>
				<g>
					<g>
						<g>
							<g>
								<defs>
									<rect id="SVGID_47_" x="594.1" y="2268.8" width="135" height="8.6"/>
								</defs>
								<clipPath id="SVGID_48_">
									<use xlink:href="#SVGID_47_"  style="overflow:visible;"/>
								</clipPath>
								<rect x="594.1" y="2268.8" class="st42" width="135" height="8.6"/>
							</g>
						</g>
					</g>
				</g>
			</g>
		</g>
	</g>
	<rect x="594.1" y="2268.8" class="st33" width="135" height="8.6"/>
	<polyline points="725.5,2277.9 716.6,2268.8 707.7,2277.9 	"/>
	<polyline class="st6" points="725.5,2277.9 716.6,2268.8 707.7,2277.9 	"/>
	<polyline points="703.1,2277.9 694.2,2268.8 685.2,2277.9 	"/>
	<polyline class="st6" points="703.1,2277.9 694.2,2268.8 685.2,2277.9 	"/>
	<polyline points="680.6,2277.9 671.8,2268.8 662.9,2277.9 	"/>
	<polyline class="st6" points="680.6,2277.9 671.8,2268.8 662.9,2277.9 	"/>
	<polyline points="658.4,2277.9 649.6,2268.8 640.5,2277.9 	"/>
	<polyline class="st6" points="658.4,2277.9 649.6,2268.8 640.5,2277.9 	"/>
	<polyline points="636,2277.9 627,2268.8 618.2,2277.9 	"/>
	<polyline class="st6" points="636,2277.9 627,2268.8 618.2,2277.9 	"/>
	<polyline points="613.7,2277.9 604.7,2268.8 595.9,2277.9 	"/>
	<polyline class="st6" points="613.7,2277.9 604.7,2268.8 595.9,2277.9 	"/>
	<g>
		<g>
			<g>
				<g>
					<g>
						<g>
							<g>
								<defs>
									<polygon id="SVGID_49_" points="251.5,2205.8 251.5,2277.8 387.4,2277.8 387.4,2233.9 355.3,2227.8 338,2205.8 									
										"/>
								</defs>
								<clipPath id="SVGID_50_">
									<use xlink:href="#SVGID_49_"  style="overflow:visible;"/>
								</clipPath>
								
									<linearGradient id="SVGID_51_" gradientUnits="userSpaceOnUse" x1="-699.7256" y1="993.0775" x2="-698.7258" y2="993.0775" gradientTransform="matrix(136.0635 0 0 136.0635 95458.5859 -132879.8594)">
									<stop  offset="0" style="stop-color:#000000"/>
									<stop  offset="2.563614e-02" style="stop-color:#171717"/>
									<stop  offset="8.925876e-02" style="stop-color:#383938"/>
									<stop  offset="0.1536" style="stop-color:#545453"/>
									<stop  offset="0.2173" style="stop-color:#6D6D6C"/>
									<stop  offset="0.2804" style="stop-color:#828181"/>
									<stop  offset="0.3425" style="stop-color:#919191"/>
									<stop  offset="0.4034" style="stop-color:#9B9B9B"/>
									<stop  offset="0.4615" style="stop-color:#A09F9F"/>
									<stop  offset="0.5498" style="stop-color:#9C9C9C"/>
									<stop  offset="0.6229" style="stop-color:#949393"/>
									<stop  offset="0.6906" style="stop-color:#878686"/>
									<stop  offset="0.7551" style="stop-color:#767574"/>
									<stop  offset="0.8173" style="stop-color:#605F5F"/>
									<stop  offset="0.8778" style="stop-color:#484847"/>
									<stop  offset="0.9369" style="stop-color:#2D2D2D"/>
									<stop  offset="0.9935" style="stop-color:#070707"/>
									<stop  offset="1" style="stop-color:#000000"/>
								</linearGradient>
								<rect x="251.5" y="2205.8" class="st43" width="136" height="71.9"/>
							</g>
						</g>
					</g>
				</g>
			</g>
		</g>
	</g>
	<polygon class="st25" points="387.4,2233.9 355.3,2227.8 338,2205.8 251.5,2205.8 251.5,2277.8 387.4,2277.8 	"/>
	<line class="st33" x1="324" y1="2211.6" x2="342.2" y2="2209.4"/>
	<line class="st33" x1="331.9" y1="2225" x2="349.7" y2="2220.4"/>
	<line class="st33" x1="337.6" y1="2234.6" x2="355.3" y2="2227.8"/>
	<line class="st33" x1="342.9" y1="2210.1" x2="333.1" y2="2223.1"/>
	<line class="st33" x1="350.4" y1="2220.2" x2="338.8" y2="2232.7"/>
	<line class="st33" x1="356" y1="2228" x2="342.4" y2="2239"/>
	<g>
		<path class="st25" d="M327.4,2210c0.8,1.3,0.2,3-1,3.7c-1.3,0.8-3,0.2-3.7-1c-0.8-1.3-0.2-3,1-3.7
			C325.1,2208.2,326.7,2208.6,327.4,2210"/>
		<circle class="st33" cx="325.1" cy="2211.4" r="2.8"/>
		<path class="st25" d="M335.2,2223.1c0.8,1.3,0.2,3-1,3.7c-1.3,0.8-3,0.2-3.7-1c-0.8-1.3-0.2-3,1-3.7
			C332.7,2221.3,334.3,2221.8,335.2,2223.1"/>
		<path class="st33" d="M335.2,2223.1c0.8,1.3,0.2,3-1,3.7c-1.3,0.8-3,0.2-3.7-1c-0.8-1.3-0.2-3,1-3.7
			C332.7,2221.3,334.3,2221.8,335.2,2223.1z"/>
		<path class="st25" d="M340.5,2232.2c0.8,1.3,0.2,3-1,3.7c-1.3,0.8-3,0.2-3.7-1c-0.8-1.3-0.2-3,1-3.7
			C338,2230.5,339.6,2231,340.5,2232.2"/>
		<path class="st33" d="M340.5,2232.2c0.8,1.3,0.2,3-1,3.7c-1.3,0.8-3,0.2-3.7-1c-0.8-1.3-0.2-3,1-3.7
			C338,2230.5,339.6,2231,340.5,2232.2z"/>
		<path class="st25" d="M343.9,2237.9c0.8,1.3,0.2,3-1,3.7c-1.3,0.8-3,0.2-3.7-1c-0.8-1.3-0.2-3,1-3.7
			C341.3,2236.1,343,2236.7,343.9,2237.9"/>
		<circle class="st33" cx="341.3" cy="2239.1" r="2.8"/>
		<line class="st33" x1="350.7" y1="2244.6" x2="362.8" y2="2228.7"/>
		<line class="st33" x1="365.5" y1="2248.3" x2="375.8" y2="2231.7"/>
		<line class="st33" x1="376.5" y1="2251.3" x2="384.5" y2="2233.2"/>
		<line class="st33" x1="362.5" y1="2228.7" x2="365.1" y2="2246.3"/>
		<line class="st33" x1="375.1" y1="2231.4" x2="376.1" y2="2249.1"/>
		<line class="st33" x1="384.5" y1="2233.4" x2="383" y2="2250.9"/>
		<path class="st25" d="M351.9,2241c1.6,0.4,2.4,1.9,1.9,3.4c-0.4,1.6-1.9,2.4-3.4,1.9c-1.6-0.4-2.4-1.9-1.9-3.4
			C349,2241.4,350.4,2240.6,351.9,2241"/>
		<path class="st33" d="M351.9,2241c1.6,0.4,2.4,1.9,1.9,3.4c-0.4,1.6-1.9,2.4-3.4,1.9c-1.6-0.4-2.4-1.9-1.9-3.4
			C349,2241.4,350.4,2240.6,351.9,2241z"/>
		<path class="st25" d="M366.4,2244.8c1.6,0.4,2.4,1.9,1.9,3.4c-0.4,1.6-1.9,2.4-3.4,1.9c-1.6-0.4-2.4-1.9-1.9-3.4
			C363.6,2245.3,365.1,2244.5,366.4,2244.8"/>
		<circle class="st33" cx="365.7" cy="2247.5" r="2.8"/>
		<path class="st25" d="M376.7,2247.5c1.6,0.4,2.4,1.9,1.9,3.4c-0.4,1.6-1.9,2.4-3.4,1.9c-1.6-0.4-2.4-1.9-1.9-3.4
			C373.8,2248,375.4,2247.2,376.7,2247.5"/>
		<circle class="st33" cx="376.1" cy="2250.2" r="2.8"/>
		<path class="st25" d="M383,2249.2c1.6,0.4,2.4,1.9,1.9,3.4c-0.4,1.6-1.9,2.4-3.4,1.9c-1.6-0.4-2.4-1.9-1.9-3.4
			C380.1,2249.7,381.7,2248.8,383,2249.2"/>
		<circle class="st33" cx="382.3" cy="2251.8" r="2.8"/>
		<path class="st19" d="M386.8,2268.3H252.1v-61.7h49.2c0,0-1.1,8.6,1.3,18.5c0,0-1.1,14.6,17.3,20.1c18.3,5.5,67.6,14.8,67.6,14.8
			v9.1"/>
	</g>
	<g>
		<g>
			<g>
				<g>
					<g>
						<g>
							<g>
								<defs>
									<rect id="SVGID_52_" x="251.5" y="2268.8" width="135" height="8.6"/>
								</defs>
								<clipPath id="SVGID_53_">
									<use xlink:href="#SVGID_52_"  style="overflow:visible;"/>
								</clipPath>
								<rect x="251.5" y="2268.8" class="st44" width="135" height="8.6"/>
							</g>
						</g>
					</g>
				</g>
			</g>
		</g>
	</g>
	<rect x="251.5" y="2268.8" class="st33" width="135" height="8.6"/>
	<polyline points="254.9,2277.9 263.8,2268.8 272.7,2277.9 	"/>
	<polyline class="st6" points="254.9,2277.9 263.8,2268.8 272.7,2277.9 	"/>
	<polyline points="277.2,2277.9 286.1,2268.8 295.1,2277.9 	"/>
	<polyline class="st6" points="277.2,2277.9 286.1,2268.8 295.1,2277.9 	"/>
	<polyline points="299.6,2277.9 308.6,2268.8 317.4,2277.9 	"/>
	<polyline class="st6" points="299.6,2277.9 308.6,2268.8 317.4,2277.9 	"/>
	<polyline points="321.9,2277.9 330.9,2268.8 339.8,2277.9 	"/>
	<polyline class="st6" points="321.9,2277.9 330.9,2268.8 339.8,2277.9 	"/>
	<polyline points="344.4,2277.9 353.3,2268.8 362.3,2277.9 	"/>
	<polyline class="st6" points="344.4,2277.9 353.3,2268.8 362.3,2277.9 	"/>
	<polyline points="366.8,2277.9 375.6,2268.8 384.6,2277.9 	"/>
	<polyline class="st6" points="366.8,2277.9 375.6,2268.8 384.6,2277.9 	"/>
	<polygon class="st14" points="387.7,1595.7 377,1544.8 263.9,1544.8 253.3,1595.7 	"/>
	<polygon class="st33" points="387.7,1595.7 377,1544.8 263.9,1544.8 253.3,1595.7 	"/>
	<polygon class="st14" points="588.2,2279 577.7,2329.9 401.7,2329.9 391,2279 	"/>
	<polygon class="st33" points="588.2,2279 577.7,2329.9 401.7,2329.9 391,2279 	"/>
	<polygon class="st14" points="387.7,2279 377,2329.9 263.9,2329.9 253.3,2279 	"/>
	<polygon class="st33" points="387.7,2279 377,2329.9 263.9,2329.9 253.3,2279 	"/>
	<polygon class="st14" points="590.8,1595.7 601.6,1544.8 714.7,1544.8 725.3,1595.7 	"/>
	<polygon class="st33" points="590.8,1595.7 601.6,1544.8 714.7,1544.8 725.3,1595.7 	"/>
	<polygon class="st14" points="590.8,2279 601.6,2329.9 714.7,2329.9 725.3,2279 	"/>
	<polygon class="st33" points="590.8,2279 601.6,2329.9 714.7,2329.9 725.3,2279 	"/>
	<polygon class="st14" points="728.1,1595.7 779,1606.3 779,2265.8 728.1,2276.5 	"/>
	<path class="st31" d="M390.8,2058.5"/>
	<path class="st1" d="M390.8,2058.5c14.3-22.3,53.7-38.2,99.9-38.2c45.4,0,83.3,15.4,98.2,37"/>
	<polygon class="st33" points="728.1,1595.7 779,1606.3 779,2265.8 728.1,2276.5 	"/>
	<g>
		<g>
			<g>
				<g>
					<g>
						<g>
							<g>
								<defs>
									<polygon id="SVGID_54_" points="52.1,2059.6 52.1,2206.4 150.2,2206.4 150.2,2114.5 155.5,2114.5 155.5,2206.4 
										251.6,2206.4 252.5,2059.6 									"/>
								</defs>
								<clipPath id="SVGID_55_">
									<use xlink:href="#SVGID_54_"  style="overflow:visible;"/>
								</clipPath>
								<rect x="52.1" y="2059.6" class="st45" width="200.4" height="146.6"/>
							</g>
						</g>
					</g>
				</g>
			</g>
		</g>
	</g>
	<polygon class="st33" points="52.1,2059.6 52.1,2206.4 150.2,2206.4 150.2,2114.5 155.5,2114.5 155.5,2206.4 251.6,2206.4 
		252.5,2059.6 	"/>
	<g>
		<g>
			<g>
				<g>
					<g>
						<rect x="52.1" y="1596.8" class="st6" width="198.8" height="197.3"/>
					</g>
				</g>
			</g>
		</g>
	</g>
	<g>
		<g>
			<g>
				<g>
					<g>
						<g>
							<g>
								<defs>
									<rect id="SVGID_56_" x="52.1" y="1596.3" width="199.3" height="198"/>
								</defs>
								<clipPath id="SVGID_57_">
									<use xlink:href="#SVGID_56_"  style="overflow:visible;"/>
								</clipPath>
								<rect x="52.1" y="1596.8" class="st46" width="198.8" height="197.3"/>
							</g>
						</g>
					</g>
				</g>
			</g>
		</g>
	</g>
	<rect x="52.1" y="1795.4" class="st14" width="198.8" height="263.9"/>
	<polygon class="st8" points="52.1,1597.2 250.9,1597.2 250.9,1719.1 230.5,1772 73.7,1772 52.1,1719.1 	"/>
	<g>
		<g>
			<rect id="SVGID_198_" x="52.1" y="2059.7" class="st19" width="97.2" height="15.5"/>
		</g>
	</g>
	<rect x="52.1" y="2059.7" class="st33" width="97.2" height="23.9"/>
	<rect x="150.2" y="2059.7" class="st33" width="99.5" height="23.9"/>
	<g>
		<path class="st33" d="M63.9,2092.6c0,12.1,26.1,21.9,58.4,21.9h53.6c32.2,0,58.4-9.8,58.4-21.9"/>
	</g>
	<g>
		<g>
			<rect id="SVGID_200_" x="155.5" y="2206.6" class="st25" width="95.9" height="71.9"/>
		</g>
		<g>
			<g>
				<g>
					<g>
						<g>
							<g>
								<defs>
									<rect id="SVGID_58_" x="155.5" y="2206.6" width="95.9" height="71.9"/>
								</defs>
								<clipPath id="SVGID_59_">
									<use xlink:href="#SVGID_58_"  style="overflow:visible;"/>
								</clipPath>
								<rect x="155.5" y="2206.6" class="st47" width="95.9" height="71.9"/>
							</g>
						</g>
					</g>
				</g>
			</g>
		</g>
	</g>
	<rect x="155.5" y="2206.6" class="st33" width="95.9" height="71.9"/>
	<g>
		<path d="M243.5,2207.6c0,0,2.1,9-1.3,18.5c-3.5,9.6-9.6,17.2-11,29.5c-1.3,12.4,0,12.7,0,12.7h19.4v-60.7L243.5,2207.6
			L243.5,2207.6z"/>
		<path d="M162.9,2207.6c0,0-2.1,9,1.3,18.5c3.5,9.6,9.6,17.2,11,29.5c1.3,12.4,0,12.7,0,12.7h-19.8v-60.7L162.9,2207.6
			L162.9,2207.6z"/>
	</g>
	<g>
		<g>
			<g>
				<g>
					<g>
						<g>
							<g>
								<defs>
									<rect id="SVGID_60_" x="155.5" y="2269.7" width="95.9" height="8.6"/>
								</defs>
								<clipPath id="SVGID_61_">
									<use xlink:href="#SVGID_60_"  style="overflow:visible;"/>
								</clipPath>
								<rect x="155.5" y="2269.7" class="st48" width="95.9" height="8.6"/>
							</g>
						</g>
					</g>
				</g>
			</g>
		</g>
	</g>
	<polygon class="st33" points="155.5,2269.1 251,2269.1 251.4,2278.4 155.5,2278.4 	"/>
	<polyline points="247.9,2278.6 238.9,2269.7 230.1,2278.6 	"/>
	<polyline class="st6" points="247.9,2278.6 238.9,2269.7 230.1,2278.6 	"/>
	<polyline points="226.6,2278.6 217.6,2269.7 208.7,2278.6 	"/>
	<polyline class="st6" points="226.6,2278.6 217.6,2269.7 208.7,2278.6 	"/>
	<polyline points="205.3,2278.6 196.4,2269.7 187.4,2278.6 	"/>
	<polyline class="st6" points="205.3,2278.6 196.4,2269.7 187.4,2278.6 	"/>
	<polyline points="184.1,2278.6 175,2269.7 166.1,2278.6 	"/>
	<polyline class="st6" points="184.1,2278.6 175,2269.7 166.1,2278.6 	"/>
	<g>
		<g>
			<rect id="SVGID_204_" x="54.7" y="2206.6" class="st25" width="95.5" height="71.9"/>
		</g>
		<g>
			<g>
				<g>
					<g>
						<g>
							<g>
								<defs>
									<rect id="SVGID_62_" x="54.7" y="2206.6" width="95.5" height="71.9"/>
								</defs>
								<clipPath id="SVGID_63_">
									<use xlink:href="#SVGID_62_"  style="overflow:visible;"/>
								</clipPath>
								<rect x="54.7" y="2206.6" class="st49" width="95.5" height="71.9"/>
							</g>
						</g>
					</g>
				</g>
			</g>
		</g>
	</g>
	<rect x="54.7" y="2206.6" class="st33" width="95.5" height="71.9"/>
	<g>
		<path d="M62.3,2207.6c0,0-2.1,9,1.3,18.5c3.5,9.5,9.6,17.2,11,29.5c1.3,12.4,0,13.6,0,13.6H55.3v-61.6H62.3L62.3,2207.6z"/>
		<path d="M143,2207.6c0,0,2.1,9-1.3,18.5c-3.5,9.5-9.6,17.2-11,29.5c-1.3,12.4,0,13.7,0,13.7h19.5v-61.7L143,2207.6L143,2207.6z"/>
	</g>
	<g>
		<g>
			<g>
				<g>
					<g>
						<g>
							<g>
								<defs>
									<rect id="SVGID_64_" x="54.7" y="2269.7" width="95.5" height="8.6"/>
								</defs>
								<clipPath id="SVGID_65_">
									<use xlink:href="#SVGID_64_"  style="overflow:visible;"/>
								</clipPath>
								<rect x="54.7" y="2269.1" class="st50" width="95.5" height="8.6"/>
							</g>
						</g>
					</g>
				</g>
			</g>
		</g>
	</g>
	<rect x="54.7" y="2269.7" class="st33" width="95.5" height="8.6"/>
	<polyline points="58.1,2278.6 66.9,2269.7 75.9,2278.6 	"/>
	<polyline class="st6" points="58.1,2278.6 66.9,2269.7 75.9,2278.6 	"/>
	<polyline points="79.3,2278.6 88.2,2269.7 97.2,2278.6 	"/>
	<polyline class="st6" points="79.3,2278.6 88.2,2269.7 97.2,2278.6 	"/>
	<polyline points="100.6,2278.6 109.6,2269.7 118.4,2278.6 	"/>
	<polyline class="st6" points="100.6,2278.6 109.6,2269.7 118.4,2278.6 	"/>
	<polyline points="121.8,2278.6 130.8,2269.7 139.7,2278.6 	"/>
	<polyline class="st6" points="121.8,2278.6 130.8,2269.7 139.7,2278.6 	"/>
	<polygon class="st14" points="52.1,2277.9 63.8,2328.8 239.8,2328.8 250.5,2277.9 	"/>
	<polygon class="st33" points="52.1,2278.9 63.8,2329.8 239.8,2329.8 250.5,2278.9 	"/>
	<polygon class="st14" points="52.1,1595.8 63.8,1544.9 239.8,1544.9 250.5,1595.8 	"/>
	<polygon class="st33" points="52.1,1595.8 63.8,1544.9 239.8,1544.9 250.5,1595.8 	"/>
	<rect x="52.1" y="1596.8" class="st33" width="198.8" height="197.3"/>
	<rect x="52.1" y="1795.4" class="st33" width="198.8" height="263.6"/>
	<rect x="52.1" y="1783.6" class="st19" width="336.4" height="15.1"/>
	<polyline class="st51" points="389.1,2279 389.1,1595.7 589.5,1595.7 589.5,2279 	"/>
	<path d="M726.1,2283.2c-1.6,0-2.8-1.2-2.8-2.8s1.2-2.8,2.8-2.8s2.8,1.2,2.8,2.8C728.7,2282,727.5,2283.2,726.1,2283.2"/>
	<line class="st52" x1="744.6" y1="2297.1" x2="726.1" y2="2280.6"/>
	<path d="M254.7,1596.3c0-1.6-1.2-2.8-2.8-2.8s-2.8,1.2-2.8,2.8c0,1.6,1.2,2.8,2.8,2.8C253.5,1599.1,254.7,1597.9,254.7,1596.3"/>
	<line class="st52" x1="251.9" y1="1532.5" x2="251.9" y2="1594.3"/>
	<path d="M730.8,1596.3c0-1.6-1.2-2.8-2.8-2.8c-1.6,0-2.8,1.2-2.8,2.8c0,1.6,1.2,2.8,2.8,2.8
		C729.7,1599.1,730.8,1597.9,730.8,1596.3"/>
	<line class="st52" x1="728.1" y1="1532.5" x2="728.1" y2="1594.3"/>
	<path d="M391.9,1596.3c0-1.6-1.2-2.8-2.8-2.8c-1.6,0-2.8,1.2-2.8,2.8c0,1.6,1.2,2.8,2.8,2.8
		C390.6,1599.1,391.9,1597.9,391.9,1596.3"/>
	<line class="st52" x1="380.9" y1="1532.5" x2="389.1" y2="1594.3"/>
	<path d="M592.2,1596.3c0-1.6-1.2-2.8-2.8-2.8s-2.8,1.2-2.8,2.8c0,1.6,1.2,2.8,2.8,2.8C590.9,1599.1,592.2,1597.9,592.2,1596.3"/>
	<line class="st52" x1="599.1" y1="1532.5" x2="589.5" y2="1594.3"/>
	<g>
		<text transform="matrix(1 0 0 1 733.9961 2309.6152)" class="st53 st54">Fold</text>
	</g>
	<g>
		<text transform="matrix(1 0 0 1 236.3511 1521.9316)" class="st53 st54">Fold</text>
	</g>
	<g>
		<text transform="matrix(1 0 0 1 354.9316 1521.9316)" class="st53 st54">Fold</text>
	</g>
	<g>
		<text transform="matrix(1 0 0 1 594.5244 1521.9316)" class="st53 st54">Fold</text>
	</g>
	<g>
		<text transform="matrix(1 0 0 1 712.4316 1521.9316)" class="st53 st54">Fold</text>
	</g>
	<polyline class="st33" points="493.4,2205.5 493.4,2118.6 488,2118.6 488,2205.8 	"/>
	<path class="st9" d="M314.7,1701.9c0,0,13.7-6.1,19.5,5c4.5,8.2-0.4,11-4.1,14.2c-5.2,4.6-12.7,1-8,8.4l4.6,7.3
		c0,0-11.9-2.2-9.2-10.8c2.8-8.5,11.7-10.4,11.7-10.4S334.9,1701.7,314.7,1701.9"/>
	<path class="st9" d="M308.4,1724.7c0,0-4.6-17.5,6.4-23c0,0,1,3.7,1,8.2C315.6,1714.5,308.4,1718.3,308.4,1724.7"/>
	<path class="st55" d="M338,1704.3l3.2-3.6c0,0-15.5-17.5-29.2-12s-18.3,21.1-10.1,42.2c8.2,21.1,17.5,23.9,23,23.9
		c5.4,0,5.5-9.2,5.5-9.2s-3.7,9.2-13.8,0c-10.1-9.2-19.3-24.8-12-42.2C312,1686.3,334.1,1697.8,338,1704.3"/>
	<path class="st9" d="M338,1704.3l3.2-3.6c0,0-15.5-17.5-29.2-12s-18.3,21.1-10.1,42.2c8.2,21.1,17.5,23.9,23,23.9
		c5.4,0,5.5-9.2,5.5-9.2s-3.7,9.2-13.8,0c-10.1-9.2-18.5-27.9-11.3-45.4C312.7,1682.9,334.1,1697.8,338,1704.3z"/>
	<line class="st33" x1="52.1" y1="1596.8" x2="52.1" y2="2278.9"/>
	<line class="st33" x1="253.3" y1="2205.4" x2="387.8" y2="2205.7"/>
	<line class="st33" x1="591.9" y1="2205.4" x2="728.7" y2="2205.7"/>
	<path class="st33" d="M388.4,1596.3"/>
	<line class="st33" x1="252.8" y1="2058.2" x2="387.4" y2="2058.2"/>
	<line class="st33" x1="252.8" y1="2083.5" x2="387.4" y2="2083.5"/>
	<line class="st33" x1="591.9" y1="2058.2" x2="728.7" y2="2058.2"/>
	<line class="st33" x1="591.9" y1="2083.5" x2="728.7" y2="2083.5"/>
	<line class="st33" x1="391.9" y1="2083.5" x2="588.4" y2="2083.5"/>
	<line class="st33" x1="391.3" y1="2058.2" x2="588.4" y2="2058.2"/>
	<path d="M524.5,2065.4c3-0.1,3,1.1,3,2.2c0,1,0,2.2-2.9,2.4c-3,0.1-3-1.2-3-2.2C521.6,2066.6,521.6,2065.5,524.5,2065.4"/>
	<path d="M524.5,2060.4c3-0.1,3,1.1,3,2.2c0,1,0,2.2-2.9,2.4c-3,0.1-3-1.2-3-2.2C521.5,2061.8,521.5,2060.6,524.5,2060.4"/>
	<path d="M524.6,2070.3c3-0.1,3,1.1,3,2.2c0,1,0,2.2-2.9,2.4c-3,0.1-3-1.2-3-2.2C521.6,2071.7,521.6,2070.5,524.6,2070.3"/>
	<path d="M524.8,2075.3c3-0.1,3,1.1,3,2.2c0,1,0,2.2-2.9,2.4c-3,0.1-3-1.2-3-2.2C521.7,2076.6,521.7,2075.5,524.8,2075.3"/>
	<path d="M534.3,2065.5c3-0.1,3,1.1,3,2.2c0,1,0,2.2-2.9,2.4c-3,0.1-3-1.2-3-2.2C531.4,2066.9,531.3,2065.7,534.3,2065.5"/>
	<path d="M534.3,2060.6c3-0.1,3,1.1,3,2.2c0,1,0,2.2-2.9,2.4c-3,0.1-3-1.2-3-2.2C531.3,2061.8,531.3,2060.6,534.3,2060.6"/>
	<path d="M534.4,2070.5c3-0.1,3,1.1,3,2.2c0,1,0,2.2-2.9,2.4c-3,0.1-3-1.2-3-2.2C531.4,2071.8,531.4,2070.6,534.4,2070.5"/>
	<path d="M534.4,2075.5c3-0.1,3,1.1,3,2.2c0,1,0,2.2-2.9,2.4c-3,0.1-3-1.2-3-2.2S531.5,2075.6,534.4,2075.5"/>
	<path d="M544,2065.5c3-0.1,3,1.1,3,2.2c0,1,0,2.2-2.9,2.4c-3,0.1-3-1.2-3-2.2S541,2065.7,544,2065.5"/>
	<path d="M543.9,2060.6c3-0.1,3,1.1,3,2.2c0,1,0,2.2-2.9,2.4c-3,0.1-3-1.2-3-2.2C541,2061.8,541,2060.6,543.9,2060.6"/>
	<path d="M544.2,2070.5c3-0.1,3,1.1,3,2.2c0,1,0,2.2-2.9,2.4c-3,0.1-3-1.2-3-2.2C541.1,2071.8,541.1,2070.6,544.2,2070.5"/>
	<path d="M544.2,2075.5c3-0.1,3,1.1,3,2.2c0,1,0,2.2-2.9,2.4c-3,0.1-3-1.2-3-2.2C541.2,2076.7,541.1,2075.6,544.2,2075.5"/>
	<path d="M554.5,2065.5c3-0.1,3,1.1,3,2.2c0,1,0,2.2-2.9,2.4c-3,0.1-3-1.2-3-2.2C551.4,2066.9,551.4,2065.7,554.5,2065.5"/>
	<path d="M554.4,2060.6c3-0.1,3,1.1,3,2.2c0,1,0,2.2-2.9,2.4c-3,0.1-3-1.2-3-2.2C551.4,2061.8,551.3,2060.6,554.4,2060.6"/>
	<path d="M554.7,2070.5c3-0.1,3,1.1,3,2.2c0,1,0,2.2-2.9,2.4c-3,0.1-3-1.2-3-2.2C551.6,2071.8,551.6,2070.6,554.7,2070.5"/>
	<path d="M554.7,2075.5c3-0.1,3,1.1,3,2.2c0,1,0,2.2-2.9,2.4c-3,0.1-3-1.2-3-2.2S551.6,2075.6,554.7,2075.5"/>
	<path d="M565.6,2065.5c3-0.1,3,1.1,3,2.2c0,1,0,2.2-2.9,2.4c-3,0.1-3-1.2-3-2.2C562.4,2066.9,562.4,2065.7,565.6,2065.5"/>
	<path d="M565.3,2060.6c3-0.1,3,1.1,3,2.2c0,1,0,2.2-2.9,2.4c-3,0.1-3-1.2-3-2.2C562.4,2061.8,562.3,2060.6,565.3,2060.6"/>
	<path d="M565.7,2070.5c3-0.1,3,1.1,3,2.2c0,1,0,2.2-2.9,2.4c-3,0.1-3-1.2-3-2.2C562.7,2071.8,562.7,2070.6,565.7,2070.5"/>
	<path d="M565.7,2075.5c3-0.1,3,1.1,3,2.2c0,1,0,2.2-2.9,2.4c-3,0.1-3-1.2-3-2.2C562.8,2076.7,562.7,2075.6,565.7,2075.5"/>
	<path d="M576.5,2065.5c3-0.1,3,1.1,3,2.2c0,1,0,2.2-2.9,2.4c-3,0.1-3-1.2-3-2.2C573.4,2066.9,573.4,2065.7,576.5,2065.5"/>
	<path d="M576.3,2060.6c3-0.1,3,1.1,3,2.2c0,1,0,2.2-2.9,2.4c-3,0.1-3-1.2-3-2.2C573.4,2061.8,573.2,2060.6,576.3,2060.6"/>
	<path d="M576.6,2070.5c3-0.1,3,1.1,3,2.2c0,1,0,2.2-2.9,2.4c-3,0.1-3-1.2-3-2.2C573.5,2071.8,573.5,2070.6,576.6,2070.5"/>
	<g>
		<path d="M599.8,2067.8c3-0.1,3,1.1,3,2.2c0,1,0,2.2-2.9,2.4c-3,0.1-3-1.2-3-2.2C596.7,2069.2,596.7,2068,599.8,2067.8"/>
		<path d="M599.6,2062.9c3-0.1,3,1.1,3,2.2c0,1,0,2.2-2.9,2.4c-3,0.1-3-1.2-3-2.2C596.7,2064.3,596.6,2063.1,599.6,2062.9"/>
		<path d="M599.9,2072.9c3-0.1,3,1.1,3,2.2c0,1,0,2.2-2.9,2.4c-3,0.1-3-1.2-3-2.2C597,2074.2,597,2072.9,599.9,2072.9"/>
		<path d="M610.3,2067.8c3-0.1,3,1.1,3,2.2c0,1,0,2.2-2.9,2.4c-3,0.1-3-1.2-3-2.2C607.5,2069.2,607.5,2068,610.3,2067.8"/>
		<path d="M610.3,2062.9c3-0.1,3,1.1,3,2.2c0,1,0,2.2-2.9,2.4c-3,0.1-3-1.2-3-2.2C607.4,2064.3,607.4,2063.1,610.3,2062.9"/>
		<path d="M610.4,2072.9c3-0.1,3,1.1,3,2.2c0,1,0,2.2-2.9,2.4c-3,0.1-3-1.2-3-2.2C607.5,2074.2,607.5,2072.9,610.4,2072.9"/>
		<path d="M621,2067.8c3-0.1,3,1.1,3,2.2c0,1,0,2.2-2.9,2.4c-3,0.1-3-1.2-3-2.2C618.1,2069.2,618.1,2068,621,2067.8"/>
		<path d="M620.9,2062.9c3-0.1,3,1.1,3,2.2c0,1,0,2.2-2.9,2.4c-3,0.1-3-1.2-3-2.2C618.1,2064.3,617.8,2063.1,620.9,2062.9"/>
		<path d="M621.1,2072.9c3-0.1,3,1.1,3,2.2c0,1,0,2.2-2.9,2.4c-3,0.1-3-1.2-3-2.2C618.2,2074.2,618.2,2072.9,621.1,2072.9"/>
		<path d="M631.5,2067.8c3-0.1,3,1.1,3,2.2c0,1,0,2.2-2.9,2.4c-3,0.1-3-1.2-3-2.2C628.7,2069.2,628.7,2068,631.5,2067.8"/>
		<path d="M631.5,2062.9c3-0.1,3,1.1,3,2.2c0,1,0,2.2-2.9,2.4c-3,0.1-3-1.2-3-2.2C628.6,2064.3,628.6,2063.1,631.5,2062.9"/>
		<path d="M631.7,2072.9c3-0.1,3,1.1,3,2.2c0,1,0,2.2-2.9,2.4c-3,0.1-3-1.2-3-2.2C628.7,2074.2,628.7,2072.9,631.7,2072.9"/>
	</g>
	<g>
		<path d="M345.9,2067.8c3-0.1,3,1.1,3,2.2c0,1,0,2.2-2.9,2.4c-3,0.1-3-1.2-3-2.2C342.9,2069.2,342.9,2068,345.9,2067.8"/>
		<path d="M345.8,2062.9c3-0.1,3,1.1,3,2.2c0,1,0,2.2-2.9,2.4c-3,0.1-3-1.2-3-2.2C342.9,2064.3,342.8,2063.1,345.8,2062.9"/>
		<path d="M346,2072.9c3-0.1,3,1.1,3,2.2c0,1,0,2.2-2.9,2.4c-3,0.1-3-1.2-3-2.2C343,2074.2,343,2072.9,346,2072.9"/>
		<path d="M356.5,2067.8c3-0.1,3,1.1,3,2.2c0,1,0,2.2-2.9,2.4c-3,0.1-3-1.2-3-2.2C353.6,2069.2,353.6,2068,356.5,2067.8"/>
		<path d="M356.5,2062.9c3-0.1,3,1.1,3,2.2c0,1,0,2.2-2.9,2.4c-3,0.1-3-1.2-3-2.2C353.4,2064.3,353.4,2063.1,356.5,2062.9"/>
		<path d="M356.7,2072.9c3-0.1,3,1.1,3,2.2c0,1,0,2.2-2.9,2.4c-3,0.1-3-1.2-3-2.2C353.6,2074.2,353.6,2072.9,356.7,2072.9"/>
		<path d="M367,2067.8c3-0.1,3,1.1,3,2.2c0,1,0,2.2-2.9,2.4c-3,0.1-3-1.2-3-2.2C364.2,2069.2,364.2,2068,367,2067.8"/>
		<path d="M366.9,2062.9c3-0.1,3,1.1,3,2.2c0,1,0,2.2-2.9,2.4c-3,0.1-3-1.2-3-2.2C364.1,2064.3,364.1,2063.1,366.9,2062.9"/>
		<path d="M367.2,2072.9c3-0.1,3,1.1,3,2.2c0,1,0,2.2-2.9,2.4c-3,0.1-3-1.2-3-2.2C364.3,2074.2,364.3,2072.9,367.2,2072.9"/>
		<path d="M377.6,2067.8c3-0.1,3,1.1,3,2.2c0,1,0,2.2-2.9,2.4c-3,0.1-3-1.2-3-2.2C374.8,2069.2,374.8,2068,377.6,2067.8"/>
		<path d="M377.6,2062.9c3-0.1,3,1.1,3,2.2c0,1,0,2.2-2.9,2.4c-3,0.1-3-1.2-3-2.2C374.7,2064.3,374.7,2063.1,377.6,2062.9"/>
		<path d="M377.8,2072.9c3-0.1,3,1.1,3,2.2c0,1,0,2.2-2.9,2.4c-3,0.1-3-1.2-3-2.2C374.8,2074.2,374.8,2072.9,377.8,2072.9"/>
	</g>
	<path d="M576.6,2075.5c3-0.1,3,1.1,3,2.2c0,1,0,2.2-2.9,2.4c-3,0.1-3-1.2-3-2.2S573.5,2075.6,576.6,2075.5"/>
	<path d="M455.3,2065.4c-3-0.1-3,1.1-3,2.2c0,1,0,2.2,2.9,2.4c3,0.1,3-1.2,3-2.2C458.1,2066.6,458.3,2065.5,455.3,2065.4"/>
	<path d="M455.3,2060.4c-3-0.1-3,1.1-3,2.2c0,1,0,2.2,2.9,2.4c3,0.1,3-1.2,3-2.2C458.3,2061.8,458.3,2060.6,455.3,2060.4"/>
	<path d="M455.1,2070.3c-3-0.1-3,1.1-3,2.2c0,1,0,2.2,2.9,2.4c3,0.1,3-1.2,3-2.2C458.1,2071.7,458.1,2070.5,455.1,2070.3"/>
	<path d="M455.1,2075.3c-3-0.1-3,1.1-3,2.2c0,1,0,2.2,2.9,2.4c3,0.1,3-1.2,3-2.2C458,2076.6,458,2075.5,455.1,2075.3"/>
	<path d="M445.6,2065.5c-3-0.1-3,1.1-3,2.2c0,1,0,2.2,2.9,2.4c3,0.1,3-1.2,3-2.2C448.4,2066.9,448.5,2065.7,445.6,2065.5"/>
	<path d="M445.6,2060.6c-3-0.1-3,1.1-3,2.2c0,1,0,2.2,2.9,2.4c3,0.1,3-1.2,3-2.2C448.5,2061.8,448.5,2060.6,445.6,2060.6"/>
	<path d="M445.4,2070.5c-3-0.1-3,1.1-3,2.2c0,1,0,2.2,2.9,2.4c3,0.1,3-1.2,3-2.2C448.4,2071.8,448.4,2070.6,445.4,2070.5"/>
	<path d="M445.4,2075.5c-3-0.1-3,1.1-3,2.2c0,1,0,2.2,2.9,2.4c3,0.1,3-1.2,3-2.2S448.2,2075.6,445.4,2075.5"/>
	<path d="M435.8,2065.5c-3-0.1-3,1.1-3,2.2c0,1,0,2.2,2.9,2.4c3,0.1,3-1.2,3-2.2C438.8,2066.9,438.8,2065.7,435.8,2065.5"/>
	<path d="M435.9,2060.6c-3-0.1-3,1.1-3,2.2c0,1,0,2.2,2.9,2.4c3,0.1,3-1.2,3-2.2C438.8,2061.8,438.8,2060.6,435.9,2060.6"/>
	<path d="M435.6,2070.5c-3-0.1-3,1.1-3,2.2c0,1,0,2.2,2.9,2.4c3,0.1,3-1.2,3-2.2C438.6,2071.8,438.6,2070.6,435.6,2070.5"/>
	<path d="M435.6,2075.5c-3-0.1-3,1.1-3,2.2c0,1,0,2.2,2.9,2.4c3,0.1,3-1.2,3-2.2C438.4,2076.7,438.6,2075.6,435.6,2075.5"/>
	<path d="M425.3,2065.5c-3-0.1-3,1.1-3,2.2c0,1,0,2.2,2.9,2.4c3,0.1,3-1.2,3-2.2C428.3,2066.9,428.3,2065.7,425.3,2065.5"/>
	<path d="M425.5,2060.6c-3-0.1-3,1.1-3,2.2c0,1,0,2.2,2.9,2.4c3,0.1,3-1.2,3-2.2C428.3,2061.8,428.4,2060.6,425.5,2060.6"/>
	<path d="M425.3,2070.5c-3-0.1-3,1.1-3,2.2c0,1,0,2.2,2.9,2.4c3,0.1,3-1.2,3-2.2S428.1,2070.6,425.3,2070.5"/>
	<path d="M425.2,2075.5c-3-0.1-3,1.1-3,2.2c0,1,0,2.2,2.9,2.4c3,0.1,3-1.2,3-2.2C428.1,2076.7,428.1,2075.6,425.2,2075.5"/>
	<path d="M414.4,2065.5c-3-0.1-3,1.1-3,2.2c0,1,0,2.2,2.9,2.4c3,0.1,3-1.2,3-2.2C417.3,2066.9,417.3,2065.7,414.4,2065.5"/>
	<path d="M414.5,2060.6c-3-0.1-3,1.1-3,2.2c0,1,0,2.2,2.9,2.4c3,0.1,3-1.2,3-2.2C417.3,2061.8,417.5,2060.6,414.5,2060.6"/>
	<path d="M414.4,2070.5c-3-0.1-3,1.1-3,2.2c0,1,0,2.2,2.9,2.4c3,0.1,3-1.2,3-2.2S417.2,2070.6,414.4,2070.5"/>
	<path d="M414.3,2075.5c-3-0.1-3,1.1-3,2.2c0,1,0,2.2,2.9,2.4c3,0.1,3-1.2,3-2.2C417.2,2076.7,417.2,2075.6,414.3,2075.5"/>
	<path d="M403.4,2065.5c-3-0.1-3,1.1-3,2.2c0,1,0,2.2,2.9,2.4c3,0.1,3-1.2,3-2.2C406.4,2066.9,406.4,2065.7,403.4,2065.5"/>
	<path d="M403.5,2060.6c-3-0.1-3,1.1-3,2.2c0,1,0,2.2,2.9,2.4c3,0.1,3-1.2,3-2.2C406.4,2061.8,406.6,2060.6,403.5,2060.6"/>
	<path d="M403.4,2070.5c-3-0.1-3,1.1-3,2.2c0,1,0,2.2,2.9,2.4c3,0.1,3-1.2,3-2.2S406.3,2070.6,403.4,2070.5"/>
	<path d="M403.3,2075.5c-3-0.1-3,1.1-3,2.2c0,1,0,2.2,2.9,2.4c3,0.1,3-1.2,3-2.2C406.3,2076.7,406.3,2075.6,403.3,2075.5"/>
	<path class="st19" d="M665.4,2086.8c-0.4,1-1.3,1.1-2.5,1.8c-1.2,0.8-1.9,2.1-2.5,4.7c-0.4,1.8-0.7,4.1-0.7,4.1s-0.4-2.4-0.7-4.1
		c-0.6-2.7-1.2-3.9-2.5-4.7c-1-0.7-2.1-0.8-2.5-1.8l0.6,10.4c0,1.1,0.8,1.9,1.7,1.9h2.8h0.6h3.5c1,0,1.8-0.8,1.7-1.9L665.4,2086.8z"
		/>
	<path class="st14" d="M606.2,1795.5c-0.7-0.2-0.8-1.1-1.3-1.9c-0.7-1-1.7-1.7-3.7-2.1c-1.6-0.2-3.4-0.6-3.4-0.6s1.9-0.2,3.4-0.6
		c2.1-0.4,3-1,3.7-2.1c0.6-0.8,0.7-1.7,1.3-1.9l-8.5,0.6c-0.8,0-1.6,0.6-1.6,1.3v2.2v0.4v2.8c0,0.8,0.7,1.3,1.6,1.3L606.2,1795.5z"
		/>
	<path class="st14" d="M621,1795.5c-0.7-0.2-0.8-1.1-1.3-1.9c-0.7-1-1.7-1.7-3.7-2.1c-1.6-0.2-3.4-0.6-3.4-0.6s1.9-0.2,3.4-0.6
		c2.1-0.4,3-1,3.7-2.1c0.6-0.8,0.7-1.7,1.3-1.9l-8.5,0.6c-0.8,0-1.6,0.6-1.6,1.3v2.2v0.4v2.8c0,0.8,0.7,1.3,1.6,1.3L621,1795.5z"/>
	<path class="st14" d="M635.9,1795.5c-0.7-0.2-0.8-1.1-1.3-1.9c-0.7-1-1.7-1.7-3.7-2.1c-1.6-0.2-3.4-0.6-3.4-0.6s1.9-0.2,3.4-0.6
		c2.1-0.4,3-1,3.7-2.1c0.6-0.8,0.7-1.7,1.3-1.9l-8.5,0.6c-0.8,0-1.6,0.6-1.6,1.3v2.2v0.4v2.8c0,0.8,0.7,1.3,1.6,1.3L635.9,1795.5z"
		/>
	<path class="st14" d="M650.8,1795.5c-0.7-0.2-0.8-1.1-1.3-1.9c-0.7-1-1.7-1.7-3.7-2.1c-1.6-0.2-3.4-0.6-3.4-0.6s1.9-0.2,3.4-0.6
		c2.1-0.4,3-1,3.7-2.1c0.6-0.8,0.7-1.7,1.3-1.9l-8.5,0.6c-0.8,0-1.6,0.6-1.6,1.3v2.2v0.4v2.8c0,0.8,0.7,1.3,1.6,1.3L650.8,1795.5z"
		/>
	<path class="st14" d="M665.8,1795.5c-0.7-0.2-0.8-1.1-1.3-1.9c-0.7-1-1.7-1.7-3.7-2.1c-1.6-0.2-3.4-0.6-3.4-0.6s1.9-0.2,3.4-0.6
		c2.1-0.4,3-1,3.7-2.1c0.6-0.8,0.7-1.7,1.3-1.9l-8.5,0.6c-0.8,0-1.6,0.6-1.6,1.3v2.2v0.4v2.8c0,0.8,0.7,1.3,1.6,1.3L665.8,1795.5z"
		/>
	<path class="st14" d="M680.6,1795.5c-0.7-0.2-0.8-1.1-1.3-1.9c-0.7-1-1.7-1.7-3.7-2.1c-1.6-0.2-3.4-0.6-3.4-0.6s1.9-0.2,3.4-0.6
		c2.1-0.4,3-1,3.7-2.1c0.6-0.8,0.7-1.7,1.3-1.9l-8.5,0.6c-0.8,0-1.6,0.6-1.6,1.3v2.2v0.4v2.8c0,0.8,0.7,1.3,1.6,1.3L680.6,1795.5z"
		/>
	<path class="st14" d="M695.5,1795.5c-0.7-0.2-0.8-1.1-1.3-1.9c-0.7-1-1.7-1.7-3.7-2.1c-1.6-0.2-3.4-0.6-3.4-0.6s1.9-0.2,3.4-0.6
		c2.1-0.4,3-1,3.7-2.1c0.6-0.8,0.7-1.7,1.3-1.9l-8.5,0.6c-0.8,0-1.6,0.6-1.6,1.3v2.2v0.4v2.8c0,0.8,0.7,1.3,1.6,1.3L695.5,1795.5z"
		/>
	<path class="st14" d="M710.5,1795.5c-0.7-0.2-0.8-1.1-1.3-1.9c-0.7-1-1.7-1.7-3.7-2.1c-1.6-0.2-3.4-0.6-3.4-0.6s1.9-0.2,3.4-0.6
		c2.1-0.4,3-1,3.7-2.1c0.6-0.8,0.7-1.7,1.3-1.9l-8.4,0.6c-0.8,0-1.6,0.6-1.6,1.3v2.2v0.4v2.8c0,0.8,0.7,1.3,1.6,1.3L710.5,1795.5z"
		/>
	<path class="st14" d="M725.5,1795.5c-0.7-0.2-0.8-1.1-1.3-1.9c-0.7-1-1.7-1.7-3.7-2.1c-1.6-0.2-3.4-0.6-3.4-0.6s1.9-0.2,3.4-0.6
		c2.1-0.4,3-1,3.7-2.1c0.6-0.8,0.7-1.7,1.3-1.9l-8.5,0.6c-0.8,0-1.6,0.6-1.6,1.3v2.2v0.4v2.8c0,0.8,0.7,1.3,1.6,1.3L725.5,1795.5z"
		/>
	<path class="st14" d="M383.8,1794.9c0.8,0,1.6-0.6,1.6-1.3v-2.8v-0.4v-2.2c0-0.8-0.7-1.3-1.6-1.3l-8.5-0.6c0.7,0.2,0.8,1.1,1.3,1.9
		c0.7,1,1.7,1.7,3.7,2.1c1.6,0.2,3.4,0.6,3.4,0.6s-1.9,0.2-3.4,0.6c-2.1,0.4-3,1-3.7,2.1c-0.6,0.8-0.7,1.7-1.3,1.9L383.8,1794.9z"/>
	<path class="st14" d="M368.9,1794.9c0.8,0,1.6-0.6,1.6-1.3v-2.8v-0.4v-2.2c0-0.8-0.7-1.3-1.6-1.3l-8.5-0.6c0.7,0.2,0.8,1.1,1.3,1.9
		c0.7,1,1.7,1.7,3.7,2.1c1.6,0.2,3.4,0.6,3.4,0.6s-1.9,0.2-3.4,0.6c-2.1,0.4-3,1-3.7,2.1c-0.6,0.8-0.7,1.7-1.3,1.9L368.9,1794.9z"/>
	<path class="st14" d="M354,1794.9c0.8,0,1.6-0.6,1.6-1.3v-2.8v-0.4v-2.2c0-0.8-0.7-1.3-1.6-1.3l-8.5-0.6c0.7,0.2,0.8,1.1,1.3,1.9
		c0.7,1,1.7,1.7,3.7,2.1c1.6,0.2,3.4,0.6,3.4,0.6s-1.9,0.2-3.4,0.6c-2.1,0.4-3,1-3.7,2.1c-0.6,0.8-0.7,1.7-1.3,1.9L354,1794.9z"/>
	<path class="st14" d="M338.9,1794.9c0.8,0,1.6-0.6,1.6-1.3v-2.8v-0.4v-2.2c0-0.8-0.7-1.3-1.6-1.3l-8.5-0.6c0.7,0.2,0.8,1.1,1.3,1.9
		c0.7,1,1.7,1.7,3.7,2.1c1.6,0.2,3.4,0.6,3.4,0.6s-1.9,0.2-3.4,0.6c-2.1,0.4-3,1-3.7,2.1c-0.6,0.8-0.7,1.7-1.3,1.9L338.9,1794.9z"/>
	<path class="st14" d="M324,1794.9c0.8,0,1.6-0.6,1.6-1.3v-2.8v-0.4v-2.2c0-0.8-0.7-1.3-1.6-1.3l-8.5-0.6c0.7,0.2,0.8,1.1,1.3,1.9
		c0.7,1,1.7,1.7,3.7,2.1c1.6,0.2,3.4,0.6,3.4,0.6s-1.9,0.2-3.4,0.6c-2.1,0.4-3,1-3.7,2.1c-0.6,0.8-0.7,1.7-1.3,1.9L324,1794.9z"/>
	<path class="st14" d="M309.2,1794.9c0.8,0,1.6-0.6,1.6-1.3v-2.8v-0.4v-2.2c0-0.8-0.7-1.3-1.6-1.3l-8.5-0.6c0.7,0.2,0.8,1.1,1.3,1.9
		c0.7,1,1.7,1.7,3.7,2.1c1.6,0.2,3.4,0.6,3.4,0.6s-1.9,0.2-3.4,0.6c-2.1,0.4-3,1-3.7,2.1c-0.6,0.8-0.7,1.7-1.3,1.9L309.2,1794.9z"/>
	<path class="st14" d="M294.3,1794.9c0.8,0,1.6-0.6,1.6-1.3v-2.8v-0.4v-2.2c0-0.8-0.7-1.3-1.6-1.3l-8.5-0.6c0.7,0.2,0.8,1.1,1.3,1.9
		c0.7,1,1.7,1.7,3.7,2.1c1.6,0.2,3.4,0.6,3.4,0.6s-1.9,0.2-3.4,0.6c-2.1,0.4-3,1-3.7,2.1c-0.6,0.8-0.7,1.7-1.3,1.9L294.3,1794.9z"/>
	<path class="st14" d="M279.3,1794.9c0.8,0,1.6-0.6,1.6-1.3v-2.8v-0.4v-2.2c0-0.8-0.7-1.3-1.6-1.3l-8.5-0.6c0.7,0.2,0.8,1.1,1.3,1.9
		c0.7,1,1.7,1.7,3.7,2.1c1.6,0.2,3.4,0.6,3.4,0.6s-1.9,0.2-3.4,0.6c-2.1,0.4-3,1-3.7,2.1c-0.6,0.8-0.7,1.7-1.3,1.9L279.3,1794.9z"/>
	<path class="st14" d="M264.4,1794.9c0.8,0,1.6-0.6,1.6-1.3v-2.8v-0.4v-2.2c0-0.8-0.7-1.3-1.6-1.3l-8.5-0.6c0.7,0.2,0.8,1.1,1.3,1.9
		c0.7,1,1.7,1.7,3.7,2.1c1.6,0.2,3.4,0.6,3.4,0.6s-1.9,0.2-3.4,0.6c-2.1,0.4-3,1-3.7,2.1c-0.6,0.8-0.7,1.7-1.3,1.9L264.4,1794.9z"/>
	<path class="st14" d="M244.7,1794.9c0.8,0,1.6-0.6,1.6-1.3v-2.8v-0.4v-2.2c0-0.8-0.7-1.3-1.6-1.3l-8.5-0.6c0.7,0.2,0.8,1.1,1.3,1.9
		c0.7,1,1.7,1.7,3.7,2.1c1.6,0.2,3.4,0.6,3.4,0.6s-1.9,0.2-3.4,0.6c-2.1,0.4-3,1-3.7,2.1c-0.6,0.8-0.7,1.7-1.3,1.9L244.7,1794.9z"/>
	<path class="st14" d="M229.7,1794.9c0.8,0,1.6-0.6,1.6-1.3v-2.8v-0.4v-2.2c0-0.8-0.7-1.3-1.6-1.3l-8.5-0.6c0.7,0.2,0.8,1.1,1.3,1.9
		c0.7,1,1.7,1.7,3.7,2.1c1.6,0.2,3.4,0.6,3.4,0.6s-1.9,0.2-3.4,0.6c-2.1,0.4-3,1-3.7,2.1c-0.6,0.8-0.7,1.7-1.3,1.9L229.7,1794.9z"/>
	<path class="st14" d="M214.9,1794.9c0.8,0,1.6-0.6,1.6-1.3v-2.8v-0.4v-2.2c0-0.8-0.7-1.3-1.6-1.3l-8.5-0.6c0.7,0.2,0.8,1.1,1.3,1.9
		c0.7,1,1.7,1.7,3.7,2.1c1.6,0.2,3.4,0.6,3.4,0.6s-1.9,0.2-3.4,0.6c-2.1,0.4-3,1-3.7,2.1c-0.6,0.8-0.7,1.7-1.3,1.9L214.9,1794.9z"/>
	<path class="st14" d="M200,1794.9c0.8,0,1.6-0.6,1.6-1.3v-2.8v-0.4v-2.2c0-0.8-0.7-1.3-1.6-1.3l-8.5-0.6c0.7,0.2,0.8,1.1,1.3,1.9
		c0.7,1,1.7,1.7,3.7,2.1c1.6,0.2,3.4,0.6,3.4,0.6s-1.9,0.2-3.4,0.6c-2.1,0.4-3,1-3.7,2.1c-0.6,0.8-0.7,1.7-1.3,1.9L200,1794.9z"/>
	<path class="st14" d="M185,1794.9c0.8,0,1.6-0.6,1.6-1.3v-2.8v-0.4v-2.2c0-0.8-0.7-1.3-1.6-1.3l-8.5-0.6c0.7,0.2,0.8,1.1,1.3,1.9
		c0.7,1,1.7,1.7,3.7,2.1c1.6,0.2,3.4,0.6,3.4,0.6s-1.9,0.2-3.4,0.6c-2.1,0.4-3,1-3.7,2.1c-0.6,0.8-0.7,1.7-1.3,1.9L185,1794.9z"/>
	<path class="st14" d="M170.1,1794.9c0.8,0,1.6-0.6,1.6-1.3v-2.8v-0.4v-2.2c0-0.8-0.7-1.3-1.6-1.3l-8.5-0.6c0.7,0.2,0.8,1.1,1.3,1.9
		c0.7,1,1.7,1.7,3.7,2.1c1.6,0.2,3.4,0.6,3.4,0.6s-1.9,0.2-3.4,0.6c-2.1,0.4-3,1-3.7,2.1c-0.6,0.8-0.7,1.7-1.3,1.9L170.1,1794.9z"/>
	<path class="st14" d="M67.2,1795.5c-0.7-0.2-0.8-1.1-1.3-1.9c-0.7-1-1.7-1.7-3.7-2.1c-1.6-0.2-3.4-0.6-3.4-0.6s1.9-0.2,3.4-0.6
		c2.1-0.4,3-1,3.7-2.1c0.6-0.8,0.7-1.7,1.3-1.9l-8.5,0.6c-0.8,0-1.6,0.6-1.6,1.3v2.2v0.4v2.8c0,0.8,0.7,1.3,1.6,1.3L67.2,1795.5z"/>
	<path class="st14" d="M82.3,1795.5c-0.7-0.2-0.8-1.1-1.3-1.9c-0.7-1-1.7-1.7-3.7-2.1c-1.6-0.2-3.4-0.6-3.4-0.6s1.9-0.2,3.4-0.6
		c2.1-0.4,3-1,3.7-2.1c0.6-0.8,0.7-1.7,1.3-1.9l-8.5,0.6c-0.8,0-1.6,0.6-1.6,1.3v2.2v0.4v2.8c0,0.8,0.7,1.3,1.6,1.3L82.3,1795.5z"/>
	<path class="st14" d="M97.2,1795.5c-0.7-0.2-0.8-1.1-1.3-1.9c-0.7-1-1.7-1.7-3.7-2.1c-1.6-0.2-3.4-0.6-3.4-0.6s1.9-0.2,3.4-0.6
		c2.1-0.4,3-1,3.7-2.1c0.6-0.8,0.7-1.7,1.3-1.9l-8.5,0.6c-0.8,0-1.6,0.6-1.6,1.3v2.2v0.4v2.8c0,0.8,0.7,1.3,1.6,1.3L97.2,1795.5z"/>
	<path class="st14" d="M112,1795.5c-0.7-0.2-0.8-1.1-1.3-1.9c-0.7-1-1.7-1.7-3.7-2.1c-1.6-0.2-3.4-0.6-3.4-0.6s1.9-0.2,3.4-0.6
		c2.1-0.4,3-1,3.7-2.1c0.6-0.8,0.7-1.7,1.3-1.9l-8.5,0.6c-0.8,0-1.6,0.6-1.6,1.3v2.2v0.4v2.8c0,0.8,0.7,1.3,1.6,1.3L112,1795.5z"/>
	<path class="st14" d="M126.9,1795.5c-0.7-0.2-0.8-1.1-1.3-1.9c-0.7-1-1.7-1.7-3.7-2.1c-1.6-0.2-3.4-0.6-3.4-0.6s1.9-0.2,3.4-0.6
		c2.1-0.4,3-1,3.7-2.1c0.6-0.8,0.7-1.7,1.3-1.9l-8.5,0.6c-0.8,0-1.6,0.6-1.6,1.3v2.2v0.4v2.8c0,0.8,0.7,1.3,1.6,1.3L126.9,1795.5z"
		/>
	<path class="st14" d="M141.9,1795.5c-0.7-0.2-0.8-1.1-1.3-1.9c-0.7-1-1.7-1.7-3.7-2.1c-1.6-0.2-3.4-0.6-3.4-0.6s1.9-0.2,3.4-0.6
		c2.1-0.4,3-1,3.7-2.1c0.6-0.8,0.7-1.7,1.3-1.9l-8.5,0.6c-0.8,0-1.6,0.6-1.6,1.3v2.2v0.4v2.8c0,0.8,0.7,1.3,1.6,1.3L141.9,1795.5z"
		/>
	<path class="st19" d="M665.4,2103.7c-0.4,1-1.3,1.1-2.5,1.8c-1.2,0.8-1.9,2.1-2.5,4.7c-0.4,1.8-0.7,4.1-0.7,4.1s-0.4-2.4-0.7-4.1
		c-0.6-2.7-1.2-3.9-2.5-4.7c-1-0.7-2.1-0.8-2.5-1.8l0.6,10.4c0,1.1,0.8,1.9,1.7,1.9h2.8h0.6h3.5c1,0,1.8-0.8,1.7-1.9L665.4,2103.7z"
		/>
	<path class="st19" d="M665.4,2120.6c-0.4,1-1.3,1.1-2.5,1.8c-1.2,0.8-1.9,2.1-2.5,4.7c-0.4,1.8-0.7,4.1-0.7,4.1s-0.4-2.4-0.7-4.1
		c-0.6-2.7-1.2-3.9-2.5-4.7c-1-0.7-2.1-0.8-2.5-1.8l0.6,10.4c0,1.1,0.8,1.9,1.7,1.9h2.8h0.6h3.5c1,0,1.8-0.8,1.7-1.9L665.4,2120.6z"
		/>
	<path class="st19" d="M665.4,2137.2c-0.4,1-1.3,1.1-2.5,1.8c-1.2,0.8-1.9,2.1-2.5,4.7c-0.4,1.8-0.7,4.1-0.7,4.1s-0.4-2.4-0.7-4.1
		c-0.6-2.7-1.2-3.9-2.5-4.7c-1-0.7-2.1-0.8-2.5-1.8l0.6,10.4c0,1.1,0.8,1.9,1.7,1.9h2.8h0.6h3.5c1,0,1.8-0.8,1.7-1.9L665.4,2137.2z"
		/>
	<path class="st19" d="M665.4,2154.1c-0.4,1-1.3,1.1-2.5,1.8c-1.2,0.8-1.9,2.1-2.5,4.7c-0.4,1.8-0.7,4.1-0.7,4.1s-0.4-2.4-0.7-4.1
		c-0.6-2.7-1.2-3.9-2.5-4.7c-1-0.7-2.1-0.8-2.5-1.8l0.6,10.4c0,1.1,0.8,1.9,1.7,1.9h2.8h0.6h3.5c1,0,1.8-0.8,1.7-1.9L665.4,2154.1z"
		/>
	<path class="st19" d="M665.4,2170.9c-0.4,1-1.3,1.1-2.5,1.8c-1.2,0.8-1.9,2.1-2.5,4.7c-0.4,1.8-0.7,4.1-0.7,4.1s-0.4-2.4-0.7-4.1
		c-0.6-2.7-1.2-3.9-2.5-4.7c-1-0.7-2.1-0.8-2.5-1.8l0.6,10.4c0,1.1,0.8,1.9,1.7,1.9h2.8h0.6h3.5c1,0,1.8-0.8,1.7-1.9L665.4,2170.9z"
		/>
	<path class="st19" d="M665.4,2187.7c-0.4,1-1.3,1.1-2.5,1.8c-1.2,0.8-1.9,2.1-2.5,4.7c-0.4,1.8-0.7,4.1-0.7,4.1s-0.4-2.4-0.7-4.1
		c-0.6-2.7-1.2-3.9-2.5-4.7c-1-0.7-2.1-0.8-2.5-1.8l0.6,10.4c0,1.1,0.8,1.9,1.7,1.9h2.8h0.6h3.5c1,0,1.8-0.8,1.7-1.9L665.4,2187.7z"
		/>
	<path class="st19" d="M326.3,2086.8c-0.4,1-1.3,1.1-2.5,1.8c-1.2,0.8-1.9,2.1-2.5,4.7c-0.4,1.8-0.7,4.1-0.7,4.1s-0.4-2.4-0.7-4.1
		c-0.6-2.7-1.2-3.9-2.5-4.7c-1-0.7-2.1-0.8-2.5-1.8l0.6,10.4c0,1.1,0.8,1.9,1.7,1.9h2.8h0.6h3.5c1,0,1.8-0.8,1.7-1.9L326.3,2086.8z"
		/>
	<path class="st19" d="M326.3,2103.7c-0.4,1-1.3,1.1-2.5,1.8c-1.2,0.8-1.9,2.1-2.5,4.7c-0.4,1.8-0.7,4.1-0.7,4.1s-0.4-2.4-0.7-4.1
		c-0.6-2.7-1.2-3.9-2.5-4.7c-1-0.7-2.1-0.8-2.5-1.8l0.6,10.4c0,1.1,0.8,1.9,1.7,1.9h2.8h0.6h3.5c1,0,1.8-0.8,1.7-1.9L326.3,2103.7z"
		/>
	<path class="st19" d="M326.3,2120.6c-0.4,1-1.3,1.1-2.5,1.8c-1.2,0.8-1.9,2.1-2.5,4.7c-0.4,1.8-0.7,4.1-0.7,4.1s-0.4-2.4-0.7-4.1
		c-0.6-2.7-1.2-3.9-2.5-4.7c-1-0.7-2.1-0.8-2.5-1.8l0.6,10.4c0,1.1,0.8,1.9,1.7,1.9h2.8h0.6h3.5c1,0,1.8-0.8,1.7-1.9L326.3,2120.6z"
		/>
	<path class="st19" d="M326.3,2137.2c-0.4,1-1.3,1.1-2.5,1.8c-1.2,0.8-1.9,2.1-2.5,4.7c-0.4,1.8-0.7,4.1-0.7,4.1s-0.4-2.4-0.7-4.1
		c-0.6-2.7-1.2-3.9-2.5-4.7c-1-0.7-2.1-0.8-2.5-1.8l0.6,10.4c0,1.1,0.8,1.9,1.7,1.9h2.8h0.6h3.5c1,0,1.8-0.8,1.7-1.9L326.3,2137.2z"
		/>
	<path class="st19" d="M326.3,2154.1c-0.4,1-1.3,1.1-2.5,1.8c-1.2,0.8-1.9,2.1-2.5,4.7c-0.4,1.8-0.7,4.1-0.7,4.1s-0.4-2.4-0.7-4.1
		c-0.6-2.7-1.2-3.9-2.5-4.7c-1-0.7-2.1-0.8-2.5-1.8l0.6,10.4c0,1.1,0.8,1.9,1.7,1.9h2.8h0.6h3.5c1,0,1.8-0.8,1.7-1.9L326.3,2154.1z"
		/>
	<path class="st19" d="M326.3,2170.9c-0.4,1-1.3,1.1-2.5,1.8c-1.2,0.8-1.9,2.1-2.5,4.7c-0.4,1.8-0.7,4.1-0.7,4.1s-0.4-2.4-0.7-4.1
		c-0.6-2.7-1.2-3.9-2.5-4.7c-1-0.7-2.1-0.8-2.5-1.8l0.6,10.4c0,1.1,0.8,1.9,1.7,1.9h2.8h0.6h3.5c1,0,1.8-0.8,1.7-1.9L326.3,2170.9z"
		/>
	<path class="st19" d="M326.3,2187.7c-0.4,1-1.3,1.1-2.5,1.8c-1.2,0.8-1.9,2.1-2.5,4.7c-0.4,1.8-0.7,4.1-0.7,4.1s-0.4-2.4-0.7-4.1
		c-0.6-2.7-1.2-3.9-2.5-4.7c-1-0.7-2.1-0.8-2.5-1.8l0.6,10.4c0,1.1,0.8,1.9,1.7,1.9h2.8h0.6h3.5c1,0,1.8-0.8,1.7-1.9L326.3,2187.7z"
		/>
	<polygon class="st14" points="564.4,1875.8 566,1875.8 564.3,1872.6 562.8,1872.6 562.9,1873.1 562.1,1874.7 561.6,1874.7 
		561.9,1875.1 561.4,1875.8 562.5,1875.8 562.8,1875.2 564,1875.2 	"/>
	<polygon class="st22" points="563.1,1874.7 563.3,1874.2 563.6,1874.7 	"/>
	<path class="st14" d="M544.7,1876c-1.3,0-1.9-0.2-1.9-0.2l-0.7,0.2v-1.6c0,0,1,0.7,2.2,0.7c0.4,0,0.6-0.1,0.6-0.2
		c0-0.4-2.8-0.2-2.8-1.8c0-0.7,1-1.2,2.2-1.2c1.1,0,1.7,0.2,1.7,0.2l0.7-0.2v1.2c0,0-0.7-0.6-2.1-0.6c-0.4,0-0.6,0.1-0.6,0.2
		c0,0.4,3,0.2,3,1.8C547.3,1875.6,545.9,1876,544.7,1876"/>
	<polygon class="st14" points="549.2,1873.5 549.2,1874.1 551.3,1874.1 551.3,1874.7 549.2,1874.7 549.2,1875.2 551.3,1875.2 
		551.3,1875.9 547.5,1875.9 547.7,1875.3 547.7,1873.4 547.5,1872.9 551.3,1872.9 551.3,1873.5 	"/>
	<polygon class="st14" points="561,1872.7 561,1875.9 559.6,1875.9 559.6,1874.7 558.5,1874.7 558.5,1875.9 556.7,1875.9 
		556.9,1875.3 556.9,1873.3 556.7,1872.7 558.5,1872.7 558.5,1874 559.6,1874 559.6,1872.7 	"/>
	<path class="st14" d="M579.5,1875.8c-1.1,0-1.6-0.1-1.6-0.1l-0.6,0.1v-1.2c0,0,0.7,0.6,1.8,0.6c0.2,0,0.4-0.1,0.4-0.2
		c0-0.4-2.2-0.2-2.2-1.3c0-0.6,0.8-1,1.7-1c0.8,0,1.2,0.1,1.2,0.1l0.6-0.1v1c0,0-0.6-0.4-1.7-0.4c-0.2,0-0.4,0.1-0.4,0.2
		c0,0.4,2.4,0.2,2.4,1.3C581.5,1875.4,580.5,1875.8,579.5,1875.8"/>
	<polygon class="st14" points="554.8,1876 556.4,1876 554.7,1872.9 553.1,1872.9 553.2,1873.3 552.5,1874.9 552,1874.9 
		552.2,1875.3 552,1876 553.1,1876 553.4,1875.4 554.6,1875.4 	"/>
	<polygon class="st22" points="553.6,1874.9 553.8,1874.3 554,1874.9 	"/>
	<polygon class="st14" points="570.6,1875.4 570.9,1875.9 569.5,1875.9 568.8,1874.3 568.3,1875.4 568.5,1875.9 567,1875.9 
		565.6,1872.7 566.9,1872.7 567.6,1874.3 568.2,1873.2 568,1872.7 569.3,1872.7 570.1,1874.3 570.9,1872.7 571.9,1872.7 	"/>
	<polygon class="st14" points="574.7,1874.6 574.2,1874.8 574.2,1875.8 572.4,1875.8 572.6,1875.2 572.6,1873.2 572.4,1872.6 
		574.2,1872.6 574.2,1874 575.4,1873 575.2,1872.5 576.9,1872.5 575.7,1873.6 577.4,1875.7 575.7,1875.7 	"/>
	<g>
		<path class="st56" d="M462.2,2150.3c0,6.8-5.5,12.4-12.4,12.4h-26.3c-6.8,0-12.4-5.5-12.4-12.4V2124c0-6.8,5.5-12.4,12.4-12.4
			h26.3c6.8,0,12.4,5.5,12.4,12.4V2150.3z"/>
		<line class="st56" x1="416.7" y1="2125.3" x2="456.6" y2="2125.3"/>
		<line class="st56" x1="416.7" y1="2137.8" x2="456.6" y2="2137.8"/>
		<line class="st56" x1="416.7" y1="2150.4" x2="456.6" y2="2150.4"/>
	</g>
	<path class="st56" d="M458.5,2182.9c0,7.6-6.2,13.9-13.9,13.9h-16c-7.6,0-13.9-6.2-13.9-13.9l0,0c0-7.6,6.2-13.9,13.9-13.9h16
		C452.2,2168.9,458.5,2175.3,458.5,2182.9L458.5,2182.9z"/>
	<path class="st33" d="M518.3,2085.8v3.9c0,15.8-12.8,28.4-28.5,28.4l0,0c-15.8,0-28.5-12.8-28.5-28.4v-4.6"/>
	<g>
		<g>
			<path class="st56" d="M570.4,2150.3c0,6.8-5.5,12.4-12.4,12.4h-26.3c-6.8,0-12.4-5.5-12.4-12.4V2124c0-6.8,5.5-12.4,12.4-12.4
				h26.4c6.8,0,12.4,5.5,12.4,12.4L570.4,2150.3L570.4,2150.3z"/>
			<line class="st56" x1="525.1" y1="2125.3" x2="565" y2="2125.3"/>
			<line class="st56" x1="525.1" y1="2137.8" x2="565" y2="2137.8"/>
			<line class="st56" x1="525.1" y1="2150.4" x2="565" y2="2150.4"/>
		</g>
		<path class="st56" d="M566.9,2182.9c0,7.6-6.2,13.9-13.9,13.9h-16c-7.6,0-13.9-6.2-13.9-13.9l0,0c0-7.6,6.2-13.9,13.9-13.9h16
			C560.6,2168.9,566.9,2175.3,566.9,2182.9L566.9,2182.9z"/>
	</g>
	<path class="st24" d="M390.8,2058.5c14.3-22.3,53.7-38.2,99.9-38.2c46.1,0,83.2,15.9,97.6,38L390.8,2058.5z"/>
	<rect x="390.8" y="1457.8" class="st33" width="198.8" height="137.5"/>
	<path class="st8" d="M489.2,1611.2c48,0,88.4,33.5,98.9,78.3v-93.2h-198v93.9C400.5,1645.1,441,1611.2,489.2,1611.2z"/>
	<path class="st1" d="M469.1,1864.2c-1.2,0.7,2.7,26.8,20.6,36c17.9-9.2,20.6-35.3,19.3-36"/>
	<line class="st57" x1="389.1" y1="2277.8" x2="389.1" y2="1596.3"/>
	<path class="st58" d="M527.8,1927.3h-1.1h-30.1h-1.1l-0.7,0.8l-0.2,0.4l-6.4,7.9l-0.2,0.2l-0.6,0.6v0.8v15.9v2.9l2.8-0.7l1.2-0.2
		c5.6-1.3,10.2-5,12.6-9.5h14.6v6.4l-30.3,29.2l-0.7,0.7v1v26v2.2h2.2H534h2.2v-2.2v-14.6v-2.2h-2.1h-25.6v-5l26.8-25.7l0.7-0.7v-1
		l0.2-22.4v-0.8l-0.6-0.7l-0.2-0.2l-6.7-8.1l-0.2-0.4L527.8,1927.3z"/>
	<path class="st22" d="M527,1929.7l-0.2-0.4h-30.1l-0.2,0.4l-6.4,7.9l-0.2,0.2v15.9l1.2-0.2c5.5-1.3,9.9-5,11.5-9.5h18.3v9.6
		l-31,29.7v25.9h44.4V1995h-27.9v-8.1l27.5-26.4l0.2-22.4l-0.2-0.2L527,1929.7z"/>
	<path class="st58" d="M475.3,1927.3h-2.2h-19.8h-1.1l-0.6,0.7l-0.2,0.4l-6.6,7.9l-0.2,0.2l-0.6,0.6v0.8v5.8v2.2h2.2h7.6v55.8v0.2
		l0.1,0.2v0.1c1.3,4.6,5.6,8.1,10.9,9.2l0,0h0.2h0.2h7.4h2.2v-2.2v-80.1v-1.9L475.3,1927.3L475.3,1927.3z"/>
	<path class="st22" d="M453.1,1929.7l-6.4,7.9l-0.2,0.2v5.8h9.9v58v0.1c1.2,3.9,4.7,6.7,9.2,7.6h0.1h7.4v-80.1h-19.8L453.1,1929.7z"
		/>
	<path class="st58" d="M340.1,1803.7h-0.7h-19.3h-0.7l-0.4,0.6l-0.1,0.2l-4.1,5l-0.1,0.1l-0.2,0.4v0.6v10.2v1.8l1.8-0.4l0.8-0.1
		c3.6-1,6.4-3.2,8-6.1h9.3v4.1l-19.5,18.7l-0.4,0.4v0.6v16.7v1.3h1.3h28.2h1.3v-1.3v-9.2v-1.3h-1.3h-16.6v-3.2l17.2-16.5l0.4-0.4
		v-0.6l0.1-14.3v-0.6l-0.2-0.4l-0.1-0.1l-4.3-5.2l-0.1-0.2L340.1,1803.7z"/>
	<path class="st22" d="M339.6,1805.4l-0.1-0.2h-19.3l-0.1,0.2l-4.1,5l-0.1,0.1v10.2l0.8-0.1c3.6-0.8,6.3-3.2,7.4-6.1h11.7v6.2
		l-20,19.1v16.7h28.2v-9.2h-17.7v-5.2l17.6-16.9l0.1-14.3l-0.1-0.1L339.6,1805.4z"/>
	<path class="st58" d="M306.6,1803.7h-1.3h-12.8h-0.6l-0.4,0.6l-0.1,0.2l-4.1,5l-0.1,0.1l-0.2,0.4v0.6v3.9v1.3h1.3h5v35.4v0.2v0.1
		v0.1c1,2.9,3.6,5.2,7,5.8l0,0h0.1h0.1h4.8h1.3v-1.3v-51.2L306.6,1803.7L306.6,1803.7z"/>
	<path class="st22" d="M292.4,1805.4l-4.1,5l-0.1,0.1v3.9h6.3v37v0.1c0.7,2.5,3,4.3,5.8,5l0,0h4.8v-51.2L292.4,1805.4L292.4,1805.4z
		"/>
	<path class="st58" d="M684.3,1803.7h-0.7h-19.3h-0.7l-0.4,0.6l-0.1,0.2l-4.1,5l-0.1,0.1l-0.2,0.4v0.6v10.2v1.8l1.8-0.4l0.8-0.1
		c3.6-1,6.4-3.2,8-6.1h9.3v4.1l-19.5,18.7l-0.4,0.4v0.6v16.7v1.3h1.3h28.1h1.3v-1.3v-9.2v-1.3h-1.3h-16.4v-3.2l17.2-16.5l0.4-0.4
		v-0.6l0.1-14.3v-0.6l-0.2-0.4l-0.1-0.1l-4.3-5.5l-0.1-0.2L684.3,1803.7z"/>
	<path class="st22" d="M683.9,1805.4l-0.1-0.2h-19.3l-0.1,0.2l-4.1,5l-0.1,0.1v10.2l0.8-0.1c3.6-0.8,6.3-3.2,7.4-6.1h11.7v6.2
		l-20,19.1v16.7h28.2v-9.2h-17.8v-5.2l17.6-16.9l0.1-14.3l-0.1-0.1L683.9,1805.4z"/>
	<path class="st58" d="M650.8,1803.7h-1.3h-12.7h-0.7l-0.4,0.6l-0.1,0.2l-4.1,5l-0.1,0.1l-0.2,0.4v0.6v3.9v1.3h1.3h5v35.4v0.2v0.1
		v0.1c1,2.9,3.6,5.2,7,5.8l0,0h0.1h0.1h4.8h1.3v-1.3v-51.2L650.8,1803.7L650.8,1803.7L650.8,1803.7z"/>
	<path class="st22" d="M636.6,1805.4l-4.1,5l-0.1,0.1v3.9h6.3v37v0.1c0.7,2.5,3,4.3,5.8,5l0,0h4.8v-51.2L636.6,1805.4L636.6,1805.4z
		"/>
	<path class="st58" d="M200.6,1913h-1.2h-35.1H163l-0.8,1l-0.2,0.4l-7.5,9.2l-0.2,0.2l-0.6,0.7v1v18.5v3.4l3.2-0.8l1.3-0.4
		c6.6-1.7,12-5.6,14.6-11h16.9v7.5l-35.3,34.1l-0.8,0.8v1.1v30.4v2.7h2.7h51.8h2.7v-2.7v-16.9v-2.6h-2.7h-29.8v-5.7l31.4-30.2
		l0.8-0.7v-1.1l0.4-26v-1l-0.6-0.7l-0.2-0.2l-7.9-9.5l-0.4-0.4L200.6,1913z"/>
	<path class="st22" d="M199.6,1916l-0.4-0.4h-35l-0.2,0.4l-7.5,9.2l-0.2,0.2v18.5l1.3-0.4c6.4-1.7,11.5-5.7,13.6-11.1h21.4v11.3
		l-36.1,35v30.4h51.7v-16.9h-32.6v-9.3l32.1-30.8l0.4-26l-0.2-0.2L199.6,1916z"/>
	<path class="st58" d="M139.2,1913h-2.7h-23.1h-1.3l-0.8,1l-0.2,0.4l-7.5,9.2l-0.2,0.2l-0.6,0.7v1v7v2.7h2.7h9.1v65.1v0.4l0.1,0.4
		v0.1c1.7,5.3,6.6,9.5,12.8,10.9h0.1h0.2h0.2h8.6h2.7v-2.7v-93.7L139.2,1913L139.2,1913z"/>
	<path class="st22" d="M113.2,1916l-7.5,9.2l-0.2,0.2v7H117v67.5v0.1c1.3,4.5,5.5,7.9,10.8,9.1h0.1h8.6v-93.6h-23L113.2,1916z"/>
	<g id="labelText">
		<text transform="matrix(1 0 0 1 63.9683 1444.8564)" class="st59 st60">Build your own</text>
		<text transform="matrix(1 0 0 1 63.9683 1503.0898)" class="st59 st60">Paper Hawk</text>
	</g>
</g>
<g id="face">
	<path class="st61" d="M593.2,1686.8c0-30.7-18.2-62.2-18.2-63.4s-25.8-25.3-28.5-28.2H425.2c-14.7,12-23.3,25-23.8,27.4
		c-0.6,2.8-4.8,11.4-7.9,14.5c-2.9,2.9-6.3,25.3-6.3,36.5c0,8.1,0.6,28.6,3.6,44.7c2.7,2.4,4.3,13,5.6,16.4c5.1,12.1,3,14.6,3,14.6
		s1,5.6,2.1,14.6c1.8,13.1,5.1,33.1,15.9,52.7c16.6,29.8,43.8,58.6,72.7,58.6c29.7,0,57.8-31.2,74.9-62.8
		c11.4-21.2,14.9-42.5,16.5-54.9c0.8-6.6,1.9-10.8,1.9-10.8s-0.4-10.9,1.3-14.3C586.4,1729,593.2,1717.7,593.2,1686.8z"/>
	<path class="st61" d="M727.6,1717.2c-28.1-38.5-67.6-34.3-67.5-34.4c-14.7-0.5-25.5,6.8-25.5,6.8s-26.6,16.5-35.8,40.9
		c-4.3,11.2-6.6,11.3-7.7,9.8v43.4h138.3v-63.9L727.6,1717.2z"/>
	<path class="st61" d="M389.1,1739.8c0,0-1.8,11.1-8.7-7.1c-9.2-24.5-35.8-40.9-35.8-40.9s-11-7.3-25.5-6.8
		c0.1-0.1-39.3-4.2-67.5,34.2l0.1-122h-0.2v186.5h138.3V1746L389.1,1739.8z"/>
	<polygon class="st61" points="230.5,1772 73.7,1772 52.1,1719.1 52.1,1783.6 250.7,1783.6 250.7,1719.6 	"/>
</g>
<g id="labelName" class="st62">
	<text transform="matrix(1 0 0 1 63.9683 1474.5146)" class="st59 st60">User</text>
</g>
<g id="uniformName">
	<text transform="matrix(1.001 0 0 1 60.2808 1882.5068)" class="st22 st63 st64">TWELVES</text>
</g>
<line class="st65" x1="250.9" y1="2279" x2="250.9" y2="1595.7"/>
<line class="st65" x1="590" y1="2279" x2="590" y2="1596.3"/>
<line class="st65" x1="389.4" y1="2279" x2="389.4" y2="1596.3"/>
</svg>
