<?xml version="1.0" encoding="utf-8"?>
<!-- Generator: Adobe Illustrator 18.0.0, SVG Export Plug-In . SVG Version: 6.00 Build 0)  -->
<!DOCTYPE svg PUBLIC "-//W3C//DTD SVG 1.1//EN" "http://www.w3.org/Graphics/SVG/1.1/DTD/svg11.dtd">
<svg version="1.1" id="Layer_1" xmlns="http://www.w3.org/2000/svg" xmlns:xlink="http://www.w3.org/1999/xlink" x="0px" y="0px"
	 width="774px" height="970px" viewBox="28 1044 774 970" style="enable-background:new 28 1044 774 970;" xml:space="preserve">
<style type="text/css">
	.st0{clip-path:url(#SVGID_2_);fill:#2E557A;}
	.st1{fill:none;stroke:#B2B3B6;stroke-width:2;}
	.st2{clip-path:url(#SVGID_4_);fill:#2E557A;}
	.st3{fill:none;stroke:#5B5C5C;stroke-width:2;}
	.st4{clip-path:url(#SVGID_6_);fill:#2E557A;}
	.st5{clip-path:url(#SVGID_8_);fill:#2E557A;}
	.st6{fill:#76593F;}
	.st7{fill:#A98858;}
	.st8{clip-path:url(#SVGID_10_);fill:#DBB896;}
	.st9{clip-path:url(#SVGID_12_);fill:none;stroke:#754F3E;stroke-width:0.526;}
	.st10{fill:#322D29;}
	.st11{fill:#D7A37A;}
	.st12{clip-path:url(#SVGID_14_);fill:#926943;}
	.st13{clip-path:url(#SVGID_16_);fill:#D7A37A;}
	.st14{clip-path:url(#SVGID_18_);fill:#DBB896;}
	.st15{clip-path:url(#SVGID_20_);fill:none;stroke:#754F3E;stroke-width:0.526;}
	.st16{fill:#0071B0;}
	.st17{fill:#FFFFFF;}
	.st18{fill:none;stroke:#B4B4B5;}
	.st19{fill:none;stroke:#B2B3B6;stroke-width:2;stroke-dasharray:3,2;}
	.st20{clip-path:url(#SVGID_22_);fill:#2E557A;}
	.st21{fill:#2E557A;}
	.st22{clip-path:url(#SVGID_24_);fill:none;stroke:#000000;}
	.st23{stroke:#000000;}
	.st24{fill:#315679;}
	.st25{clip-path:url(#SVGID_26_);fill:#315679;}
	.st26{fill:#2E557A;}
	.st27{fill:#77C25F;}
	.st28{clip-path:url(#SVGID_28_);fill:#315679;}
	.st29{clip-path:url(#SVGID_30_);fill:#315679;}
	.st30{clip-path:url(#SVGID_32_);fill:#315679;}
	.st31{clip-path:url(#SVGID_34_);fill:#2E557A;}
	.st32{clip-path:url(#SVGID_36_);fill:#2E557A;}
	.st33{fill:none;stroke:#000000;}
	.st34{clip-path:url(#SVGID_38_);fill:#77C25F;}
	.st35{fill:none;stroke:#000000;stroke-width:2;}
	.st36{fill:#79C163;}
	.st37{clip-path:url(#SVGID_40_);fill:#315679;}
	.st38{fill:none;}
	.st39{clip-path:url(#SVGID_42_);fill:#2E557A;}
	.st40{clip-path:url(#SVGID_44_);fill:#79C163;}
	.st41{fill:#7BBF67;}
	.st42{clip-path:url(#SVGID_46_);fill:#315679;}
	.st43{clip-path:url(#SVGID_48_);fill:#2E557A;}
	.st44{clip-path:url(#SVGID_50_);fill:#7BBF67;}
	.st45{clip-path:url(#SVGID_52_);fill:#2E557A;}
	.st46{clip-path:url(#SVGID_54_);fill:url(#SVGID_55_);}
	.st47{clip-path:url(#SVGID_57_);fill:#2E557A;}
	.st48{clip-path:url(#SVGID_59_);fill:#2E557A;}
	.st49{clip-path:url(#SVGID_61_);fill:#DBB896;}
	.st50{clip-path:url(#SVGID_63_);fill:none;stroke:#754F3E;stroke-width:0.526;}
	.st51{clip-path:url(#SVGID_65_);fill:#77C25F;}
	.st52{clip-path:url(#SVGID_67_);fill:#2E557A;}
	.st53{clip-path:url(#SVGID_69_);fill:#77C25F;}
	.st54{clip-path:url(#SVGID_71_);fill:#315679;}
	.st55{fill:none;stroke:#FFFFFF;stroke-width:2;}
	.st56{fill:none;stroke:#B2B3B6;stroke-width:3;}
	.st57{fill:none;stroke:#000000;stroke-dasharray:3,2;}
	.st58{font-family:"ff-dagny-web-pro", Helvetica Neue, Helvetica, sans-serif;}
	.st59{font-size:15.127px;}
	.st60{fill:#926943;}
	.st61{fill:none;stroke:#6C7E99;stroke-width:2;}
	.st62{fill:#77C25E;}
	.st63{font-family:"ff-dagny-web-pro", Helvetica Neue, Helvetica, sans-serif;}
	.st64{font-size:24.7532px;}
	.st65{fill:#DBB896;}
	.st66{enable-background:new    ;}
</style>
<g id="uniform">
	<g>
		<g>
			<g>
				<g>
					<g>
						<g>
							<defs>
								<rect id="SVGID_1_" x="591.9" y="1727.7" width="138.7" height="147.5"/>
							</defs>
							<clipPath id="SVGID_2_">
								<use xlink:href="#SVGID_1_"  style="overflow:visible;"/>
							</clipPath>
							<rect x="591.9" y="1727.7" class="st0" width="138.7" height="147.5"/>
						</g>
					</g>
				</g>
			</g>
		</g>
	</g>
	<path class="st1" d="M514.8,1535.6c0,0,6.4,53.7,72.9,49.9"/>
	<path class="st1" d="M465.9,1535.6c0,0-6.4,53.7-72.9,49.9"/>
	<g>
		<g>
			<g>
				<g>
					<g>
						<g>
							<defs>
								<rect id="SVGID_3_" x="591.4" y="1715.8" width="138.7" height="147.5"/>
							</defs>
							<clipPath id="SVGID_4_">
								<use xlink:href="#SVGID_3_"  style="overflow:visible;"/>
							</clipPath>
							<rect x="591.4" y="1715.8" class="st2" width="138.7" height="147.5"/>
						</g>
					</g>
				</g>
			</g>
		</g>
	</g>
	<rect x="591.4" y="1715.8" class="st3" width="138.7" height="147.5"/>
	<g>
		<g>
			<g>
				<g>
					<g>
						<g>
							<defs>
								<rect id="SVGID_5_" x="252.9" y="1715.8" width="138.7" height="147.5"/>
							</defs>
							<clipPath id="SVGID_6_">
								<use xlink:href="#SVGID_5_"  style="overflow:visible;"/>
							</clipPath>
							<rect x="252.9" y="1715.8" class="st4" width="138.7" height="147.5"/>
						</g>
					</g>
				</g>
			</g>
		</g>
	</g>
	<rect x="252.9" y="1715.8" class="st3" width="138.7" height="147.5"/>
	<g>
		<g>
			<g>
				<g>
					<g>
						<g>
							<defs>
								<polygon id="SVGID_7_" points="391.9,1716.5 392.8,1863.4 488.9,1863.4 488.9,1776.3 494.3,1776.3 494.3,1863.4 
									592.1,1863.4 591.2,1716.5 								"/>
							</defs>
							<clipPath id="SVGID_8_">
								<use xlink:href="#SVGID_7_"  style="overflow:visible;"/>
							</clipPath>
							<rect x="391.9" y="1713.1" class="st5" width="200.3" height="150.3"/>
						</g>
					</g>
				</g>
			</g>
		</g>
	</g>
	<rect x="592" y="1253.9" class="st6" width="138.6" height="199.2"/>
	<rect x="251.8" y="1253.9" class="st6" width="138.6" height="199.2"/>
	<rect x="592" y="1253.9" class="st6" width="138.6" height="199.2"/>
	<rect x="251.8" y="1253.9" class="st6" width="138.6" height="199.2"/>
	<rect x="592" y="1253.9" class="st7" width="138.6" height="199.2"/>
	<rect x="251.8" y="1253.9" class="st7" width="138.6" height="199.2"/>
	<g>
		<g>
			<g>
				<g>
					<g>
						<g>
							<defs>
								<rect id="SVGID_9_" x="592" y="1253.9" width="138.6" height="199.2"/>
							</defs>
							<clipPath id="SVGID_10_">
								<use xlink:href="#SVGID_9_"  style="overflow:visible;"/>
							</clipPath>
							<rect x="592" y="1253.9" class="st8" width="138.6" height="199.2"/>
						</g>
					</g>
				</g>
			</g>
		</g>
	</g>
	<g>
		<g>
			<g>
				<g>
					<g>
						<g>
							<defs>
								<rect id="SVGID_11_" x="591.7" y="1253.6" width="139.2" height="199.9"/>
							</defs>
							<clipPath id="SVGID_12_">
								<use xlink:href="#SVGID_11_"  style="overflow:visible;"/>
							</clipPath>
							<rect x="592" y="1253.9" class="st9" width="138.6" height="199.2"/>
						</g>
					</g>
				</g>
			</g>
		</g>
	</g>
	<g>
		<path class="st10" d="M729,1374.1l-0.1-121.6l-138.1,0.2l0.2,128.8l0.1,13.1c0,0,1.8,11.1,8.7-7.1c9.2-24.5,35.9-41,35.9-41
			s11-7.3,25.6-6.8C661.2,1339.7,700.8,1335.5,729,1374.1"/>
		<path class="st11" d="M665,1358.8c0,0-13.7-6.1-19.5,5c-4.5,8.2,0.4,11,4.1,14.2c5.2,4.6,12.7,1,8,8.4l-4.6,7.3
			c0,0,11.9-2.2,9.2-10.8c-2.8-8.5-11.7-10.4-11.7-10.4S644.7,1358.6,665,1358.8"/>
		<path class="st11" d="M671.3,1381.6c0,0,4.6-17.5-6.4-23c0,0-1,3.7-1,8.2C664,1371.4,671.3,1375.2,671.3,1381.6"/>
	</g>
	<g>
		<g>
			<g>
				<g>
					<g>
						<g>
							<defs>
								<rect id="SVGID_13_" x="637.9" y="1344.4" width="44.5" height="67.7"/>
							</defs>
							<clipPath id="SVGID_14_">
								<use xlink:href="#SVGID_13_"  style="overflow:visible;"/>
							</clipPath>
							<path class="st12" d="M641.6,1361.2l-3.2-3.6c0,0,15.5-17.5,29.3-12s18.3,21.1,10.1,42.3c-8.2,21.1-17.5,23.9-23,23.9
								c-5.5,0-5.5-9.2-5.5-9.2s3.7,9.2,13.8,0c10.1-9.2,19.3-24.8,12-42.3C667.7,1343.2,645.7,1354.7,641.6,1361.2"/>
						</g>
					</g>
				</g>
			</g>
		</g>
		<g>
			<g>
				<g>
					<g>
						<g>
							<defs>
								<rect id="SVGID_15_" x="637.9" y="1344.4" width="44.5" height="67.7"/>
							</defs>
							<clipPath id="SVGID_16_">
								<use xlink:href="#SVGID_15_"  style="overflow:visible;"/>
							</clipPath>
							<path class="st13" d="M641.6,1361.2l-3.2-3.6c0,0,15.5-17.5,29.3-12s18.3,21.1,10.1,42.3c-8.2,21.1-17.5,23.9-23,23.9
								c-5.5,0-5.5-9.2-5.5-9.2s3.7,9.2,13.8,0c10.1-9.2,18.5-28,11.3-45.5C667,1339.8,645.7,1354.7,641.6,1361.2z"/>
						</g>
					</g>
				</g>
			</g>
		</g>
	</g>
	<g>
		<g>
			<g>
				<g>
					<g>
						<g>
							<defs>
								<rect id="SVGID_17_" x="251.8" y="1253.9" width="138.6" height="199.2"/>
							</defs>
							<clipPath id="SVGID_18_">
								<use xlink:href="#SVGID_17_"  style="overflow:visible;"/>
							</clipPath>
							<rect x="251.8" y="1253.9" class="st14" width="138.6" height="199.2"/>
						</g>
					</g>
				</g>
			</g>
		</g>
	</g>
	<g>
		<g>
			<g>
				<g>
					<g>
						<g>
							<defs>
								<rect id="SVGID_19_" x="251.3" y="1253.6" width="139.2" height="199.9"/>
							</defs>
							<clipPath id="SVGID_20_">
								<use xlink:href="#SVGID_19_"  style="overflow:visible;"/>
							</clipPath>
							<rect x="251.8" y="1253.9" class="st15" width="138.6" height="199.2"/>
						</g>
					</g>
				</g>
			</g>
		</g>
	</g>
	<g>
		<path class="st10" d="M251.9,1376.1l0.1-124.2l138.1,0.2l-0.2,131.6l-0.1,13.1c0,0-1.8,11.1-8.7-7.1c-9.2-24.5-35.9-41-35.9-41
			s-11-7.3-25.6-6.8C319.6,1341.7,280.1,1337.7,251.9,1376.1"/>
	</g>
	<rect x="251.6" y="1454.4" class="st16" width="139.8" height="261.8"/>
	<rect x="591.4" y="1454.4" class="st17" width="137.8" height="261.8"/>
	<rect x="591.4" y="1454.4" class="st18" width="137.8" height="261.8"/>
	<rect x="251.6" y="1454.4" class="st17" width="139.8" height="261.8"/>
	<rect x="251.6" y="1454.4" class="st18" width="139.8" height="261.8"/>
	<rect x="391.5" y="1114.2" class="st10" width="199.1" height="137.8"/>
	<path class="st6" d="M600.1,1394.4c0.7-1.3,1.3-3,1.9-4.8C600.9,1392.5,600.1,1394.4,600.1,1394.4"/>
	<path class="st6" d="M382.3,1394.4c-0.7-1.3-1.3-3-1.9-4.8C381.4,1392.5,382.3,1394.4,382.3,1394.4"/>
	<line class="st19" x1="661.1" y1="1546" x2="661.1" y2="1610.7"/>
	<line class="st19" x1="320.9" y1="1546" x2="320.9" y2="1610.7"/>
	<g>
		<g>
			<g>
				<g>
					<g>
						<g>
							<defs>
								<rect id="SVGID_21_" x="517.3" y="1715.8" width="73.9" height="25.2"/>
							</defs>
							<clipPath id="SVGID_22_">
								<use xlink:href="#SVGID_21_"  style="overflow:visible;"/>
							</clipPath>
							<rect x="517.3" y="1715.8" class="st20" width="73.9" height="25.2"/>
						</g>
					</g>
				</g>
			</g>
		</g>
	</g>
	<rect x="517.3" y="1715.8" class="st21" width="73.9" height="25.2"/>
	<g>
		<g>
			<g>
				<g>
					<g>
						<g>
							<defs>
								<rect id="SVGID_23_" x="392.6" y="1715.8" width="71.1" height="25.2"/>
							</defs>
							<clipPath id="SVGID_24_">
								<use xlink:href="#SVGID_23_"  style="overflow:visible;"/>
							</clipPath>
							<rect x="392.6" y="1715.8" class="st22" width="71.1" height="25.2"/>
						</g>
					</g>
				</g>
			</g>
		</g>
	</g>
	<rect x="392.6" y="1715.8" class="st21" width="71.1" height="25.2"/>
	<rect x="463.7" y="1715.8" class="st23" width="53.7" height="19.5"/>
	<g>
		<g>
			<rect id="SVGID_145_" x="252.3" y="1523.2" class="st24" width="138.9" height="16.5"/>
		</g>
		<g>
			<g>
				<g>
					<g>
						<g>
							<defs>
								<rect id="SVGID_25_" x="252.3" y="1523.2" width="138.9" height="16.5"/>
							</defs>
							<clipPath id="SVGID_26_">
								<use xlink:href="#SVGID_25_"  style="overflow:visible;"/>
							</clipPath>
							<rect x="252.3" y="1519" class="st25" width="138.9" height="19.4"/>
						</g>
					</g>
				</g>
			</g>
		</g>
	</g>
	<rect x="645.1" y="1716.5" width="32.1" height="147.1"/>
	<rect x="647.3" y="1716.5" class="st21" width="27.5" height="147.1"/>
	<rect x="647.3" y="1716.5" class="st26" width="27.5" height="147.1"/>
	<rect x="652.8" y="1716.5" class="st27" width="16.5" height="147.1"/>
	<rect x="305.3" y="1716.5" width="32.1" height="147.1"/>
	<rect x="307.5" y="1716.5" class="st21" width="27.5" height="147.1"/>
	<rect x="306.2" y="1716.5" class="st26" width="29.9" height="147.1"/>
	<rect x="313.2" y="1716.5" class="st27" width="16.5" height="147.1"/>
	<g>
		<g>
			<rect id="SVGID_149_" x="591.9" y="1523.2" class="st24" width="138.9" height="16.5"/>
		</g>
		<g>
			<g>
				<g>
					<g>
						<g>
							<defs>
								<rect id="SVGID_27_" x="591.9" y="1523.2" width="138.9" height="16.5"/>
							</defs>
							<clipPath id="SVGID_28_">
								<use xlink:href="#SVGID_27_"  style="overflow:visible;"/>
							</clipPath>
							<rect x="591.9" y="1519" class="st28" width="138.9" height="19.4"/>
						</g>
					</g>
				</g>
			</g>
		</g>
	</g>
	<g>
		<g>
			<polygon id="SVGID_151_" class="st24" points="510,1523.2 681.3,1523.2 681.3,1539.8 514.1,1539.8 			"/>
		</g>
		<g>
			<g>
				<g>
					<g>
						<g>
							<defs>
								<polygon id="SVGID_29_" points="510,1523.2 681.3,1523.2 681.3,1539.8 514.1,1539.8 								"/>
							</defs>
							<clipPath id="SVGID_30_">
								<use xlink:href="#SVGID_29_"  style="overflow:visible;"/>
							</clipPath>
							<polygon class="st29" points="526.8,1538.1 589.2,1538.1 589.2,1519 542.5,1519 							"/>
						</g>
					</g>
				</g>
			</g>
		</g>
	</g>
	<g>
		<g>
			<polygon id="SVGID_153_" class="st24" points="470.4,1523.2 306.2,1523.2 306.2,1539.8 466.6,1539.8 			"/>
		</g>
		<g>
			<g>
				<g>
					<g>
						<g>
							<defs>
								<polygon id="SVGID_31_" points="470.4,1523.2 306.2,1523.2 306.2,1539.8 466.6,1539.8 								"/>
							</defs>
							<clipPath id="SVGID_32_">
								<use xlink:href="#SVGID_31_"  style="overflow:visible;"/>
							</clipPath>
							<polygon class="st30" points="460.7,1538.1 392.1,1538.1 392.1,1519 432.8,1519.6 							"/>
						</g>
					</g>
				</g>
			</g>
		</g>
	</g>
	<rect x="591.9" y="1440.7" class="st21" width="138.9" height="15.1"/>
	<g>
		<g>
			<g>
				<g>
					<g>
						<g>
							<defs>
								<rect id="SVGID_33_" x="253.2" y="1715.8" width="138.1" height="25.2"/>
							</defs>
							<clipPath id="SVGID_34_">
								<use xlink:href="#SVGID_33_"  style="overflow:visible;"/>
							</clipPath>
							<rect x="253.2" y="1715.8" class="st31" width="138.1" height="25.2"/>
						</g>
					</g>
				</g>
			</g>
		</g>
	</g>
	<rect x="253.2" y="1715.8" class="st21" width="138.1" height="25.2"/>
	<g>
		<g>
			<g>
				<g>
					<g>
						<g>
							<defs>
								<rect id="SVGID_35_" x="591.4" y="1715.8" width="138.1" height="25.2"/>
							</defs>
							<clipPath id="SVGID_36_">
								<use xlink:href="#SVGID_35_"  style="overflow:visible;"/>
							</clipPath>
							<rect x="591.4" y="1715.8" class="st32" width="138.1" height="25.2"/>
						</g>
					</g>
				</g>
			</g>
		</g>
	</g>
	<rect x="591.4" y="1715.8" class="st21" width="138.1" height="25.2"/>
	<polyline class="st18" points="730.1,1836 730.1,1863.6 591.4,1863.6 591.4,1836 	"/>
	<polyline class="st18" points="252.9,1836 252.9,1868 391.5,1868 391.5,1836 	"/>
	<rect x="252.9" y="1863.7" class="st21" width="138.7" height="73.3"/>
	<rect x="252.9" y="1863.7" class="st33" width="138.7" height="73.3"/>
	<g>
		<g>
			<g>
				<g>
					<g>
						<g>
							<defs>
								<rect id="SVGID_37_" x="393.1" y="1863.7" width="95.9" height="72"/>
							</defs>
							<clipPath id="SVGID_38_">
								<use xlink:href="#SVGID_37_"  style="overflow:visible;"/>
							</clipPath>
							<rect x="393.1" y="1863.7" class="st34" width="95.9" height="72"/>
						</g>
					</g>
				</g>
			</g>
		</g>
	</g>
	<rect x="393.1" y="1863.7" class="st35" width="95.9" height="72"/>
	<line class="st35" x1="424.2" y1="1871.9" x2="457.9" y2="1886.3"/>
	<line class="st35" x1="424.2" y1="1887.3" x2="457.9" y2="1897.6"/>
	<line class="st35" x1="424.2" y1="1898.7" x2="457.9" y2="1905"/>
	<line class="st35" x1="459.8" y1="1871.9" x2="426.3" y2="1886.3"/>
	<line class="st35" x1="459.8" y1="1887.3" x2="426.3" y2="1897.6"/>
	<line class="st35" x1="459.8" y1="1898.7" x2="426.3" y2="1905"/>
	<g>
		<path class="st36" d="M427.9,1872.2c0,1.6-1.2,2.8-2.8,2.8s-2.8-1.2-2.8-2.8s1.2-2.8,2.8-2.8S427.9,1870.7,427.9,1872.2"/>
		<circle class="st35" cx="425.2" cy="1872.2" r="2.8"/>
		<path class="st36" d="M427.9,1887.3c0,1.6-1.2,2.8-2.8,2.8s-2.8-1.2-2.8-2.8c0-1.6,1.2-2.8,2.8-2.8S427.9,1885.7,427.9,1887.3"/>
		<circle class="st35" cx="425.2" cy="1887.3" r="2.8"/>
		<path class="st36" d="M427.9,1898c0,1.6-1.2,2.8-2.8,2.8s-2.8-1.2-2.8-2.8c0-1.6,1.2-2.8,2.8-2.8S427.9,1896.5,427.9,1898"/>
		<circle class="st35" cx="425.2" cy="1898" r="2.8"/>
		<path class="st36" d="M427.9,1904.5c0,1.6-1.2,2.8-2.8,2.8s-2.8-1.2-2.8-2.8c0-1.6,1.2-2.8,2.8-2.8S427.9,1902.9,427.9,1904.5"/>
		<circle class="st35" cx="425.2" cy="1904.5" r="2.8"/>
		<path class="st36" d="M461.3,1872.2c0,1.6-1.2,2.8-2.8,2.8c-1.6,0-2.8-1.2-2.8-2.8s1.2-2.8,2.8-2.8S461.3,1870.7,461.3,1872.2"/>
		<circle class="st35" cx="458.6" cy="1872.2" r="2.8"/>
		<path class="st36" d="M461.3,1887.3c0,1.6-1.2,2.8-2.8,2.8c-1.6,0-2.8-1.2-2.8-2.8c0-1.6,1.2-2.8,2.8-2.8
			S461.3,1885.7,461.3,1887.3"/>
		<circle class="st35" cx="458.6" cy="1887.3" r="2.8"/>
		<path class="st36" d="M461.3,1898c0,1.6-1.2,2.8-2.8,2.8c-1.6,0-2.8-1.2-2.8-2.8c0-1.6,1.2-2.8,2.8-2.8
			C460.1,1895.3,461.3,1896.5,461.3,1898"/>
		<circle class="st35" cx="458.6" cy="1898" r="2.8"/>
		<path class="st36" d="M461.3,1904.5c0,1.6-1.2,2.8-2.8,2.8c-1.6,0-2.8-1.2-2.8-2.8c0-1.6,1.2-2.8,2.8-2.8
			C460.1,1901.7,461.3,1902.9,461.3,1904.5"/>
		<circle class="st35" cx="458.6" cy="1904.5" r="2.8"/>
		<path class="st21" d="M400.8,1864.6c0,0-2.1,9,1.3,18.5c3.5,9.6,9.6,17.2,11,29.6c1.3,12.4,0,12.7,0,12.7h-19.4v-60.8H400.8
			L400.8,1864.6z"/>
		<path class="st21" d="M481.5,1864.6c0,0,2.1,9-1.3,18.5c-3.5,9.6-9.6,17.2-11,29.6c-1.3,12.4,0,12.7,0,12.7h19.6v-60.8H481.5
			L481.5,1864.6z"/>
	</g>
	<g>
		<g>
			<g>
				<g>
					<g>
						<g>
							<defs>
								<rect id="SVGID_39_" x="393.1" y="1926.8" width="95.9" height="8.6"/>
							</defs>
							<clipPath id="SVGID_40_">
								<use xlink:href="#SVGID_39_"  style="overflow:visible;"/>
							</clipPath>
							<rect x="393.1" y="1926.8" class="st37" width="95.9" height="8.6"/>
						</g>
					</g>
				</g>
			</g>
		</g>
	</g>
	<rect x="393.1" y="1926.8" class="st38" width="95.9" height="8.6"/>
	<g>
		<g>
			<g>
				<g>
					<g>
						<g>
							<defs>
								<path id="SVGID_41_" d="M392.3,1927.4c0,1.1,0.7-0.6,0.7-0.6h95.9c-0.7-10.8-21.9-19.4-48.1-19.4
									C414,1907.4,392.3,1916.4,392.3,1927.4"/>
							</defs>
							<clipPath id="SVGID_42_">
								<use xlink:href="#SVGID_41_"  style="overflow:visible;"/>
							</clipPath>
							<rect x="392.3" y="1907.4" class="st39" width="96.5" height="21.1"/>
						</g>
					</g>
				</g>
			</g>
		</g>
	</g>
	<g>
		<path class="st35" d="M393.1,1926.8h95.9c-0.7-10.8-21.9-19.4-48.1-19.4c-26.7,0-48.2,9-48.2,20
			C392.3,1928.5,393.1,1926.8,393.1,1926.8z"/>
		<polyline points="396.4,1935.9 405.3,1926.8 414.4,1935.9 		"/>
		<polyline class="st38" points="396.4,1935.9 405.3,1926.8 414.4,1935.9 		"/>
		<polyline points="417.8,1935.9 426.6,1926.8 435.7,1935.9 		"/>
		<polyline class="st38" points="417.8,1935.9 426.6,1926.8 435.7,1935.9 		"/>
		<polyline points="439,1935.9 448.1,1926.8 457,1935.9 		"/>
		<polyline class="st38" points="439,1935.9 448.1,1926.8 457,1935.9 		"/>
		<polyline points="460.3,1935.9 469.3,1926.8 478.4,1935.9 		"/>
		<polyline class="st38" points="460.3,1935.9 469.3,1926.8 478.4,1935.9 		"/>
	</g>
	<g>
		<g>
			<g>
				<g>
					<g>
						<g>
							<defs>
								<rect id="SVGID_43_" x="494.3" y="1863.7" width="95.7" height="72"/>
							</defs>
							<clipPath id="SVGID_44_">
								<use xlink:href="#SVGID_43_"  style="overflow:visible;"/>
							</clipPath>
							<rect x="493.4" y="1863.7" class="st40" width="95.7" height="72"/>
						</g>
					</g>
				</g>
			</g>
		</g>
	</g>
	<rect x="494.3" y="1863.7" class="st35" width="95.7" height="72"/>
	<line class="st35" x1="558.9" y1="1871.9" x2="525.3" y2="1886.3"/>
	<line class="st35" x1="558.9" y1="1887.3" x2="525.3" y2="1897.6"/>
	<line class="st35" x1="558.9" y1="1898.7" x2="525.3" y2="1905"/>
	<line class="st35" x1="523.2" y1="1871.9" x2="556.9" y2="1886.3"/>
	<line class="st35" x1="523.2" y1="1887.3" x2="556.9" y2="1897.6"/>
	<line class="st35" x1="523.2" y1="1898.7" x2="556.9" y2="1905"/>
	<g>
		<path class="st41" d="M555.1,1872.2c0,1.6,1.2,2.8,2.8,2.8c1.6,0,2.8-1.2,2.8-2.8s-1.2-2.8-2.8-2.8
			C556.3,1869.4,555.1,1870.7,555.1,1872.2"/>
		<circle class="st35" cx="557.8" cy="1872.2" r="2.8"/>
		<path class="st41" d="M555.1,1887.3c0,1.6,1.2,2.8,2.8,2.8c1.6,0,2.8-1.2,2.8-2.8c0-1.6-1.2-2.8-2.8-2.8
			C556.3,1884.6,555.1,1885.7,555.1,1887.3"/>
		<circle class="st35" cx="557.8" cy="1887.3" r="2.8"/>
		<path class="st41" d="M555.1,1898c0,1.6,1.2,2.8,2.8,2.8c1.6,0,2.8-1.2,2.8-2.8c0-1.6-1.2-2.8-2.8-2.8
			C556.3,1895.3,555.1,1896.5,555.1,1898"/>
		<circle class="st35" cx="557.8" cy="1898" r="2.8"/>
		<path class="st41" d="M555.1,1904.5c0,1.6,1.2,2.8,2.8,2.8c1.6,0,2.8-1.2,2.8-2.8c0-1.6-1.2-2.8-2.8-2.8
			C556.3,1901.7,555.1,1902.9,555.1,1904.5"/>
		<circle class="st35" cx="557.8" cy="1904.5" r="2.8"/>
		<path class="st41" d="M521.8,1872.2c0,1.6,1.2,2.8,2.8,2.8c1.6,0,2.8-1.2,2.8-2.8s-1.2-2.8-2.8-2.8
			C523.1,1869.4,521.8,1870.7,521.8,1872.2"/>
		<circle class="st35" cx="524.5" cy="1872.2" r="2.8"/>
		<path class="st41" d="M521.8,1887.3c0,1.6,1.2,2.8,2.8,2.8c1.6,0,2.8-1.2,2.8-2.8c0-1.6-1.2-2.8-2.8-2.8
			C523.1,1884.6,521.8,1885.7,521.8,1887.3"/>
		<circle class="st35" cx="524.5" cy="1887.3" r="2.8"/>
		<path class="st41" d="M521.8,1898c0,1.6,1.2,2.8,2.8,2.8c1.6,0,2.8-1.2,2.8-2.8c0-1.6-1.2-2.8-2.8-2.8
			C523.1,1895.3,521.8,1896.5,521.8,1898"/>
		<circle class="st35" cx="524.5" cy="1898" r="2.8"/>
		<path class="st41" d="M521.8,1904.5c0,1.6,1.2,2.8,2.8,2.8c1.6,0,2.8-1.2,2.8-2.8c0-1.6-1.2-2.8-2.8-2.8
			C523.1,1901.7,521.8,1902.9,521.8,1904.5"/>
		<circle class="st35" cx="524.5" cy="1904.5" r="2.8"/>
		<path class="st21" d="M582.3,1864.6c0,0,2.1,9-1.3,18.5c-3.5,9.6-9.6,17.2-11,29.6c-1.3,12.4,0,12.7,0,12.7h19.4v-60.8H582.3
			L582.3,1864.6z"/>
		<path class="st21" d="M501.4,1864.6c0,0-2.1,9,1.3,18.5c3.5,9.6,9.6,17.2,11,29.6c1.3,12.4,0,12.7,0,12.7h-19.5v-60.8H501.4
			L501.4,1864.6z"/>
	</g>
	<g>
		<g>
			<g>
				<g>
					<g>
						<g>
							<defs>
								<rect id="SVGID_45_" x="494.3" y="1926.8" width="95.7" height="8.6"/>
							</defs>
							<clipPath id="SVGID_46_">
								<use xlink:href="#SVGID_45_"  style="overflow:visible;"/>
							</clipPath>
							<rect x="494.3" y="1926.8" class="st42" width="95.7" height="8.6"/>
						</g>
					</g>
				</g>
			</g>
		</g>
	</g>
	<rect x="494.3" y="1926.8" class="st38" width="95.7" height="8.6"/>
	<g>
		<g>
			<g>
				<g>
					<g>
						<g>
							<defs>
								<path id="SVGID_47_" d="M494.3,1926.8H590c0,0,0.7,1.7,0.7,0.6c0-11-21.6-20-48.2-20C516,1907.4,495,1916.2,494.3,1926.8"/>
							</defs>
							<clipPath id="SVGID_48_">
								<use xlink:href="#SVGID_47_"  style="overflow:visible;"/>
							</clipPath>
							<rect x="494.3" y="1907.4" class="st43" width="96.3" height="21.1"/>
						</g>
					</g>
				</g>
			</g>
		</g>
	</g>
	<g>
		<path class="st35" d="M590.1,1926.8h-95.7c0.7-10.8,21.7-19.4,48-19.4c26.7,0,48.2,9,48.2,20
			C590.7,1928.5,590.1,1926.8,590.1,1926.8z"/>
		<polyline points="586.6,1935.9 577.7,1926.8 568.7,1935.9 		"/>
		<polyline class="st38" points="586.6,1935.9 577.7,1926.8 568.7,1935.9 		"/>
		<polyline points="565.2,1935.9 556.4,1926.8 547.4,1935.9 		"/>
		<polyline class="st38" points="565.2,1935.9 556.4,1926.8 547.4,1935.9 		"/>
		<polyline points="543.9,1935.9 535.1,1926.8 526.1,1935.9 		"/>
		<polyline class="st38" points="543.9,1935.9 535.1,1926.8 526.1,1935.9 		"/>
		<polyline points="522.6,1935.9 513.7,1926.8 504.8,1935.9 		"/>
		<polyline class="st38" points="522.6,1935.9 513.7,1926.8 504.8,1935.9 		"/>
	</g>
	<rect x="592.9" y="1863.8" class="st21" width="96.1" height="61.8"/>
	<g>
		<g>
			<g>
				<g>
					<g>
						<g>
							<defs>
								<polygon id="SVGID_49_" points="643.5,1863.7 626.3,1885.7 594,1891.9 594,1935.8 730.4,1935.8 730.4,1863.7 								"/>
							</defs>
							<clipPath id="SVGID_50_">
								<use xlink:href="#SVGID_49_"  style="overflow:visible;"/>
							</clipPath>
							<rect x="594" y="1863.7" class="st44" width="136.3" height="72"/>
						</g>
					</g>
				</g>
			</g>
		</g>
	</g>
	<polygon class="st38" points="594,1891.9 626.3,1885.7 643.5,1863.7 730.4,1863.7 730.4,1935.8 594,1935.8 	"/>
	<line class="st35" x1="657.6" y1="1869.5" x2="639.4" y2="1867.3"/>
	<line class="st35" x1="649.8" y1="1882.9" x2="631.8" y2="1878.3"/>
	<line class="st35" x1="644" y1="1892.6" x2="626.3" y2="1885.7"/>
	<line class="st35" x1="638.8" y1="1868" x2="648.5" y2="1881"/>
	<line class="st35" x1="631" y1="1878.1" x2="642.7" y2="1890.7"/>
	<line class="st35" x1="625.7" y1="1885.9" x2="639.1" y2="1897"/>
	<g>
		<path class="st41" d="M654.1,1867.9c-0.8,1.3-0.2,3,1,3.7c1.3,0.8,3,0.2,3.7-1c0.8-1.3,0.2-3-1-3.7
			C656.6,1866.1,654.8,1866.5,654.1,1867.9"/>
		<circle class="st35" cx="656.5" cy="1869.3" r="2.8"/>
		<path class="st41" d="M646.4,1881c-0.8,1.3-0.2,3,1,3.7c1.3,0.8,3,0.2,3.7-1c0.8-1.3,0.2-3-1-3.7
			C648.9,1879.2,647.3,1879.7,646.4,1881"/>
		<circle class="st35" cx="648.9" cy="1882.3" r="2.8"/>
		<path class="st41" d="M641,1890.2c-0.8,1.3-0.2,3,1,3.7c1.3,0.8,3,0.2,3.7-1c0.8-1.3,0.2-3-1-3.7
			C643.5,1888.4,641.8,1888.9,641,1890.2"/>
		<circle class="st35" cx="643.5" cy="1891.6" r="2.8"/>
		<path class="st41" d="M637.8,1895.9c-0.8,1.3-0.2,3,1,3.7c1.3,0.8,3,0.2,3.7-1c0.8-1.3,0.2-3-1-3.7
			C640.2,1894.1,638.5,1894.7,637.8,1895.9"/>
		<circle class="st35" cx="640.2" cy="1897.1" r="2.8"/>
		<line class="st35" x1="630.8" y1="1902.6" x2="618.8" y2="1886.6"/>
		<line class="st35" x1="616" y1="1906.3" x2="605.7" y2="1889.7"/>
		<line class="st35" x1="605" y1="1909.3" x2="597.1" y2="1891.2"/>
		<line class="st35" x1="619" y1="1886.6" x2="616.5" y2="1904.3"/>
		<line class="st35" x1="606.4" y1="1889.4" x2="605.5" y2="1907.1"/>
		<line class="st35" x1="597.1" y1="1891.4" x2="598.6" y2="1908.9"/>
		<path class="st41" d="M629.7,1899c-1.6,0.4-2.4,1.9-1.9,3.4c0.4,1.6,1.9,2.4,3.4,1.9c1.6-0.4,2.4-1.9,1.9-3.4
			C632.6,1899.4,631,1898.6,629.7,1899"/>
		<circle class="st35" cx="630.4" cy="1901.6" r="2.8"/>
		<path class="st41" d="M615,1902.8c-1.6,0.4-2.4,1.9-1.9,3.4c0.4,1.6,1.9,2.4,3.4,1.9c1.6-0.4,2.4-1.9,1.9-3.4
			C617.9,1903.3,616.5,1902.5,615,1902.8"/>
		<circle class="st35" cx="615.8" cy="1905.5" r="2.8"/>
		<path class="st41" d="M604.7,1905.5c-1.6,0.4-2.4,1.9-1.9,3.4c0.4,1.6,1.9,2.4,3.4,1.9c1.6-0.4,2.4-1.9,1.9-3.4
			C607.6,1906,606.1,1905.2,604.7,1905.5"/>
		<circle class="st35" cx="605.5" cy="1908.2" r="2.8"/>
		<path class="st41" d="M598.4,1907.2c-1.6,0.4-2.4,1.9-1.9,3.4c0.4,1.6,1.9,2.4,3.4,1.9c1.6-0.4,2.4-1.9,1.9-3.4
			C601.2,1907.7,599.9,1906.8,598.4,1907.2"/>
		<circle class="st35" cx="599.2" cy="1909.8" r="2.8"/>
		<path class="st21" d="M594.7,1926.2h135v-62.8h-49.3c0,0,1.1,9.8-1.3,19.6c0,0,1.1,14.6-17.3,20.1c-18.3,5.5-67.6,14.8-67.6,14.8
			v9.1"/>
	</g>
	<g>
		<g>
			<g>
				<g>
					<g>
						<g>
							<defs>
								<rect id="SVGID_51_" x="595.2" y="1926.8" width="135.3" height="8.6"/>
							</defs>
							<clipPath id="SVGID_52_">
								<use xlink:href="#SVGID_51_"  style="overflow:visible;"/>
							</clipPath>
							<rect x="595.2" y="1926.8" class="st45" width="135.3" height="8.6"/>
						</g>
					</g>
				</g>
			</g>
		</g>
	</g>
	<rect x="595.2" y="1926.8" class="st35" width="135.3" height="8.6"/>
	<polyline points="726.9,1935.9 717.9,1926.8 709,1935.9 	"/>
	<polyline class="st38" points="726.9,1935.9 717.9,1926.8 709,1935.9 	"/>
	<polyline points="704.4,1935.9 695.5,1926.8 686.5,1935.9 	"/>
	<polyline class="st38" points="704.4,1935.9 695.5,1926.8 686.5,1935.9 	"/>
	<polyline points="681.9,1935.9 673.1,1926.8 664.1,1935.9 	"/>
	<polyline class="st38" points="681.9,1935.9 673.1,1926.8 664.1,1935.9 	"/>
	<polyline points="659.6,1935.9 650.8,1926.8 641.7,1935.9 	"/>
	<polyline class="st38" points="659.6,1935.9 650.8,1926.8 641.7,1935.9 	"/>
	<polyline points="637.2,1935.9 628.2,1926.8 619.4,1935.9 	"/>
	<polyline class="st38" points="637.2,1935.9 628.2,1926.8 619.4,1935.9 	"/>
	<polyline points="614.8,1935.9 605.8,1926.8 597,1935.9 	"/>
	<polyline class="st38" points="614.8,1935.9 605.8,1926.8 597,1935.9 	"/>
	<g>
		<g>
			<g>
				<g>
					<g>
						<g>
							<defs>
								<polygon id="SVGID_53_" points="251.9,1863.7 251.9,1935.8 388.1,1935.8 388.1,1891.9 355.9,1885.7 338.6,1863.7 								
									"/>
							</defs>
							<clipPath id="SVGID_54_">
								<use xlink:href="#SVGID_53_"  style="overflow:visible;"/>
							</clipPath>
							
								<linearGradient id="SVGID_55_" gradientUnits="userSpaceOnUse" x1="-699.7254" y1="638.9227" x2="-698.726" y2="638.9227" gradientTransform="matrix(136.3324 0 0 -136.3324 95647.1641 89005.5469)">
								<stop  offset="0" style="stop-color:#000000"/>
								<stop  offset="2.563614e-02" style="stop-color:#171717"/>
								<stop  offset="8.925876e-02" style="stop-color:#383938"/>
								<stop  offset="0.1536" style="stop-color:#545453"/>
								<stop  offset="0.2173" style="stop-color:#6D6D6C"/>
								<stop  offset="0.2804" style="stop-color:#828181"/>
								<stop  offset="0.3425" style="stop-color:#919191"/>
								<stop  offset="0.4034" style="stop-color:#9B9B9B"/>
								<stop  offset="0.4615" style="stop-color:#A09F9F"/>
								<stop  offset="0.5498" style="stop-color:#9C9C9C"/>
								<stop  offset="0.6229" style="stop-color:#949393"/>
								<stop  offset="0.6906" style="stop-color:#878686"/>
								<stop  offset="0.7551" style="stop-color:#767574"/>
								<stop  offset="0.8173" style="stop-color:#605F5F"/>
								<stop  offset="0.8778" style="stop-color:#484847"/>
								<stop  offset="0.9369" style="stop-color:#2D2D2D"/>
								<stop  offset="0.9935" style="stop-color:#070707"/>
								<stop  offset="1" style="stop-color:#000000"/>
							</linearGradient>
							<rect x="251.9" y="1863.7" class="st46" width="136.3" height="72"/>
						</g>
					</g>
				</g>
			</g>
		</g>
	</g>
	<polygon class="st27" points="388.1,1891.9 355.9,1885.7 338.6,1863.7 251.9,1863.7 251.9,1935.8 388.1,1935.8 	"/>
	<line class="st35" x1="324.6" y1="1869.5" x2="342.8" y2="1867.3"/>
	<line class="st35" x1="332.5" y1="1882.9" x2="350.3" y2="1878.3"/>
	<line class="st35" x1="338.2" y1="1892.6" x2="355.9" y2="1885.7"/>
	<line class="st35" x1="343.5" y1="1868" x2="333.7" y2="1881"/>
	<line class="st35" x1="351" y1="1878.1" x2="339.4" y2="1890.7"/>
	<line class="st35" x1="356.6" y1="1885.9" x2="343" y2="1897"/>
	<g>
		<path class="st27" d="M328,1867.9c0.8,1.3,0.2,3-1,3.7c-1.3,0.8-3,0.2-3.7-1c-0.8-1.3-0.2-3,1-3.7
			C325.7,1866.1,327.3,1866.5,328,1867.9"/>
		<circle class="st35" cx="325.7" cy="1869.3" r="2.8"/>
		<path class="st27" d="M335.8,1881c0.8,1.3,0.2,3-1,3.7c-1.3,0.8-3,0.2-3.7-1c-0.8-1.3-0.2-3,1-3.7
			C333.3,1879.2,334.9,1879.7,335.8,1881"/>
		<path class="st35" d="M335.8,1881c0.8,1.3,0.2,3-1,3.7c-1.3,0.8-3,0.2-3.7-1c-0.8-1.3-0.2-3,1-3.7
			C333.3,1879.2,334.9,1879.7,335.8,1881z"/>
		<path class="st27" d="M341.1,1890.2c0.8,1.3,0.2,3-1,3.7c-1.3,0.8-3,0.2-3.7-1c-0.8-1.3-0.2-3,1-3.7
			C338.6,1888.4,340.2,1888.9,341.1,1890.2"/>
		<path class="st35" d="M341.1,1890.2c0.8,1.3,0.2,3-1,3.7c-1.3,0.8-3,0.2-3.7-1c-0.8-1.3-0.2-3,1-3.7
			C338.6,1888.4,340.2,1888.9,341.1,1890.2z"/>
		<path class="st27" d="M344.5,1895.9c0.8,1.3,0.2,3-1,3.7c-1.3,0.8-3,0.2-3.7-1c-0.8-1.3-0.2-3,1-3.7
			C341.9,1894.1,343.6,1894.7,344.5,1895.9"/>
		<circle class="st35" cx="341.9" cy="1897.1" r="2.8"/>
		<line class="st35" x1="351.3" y1="1902.6" x2="363.4" y2="1886.6"/>
		<line class="st35" x1="366.2" y1="1906.3" x2="376.5" y2="1889.7"/>
		<line class="st35" x1="377.2" y1="1909.3" x2="385.2" y2="1891.2"/>
		<line class="st35" x1="363.1" y1="1886.6" x2="365.8" y2="1904.3"/>
		<line class="st35" x1="375.8" y1="1889.4" x2="376.8" y2="1907.1"/>
		<line class="st35" x1="385.2" y1="1891.4" x2="383.7" y2="1908.9"/>
		<path class="st27" d="M352.5,1899c1.6,0.4,2.4,1.9,1.9,3.4c-0.4,1.6-1.9,2.4-3.4,1.9c-1.6-0.4-2.4-1.9-1.9-3.4
			C349.6,1899.4,351,1898.6,352.5,1899"/>
		<path class="st35" d="M352.5,1899c1.6,0.4,2.4,1.9,1.9,3.4c-0.4,1.6-1.9,2.4-3.4,1.9c-1.6-0.4-2.4-1.9-1.9-3.4
			C349.6,1899.4,351,1898.6,352.5,1899z"/>
		<path class="st27" d="M367.1,1902.8c1.6,0.4,2.4,1.9,1.9,3.4c-0.4,1.6-1.9,2.4-3.4,1.9c-1.6-0.4-2.4-1.9-1.9-3.4
			C364.2,1903.3,365.8,1902.5,367.1,1902.8"/>
		<circle class="st35" cx="366.4" cy="1905.5" r="2.8"/>
		<path class="st27" d="M377.4,1905.5c1.6,0.4,2.4,1.9,1.9,3.4c-0.4,1.6-1.9,2.4-3.4,1.9c-1.6-0.4-2.4-1.9-1.9-3.4
			C374.5,1906,376.1,1905.2,377.4,1905.5"/>
		<circle class="st35" cx="376.8" cy="1908.2" r="2.8"/>
		<path class="st27" d="M383.7,1907.2c1.6,0.4,2.4,1.9,1.9,3.4c-0.4,1.6-1.9,2.4-3.4,1.9c-1.6-0.4-2.4-1.9-1.9-3.4
			C380.8,1907.7,382.4,1906.8,383.7,1907.2"/>
		<circle class="st35" cx="383" cy="1909.8" r="2.8"/>
		<path class="st21" d="M387.5,1926.3h-135v-61.8h49.3c0,0-1.1,8.6,1.3,18.5c0,0-1.1,14.6,17.3,20.1c18.3,5.5,67.7,14.8,67.7,14.8
			v9.1"/>
	</g>
	<g>
		<g>
			<g>
				<g>
					<g>
						<g>
							<defs>
								<rect id="SVGID_56_" x="251.9" y="1926.8" width="135.3" height="8.6"/>
							</defs>
							<clipPath id="SVGID_57_">
								<use xlink:href="#SVGID_56_"  style="overflow:visible;"/>
							</clipPath>
							<rect x="251.9" y="1926.8" class="st47" width="135.3" height="8.6"/>
						</g>
					</g>
				</g>
			</g>
		</g>
	</g>
	<rect x="251.9" y="1926.8" class="st35" width="135.3" height="8.6"/>
	<polyline points="255.3,1935.9 264.3,1926.8 273.2,1935.9 	"/>
	<polyline class="st38" points="255.3,1935.9 264.3,1926.8 273.2,1935.9 	"/>
	<polyline points="277.7,1935.9 286.6,1926.8 295.6,1935.9 	"/>
	<polyline class="st38" points="277.7,1935.9 286.6,1926.8 295.6,1935.9 	"/>
	<polyline points="300.1,1935.9 309.1,1926.8 318,1935.9 	"/>
	<polyline class="st38" points="300.1,1935.9 309.1,1926.8 318,1935.9 	"/>
	<polyline points="322.5,1935.9 331.5,1926.8 340.4,1935.9 	"/>
	<polyline class="st38" points="322.5,1935.9 331.5,1926.8 340.4,1935.9 	"/>
	<polyline points="345,1935.9 353.9,1926.8 362.9,1935.9 	"/>
	<polyline class="st38" points="345,1935.9 353.9,1926.8 362.9,1935.9 	"/>
	<polyline points="367.5,1935.9 376.3,1926.8 385.3,1935.9 	"/>
	<polyline class="st38" points="367.5,1935.9 376.3,1926.8 385.3,1935.9 	"/>
	<polygon class="st17" points="388.4,1252.4 377.7,1201.4 264.4,1201.4 253.7,1252.4 	"/>
	<polygon class="st35" points="388.4,1252.4 377.7,1201.4 264.4,1201.4 253.7,1252.4 	"/>
	<polygon class="st17" points="589.3,1937 578.8,1988 402.4,1988 391.7,1937 	"/>
	<polygon class="st35" points="589.3,1937 578.8,1988 402.4,1988 391.7,1937 	"/>
	<polygon class="st17" points="388.4,1937 377.7,1988 264.4,1988 253.7,1937 	"/>
	<polygon class="st35" points="388.4,1937 377.7,1988 264.4,1988 253.7,1937 	"/>
	<polygon class="st17" points="591.9,1252.4 602.7,1201.4 716,1201.4 726.7,1252.4 	"/>
	<polygon class="st35" points="591.9,1252.4 602.7,1201.4 716,1201.4 726.7,1252.4 	"/>
	<polygon class="st17" points="591.9,1937 602.7,1988 716,1988 726.7,1937 	"/>
	<polygon class="st35" points="591.9,1937 602.7,1988 716,1988 726.7,1937 	"/>
	<polygon class="st17" points="729.5,1252.4 780.5,1263 780.5,1923.8 729.5,1934.5 	"/>
	<path class="st33" d="M391.5,1716.1"/>
	<path class="st1" d="M391.5,1716.1c14.3-22.3,53.8-38.3,100.1-38.3c45.5,0,83.5,15.4,98.4,37.1"/>
	<polygon class="st35" points="729.5,1252.4 780.5,1263 780.5,1923.8 729.5,1934.5 	"/>
	<g>
		<g>
			<g>
				<g>
					<g>
						<g>
							<defs>
								<polygon id="SVGID_58_" points="52.1,1717.2 52.1,1864.3 150.4,1864.3 150.4,1772.2 155.7,1772.2 155.7,1864.3 252,1864.3 
									252.9,1717.2 								"/>
							</defs>
							<clipPath id="SVGID_59_">
								<use xlink:href="#SVGID_58_"  style="overflow:visible;"/>
							</clipPath>
							<rect x="52.1" y="1717.2" class="st48" width="200.8" height="146.9"/>
						</g>
					</g>
				</g>
			</g>
		</g>
	</g>
	<polygon class="st35" points="52.1,1717.2 52.1,1864.3 150.4,1864.3 150.4,1772.2 155.7,1772.2 155.7,1864.3 252,1864.3 
		252.9,1717.2 	"/>
	<rect x="52.1" y="1253.5" class="st6" width="199.2" height="197.7"/>
	<rect x="52.1" y="1253.5" class="st6" width="199.2" height="197.7"/>
	<rect x="52.1" y="1253.5" class="st7" width="199.2" height="197.7"/>
	<g>
		<g>
			<rect id="SVGID_194_" x="52.1" y="1253.5" class="st7" width="199.2" height="197.7"/>
		</g>
		<g>
			<g>
				<g>
					<g>
						<g>
							<defs>
								<rect id="SVGID_60_" x="52.1" y="1253.5" width="199.2" height="197.7"/>
							</defs>
							<clipPath id="SVGID_61_">
								<use xlink:href="#SVGID_60_"  style="overflow:visible;"/>
							</clipPath>
							<rect x="52.1" y="1267.3" class="st49" width="199" height="197.7"/>
						</g>
					</g>
				</g>
			</g>
		</g>
	</g>
	<g>
		<g>
			<g>
				<g>
					<g>
						<g>
							<defs>
								<rect id="SVGID_62_" x="52.1" y="1253" width="199.7" height="198.4"/>
							</defs>
							<clipPath id="SVGID_63_">
								<use xlink:href="#SVGID_62_"  style="overflow:visible;"/>
							</clipPath>
							<rect x="52.1" y="1253.5" class="st50" width="199.2" height="197.7"/>
						</g>
					</g>
				</g>
			</g>
		</g>
	</g>
	<rect x="52.1" y="1452.5" class="st17" width="199.2" height="264.4"/>
	<polygon class="st10" points="52.1,1253.9 251.3,1253.9 251.3,1376 230.9,1429 73.8,1429 52.1,1376 	"/>
	<g>
		<g>
			<rect id="SVGID_198_" x="52.1" y="1717.3" class="st21" width="97.4" height="15.5"/>
		</g>
	</g>
	<rect x="52.1" y="1717.3" class="st35" width="97.4" height="23.9"/>
	<rect x="150.4" y="1717.3" class="st35" width="99.7" height="23.9"/>
	<g>
		<path class="st35" d="M64,1750.3c0,12.1,26.2,21.9,58.5,21.9h53.7c32.3,0,58.5-9.8,58.5-21.9"/>
	</g>
	<g>
		<g>
			<rect id="SVGID_200_" x="155.7" y="1864.5" class="st27" width="96.1" height="72"/>
		</g>
		<g>
			<g>
				<g>
					<g>
						<g>
							<defs>
								<rect id="SVGID_64_" x="155.7" y="1864.5" width="96.1" height="72"/>
							</defs>
							<clipPath id="SVGID_65_">
								<use xlink:href="#SVGID_64_"  style="overflow:visible;"/>
							</clipPath>
							<rect x="155.7" y="1864.5" class="st51" width="96.1" height="72"/>
						</g>
					</g>
				</g>
			</g>
		</g>
	</g>
	<rect x="155.7" y="1864.5" class="st35" width="96.1" height="72"/>
	<g>
		<path d="M243.9,1865.5c0,0,2.1,9-1.3,18.5c-3.5,9.6-9.6,17.2-11,29.6c-1.3,12.4,0,12.7,0,12.7H251v-60.8H243.9z"/>
		<path d="M163.2,1865.5c0,0-2.1,9,1.3,18.5c3.5,9.6,9.6,17.2,11,29.6c1.3,12.4,0,12.7,0,12.7h-19.8v-60.8H163.2z"/>
	</g>
	<g>
		<g>
			<g>
				<g>
					<g>
						<g>
							<defs>
								<rect id="SVGID_66_" x="155.7" y="1927.7" width="96.1" height="8.6"/>
							</defs>
							<clipPath id="SVGID_67_">
								<use xlink:href="#SVGID_66_"  style="overflow:visible;"/>
							</clipPath>
							<rect x="155.7" y="1927.7" class="st52" width="96.1" height="8.6"/>
						</g>
					</g>
				</g>
			</g>
		</g>
	</g>
	<polygon class="st35" points="155.7,1927.1 251.4,1927.1 251.8,1936.4 155.7,1936.4 	"/>
	<polyline points="248.3,1936.6 239.3,1927.7 230.5,1936.6 	"/>
	<polyline class="st38" points="248.3,1936.6 239.3,1927.7 230.5,1936.6 	"/>
	<polyline points="227,1936.6 218,1927.7 209,1936.6 	"/>
	<polyline class="st38" points="227,1936.6 218,1927.7 209,1936.6 	"/>
	<polyline points="205.6,1936.6 196.7,1927.7 187.7,1936.6 	"/>
	<polyline class="st38" points="205.6,1936.6 196.7,1927.7 187.7,1936.6 	"/>
	<polyline points="184.4,1936.6 175.3,1927.7 166.4,1936.6 	"/>
	<polyline class="st38" points="184.4,1936.6 175.3,1927.7 166.4,1936.6 	"/>
	<g>
		<g>
			<rect id="SVGID_204_" x="54.7" y="1864.5" class="st27" width="95.7" height="72"/>
		</g>
		<g>
			<g>
				<g>
					<g>
						<g>
							<defs>
								<rect id="SVGID_68_" x="54.7" y="1864.5" width="95.7" height="72"/>
							</defs>
							<clipPath id="SVGID_69_">
								<use xlink:href="#SVGID_68_"  style="overflow:visible;"/>
							</clipPath>
							<rect x="54.7" y="1864.5" class="st53" width="95.7" height="72"/>
						</g>
					</g>
				</g>
			</g>
		</g>
	</g>
	<rect x="54.7" y="1864.5" class="st35" width="95.7" height="72"/>
	<g>
		<path d="M62.4,1865.5c0,0-2.1,9,1.3,18.5c3.5,9.5,9.6,17.2,11,29.6c1.3,12.4,0,13.6,0,13.6H55.3v-61.7L62.4,1865.5L62.4,1865.5z"
			/>
		<path d="M143.2,1865.5c0,0,2.1,9-1.3,18.5c-3.5,9.5-9.6,17.2-11,29.6c-1.3,12.4,0,13.7,0,13.7h19.5v-61.8H143.2z"/>
	</g>
	<g>
		<g>
			<g>
				<g>
					<g>
						<g>
							<defs>
								<rect id="SVGID_70_" x="54.7" y="1927.7" width="95.7" height="8.6"/>
							</defs>
							<clipPath id="SVGID_71_">
								<use xlink:href="#SVGID_70_"  style="overflow:visible;"/>
							</clipPath>
							<rect x="54.7" y="1927.1" class="st54" width="95.7" height="8.6"/>
						</g>
					</g>
				</g>
			</g>
		</g>
	</g>
	<rect x="54.7" y="1927.7" class="st35" width="95.7" height="8.6"/>
	<polyline points="58.1,1936.6 67,1927.7 76,1936.6 	"/>
	<polyline class="st38" points="58.1,1936.6 67,1927.7 76,1936.6 	"/>
	<polyline points="79.4,1936.6 88.3,1927.7 97.3,1936.6 	"/>
	<polyline class="st38" points="79.4,1936.6 88.3,1927.7 97.3,1936.6 	"/>
	<polyline points="100.7,1936.6 109.7,1927.7 118.6,1936.6 	"/>
	<polyline class="st38" points="100.7,1936.6 109.7,1927.7 118.6,1936.6 	"/>
	<polyline points="122,1936.6 131,1927.7 139.9,1936.6 	"/>
	<polyline class="st38" points="122,1936.6 131,1927.7 139.9,1936.6 	"/>
	<polygon class="st17" points="52.1,1935.9 63.9,1986.9 240.2,1986.9 250.9,1935.9 	"/>
	<polygon class="st35" points="52.1,1936.9 63.9,1987.9 240.2,1987.9 250.9,1936.9 	"/>
	<polygon class="st17" points="52.1,1252.5 63.9,1201.5 240.2,1201.5 250.9,1252.5 	"/>
	<polygon class="st35" points="52.1,1252.5 63.9,1201.5 240.2,1201.5 250.9,1252.5 	"/>
	<rect x="52.1" y="1253.5" class="st35" width="199.2" height="197.7"/>
	<rect x="52.1" y="1452.5" class="st35" width="199.2" height="264.1"/>
	<rect x="52.1" y="1440.7" class="st21" width="337.1" height="15.1"/>
	<polyline class="st55" points="389.8,1937 389.8,1252.4 590.6,1252.4 590.6,1937 	"/>
	<line class="st56" x1="251.3" y1="1937" x2="251.3" y2="1252.4"/>
	<path d="M727.5,1941.3c-1.6,0-2.8-1.2-2.8-2.8c0-1.6,1.2-2.8,2.8-2.8c1.6,0,2.8,1.2,2.8,2.8
		C730.1,1940.1,728.9,1941.3,727.5,1941.3"/>
	<line class="st57" x1="746" y1="1955.2" x2="727.5" y2="1938.6"/>
	<path d="M255.1,1253c0-1.6-1.2-2.8-2.8-2.8c-1.6,0-2.8,1.2-2.8,2.8c0,1.6,1.2,2.8,2.8,2.8C253.9,1255.8,255.1,1254.6,255.1,1253"/>
	<line class="st57" x1="252.3" y1="1189.1" x2="252.3" y2="1251"/>
	<path d="M732.2,1253c0-1.6-1.2-2.8-2.8-2.8c-1.6,0-2.8,1.2-2.8,2.8c0,1.6,1.2,2.8,2.8,2.8C731.1,1255.8,732.2,1254.6,732.2,1253"/>
	<line class="st57" x1="729.5" y1="1189.1" x2="729.5" y2="1251"/>
	<path d="M392.6,1253c0-1.6-1.2-2.8-2.8-2.8c-1.6,0-2.8,1.2-2.8,2.8c0,1.6,1.2,2.8,2.8,2.8C391.3,1255.8,392.6,1254.6,392.6,1253"/>
	<line class="st57" x1="381.6" y1="1189.1" x2="389.8" y2="1251"/>
	<path d="M593.3,1253c0-1.6-1.2-2.8-2.8-2.8c-1.6,0-2.8,1.2-2.8,2.8c0,1.6,1.2,2.8,2.8,2.8C592,1255.8,593.3,1254.6,593.3,1253"/>
	<line class="st57" x1="600.2" y1="1189.1" x2="590.6" y2="1251"/>
	<g>
		<text transform="matrix(1 0 0 1 735.376 1967.7207)" class="st58 st59">Fold</text>
	</g>
	<g>
		<text transform="matrix(1 0 0 1 236.7476 1178.4805)" class="st58 st59">Fold</text>
	</g>
	<g>
		<text transform="matrix(1 0 0 1 355.5625 1178.4805)" class="st58 st59">Fold</text>
	</g>
	<g>
		<text transform="matrix(1 0 0 1 595.6289 1178.4805)" class="st58 st59">Fold</text>
	</g>
	<g>
		<text transform="matrix(1 0 0 1 713.7695 1178.4805)" class="st58 st59">Fold</text>
	</g>
	<polyline class="st35" points="494.3,1863.4 494.3,1776.3 488.9,1776.3 488.9,1863.7 	"/>
	<path class="st11" d="M315.3,1358.8c0,0,13.7-6.1,19.5,5c4.5,8.2-0.4,11-4.1,14.2c-5.2,4.6-12.7,1-8,8.4l4.6,7.3
		c0,0-11.9-2.2-9.2-10.8c2.8-8.5,11.7-10.4,11.7-10.4S335.5,1358.6,315.3,1358.8"/>
	<path class="st11" d="M308.9,1381.6c0,0-4.6-17.5,6.4-23c0,0,1,3.7,1,8.2C316.2,1371.4,308.9,1375.2,308.9,1381.6"/>
	<path class="st60" d="M338.6,1361.2l3.2-3.6c0,0-15.5-17.5-29.3-12c-13.8,5.5-18.3,21.1-10.1,42.3c8.2,21.1,17.5,23.9,23,23.9
		c5.4,0,5.5-9.2,5.5-9.2s-3.7,9.2-13.8,0c-10.1-9.2-19.3-24.8-12-42.3C312.5,1343.2,334.7,1354.7,338.6,1361.2"/>
	<path class="st11" d="M338.6,1361.2l3.2-3.6c0,0-15.5-17.5-29.3-12c-13.8,5.5-18.3,21.1-10.1,42.3c8.2,21.1,17.5,23.9,23,23.9
		c5.4,0,5.5-9.2,5.5-9.2s-3.7,9.2-13.8,0c-10.1-9.2-18.5-28-11.3-45.5C313.2,1339.8,334.7,1354.7,338.6,1361.2z"/>
	<line class="st35" x1="52.1" y1="1253.5" x2="52.1" y2="1936.9"/>
	<line class="st35" x1="253.7" y1="1863.3" x2="388.5" y2="1863.6"/>
	<line class="st35" x1="593" y1="1863.3" x2="730.1" y2="1863.6"/>
	<path class="st35" d="M389.1,1253"/>
	<line class="st35" x1="253.2" y1="1715.8" x2="388.1" y2="1715.8"/>
	<line class="st35" x1="253.2" y1="1741.2" x2="388.1" y2="1741.2"/>
	<line class="st35" x1="593" y1="1715.8" x2="730.1" y2="1715.8"/>
	<line class="st35" x1="593" y1="1741.2" x2="730.1" y2="1741.2"/>
	<line class="st35" x1="392.6" y1="1741.2" x2="589.5" y2="1741.2"/>
	<line class="st35" x1="392" y1="1715.8" x2="589.5" y2="1715.8"/>
	<path d="M525.5,1723c3-0.1,3,1.1,3,2.2c0,1,0,2.2-2.9,2.4c-3,0.1-3-1.2-3-2.2C522.6,1724.2,522.6,1723.1,525.5,1723"/>
	<path d="M525.5,1718c3-0.1,3,1.1,3,2.2c0,1,0,2.2-2.9,2.4c-3,0.1-3-1.2-3-2.2C522.5,1719.4,522.5,1718.2,525.5,1718"/>
	<path d="M525.6,1727.9c3-0.1,3,1.1,3,2.2c0,1,0,2.2-2.9,2.4c-3,0.1-3-1.2-3-2.2C522.6,1729.3,522.6,1728.1,525.6,1727.9"/>
	<path d="M525.8,1732.9c3-0.1,3,1.1,3,2.2c0,1,0,2.2-2.9,2.4c-3,0.1-3-1.2-3-2.2C522.7,1734.2,522.7,1733.1,525.8,1732.9"/>
	<path d="M535.3,1723.1c3-0.1,3,1.1,3,2.2c0,1,0,2.2-2.9,2.4c-3,0.1-3-1.2-3-2.2C532.4,1724.5,532.3,1723.3,535.3,1723.1"/>
	<path d="M535.3,1718.2c3-0.1,3,1.1,3,2.2c0,1,0,2.2-2.9,2.4c-3,0.1-3-1.2-3-2.2C532.3,1719.4,532.3,1718.2,535.3,1718.2"/>
	<path d="M535.4,1728.1c3-0.1,3,1.1,3,2.2c0,1,0,2.2-2.9,2.4c-3,0.1-3-1.2-3-2.2C532.4,1729.4,532.4,1728.2,535.4,1728.1"/>
	<path d="M535.4,1733.1c3-0.1,3,1.1,3,2.2c0,1,0,2.2-2.9,2.4c-3,0.1-3-1.2-3-2.2C532.5,1734.4,532.5,1733.2,535.4,1733.1"/>
	<path d="M545,1723.1c3-0.1,3,1.1,3,2.2c0,1,0,2.2-2.9,2.4c-3,0.1-3-1.2-3-2.2C542.1,1724.5,542,1723.3,545,1723.1"/>
	<path d="M544.9,1718.2c3-0.1,3,1.1,3,2.2c0,1,0,2.2-2.9,2.4c-3,0.1-3-1.2-3-2.2C542,1719.4,542,1718.2,544.9,1718.2"/>
	<path d="M545.2,1728.1c3-0.1,3,1.1,3,2.2c0,1,0,2.2-2.9,2.4c-3,0.1-3-1.2-3-2.2C542.1,1729.4,542.1,1728.2,545.2,1728.1"/>
	<path d="M545.2,1733.1c3-0.1,3,1.1,3,2.2c0,1,0,2.2-2.9,2.4c-3,0.1-3-1.2-3-2.2C542.2,1734.3,542.1,1733.2,545.2,1733.1"/>
	<path d="M555.5,1723.1c3-0.1,3,1.1,3,2.2c0,1,0,2.2-2.9,2.4c-3,0.1-3-1.2-3-2.2C552.4,1724.5,552.4,1723.3,555.5,1723.1"/>
	<path d="M555.4,1718.2c3-0.1,3,1.1,3,2.2c0,1,0,2.2-2.9,2.4c-3,0.1-3-1.2-3-2.2C552.4,1719.4,552.3,1718.2,555.4,1718.2"/>
	<path d="M555.7,1728.1c3-0.1,3,1.1,3,2.2c0,1,0,2.2-2.9,2.4c-3,0.1-3-1.2-3-2.2C552.6,1729.4,552.6,1728.2,555.7,1728.1"/>
	<path d="M555.7,1733.1c3-0.1,3,1.1,3,2.2c0,1,0,2.2-2.9,2.4c-3,0.1-3-1.2-3-2.2C552.8,1734.4,552.6,1733.2,555.7,1733.1"/>
	<path d="M566.6,1723.1c3-0.1,3,1.1,3,2.2c0,1,0,2.2-2.9,2.4c-3,0.1-3-1.2-3-2.2C563.4,1724.5,563.4,1723.3,566.6,1723.1"/>
	<path d="M566.3,1718.2c3-0.1,3,1.1,3,2.2c0,1,0,2.2-2.9,2.4c-3,0.1-3-1.2-3-2.2C563.4,1719.4,563.3,1718.2,566.3,1718.2"/>
	<path d="M566.7,1728.1c3-0.1,3,1.1,3,2.2c0,1,0,2.2-2.9,2.4c-3,0.1-3-1.2-3-2.2C563.7,1729.4,563.7,1728.2,566.7,1728.1"/>
	<path d="M566.7,1733.1c3-0.1,3,1.1,3,2.2c0,1,0,2.2-2.9,2.4c-3,0.1-3-1.2-3-2.2C563.8,1734.3,563.7,1733.2,566.7,1733.1"/>
	<path d="M577.6,1723.1c3-0.1,3,1.1,3,2.2c0,1,0,2.2-2.9,2.4c-3,0.1-3-1.2-3-2.2C574.5,1724.5,574.5,1723.3,577.6,1723.1"/>
	<path d="M577.4,1718.2c3-0.1,3,1.1,3,2.2c0,1,0,2.2-2.9,2.4c-3,0.1-3-1.2-3-2.2C574.5,1719.4,574.3,1718.2,577.4,1718.2"/>
	<path d="M577.7,1728.1c3-0.1,3,1.1,3,2.2c0,1,0,2.2-2.9,2.4c-3,0.1-3-1.2-3-2.2C574.6,1729.4,574.6,1728.2,577.7,1728.1"/>
	<g>
		<path d="M600.9,1725.4c3-0.1,3,1.1,3,2.2c0,1,0,2.2-2.9,2.4c-3,0.1-3-1.2-3-2.2C597.8,1726.8,597.8,1725.6,600.9,1725.4"/>
		<path d="M600.7,1720.5c3-0.1,3,1.1,3,2.2c0,1,0,2.2-2.9,2.4c-3,0.1-3-1.2-3-2.2C597.8,1721.9,597.7,1720.7,600.7,1720.5"/>
		<path d="M601,1730.5c3-0.1,3,1.1,3,2.2c0,1,0,2.2-2.9,2.4c-3,0.1-3-1.2-3-2.2C598.1,1731.8,598.1,1730.5,601,1730.5"/>
		<path d="M611.4,1725.4c3-0.1,3,1.1,3,2.2c0,1,0,2.2-2.9,2.4c-3,0.1-3-1.2-3-2.2C608.6,1726.8,608.6,1725.6,611.4,1725.4"/>
		<path d="M611.4,1720.5c3-0.1,3,1.1,3,2.2c0,1,0,2.2-2.9,2.4c-3,0.1-3-1.2-3-2.2C608.5,1721.9,608.5,1720.7,611.4,1720.5"/>
		<path d="M611.5,1730.5c3-0.1,3,1.1,3,2.2c0,1,0,2.2-2.9,2.4c-3,0.1-3-1.2-3-2.2C608.6,1731.8,608.6,1730.5,611.5,1730.5"/>
		<path d="M622.2,1725.4c3-0.1,3,1.1,3,2.2c0,1,0,2.2-2.9,2.4c-3,0.1-3-1.2-3-2.2C619.3,1726.8,619.3,1725.6,622.2,1725.4"/>
		<path d="M622.1,1720.5c3-0.1,3,1.1,3,2.2c0,1,0,2.2-2.9,2.4c-3,0.1-3-1.2-3-2.2S619,1720.7,622.1,1720.5"/>
		<path d="M622.3,1730.5c3-0.1,3,1.1,3,2.2c0,1,0,2.2-2.9,2.4c-3,0.1-3-1.2-3-2.2C619.4,1731.8,619.4,1730.5,622.3,1730.5"/>
		<path d="M632.7,1725.4c3-0.1,3,1.1,3,2.2c0,1,0,2.2-2.9,2.4c-3,0.1-3-1.2-3-2.2C629.9,1726.8,629.9,1725.6,632.7,1725.4"/>
		<path d="M632.7,1720.5c3-0.1,3,1.1,3,2.2c0,1,0,2.2-2.9,2.4c-3,0.1-3-1.2-3-2.2C629.8,1721.9,629.8,1720.7,632.7,1720.5"/>
		<path d="M632.9,1730.5c3-0.1,3,1.1,3,2.2c0,1,0,2.2-2.9,2.4c-3,0.1-3-1.2-3-2.2C629.9,1731.8,629.9,1730.5,632.9,1730.5"/>
	</g>
	<g>
		<path d="M346.5,1725.4c3-0.1,3,1.1,3,2.2c0,1,0,2.2-2.9,2.4c-3,0.1-3-1.2-3-2.2C343.5,1726.8,343.5,1725.6,346.5,1725.4"/>
		<path d="M346.4,1720.5c3-0.1,3,1.1,3,2.2c0,1,0,2.2-2.9,2.4c-3,0.1-3-1.2-3-2.2C343.5,1721.9,343.4,1720.7,346.4,1720.5"/>
		<path d="M346.6,1730.5c3-0.1,3,1.1,3,2.2c0,1,0,2.2-2.9,2.4c-3,0.1-3-1.2-3-2.2C343.6,1731.8,343.6,1730.5,346.6,1730.5"/>
		<path d="M357.1,1725.4c3-0.1,3,1.1,3,2.2c0,1,0,2.2-2.9,2.4c-3,0.1-3-1.2-3-2.2C354.2,1726.8,354.2,1725.6,357.1,1725.4"/>
		<path d="M357.1,1720.5c3-0.1,3,1.1,3,2.2c0,1,0,2.2-2.9,2.4c-3,0.1-3-1.2-3-2.2C354,1721.9,354,1720.7,357.1,1720.5"/>
		<path d="M357.3,1730.5c3-0.1,3,1.1,3,2.2c0,1,0,2.2-2.9,2.4c-3,0.1-3-1.2-3-2.2C354.2,1731.8,354.2,1730.5,357.3,1730.5"/>
		<path d="M367.7,1725.4c3-0.1,3,1.1,3,2.2c0,1,0,2.2-2.9,2.4c-3,0.1-3-1.2-3-2.2C364.8,1726.8,364.8,1725.6,367.7,1725.4"/>
		<path d="M367.6,1720.5c3-0.1,3,1.1,3,2.2c0,1,0,2.2-2.9,2.4c-3,0.1-3-1.2-3-2.2C364.8,1721.9,364.7,1720.7,367.6,1720.5"/>
		<path d="M367.9,1730.5c3-0.1,3,1.1,3,2.2c0,1,0,2.2-2.9,2.4c-3,0.1-3-1.2-3-2.2C364.9,1731.8,364.9,1730.5,367.9,1730.5"/>
		<path d="M378.3,1725.4c3-0.1,3,1.1,3,2.2c0,1,0,2.2-2.9,2.4c-3,0.1-3-1.2-3-2.2C375.5,1726.8,375.5,1725.6,378.3,1725.4"/>
		<path d="M378.3,1720.5c3-0.1,3,1.1,3,2.2c0,1,0,2.2-2.9,2.4c-3,0.1-3-1.2-3-2.2C375.4,1721.9,375.4,1720.7,378.3,1720.5"/>
		<path d="M378.5,1730.5c3-0.1,3,1.1,3,2.2c0,1,0,2.2-2.9,2.4c-3,0.1-3-1.2-3-2.2C375.5,1731.8,375.5,1730.5,378.5,1730.5"/>
	</g>
	<path d="M577.7,1733.1c3-0.1,3,1.1,3,2.2c0,1,0,2.2-2.9,2.4c-3,0.1-3-1.2-3-2.2C574.8,1734.4,574.6,1733.2,577.7,1733.1"/>
	<path d="M456.1,1723c-3-0.1-3,1.1-3,2.2c0,1,0,2.2,2.9,2.4c3,0.1,3-1.2,3-2.2C458.9,1724.2,459.1,1723.1,456.1,1723"/>
	<path d="M456.1,1718c-3-0.1-3,1.1-3,2.2c0,1,0,2.2,2.9,2.4c3,0.1,3-1.2,3-2.2C459.1,1719.4,459.1,1718.2,456.1,1718"/>
	<path d="M455.9,1727.9c-3-0.1-3,1.1-3,2.2c0,1,0,2.2,2.9,2.4c3,0.1,3-1.2,3-2.2C458.9,1729.3,458.9,1728.1,455.9,1727.9"/>
	<path d="M455.9,1732.9c-3-0.1-3,1.1-3,2.2c0,1,0,2.2,2.9,2.4c3,0.1,3-1.2,3-2.2C458.8,1734.2,458.8,1733.1,455.9,1732.9"/>
	<path d="M446.4,1723.1c-3-0.1-3,1.1-3,2.2c0,1,0,2.2,2.9,2.4c3,0.1,3-1.2,3-2.2C449.2,1724.5,449.3,1723.3,446.4,1723.1"/>
	<path d="M446.4,1718.2c-3-0.1-3,1.1-3,2.2c0,1,0,2.2,2.9,2.4c3,0.1,3-1.2,3-2.2C449.3,1719.4,449.3,1718.2,446.4,1718.2"/>
	<path d="M446.2,1728.1c-3-0.1-3,1.1-3,2.2c0,1,0,2.2,2.9,2.4c3,0.1,3-1.2,3-2.2C449.2,1729.4,449.2,1728.2,446.2,1728.1"/>
	<path d="M446.2,1733.1c-3-0.1-3,1.1-3,2.2c0,1,0,2.2,2.9,2.4c3,0.1,3-1.2,3-2.2C449,1734.4,449,1733.2,446.2,1733.1"/>
	<path d="M436.6,1723.1c-3-0.1-3,1.1-3,2.2c0,1,0,2.2,2.9,2.4c3,0.1,3-1.2,3-2.2C439.6,1724.5,439.6,1723.3,436.6,1723.1"/>
	<path d="M436.7,1718.2c-3-0.1-3,1.1-3,2.2c0,1,0,2.2,2.9,2.4c3,0.1,3-1.2,3-2.2C439.6,1719.4,439.6,1718.2,436.7,1718.2"/>
	<path d="M436.4,1728.1c-3-0.1-3,1.1-3,2.2c0,1,0,2.2,2.9,2.4c3,0.1,3-1.2,3-2.2C439.4,1729.4,439.4,1728.2,436.4,1728.1"/>
	<path d="M436.4,1733.1c-3-0.1-3,1.1-3,2.2c0,1,0,2.2,2.9,2.4c3,0.1,3-1.2,3-2.2C439.2,1734.3,439.4,1733.2,436.4,1733.1"/>
	<path d="M426.1,1723.1c-3-0.1-3,1.1-3,2.2c0,1,0,2.2,2.9,2.4c3,0.1,3-1.2,3-2.2C429.1,1724.5,429.1,1723.3,426.1,1723.1"/>
	<path d="M426.3,1718.2c-3-0.1-3,1.1-3,2.2c0,1,0,2.2,2.9,2.4c3,0.1,3-1.2,3-2.2C429.1,1719.4,429.2,1718.2,426.3,1718.2"/>
	<path d="M426.1,1728.1c-3-0.1-3,1.1-3,2.2c0,1,0,2.2,2.9,2.4c3,0.1,3-1.2,3-2.2S428.9,1728.2,426.1,1728.1"/>
	<path d="M426,1733.1c-3-0.1-3,1.1-3,2.2c0,1,0,2.2,2.9,2.4c3,0.1,3-1.2,3-2.2C428.9,1734.3,428.9,1733.2,426,1733.1"/>
	<path d="M415.1,1723.1c-3-0.1-3,1.1-3,2.2c0,1,0,2.2,2.9,2.4c3,0.1,3-1.2,3-2.2C418.1,1724.5,418.1,1723.3,415.1,1723.1"/>
	<path d="M415.2,1718.2c-3-0.1-3,1.1-3,2.2c0,1,0,2.2,2.9,2.4c3,0.1,3-1.2,3-2.2C418.1,1719.4,418.3,1718.2,415.2,1718.2"/>
	<path d="M415.1,1728.1c-3-0.1-3,1.1-3,2.2c0,1,0,2.2,2.9,2.4c3,0.1,3-1.2,3-2.2S418,1728.2,415.1,1728.1"/>
	<path d="M415,1733.1c-3-0.1-3,1.1-3,2.2c0,1,0,2.2,2.9,2.4c3,0.1,3-1.2,3-2.2C418,1734.3,418,1733.2,415,1733.1"/>
	<path d="M404.1,1723.1c-3-0.1-3,1.1-3,2.2c0,1,0,2.2,2.9,2.4c3,0.1,3-1.2,3-2.2C407.1,1724.5,407.1,1723.3,404.1,1723.1"/>
	<path d="M404.2,1718.2c-3-0.1-3,1.1-3,2.2c0,1,0,2.2,2.9,2.4c3,0.1,3-1.2,3-2.2C407.1,1719.4,407.3,1718.2,404.2,1718.2"/>
	<path d="M404.1,1728.1c-3-0.1-3,1.1-3,2.2c0,1,0,2.2,2.9,2.4c3,0.1,3-1.2,3-2.2S407,1728.2,404.1,1728.1"/>
	<path d="M404,1733.1c-3-0.1-3,1.1-3,2.2c0,1,0,2.2,2.9,2.4c3,0.1,3-1.2,3-2.2C407,1734.3,407,1733.2,404,1733.1"/>
	<path class="st21" d="M666.6,1744.5c-0.4,1-1.3,1.1-2.5,1.8c-1.2,0.8-1.9,2.1-2.5,4.7c-0.4,1.8-0.7,4.1-0.7,4.1s-0.4-2.4-0.7-4.1
		c-0.6-2.7-1.2-3.9-2.5-4.7c-1-0.7-2.1-0.8-2.5-1.8l0.6,10.4c0,1.1,0.8,1.9,1.7,1.9h2.8h0.6h3.5c1,0,1.8-0.8,1.7-1.9L666.6,1744.5z"
		/>
	<path class="st17" d="M607.3,1452.6c-0.7-0.2-0.8-1.1-1.3-1.9c-0.7-1-1.7-1.7-3.7-2.1c-1.6-0.2-3.4-0.6-3.4-0.6s1.9-0.2,3.4-0.6
		c2.1-0.4,3-1,3.7-2.1c0.6-0.8,0.7-1.7,1.3-1.9l-8.5,0.6c-0.8,0-1.6,0.6-1.6,1.3v2.2v0.4v2.8c0,0.8,0.7,1.3,1.6,1.3L607.3,1452.6z"
		/>
	<path class="st17" d="M622.2,1452.6c-0.7-0.2-0.8-1.1-1.3-1.9c-0.7-1-1.7-1.7-3.7-2.1c-1.6-0.2-3.4-0.6-3.4-0.6s1.9-0.2,3.4-0.6
		c2.1-0.4,3-1,3.7-2.1c0.6-0.8,0.7-1.7,1.3-1.9l-8.5,0.6c-0.8,0-1.6,0.6-1.6,1.3v2.2v0.4v2.8c0,0.8,0.7,1.3,1.6,1.3L622.2,1452.6z"
		/>
	<path class="st17" d="M637.1,1452.6c-0.7-0.2-0.8-1.1-1.3-1.9c-0.7-1-1.7-1.7-3.7-2.1c-1.6-0.2-3.4-0.6-3.4-0.6s1.9-0.2,3.4-0.6
		c2.1-0.4,3-1,3.7-2.1c0.6-0.8,0.7-1.7,1.3-1.9l-8.5,0.6c-0.8,0-1.6,0.6-1.6,1.3v2.2v0.4v2.8c0,0.8,0.7,1.3,1.6,1.3L637.1,1452.6z"
		/>
	<path class="st17" d="M652,1452.6c-0.7-0.2-0.8-1.1-1.3-1.9c-0.7-1-1.7-1.7-3.7-2.1c-1.6-0.2-3.4-0.6-3.4-0.6s1.9-0.2,3.4-0.6
		c2.1-0.4,3-1,3.7-2.1c0.6-0.8,0.7-1.7,1.3-1.9l-8.5,0.6c-0.8,0-1.6,0.6-1.6,1.3v2.2v0.4v2.8c0,0.8,0.7,1.3,1.6,1.3L652,1452.6z"/>
	<path class="st17" d="M667,1452.6c-0.7-0.2-0.8-1.1-1.3-1.9c-0.7-1-1.7-1.7-3.7-2.1c-1.6-0.2-3.4-0.6-3.4-0.6s1.9-0.2,3.4-0.6
		c2.1-0.4,3-1,3.7-2.1c0.6-0.8,0.7-1.7,1.3-1.9l-8.5,0.6c-0.8,0-1.6,0.6-1.6,1.3v2.2v0.4v2.8c0,0.8,0.7,1.3,1.6,1.3L667,1452.6z"/>
	<path class="st17" d="M681.9,1452.6c-0.7-0.2-0.8-1.1-1.3-1.9c-0.7-1-1.7-1.7-3.7-2.1c-1.6-0.2-3.4-0.6-3.4-0.6s1.9-0.2,3.4-0.6
		c2.1-0.4,3-1,3.7-2.1c0.6-0.8,0.7-1.7,1.3-1.9l-8.5,0.6c-0.8,0-1.6,0.6-1.6,1.3v2.2v0.4v2.8c0,0.8,0.7,1.3,1.6,1.3L681.9,1452.6z"
		/>
	<path class="st17" d="M696.8,1452.6c-0.7-0.2-0.8-1.1-1.3-1.9c-0.7-1-1.7-1.7-3.7-2.1c-1.6-0.2-3.4-0.6-3.4-0.6s1.9-0.2,3.4-0.6
		c2.1-0.4,3-1,3.7-2.1c0.6-0.8,0.7-1.7,1.3-1.9l-8.5,0.6c-0.8,0-1.6,0.6-1.6,1.3v2.2v0.4v2.8c0,0.8,0.7,1.3,1.6,1.3L696.8,1452.6z"
		/>
	<path class="st17" d="M711.8,1452.6c-0.7-0.2-0.8-1.1-1.3-1.9c-0.7-1-1.7-1.7-3.7-2.1c-1.6-0.2-3.4-0.6-3.4-0.6s1.9-0.2,3.4-0.6
		c2.1-0.4,3-1,3.7-2.1c0.6-0.8,0.7-1.7,1.3-1.9l-8.4,0.6c-0.8,0-1.6,0.6-1.6,1.3v2.2v0.4v2.8c0,0.8,0.7,1.3,1.6,1.3L711.8,1452.6z"
		/>
	<path class="st17" d="M726.9,1452.6c-0.7-0.2-0.8-1.1-1.3-1.9c-0.7-1-1.7-1.7-3.7-2.1c-1.6-0.2-3.4-0.6-3.4-0.6s1.9-0.2,3.4-0.6
		c2.1-0.4,3-1,3.7-2.1c0.6-0.8,0.7-1.7,1.3-1.9l-8.5,0.6c-0.8,0-1.6,0.6-1.6,1.3v2.2v0.4v2.8c0,0.8,0.7,1.3,1.6,1.3L726.9,1452.6z"
		/>
	<path class="st17" d="M384.5,1452c0.8,0,1.6-0.6,1.6-1.3v-2.8v-0.4v-2.2c0-0.8-0.7-1.3-1.6-1.3l-8.5-0.6c0.7,0.2,0.8,1.1,1.3,1.9
		c0.7,1,1.7,1.7,3.7,2.1c1.6,0.2,3.4,0.6,3.4,0.6s-1.9,0.2-3.4,0.6c-2.1,0.4-3,1-3.7,2.1c-0.6,0.8-0.7,1.7-1.3,1.9L384.5,1452z"/>
	<path class="st17" d="M369.6,1452c0.8,0,1.6-0.6,1.6-1.3v-2.8v-0.4v-2.2c0-0.8-0.7-1.3-1.6-1.3l-8.5-0.6c0.7,0.2,0.8,1.1,1.3,1.9
		c0.7,1,1.7,1.7,3.7,2.1c1.6,0.2,3.4,0.6,3.4,0.6s-1.9,0.2-3.4,0.6c-2.1,0.4-3,1-3.7,2.1c-0.6,0.8-0.7,1.7-1.3,1.9L369.6,1452z"/>
	<path class="st17" d="M354.6,1452c0.8,0,1.6-0.6,1.6-1.3v-2.8v-0.4v-2.2c0-0.8-0.7-1.3-1.6-1.3l-8.5-0.6c0.7,0.2,0.8,1.1,1.3,1.9
		c0.7,1,1.7,1.7,3.7,2.1c1.6,0.2,3.4,0.6,3.4,0.6s-1.9,0.2-3.4,0.6c-2.1,0.4-3,1-3.7,2.1c-0.6,0.8-0.7,1.7-1.3,1.9L354.6,1452z"/>
	<path class="st17" d="M339.5,1452c0.8,0,1.6-0.6,1.6-1.3v-2.8v-0.4v-2.2c0-0.8-0.7-1.3-1.6-1.3l-8.5-0.6c0.7,0.2,0.8,1.1,1.3,1.9
		c0.7,1,1.7,1.7,3.7,2.1c1.6,0.2,3.4,0.6,3.4,0.6s-1.9,0.2-3.4,0.6c-2.1,0.4-3,1-3.7,2.1c-0.6,0.8-0.7,1.7-1.3,1.9L339.5,1452z"/>
	<path class="st17" d="M324.6,1452c0.8,0,1.6-0.6,1.6-1.3v-2.8v-0.4v-2.2c0-0.8-0.7-1.3-1.6-1.3l-8.5-0.6c0.7,0.2,0.8,1.1,1.3,1.9
		c0.7,1,1.7,1.7,3.7,2.1c1.6,0.2,3.4,0.6,3.4,0.6s-1.9,0.2-3.4,0.6c-2.1,0.4-3,1-3.7,2.1c-0.6,0.8-0.7,1.7-1.3,1.9L324.6,1452z"/>
	<path class="st17" d="M309.7,1452c0.8,0,1.6-0.6,1.6-1.3v-2.8v-0.4v-2.2c0-0.8-0.7-1.3-1.6-1.3l-8.5-0.6c0.7,0.2,0.8,1.1,1.3,1.9
		c0.7,1,1.7,1.7,3.7,2.1c1.6,0.2,3.4,0.6,3.4,0.6s-1.9,0.2-3.4,0.6c-2.1,0.4-3,1-3.7,2.1c-0.6,0.8-0.7,1.7-1.3,1.9L309.7,1452z"/>
	<path class="st17" d="M294.8,1452c0.8,0,1.6-0.6,1.6-1.3v-2.8v-0.4v-2.2c0-0.8-0.7-1.3-1.6-1.3l-8.5-0.6c0.7,0.2,0.8,1.1,1.3,1.9
		c0.7,1,1.7,1.7,3.7,2.1c1.6,0.2,3.4,0.6,3.4,0.6s-1.9,0.2-3.4,0.6c-2.1,0.4-3,1-3.7,2.1c-0.6,0.8-0.7,1.7-1.3,1.9L294.8,1452z"/>
	<path class="st17" d="M279.8,1452c0.8,0,1.6-0.6,1.6-1.3v-2.8v-0.4v-2.2c0-0.8-0.7-1.3-1.6-1.3l-8.5-0.6c0.7,0.2,0.8,1.1,1.3,1.9
		c0.7,1,1.7,1.7,3.7,2.1c1.6,0.2,3.4,0.6,3.4,0.6s-1.9,0.2-3.4,0.6c-2.1,0.4-3,1-3.7,2.1c-0.6,0.8-0.7,1.7-1.3,1.9L279.8,1452z"/>
	<path class="st17" d="M264.9,1452c0.8,0,1.6-0.6,1.6-1.3v-2.8v-0.4v-2.2c0-0.8-0.7-1.3-1.6-1.3l-8.5-0.6c0.7,0.2,0.8,1.1,1.3,1.9
		c0.7,1,1.7,1.7,3.7,2.1c1.6,0.2,3.4,0.6,3.4,0.6s-1.9,0.2-3.4,0.6c-2.1,0.4-3,1-3.7,2.1c-0.6,0.8-0.7,1.7-1.3,1.9L264.9,1452z"/>
	<path class="st17" d="M245.1,1452c0.8,0,1.6-0.6,1.6-1.3v-2.8v-0.4v-2.2c0-0.8-0.7-1.3-1.6-1.3l-8.5-0.6c0.7,0.2,0.8,1.1,1.3,1.9
		c0.7,1,1.7,1.7,3.7,2.1c1.6,0.2,3.4,0.6,3.4,0.6s-1.9,0.2-3.4,0.6c-2.1,0.4-3,1-3.7,2.1c-0.6,0.8-0.7,1.7-1.3,1.9L245.1,1452z"/>
	<path class="st17" d="M230.1,1452c0.8,0,1.6-0.6,1.6-1.3v-2.8v-0.4v-2.2c0-0.8-0.7-1.3-1.6-1.3l-8.5-0.6c0.7,0.2,0.8,1.1,1.3,1.9
		c0.7,1,1.7,1.7,3.7,2.1c1.6,0.2,3.4,0.6,3.4,0.6s-1.9,0.2-3.4,0.6c-2.1,0.4-3,1-3.7,2.1c-0.6,0.8-0.7,1.7-1.3,1.9L230.1,1452z"/>
	<path class="st17" d="M215.3,1452c0.8,0,1.6-0.6,1.6-1.3v-2.8v-0.4v-2.2c0-0.8-0.7-1.3-1.6-1.3l-8.5-0.6c0.7,0.2,0.8,1.1,1.3,1.9
		c0.7,1,1.7,1.7,3.7,2.1c1.6,0.2,3.4,0.6,3.4,0.6s-1.9,0.2-3.4,0.6c-2.1,0.4-3,1-3.7,2.1c-0.6,0.8-0.7,1.7-1.3,1.9L215.3,1452z"/>
	<path class="st17" d="M200.3,1452c0.8,0,1.6-0.6,1.6-1.3v-2.8v-0.4v-2.2c0-0.8-0.7-1.3-1.6-1.3l-8.5-0.6c0.7,0.2,0.8,1.1,1.3,1.9
		c0.7,1,1.7,1.7,3.7,2.1c1.6,0.2,3.4,0.6,3.4,0.6s-1.9,0.2-3.4,0.6c-2.1,0.4-3,1-3.7,2.1c-0.6,0.8-0.7,1.7-1.3,1.9L200.3,1452z"/>
	<path class="st17" d="M185.3,1452c0.8,0,1.6-0.6,1.6-1.3v-2.8v-0.4v-2.2c0-0.8-0.7-1.3-1.6-1.3l-8.5-0.6c0.7,0.2,0.8,1.1,1.3,1.9
		c0.7,1,1.7,1.7,3.7,2.1c1.6,0.2,3.4,0.6,3.4,0.6s-1.9,0.2-3.4,0.6c-2.1,0.4-3,1-3.7,2.1c-0.6,0.8-0.7,1.7-1.3,1.9L185.3,1452z"/>
	<path class="st17" d="M170.4,1452c0.8,0,1.6-0.6,1.6-1.3v-2.8v-0.4v-2.2c0-0.8-0.7-1.3-1.6-1.3l-8.5-0.6c0.7,0.2,0.8,1.1,1.3,1.9
		c0.7,1,1.7,1.7,3.7,2.1c1.6,0.2,3.4,0.6,3.4,0.6s-1.9,0.2-3.4,0.6c-2.1,0.4-3,1-3.7,2.1c-0.6,0.8-0.7,1.7-1.3,1.9L170.4,1452z"/>
	<path class="st17" d="M67.3,1452.6c-0.7-0.2-0.8-1.1-1.3-1.9c-0.7-1-1.7-1.7-3.7-2.1c-1.6-0.2-3.4-0.6-3.4-0.6s1.9-0.2,3.4-0.6
		c2.1-0.4,3-1,3.7-2.1c0.6-0.8,0.7-1.7,1.3-1.9l-8.5,0.6c-0.8,0-1.6,0.6-1.6,1.3v2.2v0.4v2.8c0,0.8,0.7,1.3,1.6,1.3L67.3,1452.6z"/>
	<path class="st17" d="M82.4,1452.6c-0.7-0.2-0.8-1.1-1.3-1.9c-0.7-1-1.7-1.7-3.7-2.1c-1.6-0.2-3.4-0.6-3.4-0.6s1.9-0.2,3.4-0.6
		c2.1-0.4,3-1,3.7-2.1c0.6-0.8,0.7-1.7,1.3-1.9l-8.5,0.6c-0.8,0-1.6,0.6-1.6,1.3v2.2v0.4v2.8c0,0.8,0.7,1.3,1.6,1.3L82.4,1452.6z"/>
	<path class="st17" d="M97.3,1452.6c-0.7-0.2-0.8-1.1-1.3-1.9c-0.7-1-1.7-1.7-3.7-2.1c-1.6-0.2-3.4-0.6-3.4-0.6s1.9-0.2,3.4-0.6
		c2.1-0.4,3-1,3.7-2.1c0.6-0.8,0.7-1.7,1.3-1.9l-8.5,0.6c-0.8,0-1.6,0.6-1.6,1.3v2.2v0.4v2.8c0,0.8,0.7,1.3,1.6,1.3L97.3,1452.6z"/>
	<path class="st17" d="M112.2,1452.6c-0.7-0.2-0.8-1.1-1.3-1.9c-0.7-1-1.7-1.7-3.7-2.1c-1.6-0.2-3.4-0.6-3.4-0.6s1.9-0.2,3.4-0.6
		c2.1-0.4,3-1,3.7-2.1c0.6-0.8,0.7-1.7,1.3-1.9l-8.5,0.6c-0.8,0-1.6,0.6-1.6,1.3v2.2v0.4v2.8c0,0.8,0.7,1.3,1.6,1.3L112.2,1452.6z"
		/>
	<path class="st17" d="M127.1,1452.6c-0.7-0.2-0.8-1.1-1.3-1.9c-0.7-1-1.7-1.7-3.7-2.1c-1.6-0.2-3.4-0.6-3.4-0.6s1.9-0.2,3.4-0.6
		c2.1-0.4,3-1,3.7-2.1c0.6-0.8,0.7-1.7,1.3-1.9l-8.5,0.6c-0.8,0-1.6,0.6-1.6,1.3v2.2v0.4v2.8c0,0.8,0.7,1.3,1.6,1.3L127.1,1452.6z"
		/>
	<path class="st17" d="M142.1,1452.6c-0.7-0.2-0.8-1.1-1.3-1.9c-0.7-1-1.7-1.7-3.7-2.1c-1.6-0.2-3.4-0.6-3.4-0.6s1.9-0.2,3.4-0.6
		c2.1-0.4,3-1,3.7-2.1c0.6-0.8,0.7-1.7,1.3-1.9l-8.5,0.6c-0.8,0-1.6,0.6-1.6,1.3v2.2v0.4v2.8c0,0.8,0.7,1.3,1.6,1.3L142.1,1452.6z"
		/>
	<path class="st21" d="M666.6,1761.4c-0.4,1-1.3,1.1-2.5,1.8c-1.2,0.8-1.9,2.1-2.5,4.7c-0.4,1.8-0.7,4.1-0.7,4.1s-0.4-2.4-0.7-4.1
		c-0.6-2.7-1.2-3.9-2.5-4.7c-1-0.7-2.1-0.8-2.5-1.8l0.6,10.4c0,1.1,0.8,1.9,1.7,1.9h2.8h0.6h3.5c1,0,1.8-0.8,1.7-1.9L666.6,1761.4z"
		/>
	<path class="st21" d="M666.6,1778.3c-0.4,1-1.3,1.1-2.5,1.8c-1.2,0.8-1.9,2.1-2.5,4.7c-0.4,1.8-0.7,4.1-0.7,4.1s-0.4-2.4-0.7-4.1
		c-0.6-2.7-1.2-3.9-2.5-4.7c-1-0.7-2.1-0.8-2.5-1.8l0.6,10.4c0,1.1,0.8,1.9,1.7,1.9h2.8h0.6h3.5c1,0,1.8-0.8,1.7-1.9L666.6,1778.3z"
		/>
	<path class="st21" d="M666.6,1795c-0.4,1-1.3,1.1-2.5,1.8c-1.2,0.8-1.9,2.1-2.5,4.7c-0.4,1.8-0.7,4.1-0.7,4.1s-0.4-2.4-0.7-4.1
		c-0.6-2.7-1.2-3.9-2.5-4.7c-1-0.7-2.1-0.8-2.5-1.8l0.6,10.4c0,1.1,0.8,1.9,1.7,1.9h2.8h0.6h3.5c1,0,1.8-0.8,1.7-1.9L666.6,1795z"/>
	<path class="st21" d="M666.6,1811.9c-0.4,1-1.3,1.1-2.5,1.8c-1.2,0.8-1.9,2.1-2.5,4.7c-0.4,1.8-0.7,4.1-0.7,4.1s-0.4-2.4-0.7-4.1
		c-0.6-2.7-1.2-3.9-2.5-4.7c-1-0.7-2.1-0.8-2.5-1.8l0.6,10.4c0,1.1,0.8,1.9,1.7,1.9h2.8h0.6h3.5c1,0,1.8-0.8,1.7-1.9L666.6,1811.9z"
		/>
	<path class="st21" d="M666.6,1828.7c-0.4,1-1.3,1.1-2.5,1.8c-1.2,0.8-1.9,2.1-2.5,4.7c-0.4,1.8-0.7,4.1-0.7,4.1s-0.4-2.4-0.7-4.1
		c-0.6-2.7-1.2-3.9-2.5-4.7c-1-0.7-2.1-0.8-2.5-1.8l0.6,10.4c0,1.1,0.8,1.9,1.7,1.9h2.8h0.6h3.5c1,0,1.8-0.8,1.7-1.9L666.6,1828.7z"
		/>
	<path class="st21" d="M666.6,1845.6c-0.4,1-1.3,1.1-2.5,1.8c-1.2,0.8-1.9,2.1-2.5,4.7c-0.4,1.8-0.7,4.1-0.7,4.1s-0.4-2.4-0.7-4.1
		c-0.6-2.7-1.2-3.9-2.5-4.7c-1-0.7-2.1-0.8-2.5-1.8l0.6,10.4c0,1.1,0.8,1.9,1.7,1.9h2.8h0.6h3.5c1,0,1.8-0.8,1.7-1.9L666.6,1845.6z"
		/>
	<path class="st21" d="M326.9,1744.5c-0.4,1-1.3,1.1-2.5,1.8c-1.2,0.8-1.9,2.1-2.5,4.7c-0.4,1.8-0.7,4.1-0.7,4.1s-0.4-2.4-0.7-4.1
		c-0.6-2.7-1.2-3.9-2.5-4.7c-1-0.7-2.1-0.8-2.5-1.8l0.6,10.4c0,1.1,0.8,1.9,1.7,1.9h2.8h0.6h3.5c1,0,1.8-0.8,1.7-1.9L326.9,1744.5z"
		/>
	<path class="st21" d="M326.9,1761.4c-0.4,1-1.3,1.1-2.5,1.8c-1.2,0.8-1.9,2.1-2.5,4.7c-0.4,1.8-0.7,4.1-0.7,4.1s-0.4-2.4-0.7-4.1
		c-0.6-2.7-1.2-3.9-2.5-4.7c-1-0.7-2.1-0.8-2.5-1.8l0.6,10.4c0,1.1,0.8,1.9,1.7,1.9h2.8h0.6h3.5c1,0,1.8-0.8,1.7-1.9L326.9,1761.4z"
		/>
	<path class="st21" d="M326.9,1778.3c-0.4,1-1.3,1.1-2.5,1.8c-1.2,0.8-1.9,2.1-2.5,4.7c-0.4,1.8-0.7,4.1-0.7,4.1s-0.4-2.4-0.7-4.1
		c-0.6-2.7-1.2-3.9-2.5-4.7c-1-0.7-2.1-0.8-2.5-1.8l0.6,10.4c0,1.1,0.8,1.9,1.7,1.9h2.8h0.6h3.5c1,0,1.8-0.8,1.7-1.9L326.9,1778.3z"
		/>
	<path class="st21" d="M326.9,1795c-0.4,1-1.3,1.1-2.5,1.8c-1.2,0.8-1.9,2.1-2.5,4.7c-0.4,1.8-0.7,4.1-0.7,4.1s-0.4-2.4-0.7-4.1
		c-0.6-2.7-1.2-3.9-2.5-4.7c-1-0.7-2.1-0.8-2.5-1.8l0.6,10.4c0,1.1,0.8,1.9,1.7,1.9h2.8h0.6h3.5c1,0,1.8-0.8,1.7-1.9L326.9,1795z"/>
	<path class="st21" d="M326.9,1811.9c-0.4,1-1.3,1.1-2.5,1.8c-1.2,0.8-1.9,2.1-2.5,4.7c-0.4,1.8-0.7,4.1-0.7,4.1s-0.4-2.4-0.7-4.1
		c-0.6-2.7-1.2-3.9-2.5-4.7c-1-0.7-2.1-0.8-2.5-1.8l0.6,10.4c0,1.1,0.8,1.9,1.7,1.9h2.8h0.6h3.5c1,0,1.8-0.8,1.7-1.9L326.9,1811.9z"
		/>
	<path class="st21" d="M326.9,1828.7c-0.4,1-1.3,1.1-2.5,1.8c-1.2,0.8-1.9,2.1-2.5,4.7c-0.4,1.8-0.7,4.1-0.7,4.1s-0.4-2.4-0.7-4.1
		c-0.6-2.7-1.2-3.9-2.5-4.7c-1-0.7-2.1-0.8-2.5-1.8l0.6,10.4c0,1.1,0.8,1.9,1.7,1.9h2.8h0.6h3.5c1,0,1.8-0.8,1.7-1.9L326.9,1828.7z"
		/>
	<path class="st21" d="M326.9,1845.6c-0.4,1-1.3,1.1-2.5,1.8c-1.2,0.8-1.9,2.1-2.5,4.7c-0.4,1.8-0.7,4.1-0.7,4.1s-0.4-2.4-0.7-4.1
		c-0.6-2.7-1.2-3.9-2.5-4.7c-1-0.7-2.1-0.8-2.5-1.8l0.6,10.4c0,1.1,0.8,1.9,1.7,1.9h2.8h0.6h3.5c1,0,1.8-0.8,1.7-1.9L326.9,1845.6z"
		/>
	<polygon class="st17" points="565.4,1533 567,1533 565.3,1529.8 563.8,1529.8 563.9,1530.3 563.1,1531.9 562.6,1531.9 
		562.9,1532.3 562.4,1533 563.5,1533 563.8,1532.4 565,1532.4 	"/>
	<polygon class="st24" points="564.1,1531.9 564.3,1531.4 564.6,1531.9 	"/>
	<path class="st17" d="M545.7,1533.2c-1.3,0-1.9-0.2-1.9-0.2l-0.7,0.2v-1.6c0,0,1,0.7,2.2,0.7c0.4,0,0.6-0.1,0.6-0.2
		c0-0.4-2.8-0.2-2.8-1.8c0-0.7,1-1.2,2.2-1.2c1.1,0,1.7,0.2,1.7,0.2l0.7-0.2v1.2c0,0-0.7-0.6-2.1-0.6c-0.4,0-0.6,0.1-0.6,0.2
		c0,0.4,3,0.2,3,1.8C548.3,1532.8,546.9,1533.2,545.7,1533.2"/>
	<polygon class="st17" points="550.2,1530.7 550.2,1531.3 552.3,1531.3 552.3,1531.9 550.2,1531.9 550.2,1532.4 552.3,1532.4 
		552.3,1533.1 548.5,1533.1 548.7,1532.5 548.7,1530.6 548.5,1530.1 552.3,1530.1 552.3,1530.7 	"/>
	<polygon class="st17" points="562,1529.9 562,1533.1 560.6,1533.1 560.6,1531.9 559.5,1531.9 559.5,1533.1 557.7,1533.1 
		557.9,1532.5 557.9,1530.5 557.7,1529.9 559.5,1529.9 559.5,1531.2 560.6,1531.2 560.6,1529.9 	"/>
	<path class="st17" d="M580.6,1533c-1.1,0-1.6-0.1-1.6-0.1l-0.6,0.1v-1.2c0,0,0.7,0.6,1.8,0.6c0.2,0,0.4-0.1,0.4-0.2
		c0-0.4-2.2-0.2-2.2-1.3c0-0.6,0.8-1,1.7-1c0.8,0,1.2,0.1,1.2,0.1l0.6-0.1v1c0,0-0.6-0.4-1.7-0.4c-0.2,0-0.4,0.1-0.4,0.2
		c0,0.4,2.4,0.2,2.4,1.3C582.6,1532.6,581.6,1533,580.6,1533"/>
	<polygon class="st17" points="555.8,1533.2 557.4,1533.2 555.7,1530.1 554.1,1530.1 554.2,1530.5 553.5,1532.1 553,1532.1 
		553.2,1532.5 553,1533.2 554.1,1533.2 554.4,1532.6 555.6,1532.6 	"/>
	<polygon class="st24" points="554.6,1532.1 554.8,1531.5 555,1532.1 	"/>
	<polygon class="st17" points="571.7,1532.6 572,1533.1 570.6,1533.1 569.9,1531.5 569.4,1532.6 569.6,1533.1 568.1,1533.1 
		566.6,1529.9 567.9,1529.9 568.7,1531.5 569.3,1530.4 569.1,1529.9 570.4,1529.9 571.2,1531.5 572,1529.9 573,1529.9 	"/>
	<polygon class="st17" points="575.8,1531.8 575.3,1532 575.3,1533 573.5,1533 573.7,1532.4 573.7,1530.4 573.5,1529.8 
		575.3,1529.8 575.3,1531.2 576.5,1530.2 576.3,1529.7 578,1529.7 576.8,1530.8 578.5,1532.9 576.8,1532.9 	"/>
	<g>
		<path class="st61" d="M463,1808.1c0,6.8-5.5,12.4-12.4,12.4h-26.4c-6.8,0-12.4-5.5-12.4-12.4v-26.4c0-6.8,5.5-12.4,12.4-12.4h26.4
			c6.8,0,12.4,5.5,12.4,12.4V1808.1z"/>
		<line class="st61" x1="417.5" y1="1783" x2="457.4" y2="1783"/>
		<line class="st61" x1="417.5" y1="1795.6" x2="457.4" y2="1795.6"/>
		<line class="st61" x1="417.5" y1="1808.2" x2="457.4" y2="1808.2"/>
	</g>
	<path class="st61" d="M459.3,1840.8c0,7.6-6.2,13.9-13.9,13.9h-16c-7.6,0-13.9-6.2-13.9-13.9l0,0c0-7.6,6.2-13.9,13.9-13.9h16
		C453,1826.7,459.3,1833.1,459.3,1840.8L459.3,1840.8z"/>
	<path class="st35" d="M519.3,1743.5v3.9c0,15.8-12.8,28.5-28.6,28.5l0,0c-15.8,0-28.6-12.8-28.6-28.5v-4.6"/>
	<g>
		<g>
			<path class="st61" d="M571.5,1808.1c0,6.8-5.5,12.4-12.4,12.4h-26.4c-6.8,0-12.4-5.5-12.4-12.4v-26.4c0-6.8,5.5-12.4,12.4-12.4
				h26.5c6.8,0,12.4,5.5,12.4,12.4L571.5,1808.1L571.5,1808.1z"/>
			<line class="st61" x1="526.1" y1="1783" x2="566" y2="1783"/>
			<line class="st61" x1="526.1" y1="1795.6" x2="566" y2="1795.6"/>
			<line class="st61" x1="526.1" y1="1808.2" x2="566" y2="1808.2"/>
		</g>
		<path class="st61" d="M568,1840.8c0,7.6-6.2,13.9-13.9,13.9h-16c-7.6,0-13.9-6.2-13.9-13.9l0,0c0-7.6,6.2-13.9,13.9-13.9h16
			C561.6,1826.7,568,1833.1,568,1840.8L568,1840.8z"/>
	</g>
	<path class="st26" d="M391.5,1716.1c14.3-22.3,53.8-38.3,100.1-38.3c46.2,0,83.4,15.9,97.8,38.1L391.5,1716.1z"/>
	<rect x="391.5" y="1114.2" class="st35" width="199.2" height="137.8"/>
	<path class="st10" d="M490.1,1267.9c48.1,0,88.6,33.6,99.1,78.5V1253H390.8v94.1C401.2,1301.9,441.8,1267.9,490.1,1267.9z"/>
	<path class="st1" d="M470,1521.4c-1.2,0.7,2.7,26.9,20.6,36.1c17.9-9.2,20.6-35.4,19.3-36.1"/>
	<line class="st56" x1="389.8" y1="1935.8" x2="389.8" y2="1253"/>
	<line class="st56" x1="591.1" y1="1937" x2="591.1" y2="1253"/>
	<path class="st62" d="M528.8,1584.6h-1.1h-30.2h-1.1l-0.7,0.8l-0.2,0.4l-6.4,7.9l-0.2,0.2l-0.6,0.6v0.8v15.9v2.9l2.8-0.7l1.2-0.2
		c5.6-1.3,10.2-5,12.6-9.5h14.6v6.4l-30.4,29.3l-0.7,0.7v1v26.1v2.2h2.2H535h2.2v-2.2v-14.6v-2.2h-2.1h-25.7v-5l26.9-25.8l0.7-0.7
		v-1l0.2-22.4v-0.8l-0.6-0.7l-0.2-0.2l-6.7-8.1l-0.2-0.4L528.8,1584.6z"/>
	<path class="st24" d="M528,1587.1l-0.2-0.4h-30.2l-0.2,0.4l-6.4,7.9l-0.2,0.2v15.9l1.2-0.2c5.5-1.3,9.9-5,11.5-9.5h18.3v9.6
		l-31.1,29.8v26h44.5v-14.3h-28v-8.1l27.6-26.5l0.2-22.4l-0.2-0.2L528,1587.1z"/>
	<path class="st62" d="M476.2,1584.6H474h-19.8h-1.1l-0.6,0.7l-0.2,0.4l-6.6,7.9l-0.2,0.2l-0.6,0.6v0.8v5.8v2.2h2.2h7.6v55.9v0.2
		l0.1,0.2v0.1c1.3,4.6,5.6,8.1,10.9,9.2l0,0h0.2h0.2h7.4h2.2v-2.2v-80.3v-1.9L476.2,1584.6L476.2,1584.6z"/>
	<path class="st24" d="M453.9,1587.1l-6.4,7.9l-0.2,0.2v5.8h9.9v58.1v0.1c1.2,3.9,4.7,6.7,9.2,7.6h0.1h7.4v-80.3h-19.8L453.9,1587.1
		z"/>
	<path class="st62" d="M340.7,1460.8H340h-19.3H320l-0.4,0.6l-0.1,0.2l-4.1,5l-0.1,0.1l-0.2,0.4v0.6v10.2v1.8l1.8-0.4l0.8-0.1
		c3.6-1,6.4-3.2,8-6.1h9.3v4.1l-19.5,18.7l-0.4,0.4v0.6v16.7v1.3h1.3h28.3h1.3v-1.3v-9.2v-1.3h-1.3h-16.6v-3.2l17.2-16.5l0.4-0.4
		v-0.6l0.1-14.3v-0.6l-0.2-0.4l-0.1-0.1l-4.3-5.2l-0.1-0.2L340.7,1460.8z"/>
	<path class="st24" d="M340.2,1462.5l-0.1-0.2h-19.3l-0.1,0.2l-4.1,5l-0.1,0.1v10.2l0.8-0.1c3.6-0.8,6.3-3.2,7.4-6.1h11.7v6.2
		l-20,19.1v16.7h28.3v-9.2H327v-5.2l17.6-16.9l0.1-14.3l-0.1-0.1L340.2,1462.5z"/>
	<path class="st62" d="M307.1,1460.8h-1.3h-12.8h-0.6l-0.4,0.6l-0.1,0.2l-4.1,5l-0.1,0.1l-0.2,0.4v0.6v3.9v1.3h1.3h5v35.5v0.2v0.1
		v0.1c1,2.9,3.6,5.2,7,5.8l0,0h0.1h0.1h4.8h1.3v-1.3V1462L307.1,1460.8L307.1,1460.8z"/>
	<path class="st24" d="M292.9,1462.5l-4.1,5l-0.1,0.1v3.9h6.3v37.1v0.1c0.7,2.5,3,4.3,5.8,5l0,0h4.8v-51.3H293L292.9,1462.5z"/>
	<path class="st62" d="M685.6,1460.8h-0.7h-19.3h-0.7l-0.4,0.6l-0.1,0.2l-4.1,5l-0.1,0.1l-0.2,0.4v0.6v10.2v1.8l1.8-0.4l0.8-0.1
		c3.6-1,6.4-3.2,8-6.1h9.3v4.1l-19.5,18.7l-0.4,0.4v0.6v16.7v1.3h1.3h28.2h1.3v-1.3v-9.2v-1.3h-1.3h-16.4v-3.2l17.2-16.5l0.4-0.4
		v-0.6l0.1-14.3v-0.6l-0.2-0.4l-0.1-0.1l-4.3-5.5l-0.1-0.2L685.6,1460.8z"/>
	<path class="st24" d="M685.2,1462.5l-0.1-0.2h-19.3l-0.1,0.2l-4.1,5l-0.1,0.1v10.2l0.8-0.1c3.6-0.8,6.3-3.2,7.4-6.1h11.7v6.2
		l-20,19.1v16.7h28.3v-9.2h-17.8v-5.2l17.6-16.9l0.1-14.3l-0.1-0.1L685.2,1462.5z"/>
	<path class="st62" d="M652,1460.8h-1.3H638h-0.7l-0.4,0.6l-0.1,0.2l-4.1,5l-0.1,0.1l-0.2,0.4v0.6v3.9v1.3h1.3h5v35.5v0.2v0.1v0.1
		c1,2.9,3.6,5.2,7,5.8l0,0h0.1h0.1h4.8h1.3v-1.3V1462L652,1460.8L652,1460.8L652,1460.8z"/>
	<path class="st24" d="M637.8,1462.5l-4.1,5l-0.1,0.1v3.9h6.3v37.1v0.1c0.7,2.5,3,4.3,5.8,5l0,0h4.8v-51.3h-12.7L637.8,1462.5z"/>
	<path class="st62" d="M198.9,1570.3h-1.2h-35.2h-1.2l-0.8,1l-0.2,0.4l-7.5,9.2l-0.2,0.2l-0.6,0.7v1v18.5v3.4l3.2-0.8l1.3-0.4
		c6.6-1.7,12-5.6,14.6-11H188v7.5l-35.4,34.2l-0.8,0.8v1.1v30.5v2.7h2.7h51.9h2.7v-2.7v-16.9v-2.6h-2.7h-29.9v-5.7l31.5-30.3
		l0.8-0.7v-1.1l0.4-26.1v-1l-0.6-0.7l-0.2-0.2l-7.9-9.5l-0.4-0.4L198.9,1570.3z"/>
	<path class="st24" d="M197.9,1573.3l-0.4-0.4h-35.1l-0.2,0.4l-7.5,9.2l-0.2,0.2v18.5l1.3-0.4c6.4-1.7,11.5-5.7,13.6-11.1h21.4v11.3
		l-36.2,35.1v30.5h51.8v-16.9h-32.7v-9.3l32.2-30.9l0.4-26.1l-0.2-0.2L197.9,1573.3z"/>
	<path class="st62" d="M137.4,1570.3h-2.7h-23.1h-1.3l-0.8,1l-0.2,0.4l-7.5,9.2l-0.2,0.2l-0.6,0.7v1v7v2.7h2.7h9.1v65.2v0.4l0.1,0.4
		v0.1c1.7,5.3,6.6,9.5,12.8,10.9h0.1h0.2h0.2h8.6h2.7v-2.7v-93.9L137.4,1570.3L137.4,1570.3z"/>
	<path class="st24" d="M111.4,1573.3l-7.5,9.2l-0.2,0.2v7h11.5v67.6v0.1c1.3,4.5,5.5,7.9,10.8,9.1h0.1h8.6v-93.8h-23L111.4,1573.3z"
		/>
	<g id="labelText">
		<text transform="matrix(1 0 0 1 64.0244 1101.2529)" class="st63 st64">Build your own</text>
		<text transform="matrix(1 0 0 1 64.0244 1159.6006)" class="st63 st64">Paper Hawk</text>
	</g>
</g>
<g id="face">
	<path class="st65" d="M594.3,1343.7c0-30.8-18.2-62.3-18.2-63.5s-25.9-25.3-28.6-28.3H426c-14.7,12-23.3,25-23.8,27.5
		c-0.6,2.8-4.8,11.4-7.9,14.5c-2.9,2.9-6.3,25.3-6.3,36.6c0,8.1,0.6,28.7,3.6,44.8c2.7,2.4,4.3,13,5.6,16.4c5.1,12.1,3,14.6,3,14.6
		s1,5.6,2.1,14.6c1.8,13.1,5.1,33.2,15.9,52.8c16.6,29.9,43.9,58.7,72.8,58.7c29.8,0,57.9-31.3,75-62.9c11.4-21.2,14.9-42.6,16.5-55
		c0.8-6.6,1.9-10.8,1.9-10.8s-0.4-10.9,1.3-14.3C587.5,1386,594.3,1374.6,594.3,1343.7z"/>
</g>
<g id="labelName" class="st66">
	<text transform="matrix(1 0 0 1 64.0244 1130.9697)" class="st63 st64">customized</text>
</g>
<g id="uniformName">
	<g class="st66">
		<path class="st24" d="M120.9,1498.9h18v8.2h-7.4v7.8h6.6v7.8h-6.6v17.2h-10.6V1498.9z"/>
		<path class="st24" d="M158.9,1498.9l6.1,40.9h-10.9l-0.6-7.4h-3.8l-0.6,7.4h-11l5.4-40.9H158.9z M153.3,1525.2
			c-0.5-4.6-1.1-10.4-1.6-17.2c-1.1,7.8-1.8,13.6-2,17.2H153.3z"/>
		<path class="st24" d="M190.6,1498.9v40.9h-9.3l-5.5-18.6v18.6h-8.9v-40.9h8.9l6,18.4v-18.4H190.6z"/>
	</g>
</g>
</svg>
