<?xml version="1.0" encoding="utf-8"?>
<!-- Generator: Adobe Illustrator 18.0.0, SVG Export Plug-In . SVG Version: 6.00 Build 0)  -->
<!DOCTYPE svg PUBLIC "-//W3C//DTD SVG 1.1//EN" "http://www.w3.org/Graphics/SVG/1.1/DTD/svg11.dtd">
<svg version="1.1" xmlns="http://www.w3.org/2000/svg" xmlns:xlink="http://www.w3.org/1999/xlink" x="0px" y="0px"
	 viewBox="0 0 612 792" enable-background="new 0 0 612 792" xml:space="preserve">
<pattern  width="158.6" height="201.8" patternUnits="userSpaceOnUse" id="Unnamed_Pattern_51" viewBox="0 -201.8 158.6 201.8" overflow="visible">
	<g>
		<polygon fill="none" points="0,-201.8 158.6,-201.8 158.6,0 0,0 		"/>
		<path fill="#77848F" d="M158.6-100.9L158.6-100.9l0-8.2l-44.1,1.1h-3.7c6.3-3.1,7.8-10.9,12.5-18.3c6.1-9.5,17-14.1,35.3-19v-12
			c-19.8-4.1-29.2-9.6-35.3-19.1c-4.8-7.4-6.3-15.2-12.7-18.3H124l34.6,0.9v-8H79.3h0H0v8l48.2,1.3c8.4,0,15.2,5.9,15.2,13.2v55.7
			c0,7.3-6.8,13.2-15.2,13.2L0-109.1v8.2h0V0h158.6V-100.9z M112.2-50.4c0,0-18.1-2.9-32.2-5.8c-20.2-4.1-29.8-9.6-36-19.2
			c-4.8-7.4-6.3-15.2-12.7-18.3h13.4l82.8,2.2c8.4,0,15.2,5.9,15.2,13.2v55.7c0,7.3-6.8,13.2-15.2,13.2L35.1-7.1h-3.7
			c6.3-3.1,7.8-10.9,12.5-18.3c6.2-9.6,17.2-14.2,36-19.2C93.9-48.3,112.2-50.4,112.2-50.4"/>
	</g>
</pattern>
<g id="Layer_1">
	<g>
		<path fill="none" stroke="#231F20" stroke-width="2" d="M241.2,172.2"/>
		<path fill="#FFFFFF" d="M346.4,125.8"/>
		<path fill="#FFFFFF" d="M241.7,171.3"/>
		<path fill="none" stroke="#231F20" stroke-width="2" d="M346.4,125.8"/>
		<path fill="none" stroke="#231F20" stroke-width="2" d="M240.7,171.3"/>
	</g>
	<g>
		<defs>
			<path id="SVGID_1_" d="M240.7,171.7"/>
		</defs>
		<use xlink:href="#SVGID_1_"  overflow="visible" fill="#2E557A"/>
		<clipPath id="SVGID_2_">
			<use xlink:href="#SVGID_1_"  overflow="visible"/>
		</clipPath>
		<path clip-path="url(#SVGID_2_)" fill="#2E557A" d="M240.7,171.7"/>
	</g>
	<path fill="none" stroke="#231F20" stroke-width="2" d="M240.7,171.7"/>
	<g>
		<defs>
			<path id="SVGID_3_" d="M241.7,234"/>
		</defs>
		<defs>
			<path id="SVGID_4_" d="M241.7,292"/>
		</defs>
		<clipPath id="SVGID_5_">
			<use xlink:href="#SVGID_3_"  overflow="visible"/>
		</clipPath>
		<clipPath id="SVGID_6_" clip-path="url(#SVGID_5_)">
			<use xlink:href="#SVGID_4_"  overflow="visible"/>
		</clipPath>
		<g clip-path="url(#SVGID_6_)">
			<path fill="#FFFFFF" d="M309.3,270.9c3-0.3,12.6-1.6,20.5-5.4c4.6-2.2,7.7-5.5,8.9-9.6c0.4-1.2,0.5-2.5,0.5-3.8
				c0-3.8-1.4-8.1-4.3-12.5c-5.9-9.3-11.4-12.6-11.7-12.8c-3.4-2.4-6.7-2.5-6.7-2.5s2.9,3.4,3.9,6.7c1,3.4-2.6,3.8-2.6,3.8"/>
			<path fill="#FFFFFF" d="M221.8,242.3c-4.9,0-10,0-12.6,4c-2.6,4.1-1.2,8.1,3.3,16.1c0.3,0.6,13.9,26,13.9,26s1.4-1.7,2.8-2.8"/>
			<path fill="#FFFFFF" d="M317.9,234.8c-6,1.2-13.8,1.5-17.2,1.5"/>
			<path fill="#2E557A" d="M300.8,238.6c2.7,0,11.1-0.3,17.6-1.6c8.7-1.7,3.1-9.1,3.1-9.1s5.8,3.8,11.6,12.9
				c6.4,10.1,4.8,18.3-4.2,22.6"/>
			<path fill="#2E557A" d="M304.9,263.5"/>
			<line fill="#2E557A" x1="227" y1="284.8" x2="216.4" y2="265"/>
			<path fill="#2E557A" d="M328.9,263.4c-9,4.3-20.6,5.3-20.6,5.3"/>
			<path fill="#FFFFFF" d="M326.4,239.5c10.8,18.2-5.2,21.2-13.5,22.3"/>
			<path fill="#FFFFFF" d="M312.9,261.8c-4.1,1-0.6,3.4-0.6,3.4c-5.9-1.2-8.1-6-8.6-7.4c-0.1-0.2-0.2-0.4-0.3-0.6"/>
			<path fill="#FFFFFF" d="M325.1,237.6"/>
			<path fill="#FFFFFF" d="M300.8,258.8"/>
			<path fill="#B3B5B8" d="M221.8,244.5c-5.4,0-8.9,0.2-10.7,3c-1.8,2.7-1.4,5.3,3.3,13.8"/>
		</g>
	</g>
	<path fill="#FFFFFF" d="M35.7,515.4"/>
	<path fill="none" stroke="#231F20" stroke-width="2" d="M36.5,515.4"/>
	<g>
		<path fill="none" stroke="#231F20" stroke-width="2" d="M242.9,318c0,0.2,0,0.4-0.2,0.5c0,0,0,0,0,0c-0.2,0.1-0.4,0.2-0.6,0.1
			c-0.2-0.1-0.3-0.2-0.3-0.4l-7.4-22.3H92.3L87,318.2v156.7l6.8,22.8l141.8-0.3l6.2-22.4c0.1-0.2,0.2-0.3,0.4-0.3
			c0.2,0,0.3,0,0.5,0.1c0.1,0.1,0.3,0.3,0.3,0.5v156.1h109.7c0,0,0,0,0,0l25.1-7.4V482.1l-25.1-6.5c-0.2-0.1-0.3-0.3-0.3-0.5v-0.5
			c0-0.2,0.1-0.3,0.2-0.4c0.2-0.1,0.4-0.2,0.6-0.1c0.2,0.1,0.3,0.3,0.3,0.4h155.3V449h-73.9c-1.7,0-3.3-0.2-4.8-0.7
			c-10.5-2.2-18.3-10.1-18.3-19.4v-64.4c0-9.3,7.6-17,18-19.4c1.6-0.5,3.3-0.8,5.1-0.8h73.9v-25.7H352.9c-0.1,0-0.3-0.1-0.4-0.2
			c-0.1-0.1-0.2-0.3-0.2-0.5c0-0.2,0.1-0.3,0.3-0.4l25.2-6.6V169.1l-25.2-7.4H242.9V318z"/>
		<polyline fill="#FFFFFF" points="86.4,474.5 46.6,466.2 46.6,323.4 86.7,318.4 		"/>
		<polyline fill="#FFFFFF" points="509.6,449.5 560.3,450.9 560.3,474.7 509.4,475.6 		"/>
		<polyline fill="none" stroke="#231F20" stroke-width="2" points="509.6,449.5 560.3,450.9 560.3,474.7 509.4,475.6 		"/>
		<polyline fill="#FFFFFF" points="509.6,318.4 560.3,319.8 560.3,343.5 509.4,344.4 		"/>
		<polyline fill="none" stroke="#231F20" stroke-width="2" points="509.4,344.4 560.3,343.5 560.3,319.8 509.6,318.4 		"/>
		<polyline fill="#FFFFFF" points="243.4,160.8 249.2,127.3 348.2,127.3 351.6,161.1 		"/>
		<polyline fill="none" stroke="#231F20" stroke-width="2" points="242.4,160.8 249.2,127.3 348.2,127.3 351.6,161.1 		"/>
		<polyline fill="#FFFFFF" points="351.6,632.6 345.9,666.1 246.9,666.1 243.4,632.3 		"/>
		<polyline fill="none" stroke="#231F20" stroke-width="2" points="351.6,632.6 345.9,666.1 246.9,666.1 242.4,632.3 		"/>
	</g>
	<g>
		<defs>
			<path id="SVGID_7_" d="M86.4,475.5h422.8l-0.1-26.5h-74.3c-1.7,0-3.3-0.2-4.8-0.7c-10.5-2.2-18.3-10.1-18.3-19.4v-64.4
				c0-9.3,7.6-17,18-19.4c1.6-0.5,3.3-0.8,5.1-0.8h74.1l-0.1-26.5H86L86.4,475.5z"/>
		</defs>
		<use xlink:href="#SVGID_7_"  overflow="visible" fill="#2E557A"/>
		<clipPath id="SVGID_8_">
			<use xlink:href="#SVGID_7_"  overflow="visible"/>
		</clipPath>
		<rect x="86" y="317.8" clip-path="url(#SVGID_8_)" fill="#2E557A" width="423.2" height="157.6"/>
	</g>
	<g>
		<defs>
			<path id="SVGID_9_" d="M352.9,631.9V161.2H242.4v470.7H352.9z"/>
		</defs>
		<use xlink:href="#SVGID_9_"  overflow="visible" fill="#2E557A"/>
		<clipPath id="SVGID_10_">
			<use xlink:href="#SVGID_9_"  overflow="visible"/>
		</clipPath>
		<rect x="242.4" y="161.2" clip-path="url(#SVGID_10_)" fill="#2E557A" width="110.5" height="470.7"/>
	</g>
	<path fill="none" stroke="#231F20" stroke-width="2" d="M352.9,631.9V161.2H242.4v470.7H352.9z"/>
	
		<line fill="none" stroke="#FFFFFF" stroke-width="2" stroke-miterlimit="3.864" stroke-dasharray="3,2" x1="335.9" y1="212.8" x2="316.6" y2="188.7"/>
	
		<line fill="none" stroke="#FFFFFF" stroke-width="2" stroke-miterlimit="3.864" stroke-dasharray="3,2" x1="316.6" y1="604.6" x2="335.9" y2="580.5"/>
	<g>
		<path fill="#FFFFFF" d="M86.8,439.1v-79c0-2.5,1.2-3.2,4-1.5l15,12.5c2,2.8,3,5.3,3,7v43c0,1.7-1,4.2-3,7l-15,12.5
			C88.1,442.3,86.8,441.6,86.8,439.1"/>
		<path fill="none" stroke="#231F20" d="M86.8,439.1v-79c0-2.5,1.2-3.2,4-1.5l15,12.5c2,2.8,3,5.3,3,7v43c0,1.7-1,4.2-3,7l-15,12.5
			C88.1,442.3,86.8,441.6,86.8,439.1z"/>
	</g>
	<line fill="none" stroke="#000000" stroke-dasharray="3,2" x1="387.6" y1="580" x2="364.6" y2="580"/>
	<path d="M511.6,479c0,1.1-0.9,2-2,2c-1.1,0-2-0.9-2-2c0-1.1,0.9-2,2-2C510.7,477,511.6,477.9,511.6,479"/>
	<line fill="none" stroke="#000000" stroke-dasharray="3,2" x1="509.6" y1="492.5" x2="509.6" y2="479"/>
	<path fill="#231F20" d="M352.4,629.5c1.1,0,2,0.9,2,2s-0.9,2-2,2c-1.1,0-2-0.9-2-2S351.3,629.5,352.4,629.5"/>
	<line fill="none" stroke="#000000" stroke-dasharray="3,2" x1="362.9" y1="642.8" x2="352.4" y2="631.5"/>
	<path fill="#231F20" d="M352.4,158.8c1.1,0,2,0.9,2,2c0,1.1-0.9,2-2,2c-1.1,0-2-0.9-2-2C350.4,159.7,351.3,158.8,352.4,158.8"/>
	<line fill="none" stroke="#000000" stroke-dasharray="3,2" x1="362.9" y1="147.5" x2="352.4" y2="160.8"/>
	<polygon fill="#231F20" points="368.1,584.6 357.6,580.1 368,575.7 	"/>
	<g>
		<path fill="none" stroke="#231F20" stroke-width="2" d="M295.9,594.3c-6,0-10.9-4.9-10.9-10.9c0-6,4.9-10.9,10.9-10.9
			c6,0,10.9,4.9,10.9,10.9C306.8,589.5,301.9,594.3,295.9,594.3"/>
		<path fill="none" stroke="#231F20" stroke-width="2" d="M295.9,220.5c-6,0-10.9-4.9-10.9-10.9c0-6,4.9-10.8,10.9-10.8
			c6,0,10.9,4.9,10.9,10.8C306.8,215.6,301.9,220.5,295.9,220.5"/>
	</g>
	<g>
		<text transform="matrix(0 -1 1 0 400.1498 616.0757)"><tspan x="0" y="0" font-family="'SunST-Medium'" font-size="12">Cut slits to insert ends</tspan><tspan x="0" y="14.4" font-family="'SunST-Medium'" font-size="12">of facemask</tspan></text>
	</g>
	<g>
		<text transform="matrix(0 -1 1 0 375.2699 152.9438)" font-family="'SunST-Medium'" font-size="11">Fold</text>
	</g>
	<g>
		<text transform="matrix(0 -1 1 0 375.2699 660.3706)" font-family="'SunST-Medium'" font-size="11">Fold</text>
	</g>
	<g>
		<text transform="matrix(0 -1 1 0 511.018 516.3706)" font-family="'SunST-Medium'" font-size="11">Fold</text>
	</g>
	<polygon fill="none" stroke="#231F20" stroke-width="2" points="86.7,318.4 46.6,323.4 46.6,466.2 86.4,474.5 	"/>
	<g>
		<text transform="matrix(0 -1 1 0 71.976 420.689)" font-family="'SunST-ExtraBold'" font-size="15">HELMET</text>
	</g>
	<path d="M495.3,531.2"/>
	<path fill="none" stroke="#231F20" stroke-miterlimit="3.864" d="M495.3,531.2"/>
	<circle fill="none" stroke="#231F20" stroke-width="5" cx="295.9" cy="583.5" r="10.9"/>
	<circle fill="none" stroke="#231F20" stroke-width="5" cx="295.9" cy="209.6" r="10.9"/>
	<path fill="#1A2E5A" d="M96.4,402v1.6l3.4-1.8v-1.6l-0.4,0.2l-1.8-1V399l-0.5,0.2l-0.7-0.4v1.2l0.6,0.3v1.4L96.4,402z M97.6,400.7
		l0.7,0.3l-0.7,0.3V400.7z M96.4,380.7c0-1.4,0.3-2.1,0.3-2.1l-0.3-0.7H98c0,0-0.8,1-0.8,2.4c0,0.4,0.1,0.6,0.3,0.6c0.5,0,0.3-3,2-3
		c0.7,0,1.4,1.1,1.4,2.4c0,1.1-0.3,1.8-0.3,1.8l0.3,0.7h-1.4c0,0,0.6-0.8,0.6-2.2c0-0.4-0.1-0.6-0.3-0.6c-0.5,0-0.3,3.2-2,3.2
		C96.9,383.2,96.4,381.9,96.4,380.7 M99.1,385.6h-0.6v2.2h-0.7v-2.2h-0.6v2.2h-0.7v-4.2l0.6,0.4h2.3l0.6-0.4v4.2h-0.7V385.6z
		 M99.9,398.4h-3.4v-1.5h1.3v-1.3h-1.3v-1.9l0.6,0.4h2.3l0.6-0.4v1.9h-1.3v1.3h1.3V398.4z M96.4,418.7c0-1.1,0.2-1.6,0.2-1.6
		l-0.2-0.5h1.3c0,0-0.6,0.8-0.6,1.9c0,0.3,0.1,0.5,0.3,0.5c0.4,0,0.2-2.3,1.6-2.3c0.6,0,1.1,0.8,1.1,1.9c0,0.9-0.2,1.4-0.2,1.4
		l0.2,0.5h-1.1c0,0,0.5-0.6,0.5-1.7c0-0.3-0.1-0.5-0.3-0.5c-0.4,0-0.2,2.5-1.6,2.5C96.8,420.7,96.4,419.7,96.4,418.7 M96.4,391.5
		v1.6l3.4-1.8v-1.6l-0.4,0.2l-1.8-1v-0.5l-0.5,0.2l-0.7-0.4v1.2l0.6,0.3v1.3L96.4,391.5z M97.6,390.2l0.7,0.3l-0.7,0.3V390.2z
		 M96.9,408.9l-0.5,0.2v-1.5l1.8-0.9l-1.4-0.7l-0.5,0.2v-1.5l3.4-1.6v1.5l-1.8,0.9l1.4,0.7l0.5-0.2v1.5l-1.8,0.9l1.8,0.9v1.1
		L96.9,408.9z M97.8,413.2l-0.3-0.4h-1v-2l0.6,0.4h2.3l0.6-0.4v2h-1.6l1.1,1.3l0.5-0.3v1.8l-1.2-1.4l-2.2,1.7v-1.7L97.8,413.2z"/>
	<path fill="#FFFFFF" d="M175.8,396.4c1.1-0.9,2.1-2.1,2.9-3.6c0.7-1.3,1.3-2.9,1.8-4.7c2-7.8,3.1-13.5,3.9-17.2
		c0.2-0.9,0.3-1.6,0.5-2.3c0.7-3.4,6.1-16.8,6.1-16.9c0.1-0.3,6.9-16.5,8.5-20.7l6-12.8l-6.9,0l0.5-0.2l-35.9-0.3l-6.6,13l-2.1,3.9
		c-0.7,1.3-1.5,2.8-2.5,4.5l-0.8,1.5c0,0,0,0,0,0c0,0,0,0,0,0.1c-1,2.2-1.7,3.9-2,5.2c-0.6,2.5-1.9,9.3-3.3,16.6
		c-1.3,6.7-2.6,13.7-3.4,17.1c-0.8,3.5-2.1,7.1-3.6,9.8c-0.8,1.5-1.6,2.7-2.4,3.6l-0.2,0.2c-1.6,1.6-6.9,3.3-6.9,3.3"/>
	<path fill="#FFFFFF" d="M129.6,396.6l-0.2,0.1c0,0,5.4,1.7,7,3.3l0.2,0.2c0.8,0.9,1.6,2.1,2.4,3.6c1.5,2.8,2.8,6.4,3.6,9.8
		c0.8,3.4,2.1,10.4,3.4,17.1c1.4,7.2,2.7,14,3.3,16.6c0.3,1.3,1,3,2,5.2c0,0,0,0,0,0.1c0,0,0,0,0,0l0.8,1.5c0.9,1.6,1.7,3.2,2.5,4.5
		l2.1,3.9l6.6,13l35.9-0.3l-0.5-0.2l6.9,0l-6-12.8c-1.6-4.2-8.4-20.4-8.5-20.7c0-0.1-5.4-13.5-6.1-16.9c-0.1-0.7-0.3-1.4-0.5-2.3
		c-0.7-3.7-1.9-9.4-3.9-17.2c-0.5-1.8-1.1-3.4-1.8-4.7c-0.8-1.5-1.7-2.7-2.9-3.6l-0.4-0.2l0.4-0.2"/>
	<g>
		<defs>
			<rect id="SVGID_11_" x="243.4" y="223.5" width="100.7" height="58"/>
		</defs>
		<clipPath id="SVGID_12_">
			<use xlink:href="#SVGID_11_"  overflow="visible"/>
		</clipPath>
		<g clip-path="url(#SVGID_12_)">
			<path fill="#FFFFFF" d="M319.6,236.3c-6,1.2-13.8,1.5-17.2,1.5l-79,0c-4.9,0-10,0-12.6,4c-2.6,4.1-1.2,8.1,3.3,16.1
				c0.3,0.6,13.9,26,13.9,26s1.4-1.7,2.8-2.8c1.4-1.1,2.8-1.7,6.6-1.7c6.7,0,49.9,0.1,50.3,0.1c8.8,0,17.6-0.9,23.4-7.2
				c3-0.3,12.6-1.6,20.5-5.4c4.6-2.2,7.7-5.5,8.9-9.6c0.4-1.2,0.5-2.5,0.5-3.8c0-3.8-1.4-8.1-4.3-12.5c-5.9-9.3-11.4-12.6-11.7-12.8
				c-3.4-2.4-6.7-2.5-6.7-2.5s2.9,3.4,3.9,6.7C323.3,235.9,319.6,236.3,319.6,236.3"/>
			<path fill="#2E557A" d="M330.6,265c-9,4.3-20.6,5.3-20.6,5.3c-5.1,6.2-13.6,7.1-22.3,7.1c0,0-43.5-0.1-50.3-0.1
				c-7.9,0-8.7,3.1-8.7,3.1l-10.6-19.8h27.4c8.6,0,9.1,0.9,14.8,5.1c6.1,4.5,10.9,6.1,16.7,6.1c5.7,0,9.6-1.3,16-4.1
				c6.4-2.8,9.8-4.2,13.6-2.6c0,0-3-4-12.1-0.2c-9.1,3.8-11.5,4.6-17,4.6c-5.4,0-11.7-2.6-19.5-10.4l9.3-7.5c0,0-2.1-3.3-3.6-5.4
				c-1.4-2.1-1.3-3.5-0.5-4.6c0.8-1,1.7-1.5,5.1-1.5c3.4,0,31,0.1,34.1,0.1c2.7,0,11.1-0.3,17.6-1.6c8.7-1.7,3.1-9.1,3.1-9.1
				s5.8,3.8,11.6,12.9C341.2,252.4,339.6,260.6,330.6,265"/>
			<path fill="#FFFFFF" d="M314.6,263.3c-4.1,1-0.6,3.4-0.6,3.4c-5.9-1.2-8.1-6-8.6-7.4c-0.1-0.2-0.2-0.4-0.3-0.6
				c-3.3-6.6-6.2-6.2-11.8-6.2h-9.6c-7.7,0-11.4-3.8-15.1-10.4h4.4c4,6,7,7.6,14.9,8c18.1,0,32.5-5.2,40.1-9.2
				C338.9,259.2,322.8,262.2,314.6,263.3"/>
			<path fill="#FFFFFF" d="M281,242.2c2,3.1,6.1,4.1,12.8,3.7c16.4-0.9,25.8-4.1,33.1-6.9c-9,5.3-25.1,9.1-36.2,9
				c-5.5,0-10.2-1-13-5.9H281z"/>
			<path fill="#FFFFFF" d="M298.5,260.3c-2.1-3-4.9-4-12.9-3.4c-9.3,0.6-6.9,4.5-5.8,6.5c0,0,0,0,0,0c0.3,0.5,0.8,1.5,1.3,2.4
				c-7.1,0.4-12.3-5-12.3-5c5.3-5.2,8.8-5.8,13.6-5.8h8.9c8.3,0,10.3,3.7,11.1,5.4C301,260.1,299.7,260.1,298.5,260.3"/>
			<path fill="#77C25F" d="M294.5,261.2c-0.2,0.1-0.3,0.1-0.5,0.2c-0.8-0.9-2.2-1.4-3.6-1.2c-1.8,0.2-2.8,1.5-2.3,2.9
				c0.1,0.2,0.2,0.4,0.3,0.6c-0.9,0.4-1.8,0.7-2.7,1c-1.8-3-2.9-5,3.5-5.5c4-0.3,5.1,0.3,5.9,1.8C294.8,261,294.7,261.1,294.5,261.2
				"/>
			<path fill="#B3B5B8" d="M262.4,249.8c-3.3-5.7-4.6-7-2.3-9.8h-36.6c-5.4,0-8.9,0.2-10.7,3c-1.8,2.7-1.4,5.3,3.3,13.8h31.1
				c5.4,0,6.7-0.3,9.6-2.6C259.8,252,262.4,249.8,262.4,249.8"/>
		</g>
	</g>
	<g>
		<defs>
			<rect id="SVGID_13_" x="243.8" y="508.2" width="100.7" height="58"/>
		</defs>
		<clipPath id="SVGID_14_">
			<use xlink:href="#SVGID_13_"  overflow="visible"/>
		</clipPath>
		<g clip-path="url(#SVGID_14_)">
			<path fill="#FFFFFF" d="M320,553.4c-6-1.2-13.8-1.5-17.2-1.5l-79,0c-4.9,0-10,0-12.6-4c-2.6-4.1-1.2-8.1,3.3-16.1
				c0.3-0.6,13.9-26,13.9-26s1.4,1.7,2.8,2.8c1.4,1.1,2.8,1.7,6.6,1.7c6.7,0,49.9-0.1,50.3-0.1c8.8,0,17.6,0.9,23.4,7.2
				c3,0.3,12.6,1.6,20.5,5.4c4.6,2.2,7.7,5.5,8.9,9.6c0.4,1.2,0.5,2.5,0.5,3.8c0,3.8-1.4,8.1-4.3,12.5c-5.9,9.3-11.4,12.6-11.7,12.8
				c-3.4,2.4-6.7,2.5-6.7,2.5s2.9-3.4,3.9-6.7C323.6,553.8,320,553.4,320,553.4"/>
			<path fill="#2E557A" d="M330.9,524.8c-9-4.3-20.6-5.3-20.6-5.3c-5.1-6.2-13.6-7.1-22.3-7.1c0,0-43.5,0.1-50.3,0.1
				c-7.9,0-8.7-3.1-8.7-3.1l-10.6,19.8h27.4c8.6,0,9.1-0.9,14.8-5.1c6.1-4.5,10.9-6.1,16.7-6.1c5.7,0,9.6,1.3,16,4.1
				c6.4,2.8,9.8,4.2,13.6,2.6c0,0-3,4-12.1,0.2c-9.1-3.8-11.5-4.6-17-4.6c-5.4,0-11.7,2.6-19.5,10.4l9.3,7.5c0,0-2.1,3.3-3.6,5.4
				c-1.4,2.1-1.3,3.5-0.5,4.6c0.8,1,1.7,1.5,5.1,1.5c3.4,0,31-0.1,34.1-0.1c2.7,0,11.1,0.3,17.6,1.6c8.7,1.7,3.1,9.1,3.1,9.1
				s5.8-3.8,11.6-12.9C341.5,537.4,339.9,529.1,330.9,524.8"/>
			<path fill="#FFFFFF" d="M314.9,526.4c-4.1-1-0.6-3.4-0.6-3.4c-5.9,1.2-8.1,6-8.6,7.4c-0.1,0.2-0.2,0.4-0.3,0.6
				c-3.3,6.6-6.2,6.2-11.8,6.2h-9.6c-7.7,0-11.4,3.8-15.1,10.4h4.4c4-6,7-7.6,14.9-8c18.1,0,32.5,5.2,40.1,9.2
				C339.2,530.6,323.2,527.5,314.9,526.4"/>
			<path fill="#FFFFFF" d="M281.3,547.5c2-3.1,6.1-4.1,12.8-3.7c16.4,0.9,25.8,4.1,33.1,6.9c-9-5.3-25.1-9.1-36.2-9
				c-5.5,0-10.2,1-13,5.9H281.3z"/>
			<path fill="#FFFFFF" d="M298.8,529.5c-2.1,3-4.9,4-12.9,3.4c-9.3-0.6-6.9-4.5-5.8-6.5c0,0,0,0,0,0c0.3-0.5,0.8-1.5,1.3-2.4
				c-7.1-0.4-12.3,5-12.3,5c5.3,5.2,8.8,5.8,13.6,5.8h8.9c8.3,0,10.3-3.7,11.1-5.4C301.4,529.6,300.1,529.6,298.8,529.5"/>
			<path fill="#77C25F" d="M294.8,528.6c-0.2-0.1-0.3-0.1-0.5-0.2c-0.8,0.9-2.2,1.4-3.6,1.2c-1.8-0.2-2.8-1.5-2.3-2.9
				c0.1-0.2,0.2-0.4,0.3-0.6c-0.9-0.4-1.8-0.7-2.7-1c-1.8,3-2.9,5,3.5,5.5c4,0.3,5.1-0.3,5.9-1.8C295.2,528.7,295,528.7,294.8,528.6
				"/>
			<path fill="#B3B5B8" d="M262.7,539.9c-3.3,5.7-4.6,7-2.3,9.8h-36.6c-5.4,0-8.9-0.2-10.7-3c-1.8-2.7-1.4-5.3,3.3-13.8h31.1
				c5.4,0,6.7,0.3,9.6,2.6C260.1,537.7,262.7,539.9,262.7,539.9"/>
		</g>
	</g>
	<path fill="#2E557A" d="M171.2,396.6c2.5,0,5.9,1.8,7.9,9c2.7,9.5,3.6,15.8,4.3,19.4c0.1,0.3,0.1,0.6,0.3,1c0,0,0,0,0,0
		c0.8,2.9,2.7,8.3,4.1,12.1l0.1,0l6.5,17.5l8.8,19.3l-17.2,0.2c-8.9-22.1-16.1-37.1-18-44c-2.4-8.6-4.6-31.4-11.9-34.6l0,0
		c7.3-3.2,9.5-25.9,11.9-34.6c2-6.9,9.1-22,18-44.1l17.3,0.2l-8.8,19.3l-6.5,17.5l-0.1,0c-1.4,3.8-3.3,9.2-4.1,12.1c0,0,0,0,0,0
		c-0.1,0.4-0.2,0.8-0.3,1c-0.7,3.6-1.7,9.9-4.3,19.4C177,394.9,173.6,396.6,171.2,396.6L171.2,396.6z"/>
	<path fill="#B3B5B8" d="M145.8,396.6c1.1,0,1.8-0.1,2.3-0.1c2.1-0.2,9.4-0.7,11.9-9.1c2.5-8.8,4.4-18.3,5-22
		c1-6,9.7-27.7,10.6-29.3c1.3-2.5,7.1-18,7.1-18l-17-0.3l-6.9,14.1c-0.3,0.5-5.8,10.5-7.3,14.8c-1.6,4.7-4.9,26.8-6.5,33.8
		c-1.6,7-6.2,14.8-9.9,16.1"/>
	<path fill="#B3B5B8" d="M145.8,396.6c1.1,0,1.8,0.1,2.3,0.1c2.1,0.2,9.4,0.7,11.9,9.1c2.5,8.8,4.4,18.3,5,22
		c1,6,9.7,27.7,10.6,29.3c1.3,2.5,7.4,18.1,7.4,18.1l-17.2,0.4l-7-14.3c-0.3-0.5-5.8-10.5-7.3-14.8c-1.6-4.7-4.9-26.8-6.5-33.8
		c-1.6-7-6.2-14.8-9.9-16.1"/>
	
		<pattern  id="SVGID_15_" xlink:href="#Unnamed_Pattern_51" patternTransform="matrix(0 4.792300e-02 4.792300e-02 0 -7279.7373 -5826.6855)">
	</pattern>
	<polygon fill="url(#SVGID_15_)" points="393.1,415.9 177.1,396.6 393,378.3 	"/>
	<path fill="#DBB896" d="M295.9,594.3c-6,0-10.9-4.9-10.9-10.9c0-6,4.9-10.9,10.9-10.9c6,0,10.9,4.9,10.9,10.9
		C306.8,589.5,301.9,594.3,295.9,594.3"/>
	<path fill="#DBB896" d="M295.9,220.5c-6,0-10.9-4.9-10.9-10.9c0-6,4.9-10.8,10.9-10.8c6,0,10.9,4.9,10.9,10.8
		C306.8,215.6,301.9,220.5,295.9,220.5"/>
	<rect x="393.1" y="378.7" fill="none" stroke="#231F20" width="13.7" height="36.9"/>
	<rect x="393.1" y="378.7" fill="#FFFFFF" width="13.7" height="36.9"/>
	<path fill="#1A2E5A" d="M401.5,395.1v-1.2l-2.6,1.4v1.3l0.3-0.2l1.4,0.8v0.4l0.4-0.2l0.5,0.3v-1l-0.4-0.2v-1L401.5,395.1z
		 M400.6,396.1l-0.5-0.3l0.5-0.3V396.1z M401.6,411.5c0,1.1-0.2,1.6-0.2,1.6l0.2,0.5h-1.3c0,0,0.6-0.8,0.6-1.9
		c0-0.3-0.1-0.5-0.2-0.5c-0.4,0-0.2,2.3-1.5,2.3c-0.6,0-1.1-0.8-1.1-1.8c0-0.9,0.2-1.4,0.2-1.4l-0.2-0.5h1.1c0,0-0.4,0.6-0.4,1.7
		c0,0.3,0.1,0.5,0.2,0.5c0.4,0,0.2-2.5,1.5-2.5C401.2,409.5,401.6,410.5,401.6,411.5 M399.4,407.7h0.5V406h0.6v1.7h0.5V406h0.6v3.2
		l-0.5-0.3h-1.7l-0.4,0.3V406h0.6V407.7z M398.9,397.9h2.6v1.2h-1v1h1v1.5l-0.5-0.3h-1.7l-0.4,0.3v-1.5h1v-1h-1V397.9z M401.6,382.3
		c0,0.9-0.2,1.2-0.2,1.2l0.2,0.4h-1c0,0,0.5-0.6,0.5-1.5c0-0.3-0.1-0.4-0.2-0.4c-0.3,0-0.2,1.8-1.2,1.8c-0.4,0-0.8-0.6-0.8-1.4
		c0-0.7,0.1-1.1,0.1-1.1l-0.1-0.4h0.9c0,0-0.4,0.5-0.4,1.3c0,0.2,0.1,0.4,0.2,0.4c0.3,0,0.2-1.9,1.2-1.9
		C401.2,380.8,401.6,381.6,401.6,382.3 M401.5,403.2v-1.3l-2.6,1.4v1.3l0.3-0.1l1.4,0.7v0.4l0.4-0.2l0.5,0.3v-1l-0.4-0.2v-1
		L401.5,403.2z M400.6,404.2l-0.5-0.3l0.5-0.3V404.2z M401.1,389.8l0.4-0.2v1.1l-1.4,0.7l1.1,0.5l0.4-0.2v1.2l-2.6,1.2v-1.1l1.4-0.7
		l-1.1-0.5l-0.4,0.2v-1.2l1.4-0.7l-1.4-0.7v-0.8L401.1,389.8z M400.5,386.5l0.3,0.3h0.8v1.5l-0.5-0.3h-1.7l-0.4,0.3v-1.5h1.2l-0.8-1
		l-0.4,0.2v-1.4l0.9,1.1l1.7-1.3v1.3L400.5,386.5z"/>
	<polyline fill="none" stroke="#231F20" stroke-width="2" points="509.2,475.5 86.4,475.5 241.9,475.6 	"/>
	<line fill="none" stroke="#231F20" stroke-width="2" x1="86.4" y1="317.5" x2="509.2" y2="317.5"/>
	<g>
		<path fill="#231F20" d="M227.8,239.5c0.4,1.9,0.7,3.8,0.7,5.8c0,13.7-11.1,24.8-24.8,24.8c-12,0-21.9-8.4-24.3-19.7
			c0,0,2.1-34.3-27.9-44.3s-58.7,27-58.7,27l-10.7-32.7l31.3-40.8h40c0,0,26.3-0.5,49.7,26.2C226.5,212.5,227.8,239.5,227.8,239.5"
			/>
		<path fill="none" stroke="#231F20" stroke-width="4" d="M227.8,239.5c0.4,1.9,0.7,3.8,0.7,5.8c0,13.7-11.1,24.8-24.8,24.8
			c-12,0-21.9-8.4-24.3-19.7c0,0,2.1-34.3-27.9-44.3s-58.7,27-58.7,27l-10.7-32.7l31.3-40.8h40c0,0,26.3-0.5,49.7,26.2
			C226.5,212.5,227.8,239.5,227.8,239.5z"/>
		<path fill="#231F20" d="M140.5,212.3l-27-53.3c0,0-29.9,7.1-49,30.2c-27,32.7-29.7,69.9-1.5,82.5c21.5,9.6,38.4-7.3,44.5-21.6
			C119,222.8,140.5,212.3,140.5,212.3"/>
		<path fill="none" stroke="#231F20" stroke-width="4" d="M140.5,212.3l-27-53.3c0,0-29.9,7.1-49,30.2c-27,32.7-29.7,69.9-1.5,82.5
			c21.5,9.6,38.4-7.3,44.5-21.6C119,222.8,140.5,212.3,140.5,212.3z"/>
	</g>
	<g>
		<defs>
			<path id="SVGID_16_" d="M92.9,233.1c0,0,28.7-37,58.7-27s27.9,44.3,27.9,44.3c2.4,11.3,12.3,19.7,24.3,19.7
				c13.7,0,24.8-11.1,24.8-24.8c0-2-0.2-4-0.7-5.8c0,0-1.3-27-24.6-53.7c-23.3-26.7-49.7-26.2-49.7-26.2h-40l-31.3,40.8L92.9,233.1z
				"/>
		</defs>
		<clipPath id="SVGID_17_">
			<use xlink:href="#SVGID_16_"  overflow="visible"/>
		</clipPath>
		<path clip-path="url(#SVGID_17_)" fill="#DBB896" d="M130.2,212.8l-23-56.3l59.7-0.7c0,0,35,11.7,52.3,39.3
			c17.3,27.7,19.7,50.3,8.7,69.3c-11,19-38,12-46.3,3s-10.3-19.3-11-21c-0.7-1.7-3.7-23-3.7-23l-20.3-7.7l-12.3,4L130.2,212.8z"/>
		<path clip-path="url(#SVGID_17_)" fill="none" stroke="#000000" stroke-width="2" d="M292.4,614.9c-6,0-10.9-4.9-10.9-10.9
			c0-6,4.9-10.9,10.9-10.9c6,0,10.9,4.9,10.9,10.9C303.2,610.1,298.3,614.9,292.4,614.9"/>
		<path clip-path="url(#SVGID_17_)" fill="none" stroke="#000000" stroke-width="2" d="M292.4,241.1c-6,0-10.9-4.9-10.9-10.9
			c0-6,4.9-10.8,10.9-10.8c6,0,10.9,4.9,10.9,10.8C303.2,236.2,298.3,241.1,292.4,241.1"/>
		<path clip-path="url(#SVGID_17_)" fill="#315679" d="M150.8,158.6l0.1,60.8l-55.5-21.9c0,0-28-24-33.6-56.2
			c-5.6-32.2,0.8-54,18.1-67.5c17.4-13.5,39.7,3.2,44,14.7c4.3,11.5,2.3,21.8,2.3,23.6c0,1.8-5.3,22.7-5.3,22.7l15.9,14.8l12.9,0.9
			L150.8,158.6z"/>
		<path clip-path="url(#SVGID_17_)" fill="none" stroke="#9C6750" d="M180.5,254.8l27.3-2.3c0,0,7.3-2.7,6-9.3
			c-1.3-6.7-8.3-7.3-8.3-7.3l-8.7,1c0,0-1-5-7-7s-12.7,3-12.7,3"/>
		<path clip-path="url(#SVGID_17_)" fill="none" stroke="#9C6750" d="M202.2,269.5c0,0,6.3-8.3-3-16.3"/>
		<path clip-path="url(#SVGID_17_)" fill="none" stroke="#9C6750" d="M211.2,268.8c0,0,6.3-8.3-3-16.3"/>
		<path clip-path="url(#SVGID_17_)" fill="none" stroke="#9C6750" d="M219.5,263.4c0,0,7-9.9-5.7-16.2"/>
		<polygon clip-path="url(#SVGID_17_)" fill="#315679" points="169.9,229.5 221.9,200.5 206.5,179.8 163.9,220.8 		"/>
	</g>
	<g>
		<path fill="#FFFFFF" d="M140.5,212.3l-27-53.3c0,0-29.9,7.1-49,30.2c-27,32.7-29.7,69.9-1.5,82.5c21.5,9.6,38.4-7.3,44.5-21.6
			C119,222.8,140.5,212.3,140.5,212.3"/>
		<path fill="#231F20" d="M227.8,77.4c0.4-1.9,0.7-3.8,0.7-5.8c0-13.7-11.1-24.8-24.8-24.8c-12,0-21.9,8.4-24.3,19.7
			c0,0,2.1,34.3-27.9,44.3s-58.7-27-58.7-27l-10.7,32.7l31.3,40.8h40c0,0,26.3,0.5,49.7-26.2C226.5,104.4,227.8,77.4,227.8,77.4"/>
		<path fill="none" stroke="#231F20" stroke-width="4" d="M227.8,77.4c0.4-1.9,0.7-3.8,0.7-5.8c0-13.7-11.1-24.8-24.8-24.8
			c-12,0-21.9,8.4-24.3,19.7c0,0,2.1,34.3-27.9,44.3s-58.7-27-58.7-27l-10.7,32.7l31.3,40.8h40c0,0,26.3,0.5,49.7-26.2
			C226.5,104.4,227.8,77.4,227.8,77.4z"/>
		<path fill="#231F20" d="M140.5,104.6l-27,53.3c0,0-29.9-7.1-49-30.2c-27-32.7-29.7-69.9-1.5-82.5c21.5-9.6,38.4,7.3,44.5,21.6
			C119,94.1,140.5,104.6,140.5,104.6"/>
		<path fill="none" stroke="#231F20" stroke-width="4" d="M140.5,104.6l-27,53.3c0,0-29.9-7.1-49-30.2c-27-32.7-29.7-69.9-1.5-82.5
			c21.5-9.6,38.4,7.3,44.5,21.6C119,94.1,140.5,104.6,140.5,104.6z"/>
	</g>
	<g>
		<defs>
			<path id="SVGID_18_" d="M113.5,157.3h40c0,0,26.3,0.5,49.7-26.2c23.3-26.7,24.6-53.7,24.6-53.7c0.4-1.9,0.7-3.8,0.7-5.8
				c0-13.7-11.1-24.8-24.8-24.8c-12,0-21.9,8.4-24.3,19.7c0,0,2.1,34.3-27.9,44.3s-58.7-27-58.7-27l-10.7,32.7L113.5,157.3z"/>
		</defs>
		<clipPath id="SVGID_19_">
			<use xlink:href="#SVGID_18_"  overflow="visible"/>
		</clipPath>
		<path clip-path="url(#SVGID_19_)" fill="#DBB896" d="M130.2,104.1l-23,56.3l59.7,0.7c0,0,35-11.7,52.3-39.3
			c17.3-27.7,19.7-50.3,8.7-69.3s-38-12-46.3-3s-10.3,19.3-11,21c-0.7,1.7-3.7,23-3.7,23l-20.3,7.7l-12.3-4L130.2,104.1z"/>
		<path clip-path="url(#SVGID_19_)" fill="#315679" d="M150.8,158.3l0.1-60.8l-55.5,21.9c0,0-28,24-33.6,56.2
			c-5.6,32.2,0.8,54,18.1,67.5c17.4,13.5,39.7-3.2,44-14.7c4.3-11.5,2.3-21.8,2.3-23.6c0-1.8-5.3-22.7-5.3-22.7l15.9-14.8l12.9-0.9
			L150.8,158.3z"/>
		<path clip-path="url(#SVGID_19_)" fill="none" stroke="#9C6750" d="M194.2,44.5c0,0,9.6,4.3,5.2,15.8"/>
		<path clip-path="url(#SVGID_19_)" fill="none" stroke="#9C6750" d="M207.2,44.7c0,0,9.6,4.3,5.2,15.8"/>
		<path clip-path="url(#SVGID_19_)" fill="none" stroke="#9C6750" d="M217.2,50.2c0,0,9.6,4.3,5.2,15.8"/>
		<polygon clip-path="url(#SVGID_19_)" fill="#315679" points="169.9,87.4 221.9,116.4 206.5,137.1 163.9,96.1 		"/>
	</g>
	<g>
		<path fill="#FFFFFF" d="M140.5,104.6l-27,53.3c0,0-29.9-7.1-49-30.2c-27-32.7-29.7-69.9-1.5-82.5c21.5-9.6,38.4,7.3,44.5,21.6
			C119,94.1,140.5,104.6,140.5,104.6"/>
		<path fill="#231F20" d="M569.8,78.4c0.4-1.9,0.7-3.8,0.7-5.8c0-13.7-11.1-24.8-24.8-24.8c-12,0-21.9,8.4-24.3,19.7
			c0,0,2.1,34.3-27.9,44.3c-30,10-58.7-27-58.7-27l-10.7,32.7l31.3,40.8h40c0,0,26.3,0.5,49.7-26.2
			C568.5,105.4,569.8,78.4,569.8,78.4"/>
		<path fill="none" stroke="#231F20" stroke-width="4" d="M569.8,78.4c0.4-1.9,0.7-3.8,0.7-5.8c0-13.7-11.1-24.8-24.8-24.8
			c-12,0-21.9,8.4-24.3,19.7c0,0,2.1,34.3-27.9,44.3c-30,10-58.7-27-58.7-27l-10.7,32.7l31.3,40.8h40c0,0,26.3,0.5,49.7-26.2
			C568.5,105.4,569.8,78.4,569.8,78.4z"/>
		<path fill="#231F20" d="M482.5,105.6l-27,53.3c0,0-29.9-7.1-49-30.2c-27-32.7-29.7-69.9-1.5-82.5c21.5-9.6,38.4,7.3,44.5,21.6
			C461,95.1,482.5,105.6,482.5,105.6"/>
		<path fill="none" stroke="#231F20" stroke-width="4" d="M482.5,105.6l-27,53.3c0,0-29.9-7.1-49-30.2c-27-32.7-29.7-69.9-1.5-82.5
			c21.5-9.6,38.4,7.3,44.5,21.6C461,95.1,482.5,105.6,482.5,105.6z"/>
	</g>
	<g>
		<defs>
			<path id="SVGID_20_" d="M455.5,158.3h40c0,0,26.3,0.5,49.7-26.2c23.3-26.7,24.6-53.7,24.6-53.7c0.4-1.9,0.7-3.8,0.7-5.8
				c0-13.7-11.1-24.8-24.8-24.8c-12,0-21.9,8.4-24.3,19.7c0,0,2.1,34.3-27.9,44.3c-30,10-58.7-27-58.7-27l-10.7,32.7L455.5,158.3z"
				/>
		</defs>
		<clipPath id="SVGID_21_">
			<use xlink:href="#SVGID_20_"  overflow="visible"/>
		</clipPath>
		<path clip-path="url(#SVGID_21_)" fill="#DBB896" d="M472.2,105.1l-23,56.3l59.7,0.7c0,0,35-11.7,52.3-39.3
			c17.3-27.7,19.7-50.3,8.7-69.3s-38-12-46.3-3c-8.3,9-10.3,19.3-11,21c-0.7,1.7-3.7,23-3.7,23l-20.3,7.7l-12.3-4L472.2,105.1z"/>
		<path clip-path="url(#SVGID_21_)" fill="#2E557A" d="M492.8,159.3l0.1-60.8l-55.5,21.9c0,0-28,24-33.6,56.2
			c-5.6,32.2,0.8,54,18.1,67.5c17.4,13.5,39.7-3.2,44-14.7c4.3-11.5,2.3-21.8,2.3-23.6c0-1.8-5.3-22.7-5.3-22.7l15.9-14.8l12.9-0.9
			L492.8,159.3z"/>
		<path clip-path="url(#SVGID_21_)" fill="none" stroke="#9C6750" d="M522.5,63.1l27.3,2.3c0,0,7.3,2.7,6,9.3
			c-1.3,6.7-8.3,7.3-8.3,7.3l-8.7-1c0,0-1,5-7,7s-12.7-3-12.7-3"/>
		<path clip-path="url(#SVGID_21_)" fill="none" stroke="#9C6750" d="M544.2,48.4c0,0,6.3,8.3-3,16.3"/>
		<path clip-path="url(#SVGID_21_)" fill="none" stroke="#9C6750" d="M553.2,49.1c0,0,6.3,8.3-3,16.3"/>
		<path clip-path="url(#SVGID_21_)" fill="none" stroke="#9C6750" d="M561.5,54.5c0,0,6.1,10-6.7,16.3"/>
		<polygon clip-path="url(#SVGID_21_)" fill="#315679" points="511.9,88.4 563.9,117.4 548.5,138.1 505.9,97.1 		"/>
	</g>
	<g>
		<path fill="#FFFFFF" d="M482.5,105.6l-27,53.3c0,0-29.9-7.1-49-30.2c-27-32.7-29.7-69.9-1.5-82.5c21.5-9.6,38.4,7.3,44.5,21.6
			C461,95.1,482.5,105.6,482.5,105.6"/>
		<path fill="#231F20" d="M569.8,240.5c0.4,1.9,0.7,3.8,0.7,5.8c0,13.7-11.1,24.8-24.8,24.8c-12,0-21.9-8.4-24.3-19.7
			c0,0,2.1-34.3-27.9-44.3c-30-10-58.7,27-58.7,27l-10.7-32.7l31.3-40.8h40c0,0,26.3-0.5,49.7,26.2
			C568.5,213.5,569.8,240.5,569.8,240.5"/>
		<path fill="none" stroke="#231F20" stroke-width="4" d="M569.8,240.5c0.4,1.9,0.7,3.8,0.7,5.8c0,13.7-11.1,24.8-24.8,24.8
			c-12,0-21.9-8.4-24.3-19.7c0,0,2.1-34.3-27.9-44.3c-30-10-58.7,27-58.7,27l-10.7-32.7l31.3-40.8h40c0,0,26.3-0.5,49.7,26.2
			C568.5,213.5,569.8,240.5,569.8,240.5z"/>
		<path fill="#231F20" d="M482.5,213.3l-27-53.3c0,0-29.9,7.1-49,30.2c-27,32.7-29.7,69.9-1.5,82.5c21.5,9.6,38.4-7.3,44.5-21.6
			C461,223.8,482.5,213.3,482.5,213.3"/>
		<path fill="none" stroke="#231F20" stroke-width="4" d="M482.5,213.3l-27-53.3c0,0-29.9,7.1-49,30.2c-27,32.7-29.7,69.9-1.5,82.5
			c21.5,9.6,38.4-7.3,44.5-21.6C461,223.8,482.5,213.3,482.5,213.3z"/>
	</g>
	<g>
		<defs>
			<path id="SVGID_22_" d="M434.9,234.1c0,0,28.7-37,58.7-27c30,10,27.9,44.3,27.9,44.3c2.4,11.3,12.3,19.7,24.3,19.7
				c13.7,0,24.8-11.1,24.8-24.8c0-2-0.2-4-0.7-5.8c0,0-1.3-27-24.6-53.7c-23.3-26.7-49.7-26.2-49.7-26.2h-40l-31.3,40.8L434.9,234.1
				z"/>
		</defs>
		<clipPath id="SVGID_23_">
			<use xlink:href="#SVGID_22_"  overflow="visible"/>
		</clipPath>
		<path clip-path="url(#SVGID_23_)" fill="#DBB896" d="M472.2,213.8l-23-56.3l59.7-0.7c0,0,35,11.7,52.3,39.3
			c17.3,27.7,19.7,50.3,8.7,69.3c-11,19-38,12-46.3,3c-8.3-9-10.3-19.3-11-21c-0.7-1.7-3.7-23-3.7-23l-20.3-7.7l-12.3,4L472.2,213.8
			z"/>
		<path clip-path="url(#SVGID_23_)" fill="#2E557A" d="M492.8,159.6l0.1,60.8l-55.5-21.9c0,0-28-24-33.6-56.2
			c-5.6-32.2,0.8-54,18.1-67.5c17.4-13.5,39.7,3.2,44,14.7c4.3,11.5,2.3,21.8,2.3,23.6c0,1.8-5.3,22.7-5.3,22.7l15.9,14.8l12.9,0.9
			L492.8,159.6z"/>
		<path clip-path="url(#SVGID_23_)" fill="none" stroke="#9C6750" d="M536.2,273.4c0,0,9.6-4.3,5.2-15.8"/>
		<path clip-path="url(#SVGID_23_)" fill="none" stroke="#9C6750" d="M549.2,273.2c0,0,9.6-4.3,5.2-15.8"/>
		<path clip-path="url(#SVGID_23_)" fill="none" stroke="#9C6750" d="M559.2,267.7c0,0,9.6-4.3,5.2-15.8"/>
		<polygon clip-path="url(#SVGID_23_)" fill="#315679" points="511.9,230.5 563.9,201.5 548.5,180.8 505.9,221.8 		"/>
	</g>
	<g>
		<path fill="#FFFFFF" d="M482.5,213.3l-27-53.3c0,0-29.9,7.1-49,30.2c-27,32.7-29.7,69.9-1.5,82.5c21.5,9.6,38.4-7.3,44.5-21.6
			C461,223.8,482.5,213.3,482.5,213.3"/>
		<line fill="none" stroke="#A6A8AB" stroke-dasharray="3.946,3.946" x1="45.5" y1="218.1" x2="110.5" y2="244.1"/>
		<line fill="none" stroke="#231F20" stroke-width="0.6" x1="115" y1="246.7" x2="123.6" y2="250.1"/>
		<line fill="none" stroke="#231F20" stroke-width="0.6" x1="91.3" y1="158.8" x2="62.2" y2="158.8"/>
		<line fill="none" stroke="#A6A8AB" stroke-dasharray="3.946,3.946" x1="387.5" y1="99.8" x2="452.5" y2="73.8"/>
		<line fill="none" stroke="#A6A8AB" stroke-dasharray="3.946,3.946" x1="387.5" y1="219.1" x2="452.5" y2="245.1"/>
		<line fill="none" stroke="#A6A8AB" stroke-dasharray="3.946,3.946" x1="435.2" y1="159.4" x2="532.2" y2="159.4"/>
		<line fill="none" stroke="#231F20" stroke-width="0.6" x1="433.3" y1="159.1" x2="403.1" y2="159.1"/>
		<line fill="none" stroke="#A6A8AB" stroke-dasharray="3.946,3.946" x1="93.2" y1="158.5" x2="190.2" y2="158.5"/>
	</g>
	<g>
		<text transform="matrix(0 -1 1 0 59.436 171.4214)" font-family="'SunST-Medium'" font-size="11">Score</text>
	</g>
	<g>
		<text transform="matrix(0 -1 1 0 133.558 260.3159)" font-family="'SunST-Medium'" font-size="11">Tab</text>
	</g>
	<g>
		<text transform="matrix(0 -1 1 0 133.558 75.061)" font-family="'SunST-Medium'" font-size="11">Tab</text>
	</g>
	<g>
		<text transform="matrix(0 -1 1 0 205.5077 167.8931)" font-family="'SunST-Medium'" font-size="11">Fold</text>
	</g>
	<g>
		<text transform="matrix(0 -1 1 0 398.8168 173.7212)" font-family="'SunST-Medium'" font-size="11">Score</text>
	</g>
	<g>
		<g>
			<text transform="matrix(0 -1 1 0 257.4974 107.3271)" font-family="'SunST-ExtraBold'" font-size="15">RIGHT ARM</text>
		</g>
	</g>
	<g>
		<g>
			<text transform="matrix(0 -1 1 0 368.082 107.3271)" font-family="'SunST-ExtraBold'" font-size="15">LEFT ARM</text>
		</g>
	</g>
	<line fill="none" stroke="#A6A8AB" stroke-dasharray="3,3.946" x1="45.5" y1="98.8" x2="110.5" y2="72.8"/>
	<line fill="none" stroke="#231F20" stroke-width="0.6" x1="114.8" y1="70.9" x2="121.9" y2="68.1"/>
	<line fill="none" stroke="#231F20" stroke-width="0.6" x1="457.7" y1="248.1" x2="466.3" y2="251.5"/>
	<g>
		<text transform="matrix(0 -1 1 0 476.269 261.7251)" font-family="'SunST-Medium'" font-size="11">Tab</text>
	</g>
	<g>
		<text transform="matrix(0 -1 1 0 476.269 76.4702)" font-family="'SunST-Medium'" font-size="11">Tab</text>
	</g>
	<line fill="none" stroke="#231F20" stroke-width="0.6" x1="457.6" y1="72.3" x2="464.6" y2="69.5"/>
	<path fill="#315679" d="M77.5,134.6c0,0-4.2-6.3-3.4-14.2c0.5-5.2,1-7.1,1.9-12.7c0.9-5.9,1.2-17-0.4-20.4l12.3-4.9
		c0,0,3.6,12.8,0.9,24c-3.3,13.7-1.6,22.2,4.2,27.5l-10.7,7.2L77.5,134.6z"/>
	<path fill="#315679" d="M69.8,133.3l0-0.5c0,0-3-14.1-0.6-21.6c3.1-9.6,1.1-21.8,1.1-21.8l-23.3,9.5c0,0,5.2,11.2,9,17.5
		C60.5,123.8,68.6,132,69.8,133.3z"/>
	<path fill="#315679" d="M77.4,182.2c0,0-4.2,6.3-3.4,14.2c0.5,5.2,1,7.1,1.9,12.7c0.9,5.9,1.2,17-0.4,20.4l12.3,4.9
		c0,0,3.6-12.8,0.9-24c-3.3-13.7-1.6-22.2,4.2-27.5l-10.7-7.2L77.4,182.2z"/>
	<path fill="#315679" d="M69.6,183.5l0,0.5c0,0-3,14.1-0.6,21.6c3.1,9.6,1.1,21.8,1.1,21.8l-23.3-9.5c0,0,5.2-11.2,9-17.5
		C60.3,193,68.4,184.8,69.6,183.5z"/>
	<path fill="#2E557A" d="M419.6,135.3c0,0-4.2-6.3-3.4-14.2c0.5-5.2,1-7.1,1.9-12.7c0.9-5.9,1.2-17-0.4-20.4l12.3-4.9
		c0,0,3.6,12.8,0.9,24c-3.3,13.7-1.6,22.2,4.2,27.5l-10.7,7.2L419.6,135.3z"/>
	<path fill="#2E557A" d="M411.9,134.4l0-0.9c0,0-3-14.1-0.6-21.6c3.1-9.6,1.1-21.8,1.1-21.8L389,99.6c0,0,4.8,12,8.7,18.3
		C402.2,125.4,410.7,133.1,411.9,134.4z"/>
	<path fill="#2E557A" d="M419.5,183.5c0,0-4.2,6.3-3.4,14.2c0.5,5.2,1,7.1,1.9,12.7c0.9,5.9,1.2,17-0.4,20.4l12.3,4.9
		c0,0,3.6-12.8,0.9-24c-3.3-13.7-1.6-22.2,4.2-27.5l-10.7-7.2L419.5,183.5z"/>
	<path fill="#2E557A" d="M411.4,183.4l0.3,1.9c0,0-3,14.1-0.6,21.6c3.1,9.6,1.1,21.8,1.1,21.8l-23.3-9.5c0,0,5.2-11.2,9-17.5
		C402.5,194.2,410.3,184.7,411.4,183.4z"/>
	<g>
		<text transform="matrix(0 -1 1 0 549.2135 171.3179)" font-family="'SunST-Medium'" font-size="11">Fold</text>
	</g>
	<rect x="442.7" y="362.1" fill="none" width="112.4" height="75"/>
	<text transform="matrix(1 0 0 1 442.6634 369.1808)"><tspan x="0" y="0" font-family="'SunST-Bold'" font-size="10">NOTE:</tspan><tspan x="25.3" y="0" font-family="'SunST-Medium'" font-size="10"> </tspan><tspan x="27.7" y="0" font-family="'SunST-Regular'" font-size="10">To make the figure </tspan><tspan x="0" y="11" font-family="'SunST-Regular'" font-size="10">sturdier, you may paste </tspan><tspan x="0" y="22" font-family="'SunST-Regular'" font-size="10">pieces on to heavy paper </tspan><tspan x="0" y="33" font-family="'SunST-Regular'" font-size="10">before trimming or print </tspan><tspan x="0" y="44" font-family="'SunST-Regular'" font-size="10">our online version on </tspan><tspan x="0" y="55" font-family="'SunST-Regular'" font-size="10">heavier stock.</tspan></text>
	<g>
		<g>
			<path d="M52.8,560.8c0,3.9-3.2,7.1-7.1,7.1c-3.9,0-7.1-3.2-7.1-7.1c0-3.9,3.2-7.1,7.1-7.1C49.6,553.6,52.8,556.8,52.8,560.8"/>
			<g>
				<text transform="matrix(1 0 0 1 43.2593 563.8451)" fill="#FFFFFF" font-family="'SunST-ExtraBold'" font-size="9.6">2</text>
			</g>
		</g>
		<g>
			<path d="M51.9,534.6c0,3.9-3.2,7.1-7.1,7.1c-3.9,0-7.1-3.2-7.1-7.1c0-3.9,3.2-7.1,7.1-7.1C48.7,527.5,51.9,530.7,51.9,534.6"/>
			<g>
				<text transform="matrix(1 0 0 1 42.3262 537.6771)" fill="#FFFFFF" font-family="'SunST-ExtraBold'" font-size="9.6">1</text>
			</g>
		</g>
		<g>
			<path d="M52.4,588.4c0,3.9-3.2,7.1-7.1,7.1c-3.9,0-7.1-3.2-7.1-7.1c0-3.9,3.2-7.1,7.1-7.1C49.2,581.3,52.4,584.4,52.4,588.4"/>
			<g>
				<text transform="matrix(1 0 0 1 42.8355 591.4594)" fill="#FFFFFF" font-family="'SunST-ExtraBold'" font-size="9.6">3</text>
			</g>
		</g>
		<g>
			<path d="M52.4,623c0,3.9-3.2,7.1-7.1,7.1c-3.9,0-7.1-3.2-7.1-7.1c0-3.9,3.2-7.1,7.1-7.1C49.2,615.9,52.4,619.1,52.4,623"/>
			<g>
				<text transform="matrix(1 0 0 1 42.8355 626.0785)" fill="#FFFFFF" font-family="'SunST-ExtraBold'" font-size="9.6">4</text>
			</g>
		</g>
		<g>
			<path d="M52.5,642.9c0,3.9-3.2,7.1-7.1,7.1c-3.9,0-7.1-3.2-7.1-7.1c0-3.9,3.2-7.1,7.1-7.1C49.3,635.8,52.5,639,52.5,642.9"/>
			<g>
				<text transform="matrix(1 0 0 1 42.9927 646.0135)" fill="#FFFFFF" font-family="'SunST-ExtraBold'" font-size="9.6">5</text>
			</g>
		</g>
		<g>
			<path d="M52.7,682.5c0,3.9-3.2,7.1-7.1,7.1c-3.9,0-7.1-3.2-7.1-7.1c0-3.9,3.2-7.1,7.1-7.1C49.5,675.3,52.7,678.5,52.7,682.5"/>
			<g>
				<text transform="matrix(1 0 0 1 43.126 685.5331)" fill="#FFFFFF" font-family="'SunST-ExtraBold'" font-size="9.6">6</text>
			</g>
		</g>
		<g>
			<path d="M52.4,719.6c0,3.9-3.2,7.1-7.1,7.1c-3.9,0-7.1-3.2-7.1-7.1s3.2-7.1,7.1-7.1C49.2,712.5,52.4,715.6,52.4,719.6"/>
			<g>
				<text transform="matrix(1 0 0 1 42.8355 722.6503)" fill="#FFFFFF" font-family="'SunST-ExtraBold'" font-size="9.6">7</text>
			</g>
		</g>
		<polygon fill="none" points="245,732.2 60,732.4 61.2,516.5 246.2,516.3 		"/>
		<text transform="matrix(1 0 0 1 61.1788 534.3436)"><tspan x="0" y="0" font-family="'SunST-Regular'" font-size="10">Trim out all pieces with scissors</tspan><tspan x="-0.1" y="11" font-family="'SunST-Regular'" font-size="10">or a hobby knife.</tspan><tspan x="-0.2" y="27" font-family="'SunST-Regular'" font-size="10">Assemble the main figure by folding</tspan><tspan x="-0.2" y="38" font-family="'SunST-Regular'" font-size="10">tabs and along lines.</tspan><tspan x="-0.3" y="54" font-family="'SunST-Regular'" font-size="10">Cut slits for arms (dotted lines on</tspan><tspan x="-0.4" y="65" font-family="'SunST-Regular'" font-size="10">figure’s sides). Fold arms in half,</tspan><tspan x="-0.4" y="76" font-family="'SunST-Regular'" font-size="10">tape and insert into slits on main body.</tspan><tspan x="-0.5" y="92" font-family="'SunST-Regular'" font-size="10">Secure back to front with tape.</tspan><tspan x="-0.6" y="108" font-family="'SunST-Regular'" font-size="10">Assemble helmet, cut slits for facemask</tspan><tspan x="-0.7" y="119" font-family="'SunST-Regular'" font-size="10">and insert ends of facemask into slits.</tspan><tspan x="-0.8" y="130" font-family="'SunST-Regular'" font-size="10">Secure with tape.</tspan><tspan x="-0.9" y="151" font-family="'SunST-Regular'" font-size="10">Fold up tabs at base of main figure and</tspan><tspan x="-0.9" y="162" font-family="'SunST-Regular'" font-size="10">base of helmet and tape them to the</tspan><tspan x="-1" y="173" font-family="'SunST-Regular'" font-size="10">interior walls for stability.</tspan><tspan x="-1.2" y="189" font-family="'SunST-Regular'" font-size="10">Put the helmet on the main figure.</tspan></text>
	</g>
	<g>
		<g>
			<text transform="matrix(1 0 0 1 466.6017 585.5457)" font-family="'SunST-ExtraBold'" font-size="15">DIRECTIONS</text>
		</g>
		<g>
			<text transform="matrix(1 0 0 1 478.3617 614.0815)"><tspan x="0" y="0" font-family="'SunST-ExtraBold'" font-size="21.7246">Build</tspan><tspan x="-20" y="23.1" font-family="'SunST-ExtraBold'" font-size="21.7246">your own</tspan><tspan x="-44.6" y="46.3" font-family="'SunST-ExtraBold'" font-size="21.7246">Bobby Wagner</tspan><tspan x="-32.4" y="69.4" font-family="'SunST-ExtraBold'" font-size="21.7246">Paper Hawk</tspan></text>
		</g>
		<text transform="matrix(1 0 0 1 451.6017 706.4822)" font-family="'SunST-Italic'" font-size="11">(Second of two pages)</text>
	</g>
</g>
<g id="Layer_2">
</g>
</svg>
