<?xml version="1.0" encoding="utf-8"?>
<!-- Generator: Adobe Illustrator 18.0.0, SVG Export Plug-In . SVG Version: 6.00 Build 0)  -->
<!DOCTYPE svg PUBLIC "-//W3C//DTD SVG 1.1//EN" "http://www.w3.org/Graphics/SVG/1.1/DTD/svg11.dtd">
<svg version="1.1" xmlns="http://www.w3.org/2000/svg" xmlns:xlink="http://www.w3.org/1999/xlink" x="0px" y="0px"
	 viewBox="38.6 720.6 766.5 933" style="enable-background:new 38.6 720.6 766.5 933;" xml:space="preserve" width="600" height="600">
<style type="text/css">
	.st0{clip-path:url(#SVGID_2_);fill:#2E557A;}
	.st1{fill:none;stroke:#B2B3B6;stroke-width:2;}
	.st2{clip-path:url(#SVGID_4_);fill:#2E557A;}
	.st3{fill:none;stroke:#5B5C5C;stroke-width:2;}
	.st4{clip-path:url(#SVGID_6_);fill:#2E557A;}
	.st5{clip-path:url(#SVGID_8_);fill:#2E557A;}
	.st6{fill:#76593F;}
	.st7{fill:#A98858;}
	.st8{clip-path:url(#SVGID_10_);fill:#DBB896;}
	.st9{clip-path:url(#SVGID_12_);fill:none;stroke:#754F3E;stroke-width:0.526;}
	.st10{fill:#322D29;}
	.st11{fill:#D7A37A;}
	.st12{clip-path:url(#SVGID_14_);fill:#926943;}
	.st13{clip-path:url(#SVGID_16_);fill:#D7A37A;}
	.st14{clip-path:url(#SVGID_18_);fill:#DBB896;}
	.st15{clip-path:url(#SVGID_20_);fill:none;stroke:#754F3E;stroke-width:0.526;}
	.st16{fill:#0071B0;}
	.st17{fill:#FFFFFF;}
	.st18{fill:none;stroke:#B4B4B5;}
	.st19{fill:none;stroke:#B2B3B6;stroke-width:2;stroke-dasharray:3,2;}
	.st20{clip-path:url(#SVGID_22_);fill:#2E557A;}
	.st21{fill:#2E557A;}
	.st22{clip-path:url(#SVGID_24_);fill:none;stroke:#000000;}
	.st23{stroke:#000000;}
	.st24{fill:#315679;}
	.st25{clip-path:url(#SVGID_26_);fill:#315679;}
	.st26{fill:#E5E5E5;}
	.st27{fill:#77C25F;}
	.st28{clip-path:url(#SVGID_28_);fill:#315679;}
	.st29{clip-path:url(#SVGID_30_);fill:#315679;}
	.st30{clip-path:url(#SVGID_32_);fill:#315679;}
	.st31{clip-path:url(#SVGID_34_);fill:#2E557A;}
	.st32{clip-path:url(#SVGID_36_);fill:#2E557A;}
	.st33{fill:none;stroke:#000000;}
	.st34{clip-path:url(#SVGID_38_);fill:#77C25F;}
	.st35{fill:none;stroke:#000000;stroke-width:2;}
	.st36{fill:#79C163;}
	.st37{clip-path:url(#SVGID_40_);fill:#315679;}
	.st38{fill:none;}
	.st39{clip-path:url(#SVGID_42_);fill:#2E557A;}
	.st40{clip-path:url(#SVGID_44_);fill:#79C163;}
	.st41{fill:#7BBF67;}
	.st42{clip-path:url(#SVGID_46_);fill:#315679;}
	.st43{clip-path:url(#SVGID_48_);fill:#2E557A;}
	.st44{clip-path:url(#SVGID_50_);fill:#7BBF67;}
	.st45{clip-path:url(#SVGID_52_);fill:#2E557A;}
	.st46{clip-path:url(#SVGID_54_);fill:url(#SVGID_55_);}
	.st47{clip-path:url(#SVGID_57_);fill:#2E557A;}
	.st48{clip-path:url(#SVGID_59_);fill:#2E557A;}
	.st49{clip-path:url(#SVGID_61_);fill:#DBB896;}
	.st50{clip-path:url(#SVGID_63_);fill:none;stroke:#754F3E;stroke-width:0.526;}
	.st51{clip-path:url(#SVGID_65_);fill:#77C25F;}
	.st52{clip-path:url(#SVGID_67_);fill:#2E557A;}
	.st53{clip-path:url(#SVGID_69_);fill:#77C25F;}
	.st54{clip-path:url(#SVGID_71_);fill:#315679;}
	.st55{fill:none;stroke:#FFFFFF;stroke-width:2;}
	.st56{fill:none;stroke:#B2B3B6;stroke-width:3;}
	.st57{fill:none;stroke:#000000;stroke-dasharray:3,2;}
	.st58{font-family:'SunST-Medium';}
	.st59{font-size:15.2765px;}
	.st60{fill:#926943;}
	.st61{fill:none;stroke:#6C7E99;stroke-width:2;}
	.st62{fill:#77C25E;}
	.st63{font-family:'SunST-ExtraBold';}
	.st64{font-size:24.9978px;}
	.st65{fill:#DBB896;}
	.st66{enable-background:new    ;}
	.st67{font-family:'Impact';}
	.st68{font-size:52.2568px;}
</style>
<g id="uniform">
	<g>
		<g>
			<g>
				<g>
					<g>
						<defs>
							<rect id="SVGID_1_" x="597.4" y="1380.1" width="140.1" height="149"/>
						</defs>
						<clipPath id="SVGID_2_">
							<use xlink:href="#SVGID_1_"  style="overflow:visible;"/>
						</clipPath>
						<rect x="597.4" y="1380.1" class="st0" width="140.1" height="149"/>
					</g>
				</g>
			</g>
		</g>
	</g>
	<path class="st1" d="M519.5,1186.1c0,0,6.5,54.2,73.6,50.4"/>
	<path class="st1" d="M470.1,1186.1c0,0-6.5,54.2-73.6,50.4"/>
	<g>
		<g>
			<g>
				<g>
					<g>
						<defs>
							<rect id="SVGID_3_" x="596.9" y="1368.1" width="140.1" height="149"/>
						</defs>
						<clipPath id="SVGID_4_">
							<use xlink:href="#SVGID_3_"  style="overflow:visible;"/>
						</clipPath>
						<rect x="596.9" y="1368.1" class="st2" width="140.1" height="149"/>
					</g>
				</g>
			</g>
		</g>
	</g>
	<rect x="596.9" y="1368.1" class="st3" width="140.1" height="149"/>
	<g>
		<g>
			<g>
				<g>
					<g>
						<defs>
							<rect id="SVGID_5_" x="255" y="1368.1" width="140.1" height="149"/>
						</defs>
						<clipPath id="SVGID_6_">
							<use xlink:href="#SVGID_5_"  style="overflow:visible;"/>
						</clipPath>
						<rect x="255" y="1368.1" class="st4" width="140.1" height="149"/>
					</g>
				</g>
			</g>
		</g>
	</g>
	<rect x="255" y="1368.1" class="st3" width="140.1" height="149"/>
	<g>
		<g>
			<g>
				<g>
					<g>
						<defs>
							<polygon id="SVGID_7_" points="395.4,1368.8 396.3,1517.1 493.4,1517.1 493.4,1429.2 498.8,1429.2 498.8,1517.1 
								597.6,1517.1 596.7,1368.8 							"/>
						</defs>
						<clipPath id="SVGID_8_">
							<use xlink:href="#SVGID_7_"  style="overflow:visible;"/>
						</clipPath>
						<rect x="395.4" y="1365.3" class="st5" width="202.3" height="151.8"/>
					</g>
				</g>
			</g>
		</g>
	</g>
	<rect x="597.5" y="901.6" class="st6" width="140" height="201.2"/>
	<rect x="253.9" y="901.6" class="st6" width="140" height="201.2"/>
	<rect x="597.5" y="901.6" class="st6" width="140" height="201.2"/>
	<rect x="253.9" y="901.6" class="st6" width="140" height="201.2"/>
	<rect x="597.5" y="901.6" class="st7" width="140" height="201.2"/>
	<rect x="253.9" y="901.6" class="st7" width="140" height="201.2"/>
	<g>
		<g>
			<g>
				<g>
					<g>
						<defs>
							<rect id="SVGID_9_" x="597.5" y="901.6" width="140" height="201.2"/>
						</defs>
						<clipPath id="SVGID_10_">
							<use xlink:href="#SVGID_9_"  style="overflow:visible;"/>
						</clipPath>
						<rect x="597.5" y="901.6" class="st8" width="140" height="201.2"/>
					</g>
				</g>
			</g>
		</g>
	</g>
	<g>
		<g>
			<g>
				<g>
					<g>
						<defs>
							<rect id="SVGID_11_" x="597.2" y="901.3" width="140.6" height="201.9"/>
						</defs>
						<clipPath id="SVGID_12_">
							<use xlink:href="#SVGID_11_"  style="overflow:visible;"/>
						</clipPath>
						<rect x="597.5" y="901.6" class="st9" width="140" height="201.2"/>
					</g>
				</g>
			</g>
		</g>
	</g>
	<g>
		<path class="st10" d="M735.8,1023l-0.1-122.8l-139.5,0.2l0.2,130.1l0.1,13.2c0,0,1.8,11.2,8.8-7.2c9.3-24.7,36.3-41.4,36.3-41.4
			s11.1-7.4,25.9-6.9C667.4,988.3,707.3,984,735.8,1023"/>
		<path class="st11" d="M671.2,1007.5c0,0-13.8-6.2-19.7,5c-4.5,8.3,0.4,11.1,4.1,14.3c5.3,4.6,12.8,1,8.1,8.5l-4.6,7.4
			c0,0,12-2.2,9.3-10.9c-2.8-8.6-11.8-10.5-11.8-10.5S650.7,1007.3,671.2,1007.5"/>
		<path class="st11" d="M677.6,1030.6c0,0,4.6-17.7-6.5-23.2c0,0-1,3.7-1,8.3C670.2,1020.3,677.6,1024.1,677.6,1030.6"/>
	</g>
	<g>
		<g>
			<g>
				<g>
					<g>
						<defs>
							<rect id="SVGID_13_" x="643.8" y="993" width="44.9" height="68.4"/>
						</defs>
						<clipPath id="SVGID_14_">
							<use xlink:href="#SVGID_13_"  style="overflow:visible;"/>
						</clipPath>
						<path class="st12" d="M647.6,1010l-3.2-3.6c0,0,15.7-17.7,29.6-12.1c13.9,5.6,18.5,21.3,10.2,42.7
							c-8.3,21.3-17.7,24.1-23.2,24.1c-5.6,0-5.6-9.3-5.6-9.3s3.7,9.3,13.9,0c10.2-9.3,19.5-25,12.1-42.7
							C673.9,991.8,651.7,1003.4,647.6,1010"/>
					</g>
				</g>
			</g>
		</g>
		<g>
			<g>
				<g>
					<g>
						<defs>
							<rect id="SVGID_15_" x="643.8" y="993" width="44.9" height="68.4"/>
						</defs>
						<clipPath id="SVGID_16_">
							<use xlink:href="#SVGID_15_"  style="overflow:visible;"/>
						</clipPath>
						<path class="st13" d="M647.6,1010l-3.2-3.6c0,0,15.7-17.7,29.6-12.1c13.9,5.6,18.5,21.3,10.2,42.7
							c-8.3,21.3-17.7,24.1-23.2,24.1c-5.6,0-5.6-9.3-5.6-9.3s3.7,9.3,13.9,0c10.2-9.3,18.7-28.3,11.4-46
							C673.2,988.4,651.7,1003.4,647.6,1010z"/>
					</g>
				</g>
			</g>
		</g>
	</g>
	<g>
		<g>
			<g>
				<g>
					<g>
						<defs>
							<rect id="SVGID_17_" x="253.9" y="901.6" width="140" height="201.2"/>
						</defs>
						<clipPath id="SVGID_18_">
							<use xlink:href="#SVGID_17_"  style="overflow:visible;"/>
						</clipPath>
						<rect x="253.9" y="901.6" class="st14" width="140" height="201.2"/>
					</g>
				</g>
			</g>
		</g>
	</g>
	<g>
		<g>
			<g>
				<g>
					<g>
						<defs>
							<rect id="SVGID_19_" x="253.4" y="901.3" width="140.6" height="201.9"/>
						</defs>
						<clipPath id="SVGID_20_">
							<use xlink:href="#SVGID_19_"  style="overflow:visible;"/>
						</clipPath>
						<rect x="253.9" y="901.6" class="st15" width="140" height="201.2"/>
					</g>
				</g>
			</g>
		</g>
	</g>
	<g>
		<path class="st10" d="M254,1025l0.1-125.4l139.5,0.2l-0.2,132.9l-0.1,13.2c0,0-1.8,11.2-8.8-7.2c-9.3-24.7-36.3-41.4-36.3-41.4
			s-11.1-7.4-25.9-6.9C322.4,990.3,282.5,986.2,254,1025"/>
	</g>
	<rect x="253.7" y="1104.1" class="st16" width="141.2" height="264.4"/>
	<rect x="596.9" y="1104.1" class="st17" width="139.2" height="264.4"/>
	<rect x="596.9" y="1104.1" class="st18" width="139.2" height="264.4"/>
	<rect x="253.7" y="1104.1" class="st17" width="141.2" height="264.4"/>
	<rect x="253.7" y="1104.1" class="st18" width="141.2" height="264.4"/>
	<rect x="395" y="760.5" class="st10" width="201.1" height="139.2"/>
	<path class="st6" d="M605.6,1043.5c0.7-1.3,1.3-3,1.9-4.8C606.5,1041.6,605.6,1043.5,605.6,1043.5"/>
	<path class="st6" d="M385.7,1043.5c-0.7-1.3-1.3-3-1.9-4.8C384.8,1041.6,385.7,1043.5,385.7,1043.5"/>
	<line class="st19" x1="667.3" y1="1196.6" x2="667.3" y2="1261.9"/>
	<line class="st19" x1="323.7" y1="1196.6" x2="323.7" y2="1261.9"/>
	<g>
		<g>
			<g>
				<g>
					<g>
						<defs>
							<rect id="SVGID_21_" x="522" y="1368.1" width="74.6" height="25.4"/>
						</defs>
						<clipPath id="SVGID_22_">
							<use xlink:href="#SVGID_21_"  style="overflow:visible;"/>
						</clipPath>
						<rect x="522" y="1368.1" class="st20" width="74.6" height="25.4"/>
					</g>
				</g>
			</g>
		</g>
	</g>
	<rect x="522" y="1368.1" class="st21" width="74.6" height="25.4"/>
	<g>
		<g>
			<g>
				<g>
					<g>
						<defs>
							<rect id="SVGID_23_" x="396.1" y="1368.1" width="71.8" height="25.4"/>
						</defs>
						<clipPath id="SVGID_24_">
							<use xlink:href="#SVGID_23_"  style="overflow:visible;"/>
						</clipPath>
						<rect x="396.1" y="1368.1" class="st22" width="71.8" height="25.4"/>
					</g>
				</g>
			</g>
		</g>
	</g>
	<rect x="396.1" y="1368.1" class="st21" width="71.8" height="25.4"/>
	<rect x="467.9" y="1368.1" class="st23" width="54.2" height="19.7"/>
	<g>
		<g>
			<rect id="SVGID_145_" x="254.4" y="1173.6" class="st24" width="140.3" height="16.7"/>
		</g>
		<g>
			<g>
				<g>
					<g>
						<defs>
							<rect id="SVGID_25_" x="254.4" y="1173.6" width="140.3" height="16.7"/>
						</defs>
						<clipPath id="SVGID_26_">
							<use xlink:href="#SVGID_25_"  style="overflow:visible;"/>
						</clipPath>
						<rect x="254.4" y="1169.3" class="st25" width="140.3" height="19.6"/>
					</g>
				</g>
			</g>
		</g>
	</g>
	<rect x="651.1" y="1368.8" width="32.4" height="148.6"/>
	<rect x="653.3" y="1368.8" class="st21" width="27.8" height="148.6"/>
	<rect x="653.3" y="1368.8" class="st26" width="27.8" height="148.6"/>
	<rect x="658.9" y="1368.8" class="st27" width="16.7" height="148.6"/>
	<rect x="307.9" y="1368.8" width="32.4" height="148.6"/>
	<rect x="310.2" y="1368.8" class="st21" width="27.8" height="148.6"/>
	<rect x="308.8" y="1368.8" class="st26" width="30.2" height="148.6"/>
	<rect x="315.9" y="1368.8" class="st27" width="16.7" height="148.6"/>
	<g>
		<g>
			<rect id="SVGID_149_" x="597.4" y="1173.6" class="st24" width="140.3" height="16.7"/>
		</g>
		<g>
			<g>
				<g>
					<g>
						<defs>
							<rect id="SVGID_27_" x="597.4" y="1173.6" width="140.3" height="16.7"/>
						</defs>
						<clipPath id="SVGID_28_">
							<use xlink:href="#SVGID_27_"  style="overflow:visible;"/>
						</clipPath>
						<rect x="597.4" y="1169.3" class="st28" width="140.3" height="19.6"/>
					</g>
				</g>
			</g>
		</g>
	</g>
	<g>
		<g>
			<polygon id="SVGID_151_" class="st24" points="514.7,1173.6 687.7,1173.6 687.7,1190.3 518.8,1190.3 			"/>
		</g>
		<g>
			<g>
				<g>
					<g>
						<defs>
							<polygon id="SVGID_29_" points="514.7,1173.6 687.7,1173.6 687.7,1190.3 518.8,1190.3 							"/>
						</defs>
						<clipPath id="SVGID_30_">
							<use xlink:href="#SVGID_29_"  style="overflow:visible;"/>
						</clipPath>
						<polygon class="st29" points="531.6,1188.6 594.6,1188.6 594.6,1169.3 547.5,1169.3 						"/>
					</g>
				</g>
			</g>
		</g>
	</g>
	<g>
		<g>
			<polygon id="SVGID_153_" class="st24" points="474.7,1173.6 308.8,1173.6 308.8,1190.3 470.8,1190.3 			"/>
		</g>
		<g>
			<g>
				<g>
					<g>
						<defs>
							<polygon id="SVGID_31_" points="474.7,1173.6 308.8,1173.6 308.8,1190.3 470.8,1190.3 							"/>
						</defs>
						<clipPath id="SVGID_32_">
							<use xlink:href="#SVGID_31_"  style="overflow:visible;"/>
						</clipPath>
						<polygon class="st30" points="464.9,1188.6 395.6,1188.6 395.6,1169.3 436.7,1169.9 						"/>
					</g>
				</g>
			</g>
		</g>
	</g>
	<rect x="597.4" y="1090.3" class="st21" width="140.3" height="15.2"/>
	<g>
		<g>
			<g>
				<g>
					<g>
						<defs>
							<rect id="SVGID_33_" x="255.3" y="1368.1" width="139.5" height="25.4"/>
						</defs>
						<clipPath id="SVGID_34_">
							<use xlink:href="#SVGID_33_"  style="overflow:visible;"/>
						</clipPath>
						<rect x="255.3" y="1368.1" class="st31" width="139.5" height="25.4"/>
					</g>
				</g>
			</g>
		</g>
	</g>
	<rect x="255.3" y="1368.1" class="st21" width="139.5" height="25.4"/>
	<g>
		<g>
			<g>
				<g>
					<g>
						<defs>
							<rect id="SVGID_35_" x="596.9" y="1368.1" width="139.5" height="25.4"/>
						</defs>
						<clipPath id="SVGID_36_">
							<use xlink:href="#SVGID_35_"  style="overflow:visible;"/>
						</clipPath>
						<rect x="596.9" y="1368.1" class="st32" width="139.5" height="25.4"/>
					</g>
				</g>
			</g>
		</g>
	</g>
	<rect x="596.9" y="1368.1" class="st21" width="139.5" height="25.4"/>
	<polyline class="st18" points="736.9,1489.5 736.9,1517.3 596.9,1517.3 596.9,1489.5 	"/>
	<polyline class="st18" points="255,1489.5 255,1521.8 395,1521.8 395,1489.5 	"/>
	<rect x="255" y="1517.4" class="st21" width="140.1" height="74"/>
	<rect x="255" y="1517.4" class="st33" width="140.1" height="74"/>
	<g>
		<g>
			<g>
				<g>
					<g>
						<defs>
							<rect id="SVGID_37_" x="396.6" y="1517.4" width="96.8" height="72.7"/>
						</defs>
						<clipPath id="SVGID_38_">
							<use xlink:href="#SVGID_37_"  style="overflow:visible;"/>
						</clipPath>
						<rect x="396.6" y="1517.4" class="st34" width="96.8" height="72.7"/>
					</g>
				</g>
			</g>
		</g>
	</g>
	<rect x="396.6" y="1517.4" class="st35" width="96.8" height="72.7"/>
	<line class="st35" x1="428" y1="1525.7" x2="462" y2="1540.3"/>
	<line class="st35" x1="428" y1="1541.3" x2="462" y2="1551.7"/>
	<line class="st35" x1="428" y1="1552.8" x2="462" y2="1559.1"/>
	<line class="st35" x1="464" y1="1525.7" x2="430.1" y2="1540.3"/>
	<line class="st35" x1="464" y1="1541.3" x2="430.1" y2="1551.7"/>
	<line class="st35" x1="464" y1="1552.8" x2="430.1" y2="1559.1"/>
	<g>
		<path class="st36" d="M431.7,1526c0,1.6-1.2,2.8-2.8,2.8s-2.8-1.2-2.8-2.8s1.2-2.8,2.8-2.8S431.7,1524.5,431.7,1526"/>
		<circle class="st35" cx="429" cy="1526" r="2.8"/>
		<path class="st36" d="M431.7,1541.3c0,1.6-1.2,2.8-2.8,2.8s-2.8-1.2-2.8-2.8s1.2-2.8,2.8-2.8S431.7,1539.7,431.7,1541.3"/>
		<circle class="st35" cx="429" cy="1541.3" r="2.8"/>
		<path class="st36" d="M431.7,1552.1c0,1.6-1.2,2.8-2.8,2.8s-2.8-1.2-2.8-2.8s1.2-2.8,2.8-2.8S431.7,1550.6,431.7,1552.1"/>
		<circle class="st35" cx="429" cy="1552.1" r="2.8"/>
		<path class="st36" d="M431.7,1558.6c0,1.6-1.2,2.8-2.8,2.8s-2.8-1.2-2.8-2.8s1.2-2.8,2.8-2.8S431.7,1557,431.7,1558.6"/>
		<circle class="st35" cx="429" cy="1558.6" r="2.8"/>
		<path class="st36" d="M465.5,1526c0,1.6-1.2,2.8-2.8,2.8c-1.6,0-2.8-1.2-2.8-2.8s1.2-2.8,2.8-2.8
			C464.3,1523.2,465.5,1524.5,465.5,1526"/>
		<circle class="st35" cx="462.7" cy="1526" r="2.8"/>
		<path class="st36" d="M465.5,1541.3c0,1.6-1.2,2.8-2.8,2.8c-1.6,0-2.8-1.2-2.8-2.8s1.2-2.8,2.8-2.8
			C464.3,1538.5,465.5,1539.7,465.5,1541.3"/>
		<circle class="st35" cx="462.7" cy="1541.3" r="2.8"/>
		<path class="st36" d="M465.5,1552.1c0,1.6-1.2,2.8-2.8,2.8c-1.6,0-2.8-1.2-2.8-2.8s1.2-2.8,2.8-2.8
			C464.3,1549.3,465.5,1550.6,465.5,1552.1"/>
		<circle class="st35" cx="462.7" cy="1552.1" r="2.8"/>
		<path class="st36" d="M465.5,1558.6c0,1.6-1.2,2.8-2.8,2.8c-1.6,0-2.8-1.2-2.8-2.8s1.2-2.8,2.8-2.8
			C464.3,1555.8,465.5,1557,465.5,1558.6"/>
		<circle class="st35" cx="462.7" cy="1558.6" r="2.8"/>
		<path class="st21" d="M404.4,1518.3c0,0-2.1,9.1,1.3,18.7c3.5,9.7,9.7,17.4,11.1,29.9c1.3,12.5,0,12.8,0,12.8h-19.6v-61.4
			L404.4,1518.3L404.4,1518.3z"/>
		<path class="st21" d="M485.9,1518.3c0,0,2.1,9.1-1.3,18.7c-3.5,9.7-9.7,17.4-11.1,29.9c-1.3,12.5,0,12.8,0,12.8h19.8v-61.4
			L485.9,1518.3L485.9,1518.3z"/>
	</g>
	<g>
		<g>
			<g>
				<g>
					<g>
						<defs>
							<rect id="SVGID_39_" x="396.6" y="1581.2" width="96.8" height="8.7"/>
						</defs>
						<clipPath id="SVGID_40_">
							<use xlink:href="#SVGID_39_"  style="overflow:visible;"/>
						</clipPath>
						<rect x="396.6" y="1581.2" class="st37" width="96.8" height="8.7"/>
					</g>
				</g>
			</g>
		</g>
	</g>
	<rect x="396.6" y="1581.2" class="st38" width="96.8" height="8.7"/>
	<g>
		<g>
			<g>
				<g>
					<g>
						<defs>
							<path id="SVGID_41_" d="M395.8,1581.8c0,1.1,0.7-0.6,0.7-0.6h96.8c-0.7-10.9-22.1-19.6-48.6-19.6
								C417.7,1561.6,395.8,1570.7,395.8,1581.8"/>
						</defs>
						<clipPath id="SVGID_42_">
							<use xlink:href="#SVGID_41_"  style="overflow:visible;"/>
						</clipPath>
						<rect x="395.8" y="1561.6" class="st39" width="97.5" height="21.3"/>
					</g>
				</g>
			</g>
		</g>
	</g>
	<g>
		<path class="st35" d="M396.6,1581.2h96.8c-0.7-10.9-22.1-19.6-48.6-19.6c-27,0-48.7,9.1-48.7,20.2
			C395.8,1582.9,396.6,1581.2,396.6,1581.2z"/>
		<polyline points="399.9,1590.3 408.9,1581.2 418.1,1590.3 		"/>
		<polyline class="st38" points="399.9,1590.3 408.9,1581.2 418.1,1590.3 		"/>
		<polyline points="421.5,1590.3 430.4,1581.2 439.6,1590.3 		"/>
		<polyline class="st38" points="421.5,1590.3 430.4,1581.2 439.6,1590.3 		"/>
		<polyline points="443,1590.3 452.1,1581.2 461.1,1590.3 		"/>
		<polyline class="st38" points="443,1590.3 452.1,1581.2 461.1,1590.3 		"/>
		<polyline points="464.5,1590.3 473.6,1581.2 482.7,1590.3 		"/>
		<polyline class="st38" points="464.5,1590.3 473.6,1581.2 482.7,1590.3 		"/>
	</g>
	<g>
		<g>
			<g>
				<g>
					<g>
						<defs>
							<rect id="SVGID_43_" x="498.8" y="1517.4" width="96.6" height="72.7"/>
						</defs>
						<clipPath id="SVGID_44_">
							<use xlink:href="#SVGID_43_"  style="overflow:visible;"/>
						</clipPath>
						<rect x="497.9" y="1517.4" class="st40" width="96.6" height="72.7"/>
					</g>
				</g>
			</g>
		</g>
	</g>
	<rect x="498.8" y="1517.4" class="st35" width="96.6" height="72.7"/>
	<line class="st35" x1="564" y1="1525.7" x2="530.1" y2="1540.3"/>
	<line class="st35" x1="564" y1="1541.3" x2="530.1" y2="1551.7"/>
	<line class="st35" x1="564" y1="1552.8" x2="530.1" y2="1559.1"/>
	<line class="st35" x1="528" y1="1525.7" x2="562" y2="1540.3"/>
	<line class="st35" x1="528" y1="1541.3" x2="562" y2="1551.7"/>
	<line class="st35" x1="528" y1="1552.8" x2="562" y2="1559.1"/>
	<g>
		<path class="st41" d="M560.2,1526c0,1.6,1.2,2.8,2.8,2.8s2.8-1.2,2.8-2.8s-1.2-2.8-2.8-2.8S560.2,1524.5,560.2,1526"/>
		<circle class="st35" cx="562.9" cy="1526" r="2.8"/>
		<path class="st41" d="M560.2,1541.3c0,1.6,1.2,2.8,2.8,2.8s2.8-1.2,2.8-2.8s-1.2-2.8-2.8-2.8S560.2,1539.7,560.2,1541.3"/>
		<circle class="st35" cx="562.9" cy="1541.3" r="2.8"/>
		<path class="st41" d="M560.2,1552.1c0,1.6,1.2,2.8,2.8,2.8s2.8-1.2,2.8-2.8s-1.2-2.8-2.8-2.8S560.2,1550.6,560.2,1552.1"/>
		<circle class="st35" cx="562.9" cy="1552.1" r="2.8"/>
		<path class="st41" d="M560.2,1558.6c0,1.6,1.2,2.8,2.8,2.8s2.8-1.2,2.8-2.8s-1.2-2.8-2.8-2.8S560.2,1557,560.2,1558.6"/>
		<circle class="st35" cx="562.9" cy="1558.6" r="2.8"/>
		<path class="st41" d="M526.6,1526c0,1.6,1.2,2.8,2.8,2.8c1.6,0,2.8-1.2,2.8-2.8s-1.2-2.8-2.8-2.8
			C527.9,1523.2,526.6,1524.5,526.6,1526"/>
		<circle class="st35" cx="529.3" cy="1526" r="2.8"/>
		<path class="st41" d="M526.6,1541.3c0,1.6,1.2,2.8,2.8,2.8c1.6,0,2.8-1.2,2.8-2.8s-1.2-2.8-2.8-2.8
			C527.9,1538.5,526.6,1539.7,526.6,1541.3"/>
		<circle class="st35" cx="529.3" cy="1541.3" r="2.8"/>
		<path class="st41" d="M526.6,1552.1c0,1.6,1.2,2.8,2.8,2.8c1.6,0,2.8-1.2,2.8-2.8s-1.2-2.8-2.8-2.8
			C527.9,1549.3,526.6,1550.6,526.6,1552.1"/>
		<circle class="st35" cx="529.3" cy="1552.1" r="2.8"/>
		<path class="st41" d="M526.6,1558.6c0,1.6,1.2,2.8,2.8,2.8c1.6,0,2.8-1.2,2.8-2.8s-1.2-2.8-2.8-2.8
			C527.9,1555.8,526.6,1557,526.6,1558.6"/>
		<circle class="st35" cx="529.3" cy="1558.6" r="2.8"/>
		<path class="st21" d="M587.7,1518.3c0,0,2.1,9.1-1.3,18.7c-3.5,9.7-9.7,17.4-11.1,29.9c-1.3,12.5,0,12.8,0,12.8h19.6v-61.4
			L587.7,1518.3L587.7,1518.3z"/>
		<path class="st21" d="M506,1518.3c0,0-2.1,9.1,1.3,18.7c3.5,9.7,9.7,17.4,11.1,29.9c1.3,12.5,0,12.8,0,12.8h-19.7v-61.4
			L506,1518.3L506,1518.3z"/>
	</g>
	<g>
		<g>
			<g>
				<g>
					<g>
						<defs>
							<rect id="SVGID_45_" x="498.8" y="1581.2" width="96.6" height="8.7"/>
						</defs>
						<clipPath id="SVGID_46_">
							<use xlink:href="#SVGID_45_"  style="overflow:visible;"/>
						</clipPath>
						<rect x="498.8" y="1581.2" class="st42" width="96.6" height="8.7"/>
					</g>
				</g>
			</g>
		</g>
	</g>
	<rect x="498.8" y="1581.2" class="st38" width="96.6" height="8.7"/>
	<g>
		<g>
			<g>
				<g>
					<g>
						<defs>
							<path id="SVGID_47_" d="M498.8,1581.2h96.6c0,0,0.7,1.7,0.7,0.6c0-11.1-21.8-20.2-48.7-20.2
								C520.7,1561.6,499.5,1570.5,498.8,1581.2"/>
						</defs>
						<clipPath id="SVGID_48_">
							<use xlink:href="#SVGID_47_"  style="overflow:visible;"/>
						</clipPath>
						<rect x="498.8" y="1561.6" class="st43" width="97.3" height="21.3"/>
					</g>
				</g>
			</g>
		</g>
	</g>
	<g>
		<path class="st35" d="M595.5,1581.2h-96.6c0.7-10.9,21.9-19.6,48.5-19.6c27,0,48.7,9.1,48.7,20.2
			C596.2,1582.9,595.5,1581.2,595.5,1581.2z"/>
		<polyline points="592,1590.3 583,1581.2 573.9,1590.3 		"/>
		<polyline class="st38" points="592,1590.3 583,1581.2 573.9,1590.3 		"/>
		<polyline points="570.4,1590.3 561.5,1581.2 552.4,1590.3 		"/>
		<polyline class="st38" points="570.4,1590.3 561.5,1581.2 552.4,1590.3 		"/>
		<polyline points="548.9,1590.3 540,1581.2 530.9,1590.3 		"/>
		<polyline class="st38" points="548.9,1590.3 540,1581.2 530.9,1590.3 		"/>
		<polyline points="527.4,1590.3 518.4,1581.2 509.4,1590.3 		"/>
		<polyline class="st38" points="527.4,1590.3 518.4,1581.2 509.4,1590.3 		"/>
	</g>
	<rect x="598.4" y="1517.5" class="st21" width="97" height="62.4"/>
	<g>
		<g>
			<g>
				<g>
					<g>
						<defs>
							<polygon id="SVGID_49_" points="649.5,1517.4 632.1,1539.6 599.5,1545.9 599.5,1590.2 737.2,1590.2 737.2,1517.4 							"/>
						</defs>
						<clipPath id="SVGID_50_">
							<use xlink:href="#SVGID_49_"  style="overflow:visible;"/>
						</clipPath>
						<rect x="599.5" y="1517.4" class="st44" width="137.6" height="72.7"/>
					</g>
				</g>
			</g>
		</g>
	</g>
	<polygon class="st38" points="599.5,1545.9 632.1,1539.6 649.5,1517.4 737.2,1517.4 737.2,1590.2 599.5,1590.2 	"/>
	<line class="st35" x1="663.7" y1="1523.3" x2="645.3" y2="1521.1"/>
	<line class="st35" x1="655.8" y1="1536.8" x2="637.7" y2="1532.2"/>
	<line class="st35" x1="650" y1="1546.6" x2="632.1" y2="1539.6"/>
	<line class="st35" x1="644.7" y1="1521.8" x2="654.5" y2="1534.9"/>
	<line class="st35" x1="636.9" y1="1532" x2="648.7" y2="1544.7"/>
	<line class="st35" x1="631.5" y1="1539.9" x2="645" y2="1551.1"/>
	<g>
		<path class="st41" d="M660.2,1521.7c-0.8,1.3-0.2,3,1,3.7c1.3,0.8,3,0.2,3.7-1c0.8-1.3,0.2-3-1-3.7
			C662.7,1519.9,660.9,1520.3,660.2,1521.7"/>
		<circle class="st35" cx="662.6" cy="1523.1" r="2.8"/>
		<path class="st41" d="M652.4,1534.9c-0.8,1.3-0.2,3,1,3.7c1.3,0.8,3,0.2,3.7-1c0.8-1.3,0.2-3-1-3.7
			C654.9,1533.1,653.3,1533.6,652.4,1534.9"/>
		<circle class="st35" cx="654.9" cy="1536.2" r="2.8"/>
		<path class="st41" d="M647,1544.2c-0.8,1.3-0.2,3,1,3.7c1.3,0.8,3,0.2,3.7-1c0.8-1.3,0.2-3-1-3.7
			C649.5,1542.4,647.8,1542.9,647,1544.2"/>
		<circle class="st35" cx="649.5" cy="1545.6" r="2.8"/>
		<path class="st41" d="M643.7,1549.9c-0.8,1.3-0.2,3,1,3.7c1.3,0.8,3,0.2,3.7-1c0.8-1.3,0.2-3-1-3.7
			C646.1,1548.1,644.4,1548.7,643.7,1549.9"/>
		<circle class="st35" cx="646.1" cy="1551.2" r="2.8"/>
		<line class="st35" x1="636.7" y1="1556.7" x2="624.5" y2="1540.6"/>
		<line class="st35" x1="621.7" y1="1560.5" x2="611.3" y2="1543.7"/>
		<line class="st35" x1="610.6" y1="1563.5" x2="602.6" y2="1545.2"/>
		<line class="st35" x1="624.7" y1="1540.6" x2="622.2" y2="1558.4"/>
		<line class="st35" x1="612" y1="1543.4" x2="611.1" y2="1561.3"/>
		<line class="st35" x1="602.6" y1="1545.4" x2="604.1" y2="1563.1"/>
		<path class="st41" d="M635.5,1553.1c-1.6,0.4-2.4,1.9-1.9,3.4c0.4,1.6,1.9,2.4,3.4,1.9c1.6-0.4,2.4-1.9,1.9-3.4
			C638.5,1553.5,636.9,1552.7,635.5,1553.1"/>
		<circle class="st35" cx="636.2" cy="1555.7" r="2.8"/>
		<path class="st41" d="M620.7,1556.9c-1.6,0.4-2.4,1.9-1.9,3.4c0.4,1.6,1.9,2.4,3.4,1.9c1.6-0.4,2.4-1.9,1.9-3.4
			C623.6,1557.4,622.2,1556.6,620.7,1556.9"/>
		<circle class="st35" cx="621.5" cy="1559.6" r="2.8"/>
		<path class="st41" d="M610.3,1559.6c-1.6,0.4-2.4,1.9-1.9,3.4c0.4,1.6,1.9,2.4,3.4,1.9c1.6-0.4,2.4-1.9,1.9-3.4
			C613.2,1560.2,611.7,1559.3,610.3,1559.6"/>
		<circle class="st35" cx="611.1" cy="1562.4" r="2.8"/>
		<path class="st41" d="M603.9,1561.4c-1.6,0.4-2.4,1.9-1.9,3.4c0.4,1.6,1.9,2.4,3.4,1.9c1.6-0.4,2.4-1.9,1.9-3.4
			C606.8,1561.9,605.4,1561,603.9,1561.4"/>
		<circle class="st35" cx="604.7" cy="1564" r="2.8"/>
		<path class="st21" d="M600.2,1580.6h136.3v-63.4h-49.8c0,0,1.1,9.9-1.3,19.8c0,0,1.1,14.7-17.5,20.3
			c-18.5,5.6-68.3,14.9-68.3,14.9v9.2"/>
	</g>
	<g>
		<g>
			<g>
				<g>
					<g>
						<defs>
							<rect id="SVGID_51_" x="600.7" y="1581.2" width="136.6" height="8.7"/>
						</defs>
						<clipPath id="SVGID_52_">
							<use xlink:href="#SVGID_51_"  style="overflow:visible;"/>
						</clipPath>
						<rect x="600.7" y="1581.2" class="st45" width="136.6" height="8.7"/>
					</g>
				</g>
			</g>
		</g>
	</g>
	<rect x="600.7" y="1581.2" class="st35" width="136.6" height="8.7"/>
	<polyline points="733.7,1590.3 724.6,1581.2 715.6,1590.3 	"/>
	<polyline class="st38" points="733.7,1590.3 724.6,1581.2 715.6,1590.3 	"/>
	<polyline points="711,1590.3 702,1581.2 692.9,1590.3 	"/>
	<polyline class="st38" points="711,1590.3 702,1581.2 692.9,1590.3 	"/>
	<polyline points="688.3,1590.3 679.4,1581.2 670.3,1590.3 	"/>
	<polyline class="st38" points="688.3,1590.3 679.4,1581.2 670.3,1590.3 	"/>
	<polyline points="665.7,1590.3 656.8,1581.2 647.7,1590.3 	"/>
	<polyline class="st38" points="665.7,1590.3 656.8,1581.2 647.7,1590.3 	"/>
	<polyline points="643.1,1590.3 634,1581.2 625.1,1590.3 	"/>
	<polyline class="st38" points="643.1,1590.3 634,1581.2 625.1,1590.3 	"/>
	<polyline points="620.5,1590.3 611.4,1581.2 602.5,1590.3 	"/>
	<polyline class="st38" points="620.5,1590.3 611.4,1581.2 602.5,1590.3 	"/>
	<g>
		<g>
			<g>
				<g>
					<g>
						<defs>
							<polygon id="SVGID_53_" points="254,1517.4 254,1590.2 391.6,1590.2 391.6,1545.9 359,1539.6 341.6,1517.4 							"/>
						</defs>
						<clipPath id="SVGID_54_">
							<use xlink:href="#SVGID_53_"  style="overflow:visible;"/>
						</clipPath>
						
							<linearGradient id="SVGID_55_" gradientUnits="userSpaceOnUse" x1="-699.7258" y1="993.0775" x2="-698.7263" y2="993.0775" gradientTransform="matrix(137.6796 0 0 137.6796 96591.9141 -135172.7344)">
							<stop  offset="0" style="stop-color:#000000"/>
							<stop  offset="2.563614e-02" style="stop-color:#171717"/>
							<stop  offset="8.925876e-02" style="stop-color:#383938"/>
							<stop  offset="0.1536" style="stop-color:#545453"/>
							<stop  offset="0.2173" style="stop-color:#6D6D6C"/>
							<stop  offset="0.2804" style="stop-color:#828181"/>
							<stop  offset="0.3425" style="stop-color:#919191"/>
							<stop  offset="0.4034" style="stop-color:#9B9B9B"/>
							<stop  offset="0.4615" style="stop-color:#A09F9F"/>
							<stop  offset="0.5498" style="stop-color:#9C9C9C"/>
							<stop  offset="0.6229" style="stop-color:#949393"/>
							<stop  offset="0.6906" style="stop-color:#878686"/>
							<stop  offset="0.7551" style="stop-color:#767574"/>
							<stop  offset="0.8173" style="stop-color:#605F5F"/>
							<stop  offset="0.8778" style="stop-color:#484847"/>
							<stop  offset="0.9369" style="stop-color:#2D2D2D"/>
							<stop  offset="0.9935" style="stop-color:#070707"/>
							<stop  offset="1" style="stop-color:#000000"/>
						</linearGradient>
						<rect x="254" y="1517.4" class="st46" width="137.6" height="72.7"/>
					</g>
				</g>
			</g>
		</g>
	</g>
	<polygon class="st27" points="391.6,1545.9 359,1539.6 341.6,1517.4 254,1517.4 254,1590.2 391.6,1590.2 	"/>
	<line class="st35" x1="327.4" y1="1523.3" x2="345.8" y2="1521.1"/>
	<line class="st35" x1="335.4" y1="1536.8" x2="353.4" y2="1532.2"/>
	<line class="st35" x1="341.2" y1="1546.6" x2="359" y2="1539.6"/>
	<line class="st35" x1="346.5" y1="1521.8" x2="336.6" y2="1534.9"/>
	<line class="st35" x1="354.1" y1="1532" x2="342.4" y2="1544.7"/>
	<line class="st35" x1="359.7" y1="1539.9" x2="346" y2="1551.1"/>
	<g>
		<path class="st27" d="M330.9,1521.7c0.8,1.3,0.2,3-1,3.7c-1.3,0.8-3,0.2-3.7-1c-0.8-1.3-0.2-3,1-3.7
			C328.5,1519.9,330.2,1520.3,330.9,1521.7"/>
		<circle class="st35" cx="328.5" cy="1523.1" r="2.8"/>
		<path class="st27" d="M338.7,1534.9c0.8,1.3,0.2,3-1,3.7c-1.3,0.8-3,0.2-3.7-1c-0.8-1.3-0.2-3,1-3.7
			C336.2,1533.1,337.8,1533.6,338.7,1534.9"/>
		<path class="st35" d="M338.7,1534.9c0.8,1.3,0.2,3-1,3.7c-1.3,0.8-3,0.2-3.7-1c-0.8-1.3-0.2-3,1-3.7
			C336.2,1533.1,337.8,1533.6,338.7,1534.9z"/>
		<path class="st27" d="M344.1,1544.2c0.8,1.3,0.2,3-1,3.7c-1.3,0.8-3,0.2-3.7-1c-0.8-1.3-0.2-3,1-3.7
			C341.6,1542.4,343.2,1542.9,344.1,1544.2"/>
		<path class="st35" d="M344.1,1544.2c0.8,1.3,0.2,3-1,3.7c-1.3,0.8-3,0.2-3.7-1c-0.8-1.3-0.2-3,1-3.7
			C341.6,1542.4,343.2,1542.9,344.1,1544.2z"/>
		<path class="st27" d="M347.5,1549.9c0.8,1.3,0.2,3-1,3.7c-1.3,0.8-3,0.2-3.7-1c-0.8-1.3-0.2-3,1-3.7
			C344.9,1548.1,346.6,1548.7,347.5,1549.9"/>
		<circle class="st35" cx="344.9" cy="1551.2" r="2.8"/>
		<line class="st35" x1="354.4" y1="1556.7" x2="366.6" y2="1540.6"/>
		<line class="st35" x1="369.4" y1="1560.5" x2="379.8" y2="1543.7"/>
		<line class="st35" x1="380.5" y1="1563.5" x2="388.6" y2="1545.2"/>
		<line class="st35" x1="366.3" y1="1540.6" x2="369" y2="1558.4"/>
		<line class="st35" x1="379.1" y1="1543.4" x2="380.1" y2="1561.3"/>
		<line class="st35" x1="388.6" y1="1545.4" x2="387.1" y2="1563.1"/>
		<path class="st27" d="M355.6,1553.1c1.6,0.4,2.4,1.9,1.9,3.4c-0.4,1.6-1.9,2.4-3.4,1.9c-1.6-0.4-2.4-1.9-1.9-3.4
			C352.7,1553.5,354.1,1552.7,355.6,1553.1"/>
		<path class="st35" d="M355.6,1553.1c1.6,0.4,2.4,1.9,1.9,3.4c-0.4,1.6-1.9,2.4-3.4,1.9c-1.6-0.4-2.4-1.9-1.9-3.4
			C352.7,1553.5,354.1,1552.7,355.6,1553.1z"/>
		<path class="st27" d="M370.3,1556.9c1.6,0.4,2.4,1.9,1.9,3.4c-0.4,1.6-1.9,2.4-3.4,1.9c-1.6-0.4-2.4-1.9-1.9-3.4
			C367.4,1557.4,369,1556.6,370.3,1556.9"/>
		<circle class="st35" cx="369.6" cy="1559.6" r="2.8"/>
		<path class="st27" d="M380.7,1559.6c1.6,0.4,2.4,1.9,1.9,3.4c-0.4,1.6-1.9,2.4-3.4,1.9c-1.6-0.4-2.4-1.9-1.9-3.4
			C377.8,1560.2,379.4,1559.3,380.7,1559.6"/>
		<circle class="st35" cx="380.1" cy="1562.4" r="2.8"/>
		<path class="st27" d="M387.1,1561.4c1.6,0.4,2.4,1.9,1.9,3.4c-0.4,1.6-1.9,2.4-3.4,1.9c-1.6-0.4-2.4-1.9-1.9-3.4
			C384.2,1561.9,385.8,1561,387.1,1561.4"/>
		<circle class="st35" cx="386.4" cy="1564" r="2.8"/>
		<path class="st21" d="M390.9,1580.7H254.6v-62.4h49.8c0,0-1.1,8.7,1.3,18.7c0,0-1.1,14.7,17.5,20.3c18.5,5.6,68.4,14.9,68.4,14.9
			v9.2"/>
	</g>
	<g>
		<g>
			<g>
				<g>
					<g>
						<defs>
							<rect id="SVGID_56_" x="254" y="1581.2" width="136.6" height="8.7"/>
						</defs>
						<clipPath id="SVGID_57_">
							<use xlink:href="#SVGID_56_"  style="overflow:visible;"/>
						</clipPath>
						<rect x="254" y="1581.2" class="st47" width="136.6" height="8.7"/>
					</g>
				</g>
			</g>
		</g>
	</g>
	<rect x="254" y="1581.2" class="st35" width="136.6" height="8.7"/>
	<polyline points="257.4,1590.3 266.5,1581.2 275.5,1590.3 	"/>
	<polyline class="st38" points="257.4,1590.3 266.5,1581.2 275.5,1590.3 	"/>
	<polyline points="280.1,1590.3 289.1,1581.2 298.1,1590.3 	"/>
	<polyline class="st38" points="280.1,1590.3 289.1,1581.2 298.1,1590.3 	"/>
	<polyline points="302.7,1590.3 311.8,1581.2 320.8,1590.3 	"/>
	<polyline class="st38" points="302.7,1590.3 311.8,1581.2 320.8,1590.3 	"/>
	<polyline points="325.3,1590.3 334.4,1581.2 343.4,1590.3 	"/>
	<polyline class="st38" points="325.3,1590.3 334.4,1581.2 343.4,1590.3 	"/>
	<polyline points="348,1590.3 357,1581.2 366.1,1590.3 	"/>
	<polyline class="st38" points="348,1590.3 357,1581.2 366.1,1590.3 	"/>
	<polyline points="370.7,1590.3 379.6,1581.2 388.7,1590.3 	"/>
	<polyline class="st38" points="370.7,1590.3 379.6,1581.2 388.7,1590.3 	"/>
	<polygon class="st17" points="391.9,900.1 381.1,848.6 266.6,848.6 255.8,900.1 	"/>
	<polygon class="st35" points="391.9,900.1 381.1,848.6 266.6,848.6 255.8,900.1 	"/>
	<polygon class="st17" points="594.7,1591.5 584.1,1643 406,1643 395.2,1591.5 	"/>
	<polygon class="st35" points="594.7,1591.5 584.1,1643 406,1643 395.2,1591.5 	"/>
	<polygon class="st17" points="391.9,1591.5 381.1,1643 266.6,1643 255.8,1591.5 	"/>
	<polygon class="st35" points="391.9,1591.5 381.1,1643 266.6,1643 255.8,1591.5 	"/>
	<polygon class="st17" points="597.4,900.1 608.3,848.6 722.7,848.6 733.5,900.1 	"/>
	<polygon class="st35" points="597.4,900.1 608.3,848.6 722.7,848.6 733.5,900.1 	"/>
	<polygon class="st17" points="597.4,1591.5 608.3,1643 722.7,1643 733.5,1591.5 	"/>
	<polygon class="st35" points="597.4,1591.5 608.3,1643 722.7,1643 733.5,1591.5 	"/>
	<polygon class="st17" points="736.3,900.1 787.8,910.8 787.8,1578.1 736.3,1588.9 	"/>
	<path class="st33" d="M395,1368.4"/>
	<path class="st1" d="M395,1368.4c14.4-22.5,54.3-38.7,101.1-38.7c46,0,84.3,15.6,99.4,37.5"/>
	<polygon class="st35" points="736.3,900.1 787.8,910.8 787.8,1578.1 736.3,1588.9 	"/>
	<g>
		<g>
			<g>
				<g>
					<g>
						<defs>
							<polygon id="SVGID_58_" points="52.2,1369.5 52.2,1518 151.5,1518 151.5,1425 156.9,1425 156.9,1518 254.1,1518 255,1369.5 
															"/>
						</defs>
						<clipPath id="SVGID_59_">
							<use xlink:href="#SVGID_58_"  style="overflow:visible;"/>
						</clipPath>
						<rect x="52.2" y="1369.5" class="st48" width="202.8" height="148.4"/>
					</g>
				</g>
			</g>
		</g>
	</g>
	<polygon class="st35" points="52.2,1369.5 52.2,1518 151.5,1518 151.5,1425 156.9,1425 156.9,1518 254.1,1518 255,1369.5 	"/>
	<rect x="52.2" y="901.2" class="st6" width="201.2" height="199.7"/>
	<rect x="52.2" y="901.2" class="st6" width="201.2" height="199.7"/>
	<rect x="52.2" y="901.2" class="st7" width="201.2" height="199.7"/>
	<g>
		<g>
			<rect id="SVGID_194_" x="52.2" y="901.2" class="st7" width="201.2" height="199.7"/>
		</g>
		<g>
			<g>
				<g>
					<g>
						<defs>
							<rect id="SVGID_60_" x="52.2" y="901.2" width="201.2" height="199.7"/>
						</defs>
						<clipPath id="SVGID_61_">
							<use xlink:href="#SVGID_60_"  style="overflow:visible;"/>
						</clipPath>
						<rect x="52.2" y="915.1" class="st49" width="201" height="199.7"/>
					</g>
				</g>
			</g>
		</g>
	</g>
	<g>
		<g>
			<g>
				<g>
					<g>
						<defs>
							<rect id="SVGID_62_" x="52.2" y="900.7" width="201.7" height="200.4"/>
						</defs>
						<clipPath id="SVGID_63_">
							<use xlink:href="#SVGID_62_"  style="overflow:visible;"/>
						</clipPath>
						<rect x="52.2" y="901.2" class="st50" width="201.2" height="199.7"/>
					</g>
				</g>
			</g>
		</g>
	</g>
	<rect x="52.2" y="1102.2" class="st17" width="201.2" height="267"/>
	<polygon class="st10" points="52.2,901.6 253.4,901.6 253.4,1024.9 232.8,1078.4 74.1,1078.4 52.2,1024.9 	"/>
	<g>
		<g>
			<rect id="SVGID_198_" x="52.2" y="1369.6" class="st21" width="98.4" height="15.7"/>
		</g>
	</g>
	<rect x="52.2" y="1369.6" class="st35" width="98.4" height="24.1"/>
	<rect x="151.5" y="1369.6" class="st35" width="100.7" height="24.1"/>
	<g>
		<path class="st35" d="M64.3,1402.9c0,12.2,26.5,22.1,59.1,22.1h54.2c32.6,0,59.1-9.9,59.1-22.1"/>
	</g>
	<g>
		<g>
			<rect id="SVGID_200_" x="156.9" y="1518.2" class="st27" width="97" height="72.7"/>
		</g>
		<g>
			<g>
				<g>
					<g>
						<defs>
							<rect id="SVGID_64_" x="156.9" y="1518.2" width="97" height="72.7"/>
						</defs>
						<clipPath id="SVGID_65_">
							<use xlink:href="#SVGID_64_"  style="overflow:visible;"/>
						</clipPath>
						<rect x="156.9" y="1518.2" class="st51" width="97" height="72.7"/>
					</g>
				</g>
			</g>
		</g>
	</g>
	<rect x="156.9" y="1518.2" class="st35" width="97" height="72.7"/>
	<g>
		<path d="M245.9,1519.2c0,0,2.1,9.1-1.3,18.7c-3.5,9.7-9.7,17.4-11.1,29.9c-1.3,12.5,0,12.8,0,12.8h19.6v-61.4H245.9z"/>
		<path d="M164.4,1519.2c0,0-2.1,9.1,1.3,18.7c3.5,9.7,9.7,17.4,11.1,29.9c1.3,12.5,0,12.8,0,12.8h-20v-61.4H164.4z"/>
	</g>
	<g>
		<g>
			<g>
				<g>
					<g>
						<defs>
							<rect id="SVGID_66_" x="156.9" y="1582.1" width="97" height="8.7"/>
						</defs>
						<clipPath id="SVGID_67_">
							<use xlink:href="#SVGID_66_"  style="overflow:visible;"/>
						</clipPath>
						<rect x="156.9" y="1582.1" class="st52" width="97" height="8.7"/>
					</g>
				</g>
			</g>
		</g>
	</g>
	<polygon class="st35" points="156.9,1581.5 253.5,1581.5 253.9,1590.9 156.9,1590.9 	"/>
	<polyline points="250.4,1591.1 241.3,1582.1 232.4,1591.1 	"/>
	<polyline class="st38" points="250.4,1591.1 241.3,1582.1 232.4,1591.1 	"/>
	<polyline points="228.9,1591.1 219.8,1582.1 210.7,1591.1 	"/>
	<polyline class="st38" points="228.9,1591.1 219.8,1582.1 210.7,1591.1 	"/>
	<polyline points="207.3,1591.1 198.3,1582.1 189.2,1591.1 	"/>
	<polyline class="st38" points="207.3,1591.1 198.3,1582.1 189.2,1591.1 	"/>
	<polyline points="185.8,1591.1 176.7,1582.1 167.7,1591.1 	"/>
	<polyline class="st38" points="185.8,1591.1 176.7,1582.1 167.7,1591.1 	"/>
	<g>
		<g>
			<rect id="SVGID_204_" x="54.9" y="1518.2" class="st27" width="96.6" height="72.7"/>
		</g>
		<g>
			<g>
				<g>
					<g>
						<defs>
							<rect id="SVGID_68_" x="54.9" y="1518.2" width="96.6" height="72.7"/>
						</defs>
						<clipPath id="SVGID_69_">
							<use xlink:href="#SVGID_68_"  style="overflow:visible;"/>
						</clipPath>
						<rect x="54.9" y="1518.2" class="st53" width="96.6" height="72.7"/>
					</g>
				</g>
			</g>
		</g>
	</g>
	<rect x="54.9" y="1518.2" class="st35" width="96.6" height="72.7"/>
	<g>
		<path d="M62.6,1519.2c0,0-2.1,9.1,1.3,18.7c3.5,9.6,9.7,17.4,11.1,29.9c1.3,12.5,0,13.7,0,13.7H55.5v-62.3H62.6z"/>
		<path d="M144.2,1519.2c0,0,2.1,9.1-1.3,18.7c-3.5,9.6-9.7,17.4-11.1,29.9c-1.3,12.5,0,13.8,0,13.8h19.7v-62.4H144.2z"/>
	</g>
	<g>
		<g>
			<g>
				<g>
					<g>
						<defs>
							<rect id="SVGID_70_" x="54.9" y="1582.1" width="96.6" height="8.7"/>
						</defs>
						<clipPath id="SVGID_71_">
							<use xlink:href="#SVGID_70_"  style="overflow:visible;"/>
						</clipPath>
						<rect x="54.9" y="1581.5" class="st54" width="96.6" height="8.7"/>
					</g>
				</g>
			</g>
		</g>
	</g>
	<rect x="54.9" y="1582.1" class="st35" width="96.6" height="8.7"/>
	<polyline points="58.3,1591.1 67.3,1582.1 76.4,1591.1 	"/>
	<polyline class="st38" points="58.3,1591.1 67.3,1582.1 76.4,1591.1 	"/>
	<polyline points="79.8,1591.1 88.8,1582.1 97.9,1591.1 	"/>
	<polyline class="st38" points="79.8,1591.1 88.8,1582.1 97.9,1591.1 	"/>
	<polyline points="101.3,1591.1 110.4,1582.1 119.4,1591.1 	"/>
	<polyline class="st38" points="101.3,1591.1 110.4,1582.1 119.4,1591.1 	"/>
	<polyline points="122.8,1591.1 131.9,1582.1 140.9,1591.1 	"/>
	<polyline class="st38" points="122.8,1591.1 131.9,1582.1 140.9,1591.1 	"/>
	<polygon class="st17" points="52.2,1590.3 64.2,1641.8 242.2,1641.8 253,1590.3 	"/>
	<polygon class="st35" points="52.2,1591.4 64.2,1642.9 242.2,1642.9 253,1591.4 	"/>
	<polygon class="st17" points="52.2,900.2 64.2,848.7 242.2,848.7 253,900.2 	"/>
	<polygon class="st35" points="52.2,900.2 64.2,848.7 242.2,848.7 253,900.2 	"/>
	<rect x="52.2" y="901.2" class="st35" width="201.2" height="199.7"/>
	<rect x="52.2" y="1102.2" class="st35" width="201.2" height="266.7"/>
	<rect x="52.2" y="1090.3" class="st21" width="340.4" height="15.2"/>
	<polyline class="st55" points="393.3,1591.5 393.3,900.1 596.1,900.1 596.1,1591.5 	"/>
	<line class="st56" x1="253.4" y1="1591.5" x2="253.4" y2="900.1"/>
	<path d="M734.3,1595.8c-1.6,0-2.8-1.2-2.8-2.8s1.2-2.8,2.8-2.8s2.8,1.2,2.8,2.8C736.9,1594.6,735.7,1595.8,734.3,1595.8"/>
	<line class="st57" x1="753" y1="1609.8" x2="734.3" y2="1593.1"/>
	<path d="M257.2,900.7c0-1.6-1.2-2.8-2.8-2.8c-1.6,0-2.8,1.2-2.8,2.8s1.2,2.8,2.8,2.8C256,903.5,257.2,902.3,257.2,900.7"/>
	<line class="st57" x1="254.4" y1="836.2" x2="254.4" y2="898.7"/>
	<path d="M739.1,900.7c0-1.6-1.2-2.8-2.8-2.8s-2.8,1.2-2.8,2.8s1.2,2.8,2.8,2.8S739.1,902.3,739.1,900.7"/>
	<line class="st57" x1="736.3" y1="836.2" x2="736.3" y2="898.7"/>
	<path d="M396.1,900.7c0-1.6-1.2-2.8-2.8-2.8c-1.6,0-2.8,1.2-2.8,2.8s1.2,2.8,2.8,2.8C394.8,903.5,396.1,902.3,396.1,900.7"/>
	<line class="st57" x1="385" y1="836.2" x2="393.3" y2="898.7"/>
	<path d="M598.8,900.7c0-1.6-1.2-2.8-2.8-2.8s-2.8,1.2-2.8,2.8s1.2,2.8,2.8,2.8C597.5,903.5,598.8,902.3,598.8,900.7"/>
	<line class="st57" x1="605.7" y1="836.2" x2="596.1" y2="898.7"/>
	<g>
		<text transform="matrix(1 0 0 1 742.2607 1622.4805)" class="st58 st59">Fold</text>
	</g>
	<g>
		<text transform="matrix(1 0 0 1 238.7056 825.4414)" class="st58 st59">Fold</text>
	</g>
	<g>
		<text transform="matrix(1 0 0 1 358.6943 825.4414)" class="st58 st59">Fold</text>
	</g>
	<g>
		<text transform="matrix(1 0 0 1 601.1328 825.4414)" class="st58 st59">Fold</text>
	</g>
	<g>
		<text transform="matrix(1 0 0 1 720.4414 825.4414)" class="st58 st59">Fold</text>
	</g>
	<polyline class="st35" points="498.8,1517.1 498.8,1429.2 493.4,1429.2 493.4,1517.4 	"/>
	<path class="st11" d="M318,1007.5c0,0,13.8-6.2,19.7,5c4.5,8.3-0.4,11.1-4.1,14.3c-5.3,4.6-12.8,1-8.1,8.5l4.6,7.4
		c0,0-12-2.2-9.3-10.9c2.8-8.6,11.8-10.5,11.8-10.5S338.4,1007.3,318,1007.5"/>
	<path class="st11" d="M311.6,1030.6c0,0-4.6-17.7,6.5-23.2c0,0,1,3.7,1,8.3C318.9,1020.3,311.6,1024.1,311.6,1030.6"/>
	<path class="st60" d="M341.6,1010l3.2-3.6c0,0-15.7-17.7-29.6-12.1c-13.9,5.6-18.5,21.3-10.2,42.7c8.3,21.3,17.7,24.1,23.2,24.1
		c5.5,0,5.6-9.3,5.6-9.3s-3.7,9.3-13.9,0s-19.5-25-12.1-42.7C315.2,991.8,337.6,1003.4,341.6,1010"/>
	<path class="st11" d="M341.6,1010l3.2-3.6c0,0-15.7-17.7-29.6-12.1c-13.9,5.6-18.5,21.3-10.2,42.7c8.3,21.3,17.7,24.1,23.2,24.1
		c5.5,0,5.6-9.3,5.6-9.3s-3.7,9.3-13.9,0s-18.7-28.3-11.4-46C315.9,988.4,337.6,1003.4,341.6,1010z"/>
	<line class="st35" x1="52.2" y1="901.2" x2="52.2" y2="1591.4"/>
	<line class="st35" x1="255.8" y1="1517" x2="392" y2="1517.3"/>
	<line class="st35" x1="598.5" y1="1517" x2="736.9" y2="1517.3"/>
	<path class="st35" d="M392.6,900.7"/>
	<line class="st35" x1="255.3" y1="1368.1" x2="391.6" y2="1368.1"/>
	<line class="st35" x1="255.3" y1="1393.7" x2="391.6" y2="1393.7"/>
	<line class="st35" x1="598.5" y1="1368.1" x2="736.9" y2="1368.1"/>
	<line class="st35" x1="598.5" y1="1393.7" x2="736.9" y2="1393.7"/>
	<line class="st35" x1="396.1" y1="1393.7" x2="594.9" y2="1393.7"/>
	<line class="st35" x1="395.5" y1="1368.1" x2="594.9" y2="1368.1"/>
	<path d="M530.3,1375.3c3-0.1,3,1.1,3,2.2c0,1,0,2.2-2.9,2.4c-3,0.1-3-1.2-3-2.2C527.4,1376.6,527.4,1375.4,530.3,1375.3"/>
	<path d="M530.3,1370.3c3-0.1,3,1.1,3,2.2c0,1,0,2.2-2.9,2.4c-3,0.1-3-1.2-3-2.2C527.3,1371.7,527.3,1370.5,530.3,1370.3"/>
	<path d="M530.4,1380.3c3-0.1,3,1.1,3,2.2c0,1,0,2.2-2.9,2.4c-3,0.1-3-1.2-3-2.2C527.4,1381.7,527.4,1380.5,530.4,1380.3"/>
	<path d="M530.6,1385.3c3-0.1,3,1.1,3,2.2c0,1,0,2.2-2.9,2.4c-3,0.1-3-1.2-3-2.2C527.5,1386.7,527.5,1385.5,530.6,1385.3"/>
	<path d="M540.2,1375.4c3-0.1,3,1.1,3,2.2c0,1,0,2.2-2.9,2.4c-3,0.1-3-1.2-3-2.2C537.3,1376.9,537.2,1375.6,540.2,1375.4"/>
	<path d="M540.2,1370.5c3-0.1,3,1.1,3,2.2c0,1,0,2.2-2.9,2.4c-3,0.1-3-1.2-3-2.2C537.2,1371.7,537.2,1370.5,540.2,1370.5"/>
	<path d="M540.3,1380.5c3-0.1,3,1.1,3,2.2c0,1,0,2.2-2.9,2.4c-3,0.1-3-1.2-3-2.2C537.3,1381.8,537.3,1380.6,540.3,1380.5"/>
	<path d="M540.3,1385.5c3-0.1,3,1.1,3,2.2c0,1,0,2.2-2.9,2.4c-3,0.1-3-1.2-3-2.2S537.4,1385.6,540.3,1385.5"/>
	<path d="M550,1375.4c3-0.1,3,1.1,3,2.2c0,1,0,2.2-2.9,2.4c-3,0.1-3-1.2-3-2.2C547.1,1376.9,547,1375.6,550,1375.4"/>
	<path d="M549.9,1370.5c3-0.1,3,1.1,3,2.2c0,1,0,2.2-2.9,2.4c-3,0.1-3-1.2-3-2.2C547,1371.7,547,1370.5,549.9,1370.5"/>
	<path d="M550.2,1380.5c3-0.1,3,1.1,3,2.2c0,1,0,2.2-2.9,2.4c-3,0.1-3-1.2-3-2.2C547.1,1381.8,547.1,1380.6,550.2,1380.5"/>
	<path d="M550.2,1385.5c3-0.1,3,1.1,3,2.2c0,1,0,2.2-2.9,2.4c-3,0.1-3-1.2-3-2.2C547.2,1386.8,547.1,1385.6,550.2,1385.5"/>
	<path d="M560.6,1375.4c3-0.1,3,1.1,3,2.2c0,1,0,2.2-2.9,2.4c-3,0.1-3-1.2-3-2.2C557.5,1376.9,557.5,1375.6,560.6,1375.4"/>
	<path d="M560.5,1370.5c3-0.1,3,1.1,3,2.2c0,1,0,2.2-2.9,2.4c-3,0.1-3-1.2-3-2.2C557.5,1371.7,557.4,1370.5,560.5,1370.5"/>
	<path d="M560.8,1380.5c3-0.1,3,1.1,3,2.2c0,1,0,2.2-2.9,2.4c-3,0.1-3-1.2-3-2.2C557.7,1381.8,557.7,1380.6,560.8,1380.5"/>
	<path d="M560.8,1385.5c3-0.1,3,1.1,3,2.2c0,1,0,2.2-2.9,2.4c-3,0.1-3-1.2-3-2.2S557.7,1385.6,560.8,1385.5"/>
	<path d="M571.8,1375.4c3-0.1,3,1.1,3,2.2c0,1,0,2.2-2.9,2.4c-3,0.1-3-1.2-3-2.2C568.6,1376.9,568.6,1375.6,571.8,1375.4"/>
	<path d="M571.5,1370.5c3-0.1,3,1.1,3,2.2c0,1,0,2.2-2.9,2.4c-3,0.1-3-1.2-3-2.2C568.6,1371.7,568.5,1370.5,571.5,1370.5"/>
	<path d="M571.9,1380.5c3-0.1,3,1.1,3,2.2c0,1,0,2.2-2.9,2.4c-3,0.1-3-1.2-3-2.2C568.9,1381.8,568.9,1380.6,571.9,1380.5"/>
	<path d="M571.9,1385.5c3-0.1,3,1.1,3,2.2c0,1,0,2.2-2.9,2.4c-3,0.1-3-1.2-3-2.2C569,1386.8,568.9,1385.6,571.9,1385.5"/>
	<path d="M582.9,1375.4c3-0.1,3,1.1,3,2.2c0,1,0,2.2-2.9,2.4c-3,0.1-3-1.2-3-2.2C579.8,1376.9,579.8,1375.6,582.9,1375.4"/>
	<path d="M582.7,1370.5c3-0.1,3,1.1,3,2.2c0,1,0,2.2-2.9,2.4c-3,0.1-3-1.2-3-2.2C579.8,1371.7,579.6,1370.5,582.7,1370.5"/>
	<path d="M583,1380.5c3-0.1,3,1.1,3,2.2c0,1,0,2.2-2.9,2.4c-3,0.1-3-1.2-3-2.2C579.9,1381.8,579.9,1380.6,583,1380.5"/>
	<g>
		<path d="M606.5,1377.8c3-0.1,3,1.1,3,2.2c0,1,0,2.2-2.9,2.4c-3,0.1-3-1.2-3-2.2C603.3,1379.2,603.3,1378,606.5,1377.8"/>
		<path d="M606.3,1372.8c3-0.1,3,1.1,3,2.2c0,1,0,2.2-2.9,2.4c-3,0.1-3-1.2-3-2.2C603.3,1374.2,603.2,1373,606.3,1372.8"/>
		<path d="M606.6,1382.9c3-0.1,3,1.1,3,2.2c0,1,0,2.2-2.9,2.4c-3,0.1-3-1.2-3-2.2C603.6,1384.2,603.6,1382.9,606.6,1382.9"/>
		<path d="M617.1,1377.8c3-0.1,3,1.1,3,2.2c0,1,0,2.2-2.9,2.4c-3,0.1-3-1.2-3-2.2C614.2,1379.2,614.2,1378,617.1,1377.8"/>
		<path d="M617.1,1372.8c3-0.1,3,1.1,3,2.2c0,1,0,2.2-2.9,2.4c-3,0.1-3-1.2-3-2.2C614.1,1374.2,614.1,1373,617.1,1372.8"/>
		<path d="M617.2,1382.9c3-0.1,3,1.1,3,2.2c0,1,0,2.2-2.9,2.4c-3,0.1-3-1.2-3-2.2C614.2,1384.2,614.2,1382.9,617.2,1382.9"/>
		<path d="M628,1377.8c3-0.1,3,1.1,3,2.2c0,1,0,2.2-2.9,2.4c-3,0.1-3-1.2-3-2.2C625,1379.2,625,1378,628,1377.8"/>
		<path d="M627.9,1372.8c3-0.1,3,1.1,3,2.2c0,1,0,2.2-2.9,2.4c-3,0.1-3-1.2-3-2.2C625,1374.2,624.7,1373,627.9,1372.8"/>
		<path d="M628.1,1382.9c3-0.1,3,1.1,3,2.2c0,1,0,2.2-2.9,2.4c-3,0.1-3-1.2-3-2.2C625.1,1384.2,625.1,1382.9,628.1,1382.9"/>
		<path d="M638.6,1377.8c3-0.1,3,1.1,3,2.2c0,1,0,2.2-2.9,2.4c-3,0.1-3-1.2-3-2.2C635.7,1379.2,635.7,1378,638.6,1377.8"/>
		<path d="M638.6,1372.8c3-0.1,3,1.1,3,2.2c0,1,0,2.2-2.9,2.4c-3,0.1-3-1.2-3-2.2C635.6,1374.2,635.6,1373,638.6,1372.8"/>
		<path d="M638.8,1382.9c3-0.1,3,1.1,3,2.2c0,1,0,2.2-2.9,2.4c-3,0.1-3-1.2-3-2.2C635.7,1384.2,635.7,1382.9,638.8,1382.9"/>
	</g>
	<g>
		<path d="M349.5,1377.8c3-0.1,3,1.1,3,2.2c0,1,0,2.2-2.9,2.4c-3,0.1-3-1.2-3-2.2C346.5,1379.2,346.5,1378,349.5,1377.8"/>
		<path d="M349.4,1372.8c3-0.1,3,1.1,3,2.2c0,1,0,2.2-2.9,2.4c-3,0.1-3-1.2-3-2.2S346.4,1373,349.4,1372.8"/>
		<path d="M349.6,1382.9c3-0.1,3,1.1,3,2.2c0,1,0,2.2-2.9,2.4c-3,0.1-3-1.2-3-2.2C346.6,1384.2,346.6,1382.9,349.6,1382.9"/>
		<path d="M360.2,1377.8c3-0.1,3,1.1,3,2.2c0,1,0,2.2-2.9,2.4c-3,0.1-3-1.2-3-2.2C357.3,1379.2,357.3,1378,360.2,1377.8"/>
		<path d="M360.2,1372.8c3-0.1,3,1.1,3,2.2c0,1,0,2.2-2.9,2.4c-3,0.1-3-1.2-3-2.2C357.1,1374.2,357.1,1373,360.2,1372.8"/>
		<path d="M360.4,1382.9c3-0.1,3,1.1,3,2.2c0,1,0,2.2-2.9,2.4c-3,0.1-3-1.2-3-2.2C357.3,1384.2,357.3,1382.9,360.4,1382.9"/>
		<path d="M371,1377.8c3-0.1,3,1.1,3,2.2c0,1,0,2.2-2.9,2.4c-3,0.1-3-1.2-3-2.2C368,1379.2,368,1378,371,1377.8"/>
		<path d="M370.9,1372.8c3-0.1,3,1.1,3,2.2c0,1,0,2.2-2.9,2.4c-3,0.1-3-1.2-3-2.2S367.9,1373,370.9,1372.8"/>
		<path d="M371.2,1382.9c3-0.1,3,1.1,3,2.2c0,1,0,2.2-2.9,2.4c-3,0.1-3-1.2-3-2.2C368.1,1384.2,368.1,1382.9,371.2,1382.9"/>
		<path d="M381.7,1377.8c3-0.1,3,1.1,3,2.2c0,1,0,2.2-2.9,2.4c-3,0.1-3-1.2-3-2.2C378.8,1379.2,378.8,1378,381.7,1377.8"/>
		<path d="M381.7,1372.8c3-0.1,3,1.1,3,2.2c0,1,0,2.2-2.9,2.4c-3,0.1-3-1.2-3-2.2C378.7,1374.2,378.7,1373,381.7,1372.8"/>
		<path d="M381.9,1382.9c3-0.1,3,1.1,3,2.2c0,1,0,2.2-2.9,2.4c-3,0.1-3-1.2-3-2.2C378.8,1384.2,378.8,1382.9,381.9,1382.9"/>
	</g>
	<path d="M583,1385.5c3-0.1,3,1.1,3,2.2c0,1,0,2.2-2.9,2.4c-3,0.1-3-1.2-3-2.2S579.9,1385.6,583,1385.5"/>
	<path d="M460.2,1375.3c-3-0.1-3,1.1-3,2.2c0,1,0,2.2,2.9,2.4c3,0.1,3-1.2,3-2.2C463.1,1376.6,463.3,1375.4,460.2,1375.3"/>
	<path d="M460.2,1370.3c-3-0.1-3,1.1-3,2.2c0,1,0,2.2,2.9,2.4c3,0.1,3-1.2,3-2.2C463.3,1371.7,463.3,1370.5,460.2,1370.3"/>
	<path d="M460,1380.3c-3-0.1-3,1.1-3,2.2c0,1,0,2.2,2.9,2.4c3,0.1,3-1.2,3-2.2C463.1,1381.7,463.1,1380.5,460,1380.3"/>
	<path d="M460,1385.3c-3-0.1-3,1.1-3,2.2c0,1,0,2.2,2.9,2.4c3,0.1,3-1.2,3-2.2C463,1386.7,463,1385.5,460,1385.3"/>
	<path d="M450.4,1375.4c-3-0.1-3,1.1-3,2.2c0,1,0,2.2,2.9,2.4c3,0.1,3-1.2,3-2.2C453.3,1376.9,453.4,1375.6,450.4,1375.4"/>
	<path d="M450.4,1370.5c-3-0.1-3,1.1-3,2.2c0,1,0,2.2,2.9,2.4c3,0.1,3-1.2,3-2.2C453.4,1371.7,453.4,1370.5,450.4,1370.5"/>
	<path d="M450.2,1380.5c-3-0.1-3,1.1-3,2.2c0,1,0,2.2,2.9,2.4c3,0.1,3-1.2,3-2.2C453.3,1381.8,453.3,1380.6,450.2,1380.5"/>
	<path d="M450.2,1385.5c-3-0.1-3,1.1-3,2.2c0,1,0,2.2,2.9,2.4c3,0.1,3-1.2,3-2.2S453.1,1385.6,450.2,1385.5"/>
	<path d="M440.5,1375.4c-3-0.1-3,1.1-3,2.2c0,1,0,2.2,2.9,2.4c3,0.1,3-1.2,3-2.2C443.6,1376.9,443.6,1375.6,440.5,1375.4"/>
	<path d="M440.6,1370.5c-3-0.1-3,1.1-3,2.2c0,1,0,2.2,2.9,2.4c3,0.1,3-1.2,3-2.2C443.6,1371.7,443.6,1370.5,440.6,1370.5"/>
	<path d="M440.3,1380.5c-3-0.1-3,1.1-3,2.2c0,1,0,2.2,2.9,2.4c3,0.1,3-1.2,3-2.2C443.4,1381.8,443.4,1380.6,440.3,1380.5"/>
	<path d="M440.3,1385.5c-3-0.1-3,1.1-3,2.2c0,1,0,2.2,2.9,2.4c3,0.1,3-1.2,3-2.2C443.2,1386.8,443.4,1385.6,440.3,1385.5"/>
	<path d="M429.9,1375.4c-3-0.1-3,1.1-3,2.2c0,1,0,2.2,2.9,2.4c3,0.1,3-1.2,3-2.2C433,1376.9,433,1375.6,429.9,1375.4"/>
	<path d="M430.1,1370.5c-3-0.1-3,1.1-3,2.2c0,1,0,2.2,2.9,2.4c3,0.1,3-1.2,3-2.2C433,1371.7,433.1,1370.5,430.1,1370.5"/>
	<path d="M429.9,1380.5c-3-0.1-3,1.1-3,2.2c0,1,0,2.2,2.9,2.4c3,0.1,3-1.2,3-2.2S432.8,1380.6,429.9,1380.5"/>
	<path d="M429.8,1385.5c-3-0.1-3,1.1-3,2.2c0,1,0,2.2,2.9,2.4c3,0.1,3-1.2,3-2.2C432.8,1386.8,432.8,1385.6,429.8,1385.5"/>
	<path d="M418.8,1375.4c-3-0.1-3,1.1-3,2.2c0,1,0,2.2,2.9,2.4c3,0.1,3-1.2,3-2.2C421.8,1376.9,421.8,1375.6,418.8,1375.4"/>
	<path d="M418.9,1370.5c-3-0.1-3,1.1-3,2.2c0,1,0,2.2,2.9,2.4c3,0.1,3-1.2,3-2.2C421.8,1371.7,422.1,1370.5,418.9,1370.5"/>
	<path d="M418.8,1380.5c-3-0.1-3,1.1-3,2.2c0,1,0,2.2,2.9,2.4c3,0.1,3-1.2,3-2.2S421.7,1380.6,418.8,1380.5"/>
	<path d="M418.7,1385.5c-3-0.1-3,1.1-3,2.2c0,1,0,2.2,2.9,2.4c3,0.1,3-1.2,3-2.2C421.7,1386.8,421.7,1385.6,418.7,1385.5"/>
	<path d="M407.7,1375.4c-3-0.1-3,1.1-3,2.2c0,1,0,2.2,2.9,2.4c3,0.1,3-1.2,3-2.2C410.7,1376.9,410.7,1375.6,407.7,1375.4"/>
	<path d="M407.8,1370.5c-3-0.1-3,1.1-3,2.2c0,1,0,2.2,2.9,2.4c3,0.1,3-1.2,3-2.2C410.7,1371.7,410.9,1370.5,407.8,1370.5"/>
	<path d="M407.7,1380.5c-3-0.1-3,1.1-3,2.2c0,1,0,2.2,2.9,2.4c3,0.1,3-1.2,3-2.2S410.6,1380.6,407.7,1380.5"/>
	<path d="M407.6,1385.5c-3-0.1-3,1.1-3,2.2c0,1,0,2.2,2.9,2.4c3,0.1,3-1.2,3-2.2C410.6,1386.8,410.6,1385.6,407.6,1385.5"/>
	<path class="st21" d="M672.8,1397.1c-0.4,1-1.3,1.1-2.5,1.8c-1.2,0.8-1.9,2.1-2.5,4.7c-0.4,1.8-0.7,4.1-0.7,4.1s-0.4-2.4-0.7-4.1
		c-0.6-2.7-1.2-3.9-2.5-4.7c-1-0.7-2.1-0.8-2.5-1.8l0.6,10.5c0,1.1,0.8,1.9,1.7,1.9h2.8h0.6h3.5c1,0,1.8-0.8,1.7-1.9L672.8,1397.1z"
		/>
	<path class="st17" d="M612.9,1102.3c-0.7-0.2-0.8-1.1-1.3-1.9c-0.7-1-1.7-1.7-3.7-2.1c-1.6-0.2-3.4-0.6-3.4-0.6s1.9-0.2,3.4-0.6
		c2.1-0.4,3-1,3.7-2.1c0.6-0.8,0.7-1.7,1.3-1.9l-8.6,0.6c-0.8,0-1.6,0.6-1.6,1.3v2.2v0.4v2.8c0,0.8,0.7,1.3,1.6,1.3L612.9,1102.3z"
		/>
	<path class="st17" d="M628,1102.3c-0.7-0.2-0.8-1.1-1.3-1.9c-0.7-1-1.7-1.7-3.7-2.1c-1.6-0.2-3.4-0.6-3.4-0.6s1.9-0.2,3.4-0.6
		c2.1-0.4,3-1,3.7-2.1c0.6-0.8,0.7-1.7,1.3-1.9l-8.6,0.6c-0.8,0-1.6,0.6-1.6,1.3v2.2v0.4v2.8c0,0.8,0.7,1.3,1.6,1.3L628,1102.3z"/>
	<path class="st17" d="M643,1102.3c-0.7-0.2-0.8-1.1-1.3-1.9c-0.7-1-1.7-1.7-3.7-2.1c-1.6-0.2-3.4-0.6-3.4-0.6s1.9-0.2,3.4-0.6
		c2.1-0.4,3-1,3.7-2.1c0.6-0.8,0.7-1.7,1.3-1.9l-8.6,0.6c-0.8,0-1.6,0.6-1.6,1.3v2.2v0.4v2.8c0,0.8,0.7,1.3,1.6,1.3L643,1102.3z"/>
	<path class="st17" d="M658.1,1102.3c-0.7-0.2-0.8-1.1-1.3-1.9c-0.7-1-1.7-1.7-3.7-2.1c-1.6-0.2-3.4-0.6-3.4-0.6s1.9-0.2,3.4-0.6
		c2.1-0.4,3-1,3.7-2.1c0.6-0.8,0.7-1.7,1.3-1.9l-8.6,0.6c-0.8,0-1.6,0.6-1.6,1.3v2.2v0.4v2.8c0,0.8,0.7,1.3,1.6,1.3L658.1,1102.3z"
		/>
	<path class="st17" d="M673.2,1102.3c-0.7-0.2-0.8-1.1-1.3-1.9c-0.7-1-1.7-1.7-3.7-2.1c-1.6-0.2-3.4-0.6-3.4-0.6s1.9-0.2,3.4-0.6
		c2.1-0.4,3-1,3.7-2.1c0.6-0.8,0.7-1.7,1.3-1.9l-8.6,0.6c-0.8,0-1.6,0.6-1.6,1.3v2.2v0.4v2.8c0,0.8,0.7,1.3,1.6,1.3L673.2,1102.3z"
		/>
	<path class="st17" d="M688.3,1102.3c-0.7-0.2-0.8-1.1-1.3-1.9c-0.7-1-1.7-1.7-3.7-2.1c-1.6-0.2-3.4-0.6-3.4-0.6s1.9-0.2,3.4-0.6
		c2.1-0.4,3-1,3.7-2.1c0.6-0.8,0.7-1.7,1.3-1.9l-8.6,0.6c-0.8,0-1.6,0.6-1.6,1.3v2.2v0.4v2.8c0,0.8,0.7,1.3,1.6,1.3L688.3,1102.3z"
		/>
	<path class="st17" d="M703.3,1102.3c-0.7-0.2-0.8-1.1-1.3-1.9c-0.7-1-1.7-1.7-3.7-2.1c-1.6-0.2-3.4-0.6-3.4-0.6s1.9-0.2,3.4-0.6
		c2.1-0.4,3-1,3.7-2.1c0.6-0.8,0.7-1.7,1.3-1.9l-8.6,0.6c-0.8,0-1.6,0.6-1.6,1.3v2.2v0.4v2.8c0,0.8,0.7,1.3,1.6,1.3L703.3,1102.3z"
		/>
	<path class="st17" d="M718.5,1102.3c-0.7-0.2-0.8-1.1-1.3-1.9c-0.7-1-1.7-1.7-3.7-2.1c-1.6-0.2-3.4-0.6-3.4-0.6s1.9-0.2,3.4-0.6
		c2.1-0.4,3-1,3.7-2.1c0.6-0.8,0.7-1.7,1.3-1.9l-8.5,0.6c-0.8,0-1.6,0.6-1.6,1.3v2.2v0.4v2.8c0,0.8,0.7,1.3,1.6,1.3L718.5,1102.3z"
		/>
	<path class="st17" d="M733.7,1102.3c-0.7-0.2-0.8-1.1-1.3-1.9c-0.7-1-1.7-1.7-3.7-2.1c-1.6-0.2-3.4-0.6-3.4-0.6s1.9-0.2,3.4-0.6
		c2.1-0.4,3-1,3.7-2.1c0.6-0.8,0.7-1.7,1.3-1.9l-8.6,0.6c-0.8,0-1.6,0.6-1.6,1.3v2.2v0.4v2.8c0,0.8,0.7,1.3,1.6,1.3L733.7,1102.3z"
		/>
	<path class="st17" d="M387.9,1101.7c0.8,0,1.6-0.6,1.6-1.3v-2.8v-0.4v-2.2c0-0.8-0.7-1.3-1.6-1.3l-8.6-0.6c0.7,0.2,0.8,1.1,1.3,1.9
		c0.7,1,1.7,1.7,3.7,2.1c1.6,0.2,3.4,0.6,3.4,0.6s-1.9,0.2-3.4,0.6c-2.1,0.4-3,1-3.7,2.1c-0.6,0.8-0.7,1.7-1.3,1.9L387.9,1101.7z"/>
	<path class="st17" d="M372.9,1101.7c0.8,0,1.6-0.6,1.6-1.3v-2.8v-0.4v-2.2c0-0.8-0.7-1.3-1.6-1.3l-8.6-0.6c0.7,0.2,0.8,1.1,1.3,1.9
		c0.7,1,1.7,1.7,3.7,2.1c1.6,0.2,3.4,0.6,3.4,0.6s-1.9,0.2-3.4,0.6c-2.1,0.4-3,1-3.7,2.1c-0.6,0.8-0.7,1.7-1.3,1.9L372.9,1101.7z"/>
	<path class="st17" d="M357.7,1101.7c0.8,0,1.6-0.6,1.6-1.3v-2.8v-0.4v-2.2c0-0.8-0.7-1.3-1.6-1.3l-8.6-0.6c0.7,0.2,0.8,1.1,1.3,1.9
		c0.7,1,1.7,1.7,3.7,2.1c1.6,0.2,3.4,0.6,3.4,0.6s-1.9,0.2-3.4,0.6c-2.1,0.4-3,1-3.7,2.1c-0.6,0.8-0.7,1.7-1.3,1.9L357.7,1101.7z"/>
	<path class="st17" d="M342.5,1101.7c0.8,0,1.6-0.6,1.6-1.3v-2.8v-0.4v-2.2c0-0.8-0.7-1.3-1.6-1.3l-8.6-0.6c0.7,0.2,0.8,1.1,1.3,1.9
		c0.7,1,1.7,1.7,3.7,2.1c1.6,0.2,3.4,0.6,3.4,0.6s-1.9,0.2-3.4,0.6c-2.1,0.4-3,1-3.7,2.1c-0.6,0.8-0.7,1.7-1.3,1.9L342.5,1101.7z"/>
	<path class="st17" d="M327.4,1101.7c0.8,0,1.6-0.6,1.6-1.3v-2.8v-0.4v-2.2c0-0.8-0.7-1.3-1.6-1.3l-8.6-0.6c0.7,0.2,0.8,1.1,1.3,1.9
		c0.7,1,1.7,1.7,3.7,2.1c1.6,0.2,3.4,0.6,3.4,0.6s-1.9,0.2-3.4,0.6c-2.1,0.4-3,1-3.7,2.1c-0.6,0.8-0.7,1.7-1.3,1.9L327.4,1101.7z"/>
	<path class="st17" d="M312.4,1101.7c0.8,0,1.6-0.6,1.6-1.3v-2.8v-0.4v-2.2c0-0.8-0.7-1.3-1.6-1.3l-8.6-0.6c0.7,0.2,0.8,1.1,1.3,1.9
		c0.7,1,1.7,1.7,3.7,2.1c1.6,0.2,3.4,0.6,3.4,0.6s-1.9,0.2-3.4,0.6c-2.1,0.4-3,1-3.7,2.1c-0.6,0.8-0.7,1.7-1.3,1.9L312.4,1101.7z"/>
	<path class="st17" d="M297.3,1101.7c0.8,0,1.6-0.6,1.6-1.3v-2.8v-0.4v-2.2c0-0.8-0.7-1.3-1.6-1.3l-8.6-0.6c0.7,0.2,0.8,1.1,1.3,1.9
		c0.7,1,1.7,1.7,3.7,2.1c1.6,0.2,3.4,0.6,3.4,0.6s-1.9,0.2-3.4,0.6c-2.1,0.4-3,1-3.7,2.1c-0.6,0.8-0.7,1.7-1.3,1.9L297.3,1101.7z"/>
	<path class="st17" d="M282.2,1101.7c0.8,0,1.6-0.6,1.6-1.3v-2.8v-0.4v-2.2c0-0.8-0.7-1.3-1.6-1.3l-8.6-0.6c0.7,0.2,0.8,1.1,1.3,1.9
		c0.7,1,1.7,1.7,3.7,2.1c1.6,0.2,3.4,0.6,3.4,0.6s-1.9,0.2-3.4,0.6c-2.1,0.4-3,1-3.7,2.1c-0.6,0.8-0.7,1.7-1.3,1.9L282.2,1101.7z"/>
	<path class="st17" d="M267.1,1101.7c0.8,0,1.6-0.6,1.6-1.3v-2.8v-0.4v-2.2c0-0.8-0.7-1.3-1.6-1.3l-8.6-0.6c0.7,0.2,0.8,1.1,1.3,1.9
		c0.7,1,1.7,1.7,3.7,2.1c1.6,0.2,3.4,0.6,3.4,0.6s-1.9,0.2-3.4,0.6c-2.1,0.4-3,1-3.7,2.1c-0.6,0.8-0.7,1.7-1.3,1.9L267.1,1101.7z"/>
	<path class="st17" d="M247.1,1101.7c0.8,0,1.6-0.6,1.6-1.3v-2.8v-0.4v-2.2c0-0.8-0.7-1.3-1.6-1.3l-8.6-0.6c0.7,0.2,0.8,1.1,1.3,1.9
		c0.7,1,1.7,1.7,3.7,2.1c1.6,0.2,3.4,0.6,3.4,0.6s-1.9,0.2-3.4,0.6c-2.1,0.4-3,1-3.7,2.1c-0.6,0.8-0.7,1.7-1.3,1.9L247.1,1101.7z"/>
	<path class="st17" d="M232,1101.7c0.8,0,1.6-0.6,1.6-1.3v-2.8v-0.4v-2.2c0-0.8-0.7-1.3-1.6-1.3l-8.6-0.6c0.7,0.2,0.8,1.1,1.3,1.9
		c0.7,1,1.7,1.7,3.7,2.1c1.6,0.2,3.4,0.6,3.4,0.6s-1.9,0.2-3.4,0.6c-2.1,0.4-3,1-3.7,2.1c-0.6,0.8-0.7,1.7-1.3,1.9L232,1101.7z"/>
	<path class="st17" d="M217,1101.7c0.8,0,1.6-0.6,1.6-1.3v-2.8v-0.4v-2.2c0-0.8-0.7-1.3-1.6-1.3l-8.6-0.6c0.7,0.2,0.8,1.1,1.3,1.9
		c0.7,1,1.7,1.7,3.7,2.1c1.6,0.2,3.4,0.6,3.4,0.6s-1.9,0.2-3.4,0.6c-2.1,0.4-3,1-3.7,2.1c-0.6,0.8-0.7,1.7-1.3,1.9L217,1101.7z"/>
	<path class="st17" d="M201.9,1101.7c0.8,0,1.6-0.6,1.6-1.3v-2.8v-0.4v-2.2c0-0.8-0.7-1.3-1.6-1.3l-8.6-0.6c0.7,0.2,0.8,1.1,1.3,1.9
		c0.7,1,1.7,1.7,3.7,2.1c1.6,0.2,3.4,0.6,3.4,0.6s-1.9,0.2-3.4,0.6c-2.1,0.4-3,1-3.7,2.1c-0.6,0.8-0.7,1.7-1.3,1.9L201.9,1101.7z"/>
	<path class="st17" d="M186.8,1101.7c0.8,0,1.6-0.6,1.6-1.3v-2.8v-0.4v-2.2c0-0.8-0.7-1.3-1.6-1.3l-8.6-0.6c0.7,0.2,0.8,1.1,1.3,1.9
		c0.7,1,1.7,1.7,3.7,2.1c1.6,0.2,3.4,0.6,3.4,0.6s-1.9,0.2-3.4,0.6c-2.1,0.4-3,1-3.7,2.1c-0.6,0.8-0.7,1.7-1.3,1.9L186.8,1101.7z"/>
	<path class="st17" d="M171.7,1101.7c0.8,0,1.6-0.6,1.6-1.3v-2.8v-0.4v-2.2c0-0.8-0.7-1.3-1.6-1.3l-8.6-0.6c0.7,0.2,0.8,1.1,1.3,1.9
		c0.7,1,1.7,1.7,3.7,2.1c1.6,0.2,3.4,0.6,3.4,0.6s-1.9,0.2-3.4,0.6c-2.1,0.4-3,1-3.7,2.1c-0.6,0.8-0.7,1.7-1.3,1.9L171.7,1101.7z"/>
	<path class="st17" d="M67.6,1102.3c-0.7-0.2-0.8-1.1-1.3-1.9c-0.7-1-1.7-1.7-3.7-2.1c-1.6-0.2-3.4-0.6-3.4-0.6s1.9-0.2,3.4-0.6
		c2.1-0.4,3-1,3.7-2.1c0.6-0.8,0.7-1.7,1.3-1.9l-8.6,0.6c-0.8,0-1.6,0.6-1.6,1.3v2.2v0.4v2.8c0,0.8,0.7,1.3,1.6,1.3L67.6,1102.3z"/>
	<path class="st17" d="M82.8,1102.3c-0.7-0.2-0.8-1.1-1.3-1.9c-0.7-1-1.7-1.7-3.7-2.1c-1.6-0.2-3.4-0.6-3.4-0.6s1.9-0.2,3.4-0.6
		c2.1-0.4,3-1,3.7-2.1c0.6-0.8,0.7-1.7,1.3-1.9l-8.6,0.6c-0.8,0-1.6,0.6-1.6,1.3v2.2v0.4v2.8c0,0.8,0.7,1.3,1.6,1.3L82.8,1102.3z"/>
	<path class="st17" d="M97.9,1102.3c-0.7-0.2-0.8-1.1-1.3-1.9c-0.7-1-1.7-1.7-3.7-2.1c-1.6-0.2-3.4-0.6-3.4-0.6s1.9-0.2,3.4-0.6
		c2.1-0.4,3-1,3.7-2.1c0.6-0.8,0.7-1.7,1.3-1.9l-8.6,0.6c-0.8,0-1.6,0.6-1.6,1.3v2.2v0.4v2.8c0,0.8,0.7,1.3,1.6,1.3L97.9,1102.3z"/>
	<path class="st17" d="M112.9,1102.3c-0.7-0.2-0.8-1.1-1.3-1.9c-0.7-1-1.7-1.7-3.7-2.1c-1.6-0.2-3.4-0.6-3.4-0.6s1.9-0.2,3.4-0.6
		c2.1-0.4,3-1,3.7-2.1c0.6-0.8,0.7-1.7,1.3-1.9l-8.6,0.6c-0.8,0-1.6,0.6-1.6,1.3v2.2v0.4v2.8c0,0.8,0.7,1.3,1.6,1.3L112.9,1102.3z"
		/>
	<path class="st17" d="M128,1102.3c-0.7-0.2-0.8-1.1-1.3-1.9c-0.7-1-1.7-1.7-3.7-2.1c-1.6-0.2-3.4-0.6-3.4-0.6s1.9-0.2,3.4-0.6
		c2.1-0.4,3-1,3.7-2.1c0.6-0.8,0.7-1.7,1.3-1.9l-8.6,0.6c-0.8,0-1.6,0.6-1.6,1.3v2.2v0.4v2.8c0,0.8,0.7,1.3,1.6,1.3L128,1102.3z"/>
	<path class="st17" d="M143.1,1102.3c-0.7-0.2-0.8-1.1-1.3-1.9c-0.7-1-1.7-1.7-3.7-2.1c-1.6-0.2-3.4-0.6-3.4-0.6s1.9-0.2,3.4-0.6
		c2.1-0.4,3-1,3.7-2.1c0.6-0.8,0.7-1.7,1.3-1.9l-8.6,0.6c-0.8,0-1.6,0.6-1.6,1.3v2.2v0.4v2.8c0,0.8,0.7,1.3,1.6,1.3L143.1,1102.3z"
		/>
	<path class="st21" d="M672.8,1414.1c-0.4,1-1.3,1.1-2.5,1.8c-1.2,0.8-1.9,2.1-2.5,4.7c-0.4,1.8-0.7,4.1-0.7,4.1s-0.4-2.4-0.7-4.1
		c-0.6-2.7-1.2-3.9-2.5-4.7c-1-0.7-2.1-0.8-2.5-1.8l0.6,10.5c0,1.1,0.8,1.9,1.7,1.9h2.8h0.6h3.5c1,0,1.8-0.8,1.7-1.9L672.8,1414.1z"
		/>
	<path class="st21" d="M672.8,1431.2c-0.4,1-1.3,1.1-2.5,1.8c-1.2,0.8-1.9,2.1-2.5,4.7c-0.4,1.8-0.7,4.1-0.7,4.1s-0.4-2.4-0.7-4.1
		c-0.6-2.7-1.2-3.9-2.5-4.7c-1-0.7-2.1-0.8-2.5-1.8l0.6,10.5c0,1.1,0.8,1.9,1.7,1.9h2.8h0.6h3.5c1,0,1.8-0.8,1.7-1.9L672.8,1431.2z"
		/>
	<path class="st21" d="M672.8,1448.1c-0.4,1-1.3,1.1-2.5,1.8c-1.2,0.8-1.9,2.1-2.5,4.7c-0.4,1.8-0.7,4.1-0.7,4.1s-0.4-2.4-0.7-4.1
		c-0.6-2.7-1.2-3.9-2.5-4.7c-1-0.7-2.1-0.8-2.5-1.8l0.6,10.5c0,1.1,0.8,1.9,1.7,1.9h2.8h0.6h3.5c1,0,1.8-0.8,1.7-1.9L672.8,1448.1z"
		/>
	<path class="st21" d="M672.8,1465.1c-0.4,1-1.3,1.1-2.5,1.8c-1.2,0.8-1.9,2.1-2.5,4.7c-0.4,1.8-0.7,4.1-0.7,4.1s-0.4-2.4-0.7-4.1
		c-0.6-2.7-1.2-3.9-2.5-4.7c-1-0.7-2.1-0.8-2.5-1.8l0.6,10.5c0,1.1,0.8,1.9,1.7,1.9h2.8h0.6h3.5c1,0,1.8-0.8,1.7-1.9L672.8,1465.1z"
		/>
	<path class="st21" d="M672.8,1482.1c-0.4,1-1.3,1.1-2.5,1.8c-1.2,0.8-1.9,2.1-2.5,4.7c-0.4,1.8-0.7,4.1-0.7,4.1s-0.4-2.4-0.7-4.1
		c-0.6-2.7-1.2-3.9-2.5-4.7c-1-0.7-2.1-0.8-2.5-1.8l0.6,10.5c0,1.1,0.8,1.9,1.7,1.9h2.8h0.6h3.5c1,0,1.8-0.8,1.7-1.9L672.8,1482.1z"
		/>
	<path class="st21" d="M672.8,1499.2c-0.4,1-1.3,1.1-2.5,1.8c-1.2,0.8-1.9,2.1-2.5,4.7c-0.4,1.8-0.7,4.1-0.7,4.1s-0.4-2.4-0.7-4.1
		c-0.6-2.7-1.2-3.9-2.5-4.7c-1-0.7-2.1-0.8-2.5-1.8l0.6,10.5c0,1.1,0.8,1.9,1.7,1.9h2.8h0.6h3.5c1,0,1.8-0.8,1.7-1.9L672.8,1499.2z"
		/>
	<path class="st21" d="M329.7,1397.1c-0.4,1-1.3,1.1-2.5,1.8c-1.2,0.8-1.9,2.1-2.5,4.7c-0.4,1.8-0.7,4.1-0.7,4.1s-0.4-2.4-0.7-4.1
		c-0.6-2.7-1.2-3.9-2.5-4.7c-1-0.7-2.1-0.8-2.5-1.8l0.6,10.5c0,1.1,0.8,1.9,1.7,1.9h2.8h0.6h3.5c1,0,1.8-0.8,1.7-1.9L329.7,1397.1z"
		/>
	<path class="st21" d="M329.7,1414.1c-0.4,1-1.3,1.1-2.5,1.8c-1.2,0.8-1.9,2.1-2.5,4.7c-0.4,1.8-0.7,4.1-0.7,4.1s-0.4-2.4-0.7-4.1
		c-0.6-2.7-1.2-3.9-2.5-4.7c-1-0.7-2.1-0.8-2.5-1.8l0.6,10.5c0,1.1,0.8,1.9,1.7,1.9h2.8h0.6h3.5c1,0,1.8-0.8,1.7-1.9L329.7,1414.1z"
		/>
	<path class="st21" d="M329.7,1431.2c-0.4,1-1.3,1.1-2.5,1.8c-1.2,0.8-1.9,2.1-2.5,4.7c-0.4,1.8-0.7,4.1-0.7,4.1s-0.4-2.4-0.7-4.1
		c-0.6-2.7-1.2-3.9-2.5-4.7c-1-0.7-2.1-0.8-2.5-1.8l0.6,10.5c0,1.1,0.8,1.9,1.7,1.9h2.8h0.6h3.5c1,0,1.8-0.8,1.7-1.9L329.7,1431.2z"
		/>
	<path class="st21" d="M329.7,1448.1c-0.4,1-1.3,1.1-2.5,1.8c-1.2,0.8-1.9,2.1-2.5,4.7c-0.4,1.8-0.7,4.1-0.7,4.1s-0.4-2.4-0.7-4.1
		c-0.6-2.7-1.2-3.9-2.5-4.7c-1-0.7-2.1-0.8-2.5-1.8l0.6,10.5c0,1.1,0.8,1.9,1.7,1.9h2.8h0.6h3.5c1,0,1.8-0.8,1.7-1.9L329.7,1448.1z"
		/>
	<path class="st21" d="M329.7,1465.1c-0.4,1-1.3,1.1-2.5,1.8c-1.2,0.8-1.9,2.1-2.5,4.7c-0.4,1.8-0.7,4.1-0.7,4.1s-0.4-2.4-0.7-4.1
		c-0.6-2.7-1.2-3.9-2.5-4.7c-1-0.7-2.1-0.8-2.5-1.8l0.6,10.5c0,1.1,0.8,1.9,1.7,1.9h2.8h0.6h3.5c1,0,1.8-0.8,1.7-1.9L329.7,1465.1z"
		/>
	<path class="st21" d="M329.7,1482.1c-0.4,1-1.3,1.1-2.5,1.8c-1.2,0.8-1.9,2.1-2.5,4.7c-0.4,1.8-0.7,4.1-0.7,4.1s-0.4-2.4-0.7-4.1
		c-0.6-2.7-1.2-3.9-2.5-4.7c-1-0.7-2.1-0.8-2.5-1.8l0.6,10.5c0,1.1,0.8,1.9,1.7,1.9h2.8h0.6h3.5c1,0,1.8-0.8,1.7-1.9L329.7,1482.1z"
		/>
	<path class="st21" d="M329.7,1499.2c-0.4,1-1.3,1.1-2.5,1.8c-1.2,0.8-1.9,2.1-2.5,4.7c-0.4,1.8-0.7,4.1-0.7,4.1s-0.4-2.4-0.7-4.1
		c-0.6-2.7-1.2-3.9-2.5-4.7c-1-0.7-2.1-0.8-2.5-1.8l0.6,10.5c0,1.1,0.8,1.9,1.7,1.9h2.8h0.6h3.5c1,0,1.8-0.8,1.7-1.9L329.7,1499.2z"
		/>
	<polygon class="st17" points="570.6,1183.5 572.2,1183.5 570.5,1180.2 569,1180.2 569.1,1180.7 568.3,1182.4 567.8,1182.4 
		568.1,1182.8 567.6,1183.5 568.7,1183.5 569,1182.9 570.2,1182.9 	"/>
	<polygon class="st24" points="569.3,1182.4 569.5,1181.8 569.8,1182.4 	"/>
	<path class="st17" d="M550.7,1183.7c-1.3,0-1.9-0.2-1.9-0.2l-0.7,0.2v-1.6c0,0,1,0.7,2.2,0.7c0.4,0,0.6-0.1,0.6-0.2
		c0-0.4-2.8-0.2-2.8-1.8c0-0.7,1-1.2,2.2-1.2c1.1,0,1.7,0.2,1.7,0.2l0.7-0.2v1.2c0,0-0.7-0.6-2.1-0.6c-0.4,0-0.6,0.1-0.6,0.2
		c0,0.4,3,0.2,3,1.8C553.3,1183.3,551.9,1183.7,550.7,1183.7"/>
	<polygon class="st17" points="555.3,1181.1 555.3,1181.7 557.4,1181.7 557.4,1182.4 555.3,1182.4 555.3,1182.9 557.4,1182.9 
		557.4,1183.6 553.5,1183.6 553.7,1183 553.7,1181 553.5,1180.5 557.4,1180.5 557.4,1181.1 	"/>
	<polygon class="st17" points="567.2,1180.3 567.2,1183.6 565.8,1183.6 565.8,1182.4 564.6,1182.4 564.6,1183.6 562.8,1183.6 
		563,1183 563,1180.9 562.8,1180.3 564.6,1180.3 564.6,1181.6 565.8,1181.6 565.8,1180.3 	"/>
	<path class="st17" d="M586,1183.5c-1.1,0-1.6-0.1-1.6-0.1l-0.6,0.1v-1.2c0,0,0.7,0.6,1.8,0.6c0.2,0,0.4-0.1,0.4-0.2
		c0-0.4-2.2-0.2-2.2-1.3c0-0.6,0.8-1,1.7-1c0.8,0,1.2,0.1,1.2,0.1l0.6-0.1v1c0,0-0.6-0.4-1.7-0.4c-0.2,0-0.4,0.1-0.4,0.2
		c0,0.4,2.4,0.2,2.4,1.3C588,1183.1,587,1183.5,586,1183.5"/>
	<polygon class="st17" points="560.9,1183.7 562.5,1183.7 560.8,1180.5 559.2,1180.5 559.3,1180.9 558.6,1182.6 558.1,1182.6 
		558.3,1183 558.1,1183.7 559.2,1183.7 559.5,1183.1 560.7,1183.1 	"/>
	<polygon class="st24" points="559.7,1182.6 559.9,1182 560.1,1182.6 	"/>
	<polygon class="st17" points="577,1183.1 577.3,1183.6 575.9,1183.6 575.1,1181.9 574.6,1183.1 574.8,1183.6 573.3,1183.6 
		571.8,1180.3 573.1,1180.3 573.9,1182 574.5,1180.8 574.3,1180.3 575.7,1180.3 576.5,1182 577.3,1180.3 578.3,1180.3 	"/>
	<polygon class="st17" points="581.1,1182.3 580.6,1182.5 580.6,1183.5 578.8,1183.5 579,1182.9 579,1180.8 578.8,1180.2 
		580.6,1180.2 580.6,1181.6 581.8,1180.6 581.6,1180.1 583.3,1180.1 582.1,1181.2 583.8,1183.4 582.1,1183.4 	"/>
	<g>
		<path class="st61" d="M467.2,1461.3c0,6.9-5.6,12.5-12.5,12.5H428c-6.9,0-12.5-5.6-12.5-12.5v-26.7c0-6.9,5.6-12.5,12.5-12.5h26.7
			c6.9,0,12.5,5.6,12.5,12.5V1461.3z"/>
		<line class="st61" x1="421.2" y1="1435.9" x2="461.5" y2="1435.9"/>
		<line class="st61" x1="421.2" y1="1448.7" x2="461.5" y2="1448.7"/>
		<line class="st61" x1="421.2" y1="1461.4" x2="461.5" y2="1461.4"/>
	</g>
	<path class="st61" d="M463.5,1494.3c0,7.7-6.3,14-14,14h-16.2c-7.7,0-14-6.3-14-14l0,0c0-7.7,6.3-14,14-14h16.2
		C457.1,1480.1,463.5,1486.5,463.5,1494.3L463.5,1494.3z"/>
	<path class="st35" d="M524,1396v3.9c0,16-12.9,28.8-28.9,28.8l0,0c-16,0-28.9-12.9-28.9-28.8v-4.6"/>
	<g>
		<g>
			<path class="st61" d="M576.8,1461.3c0,6.9-5.6,12.5-12.5,12.5h-26.7c-6.9,0-12.5-5.6-12.5-12.5v-26.7c0-6.9,5.6-12.5,12.5-12.5
				h26.8c6.9,0,12.5,5.6,12.5,12.5v26.7H576.8z"/>
			<line class="st61" x1="530.9" y1="1435.9" x2="571.2" y2="1435.9"/>
			<line class="st61" x1="530.9" y1="1448.7" x2="571.2" y2="1448.7"/>
			<line class="st61" x1="530.9" y1="1461.4" x2="571.2" y2="1461.4"/>
		</g>
		<path class="st61" d="M573.2,1494.3c0,7.7-6.3,14-14,14H543c-7.7,0-14-6.3-14-14l0,0c0-7.7,6.3-14,14-14h16.2
			C566.8,1480.1,573.2,1486.5,573.2,1494.3L573.2,1494.3z"/>
	</g>
	<path class="st26" d="M395,1368.4c14.4-22.5,54.3-38.7,101.1-38.7c46.7,0,84.2,16.1,98.8,38.5L395,1368.4z"/>
	<rect x="395" y="760.5" class="st35" width="201.2" height="139.2"/>
	<path class="st10" d="M494.6,915.7c48.6,0,89.5,33.9,100.1,79.3v-94.3H394.3v95C404.8,950.1,445.8,915.7,494.6,915.7z"/>
	<path class="st1" d="M474.3,1171.7c-1.2,0.7,2.7,27.2,20.8,36.5c18.1-9.3,20.8-35.8,19.5-36.5"/>
	<line class="st56" x1="393.3" y1="1590.2" x2="393.3" y2="900.7"/>
	<line class="st56" x1="596.6" y1="1591.5" x2="596.6" y2="900.7"/>
	<path class="st62" d="M533.6,1235.6h-1.1H502h-1.1l-0.7,0.8l-0.2,0.4l-6.5,8l-0.2,0.2l-0.6,0.6v0.8v16.1v2.9l2.8-0.7l1.2-0.2
		c5.7-1.3,10.3-5,12.7-9.6h14.7v6.5l-30.7,29.6l-0.7,0.7v1v26.4v2.2h2.2h45h2.2v-2.2v-14.7v-2.2H540h-26v-5l27.2-26.1l0.7-0.7v-1
		l0.2-22.6v-0.8l-0.6-0.7l-0.2-0.2l-6.8-8.2l-0.2-0.4L533.6,1235.6z"/>
	<path class="st24" d="M532.8,1238.1l-0.2-0.4h-30.5l-0.2,0.4l-6.5,8l-0.2,0.2v16.1l1.2-0.2c5.6-1.3,10-5,11.6-9.6h18.5v9.7
		l-31.4,30.1v26.3h44.9v-14.4h-28.3v-8.2l27.9-26.8l0.2-22.6l-0.2-0.2L532.8,1238.1z"/>
	<path class="st62" d="M480.5,1235.6h-2.2h-20h-1.1l-0.6,0.7l-0.2,0.4l-6.7,8l-0.2,0.2l-0.6,0.6v0.8v5.9v2.2h2.2h7.7v56.5v0.2
		l0.1,0.2v0.1c1.3,4.6,5.7,8.2,11,9.3l0,0h0.2h0.2h7.5h2.2v-2.2v-81.1v-1.9L480.5,1235.6L480.5,1235.6z"/>
	<path class="st24" d="M458,1238.1l-6.5,8l-0.2,0.2v5.9h10v58.7v0.1c1.2,3.9,4.7,6.8,9.3,7.7h0.1h7.5v-81.1h-20L458,1238.1z"/>
	<path class="st62" d="M343.7,1110.6H343h-19.5h-0.7l-0.4,0.6l-0.1,0.2l-4.1,5l-0.1,0.1l-0.2,0.4v0.6v10.3v1.8l1.8-0.4l0.8-0.1
		c3.6-1,6.5-3.2,8.1-6.2h9.4v4.1l-19.7,18.9l-0.4,0.4v0.6v16.9v1.3h1.3h28.6h1.3v-1.3v-9.3v-1.3h-1.3H331v-3.2l17.4-16.7l0.4-0.4
		v-0.6l0.1-14.4v-0.6l-0.2-0.4l-0.1-0.1l-4.3-5.3l-0.1-0.2L343.7,1110.6z"/>
	<path class="st24" d="M343.2,1112.3l-0.1-0.2h-19.5l-0.1,0.2l-4.1,5l-0.1,0.1v10.3l0.8-0.1c3.6-0.8,6.4-3.2,7.5-6.2h11.8v6.3
		l-20.2,19.3v16.9h28.6v-9.3h-18v-5.3l17.8-17.1l0.1-14.4l-0.1-0.1L343.2,1112.3z"/>
	<path class="st62" d="M309.8,1110.6h-1.3h-12.9H295l-0.4,0.6l-0.1,0.2l-4.1,5l-0.1,0.1l-0.2,0.4v0.6v3.9v1.3h1.3h5v35.9v0.2v0.1
		v0.1c1,2.9,3.6,5.3,7.1,5.9l0,0h0.1h0.1h4.8h1.3v-1.3v-51.8L309.8,1110.6L309.8,1110.6z"/>
	<path class="st24" d="M295.4,1112.3l-4.1,5l-0.1,0.1v3.9h6.4v37.5v0.1c0.7,2.5,3,4.3,5.9,5l0,0h4.8v-51.8h-12.8L295.4,1112.3z"/>
	<path class="st62" d="M692,1110.6h-0.7h-19.5h-0.7l-0.4,0.6l-0.1,0.2l-4.1,5l-0.1,0.1l-0.2,0.4v0.6v10.3v1.8l1.8-0.4l0.8-0.1
		c3.6-1,6.5-3.2,8.1-6.2h9.4v4.1l-19.7,18.9l-0.4,0.4v0.6v16.9v1.3h1.3H696h1.3v-1.3v-9.3v-1.3H696h-16.6v-3.2l17.4-16.7l0.4-0.4
		v-0.6l0.1-14.4v-0.6l-0.2-0.4l-0.1-0.1l-4.3-5.6l-0.1-0.2L692,1110.6z"/>
	<path class="st24" d="M691.6,1112.3l-0.1-0.2H672l-0.1,0.2l-4.1,5l-0.1,0.1v10.3l0.8-0.1c3.6-0.8,6.4-3.2,7.5-6.2h11.8v6.3
		l-20.2,19.3v16.9h28.6v-9.3h-18v-5.3l17.8-17.1l0.1-14.4l-0.1-0.1L691.6,1112.3z"/>
	<path class="st62" d="M658.1,1110.6h-1.3h-12.9h-0.7l-0.4,0.6l-0.1,0.2l-4.1,5l-0.1,0.1l-0.2,0.4v0.6v3.9v1.3h1.3h5v35.9v0.2v0.1
		v0.1c1,2.9,3.6,5.3,7.1,5.9l0,0h0.1h0.1h4.8h1.3v-1.3v-51.8v-1.3H658.1L658.1,1110.6z"/>
	<path class="st24" d="M643.7,1112.3l-4.1,5l-0.1,0.1v3.9h6.4v37.5v0.1c0.7,2.5,3,4.3,5.9,5l0,0h4.8v-51.8h-12.8L643.7,1112.3z"/>
	<path class="st62" d="M202.5,1221.1h-1.2h-35.5h-1.2l-0.8,1l-0.2,0.4l-7.6,9.3l-0.2,0.2l-0.6,0.7v1v18.7v3.4l3.2-0.8l1.3-0.4
		c6.7-1.7,12.1-5.7,14.7-11.1h17.1v7.6l-35.8,34.5l-0.8,0.8v1.1v30.8v2.7h2.7H210h2.7v-2.7v-17.1v-2.6H210h-30.2v-5.8l31.8-30.6
		l0.8-0.7v-1.1l0.4-26.4v-1l-0.6-0.7l-0.2-0.2l-8-9.6l-0.4-0.4L202.5,1221.1z"/>
	<path class="st24" d="M201.5,1224.2l-0.4-0.4h-35.4l-0.2,0.4l-7.6,9.3l-0.2,0.2v18.7l1.3-0.4c6.5-1.7,11.6-5.8,13.7-11.2h21.6v11.4
		l-36.6,35.4v30.8H210v-17.1h-33v-9.4l32.5-31.2l0.4-26.4l-0.2-0.2L201.5,1224.2z"/>
	<path class="st62" d="M140.4,1221.1h-2.7h-23.3h-1.3l-0.8,1l-0.2,0.4l-7.6,9.3l-0.2,0.2l-0.6,0.7v1v7.1v2.7h2.7h9.2v65.8v0.4
		l0.1,0.4v0.1c1.7,5.4,6.7,9.6,12.9,11h0.1h0.2h0.2h8.7h2.7v-2.7v-94.8L140.4,1221.1L140.4,1221.1z"/>
	<path class="st24" d="M114.1,1224.2l-7.6,9.3l-0.2,0.2v7.1h11.6v68.3v0.1c1.3,4.5,5.6,8,10.9,9.2h0.1h8.7v-94.7h-23.2L114.1,1224.2
		z"/>
	<g id="labelText">
		<text transform="matrix(1 0 0 1 64.2754 747.4507)" class="st63 st64">Build your own</text>
		<text transform="matrix(1 0 0 1 64.2754 806.3751)" class="st63 st64">Paper Hawk</text>
	</g>
</g>
<g id="face">
	
		<path class="st65" d="M599.8,992.3c0-31.1-18.4-62.9-18.4-64.1c0-1.2-26.2-25.6-28.9-28.6H429.8c-14.8,12.1-23.5,25.2-24,27.8
			c-0.6,2.8-4.8,11.5-8,14.6c-2.9,2.9-6.4,25.6-6.4,37c0,8.2,0.6,29,3.6,45.2c2.7,2.4,4.3,13.1,5.7,16.6c5.2,12.2,3,14.7,3,14.7
			s1,5.7,2.1,14.7c1.8,13.2,5.2,33.5,16.1,53.3c16.8,30.2,44.3,59.3,73.5,59.3c30.1,0,58.5-31.6,75.7-63.5
			c11.5-21.4,15-43,16.7-55.5c0.8-6.7,1.9-10.9,1.9-10.9s-0.4-11,1.3-14.4C592.9,1035,599.8,1023.5,599.8,992.3z"/>
	
</g>
<g id="labelName" class="st66">
	<text transform="matrix(1 0 0 1 64.2755 777.4614)" class="st63 st64">User</text>
</g>
<g id="uniformName">
	<text transform="matrix(1.001 0 0 1 60.5444 1190.2987)" class="st24 st67 st68">TWELVES</text>
</g>
</svg>
