<?xml version="1.0" encoding="utf-8"?>
<!-- Generator: Adobe Illustrator 18.0.0, SVG Export Plug-In . SVG Version: 6.00 Build 0)  -->
<!DOCTYPE svg PUBLIC "-//W3C//DTD SVG 1.1//EN" "http://www.w3.org/Graphics/SVG/1.1/DTD/svg11.dtd">
<svg version="1.1" id="Layer_1" xmlns="http://www.w3.org/2000/svg" xmlns:xlink="http://www.w3.org/1999/xlink" x="0px" y="0px"
	 width="759px" height="891px" viewBox="0 348.6 759 891" style="enable-background:new 0 348.6 759 891;" xml:space="preserve">
<style type="text/css">
	.styled-0{fill:none;}
	.styled-1{fill:#77848F;}
	.styled-2{fill:none;stroke:#231F20;stroke-width:2;}
	.styled-3{fill:#FFFFFF;}
	.styled-4{fill:#2E557A;}
	.styled-5{fill:#B3B5B8;}
	.styled-6{clip-path:url(#SVGID_3_);fill:#2E557A;}
	.styled-7{clip-path:url(#SVGID_5_);fill:#2E557A;}
	.styled-8{fill:none;stroke:#FFFFFF;stroke-width:2;stroke-miterlimit:3.864;stroke-dasharray:3,2;}
	.styled-9{fill:none;stroke:#231F20;}
	.styled-10{fill:none;stroke:#000000;stroke-dasharray:3,2;}
	.styled-11{fill:#231F20;}
	.styled-12{font-family:"ff-dagny-web-pro", Helvetica Neue, Helvetica, sans-serif;}
	.styled-13{font-size:14.8824px;}
	.styled-14{font-size:13.6422px;}
	.styled-15{font-family:"ff-dagny-web-pro", Helvetica Neue, Helvetica, sans-serif;}
	.styled-16{font-size:18.6029px;}
	.styled-17{fill:none;stroke:#231F20;stroke-miterlimit:3.864;}
	.styled-18{fill:none;stroke:#231F20;stroke-width:5;}
	.styled-19{fill:#1A2E5A;}
	.styled-20{clip-path:url(#SVGID_8_);}
	.styled-21{fill:#77C25F;}
	.styled-22{clip-path:url(#SVGID_11_);}
	.styled-23{fill:url(#SVGID_12_);}
	.styled-24{fill:#DBB896;}
	.styled-25{fill:none;stroke:#231F20;stroke-width:4;}
	.styled-26{clip-path:url(#SVGID_14_);fill:#DBB896;}
	.styled-27{clip-path:url(#SVGID_17_);fill:none;stroke:#000000;stroke-width:2;}
	.styled-28{clip-path:url(#SVGID_19_);fill:none;stroke:#000000;stroke-width:2;}
	.styled-29{clip-path:url(#SVGID_21_);fill:#315679;}
	.styled-30{clip-path:url(#SVGID_23_);fill:none;stroke:#9C6750;}
	.styled-31{clip-path:url(#SVGID_25_);fill:none;stroke:#9C6750;}
	.styled-32{clip-path:url(#SVGID_27_);fill:none;stroke:#9C6750;}
	.styled-33{clip-path:url(#SVGID_29_);fill:none;stroke:#9C6750;}
	.styled-34{clip-path:url(#SVGID_31_);fill:#315679;}
	.styled-35{clip-path:url(#SVGID_33_);fill:#DBB896;}
	.styled-36{clip-path:url(#SVGID_35_);fill:#315679;}
	.styled-37{clip-path:url(#SVGID_37_);fill:none;stroke:#9C6750;}
	.styled-38{clip-path:url(#SVGID_39_);fill:none;stroke:#9C6750;}
	.styled-39{clip-path:url(#SVGID_41_);fill:none;stroke:#9C6750;}
	.styled-40{clip-path:url(#SVGID_43_);fill:#315679;}
	.styled-41{clip-path:url(#SVGID_45_);fill:#DBB896;}
	.styled-42{clip-path:url(#SVGID_47_);fill:#2E557A;}
	.styled-43{clip-path:url(#SVGID_49_);fill:none;stroke:#9C6750;}
	.styled-44{clip-path:url(#SVGID_51_);fill:none;stroke:#9C6750;}
	.styled-45{clip-path:url(#SVGID_53_);fill:none;stroke:#9C6750;}
	.styled-46{clip-path:url(#SVGID_55_);fill:none;stroke:#9C6750;}
	.styled-47{clip-path:url(#SVGID_57_);fill:#315679;}
	.styled-48{clip-path:url(#SVGID_59_);fill:#DBB896;}
	.styled-49{clip-path:url(#SVGID_61_);fill:#2E557A;}
	.styled-50{clip-path:url(#SVGID_63_);fill:none;stroke:#9C6750;}
	.styled-51{clip-path:url(#SVGID_65_);fill:none;stroke:#9C6750;}
	.styled-52{clip-path:url(#SVGID_67_);fill:none;stroke:#9C6750;}
	.styled-53{clip-path:url(#SVGID_69_);fill:#315679;}
	.styled-54{fill:none;stroke:#A6A8AB;stroke-dasharray:3.946,3.946;}
	.styled-55{fill:none;stroke:#231F20;stroke-width:0.6;}
	.styled-56{fill:none;stroke:#A6A8AB;stroke-dasharray:3,3.946;}
	.styled-57{fill:#315679;}
	.styled-58{font-family:"ff-dagny-web-pro", Helvetica Neue, Helvetica, sans-serif;}
	.styled-59{font-size:12.402px;}
	.styled-60{font-family:"ff-dagny-web-pro", Helvetica Neue, Helvetica, sans-serif;}
	.styled-61{font-size:11.9059px;}
	.styled-62{font-size:26.9428px;}
	.styled-63{font-family:"ff-dagny-web-pro", Helvetica Neue, Helvetica, sans-serif;}
</style>
<pattern  y="1632" width="196.7" height="250.3" patternUnits="userSpaceOnUse" id="SVGID_15_" viewBox="0 -250.3 196.7 250.3" style="overflow:visible;">
	<g>
		<polygon class="styled-0" points="0,0 196.7,0 196.7,-250.3 0,-250.3 		"/>
		<g>
			<polygon class="styled-0" points="0,0 196.7,0 196.7,-250.3 0,-250.3 			"/>
			<path class="styled-1" d="M196.7-125.1L196.7-125.1v10.2l-54.7-1.4h-4.6c7.8,3.8,9.7,13.5,15.5,22.7c7.6,11.8,21.1,17.5,43.8,23.6
				v14.9c-24.6,5.1-36.2,11.9-43.8,23.7c-6,9.2-7.8,18.9-15.8,22.7h16.6l42.9-1.1V0H98.3l0,0H0v-9.9l59.8-1.6
				c10.4,0,18.9-7.3,18.9-16.4V-97c0-9.1-8.4-16.4-18.9-16.4L0-115v-10.2l0,0v-125.1h196.7V-125.1z M139.1-187.8
				c0,0-22.4,3.6-39.9,7.2c-25.1,5.1-37,11.9-44.6,23.8c-6,9.2-7.8,18.9-15.8,22.7h16.6l102.7-2.7c10.4,0,18.9-7.3,18.9-16.4v-69.1
				c0-9.1-8.4-16.4-18.9-16.4l-114.6-2.9h-4.6c7.8,3.8,9.7,13.5,15.5,22.7c7.7,11.9,21.3,17.6,44.6,23.8
				C116.5-190.4,139.1-187.8,139.1-187.8"/>
		</g>
	</g>
</pattern>
<g id="Layer_1_1_">
	<g>
		<path class="styled-2" d="M299.1,538.4"/>
		<path class="styled-3" d="M429.6,480.9"/>
		<path class="styled-3" d="M299.8,537.3"/>
		<path class="styled-2" d="M429.6,480.9"/>
		<path class="styled-2" d="M298.5,537.3"/>
	</g>
	<g>
		<g>
			<path id="SVGID_1_" class="styled-4" d="M298.5,537.8"/>
		</g>
		<g>
			<path class="styled-0" d="M298.5,537.8"/>
			<path class="styled-4" d="M298.5,537.8"/>
		</g>
	</g>
	<path class="styled-2" d="M298.5,537.8"/>
	<g>
		<g>
			<path class="styled-0" d="M299.8,615.1"/>
		</g>
		<g>
			<path class="styled-0" d="M299.8,615.1"/>
			<path class="styled-0" d="M299.8,687"/>
			<g>
				<path class="styled-3" d="M383.6,660.9c3.7-0.4,15.6-2,25.4-6.7c5.7-2.7,9.5-6.8,11-11.9c0.5-1.5,0.6-3.1,0.6-4.7
					c0-4.7-1.7-10-5.3-15.5c-7.3-11.5-14.1-15.6-14.5-15.9c-4.2-3-8.3-3.1-8.3-3.1s3.6,4.2,4.8,8.3c1.2,4.2-3.2,4.7-3.2,4.7"/>
				<path class="styled-3" d="M275.1,625.4c-6.1,0-12.4,0-15.6,5c-3.2,5.1-1.5,10,4.1,20c0.4,0.7,17.2,32.2,17.2,32.2s1.7-2.1,3.5-3.5"/>
				<path class="styled-3" d="M394.3,616.1c-7.4,1.5-17.1,1.9-21.3,1.9"/>
				<path class="styled-4" d="M373.1,620.8c3.3,0,13.8-0.4,21.8-2c10.8-2.1,3.8-11.3,3.8-11.3s7.2,4.7,14.4,16c7.9,12.5,6,22.7-5.2,28"/>
				<path class="styled-4" d="M378.1,651.7"/>
				<line class="styled-0" x1="281.5" y1="678.1" x2="268.4" y2="653.5"/>
				<path class="styled-4" d="M407.9,651.5c-11.2,5.3-25.5,6.6-25.5,6.6"/>
				<path class="styled-3" d="M404.8,621.9c13.4,22.6-6.4,26.3-16.7,27.7"/>
				<path class="styled-3" d="M388.1,649.6c-5.1,1.2-0.7,4.2-0.7,4.2c-7.3-1.5-10-7.4-10.7-9.2c-0.1-0.2-0.2-0.5-0.4-0.7"/>
				<path class="styled-3" d="M403.2,619.6"/>
				<path class="styled-3" d="M373.1,645.8"/>
				<path class="styled-5" d="M275.1,628.1c-6.7,0-11,0.2-13.3,3.7c-2.2,3.3-1.7,6.6,4.1,17.1"/>
			</g>
		</g>
	</g>
	<path class="styled-3" d="M44.3,964.1"/>
	<path class="styled-2" d="M45.3,964.1"/>
	<g>
		<path class="styled-2" d="M301.2,719.3c0,0.2,0,0.5-0.2,0.6l0,0c-0.2,0.1-0.5,0.2-0.7,0.1s-0.4-0.2-0.4-0.5l-9.2-27.7H114.5l-6.6,27.7
			v194.3l8.4,28.3l175.9-0.4l7.7-27.8c0.1-0.2,0.2-0.4,0.5-0.4c0.2,0,0.4,0,0.6,0.1c0.1,0.1,0.4,0.4,0.4,0.6v193.6h136l0,0l31.1-9.2
			v-176l-31.1-8.1c-0.2-0.1-0.4-0.4-0.4-0.6v-0.6c0-0.2,0.1-0.4,0.2-0.5c0.2-0.1,0.5-0.2,0.7-0.1s0.4,0.4,0.4,0.5H631v-31.6h-91.7
			c-2.1,0-4.1-0.2-6-0.9c-13-2.7-22.7-12.5-22.7-24.1v-79.9c0-11.5,9.4-21.1,22.3-24.1c2-0.6,4.1-1,6.3-1H631V720H437.7
			c-0.1,0-0.4-0.1-0.5-0.2s-0.2-0.4-0.2-0.6s0.1-0.4,0.4-0.5l31.3-8.2V534.6l-31.3-9.2h-136V719.3z"/>
		<polyline class="styled-3" points="107.2,913.4 57.8,903.1 57.8,726 107.5,719.8 		"/>
		<polyline class="styled-3" points="632,882.4 694.9,884.1 694.9,913.6 631.8,914.7 		"/>
		<polyline class="styled-2" points="632,882.4 694.9,884.1 694.9,913.6 631.8,914.7 		"/>
		<polyline class="styled-3" points="632,719.8 694.9,721.5 694.9,750.9 631.8,752 		"/>
		<polyline class="styled-2" points="631.8,752 694.9,750.9 694.9,721.5 632,719.8 		"/>
		<polyline class="styled-3" points="301.9,524.3 309.1,482.8 431.8,482.8 436.1,524.7 		"/>
		<polyline class="styled-2" points="300.6,524.3 309.1,482.8 431.8,482.8 436.1,524.7 		"/>
		<polyline class="styled-3" points="436.1,1109.4 429,1151 306.2,1151 301.9,1109.1 		"/>
		<polyline class="styled-2" points="436.1,1109.4 429,1151 306.2,1151 300.6,1109.1 		"/>
	</g>
	<g>
		<g>
			<path id="SVGID_7_" class="styled-4" d="M107.2,914.6h524.4l-0.1-32.9h-92.1c-2.1,0-4.1-0.2-6-0.9c-13-2.7-22.7-12.5-22.7-24.1v-79.9
				c0-11.5,9.4-21.1,22.3-24.1c2-0.6,4.1-1,6.3-1h91.9L631,719H106.7L107.2,914.6z"/>
		</g>
		<g>
			<defs>
				<path id="SVGID_2_" d="M107.2,914.6h524.4l-0.1-32.9h-92.1c-2.1,0-4.1-0.2-6-0.9c-13-2.7-22.7-12.5-22.7-24.1v-79.9
					c0-11.5,9.4-21.1,22.3-24.1c2-0.6,4.1-1,6.3-1h91.9L631,719H106.7L107.2,914.6z"/>
			</defs>
			<clipPath id="SVGID_3_">
				<use xlink:href="#SVGID_2_"  style="overflow:visible;"/>
			</clipPath>
			<rect x="106.7" y="719" class="styled-6" width="524.9" height="195.5"/>
		</g>
	</g>
	<g>
		<g>
			<path id="SVGID_9_" class="styled-4" d="M437.7,1108.6V524.8h-137v583.8H437.7z"/>
		</g>
		<g>
			<defs>
				<rect id="SVGID_4_" x="300.6" y="524.8" width="137" height="583.8"/>
			</defs>
			<clipPath id="SVGID_5_">
				<use xlink:href="#SVGID_4_"  style="overflow:visible;"/>
			</clipPath>
			<rect x="300.6" y="524.8" class="styled-7" width="137" height="583.8"/>
		</g>
	</g>
	<path class="styled-2" d="M437.7,1108.6V524.8h-137v583.8H437.7z"/>
	<line class="styled-8" x1="416.6" y1="588.8" x2="392.6" y2="558.9"/>
	<line class="styled-8" x1="392.6" y1="1074.7" x2="416.6" y2="1044.8"/>
	<g>
		<path class="styled-3" d="M107.6,869.5v-98c0-3.1,1.5-4,5-1.9l18.6,15.5c2.5,3.5,3.7,6.6,3.7,8.7v53.3c0,2.1-1.2,5.2-3.7,8.7
			l-18.6,15.5C109.3,873.4,107.6,872.6,107.6,869.5"/>
		<path class="styled-9" d="M107.6,869.5v-98c0-3.1,1.5-4,5-1.9l18.6,15.5c2.5,3.5,3.7,6.6,3.7,8.7v53.3c0,2.1-1.2,5.2-3.7,8.7
			l-18.6,15.5C109.3,873.4,107.6,872.6,107.6,869.5z"/>
	</g>
	<line class="styled-10" x1="480.7" y1="1044.2" x2="452.2" y2="1044.2"/>
	<path d="M634.5,918.9c0,1.4-1.1,2.5-2.5,2.5c-1.4,0-2.5-1.1-2.5-2.5c0-1.4,1.1-2.5,2.5-2.5C633.4,916.5,634.5,917.6,634.5,918.9"/>
	<line class="styled-10" x1="632" y1="935.7" x2="632" y2="918.9"/>
	<path class="styled-11" d="M437,1105.6c1.4,0,2.5,1.1,2.5,2.5c0,1.4-1.1,2.5-2.5,2.5s-2.5-1.1-2.5-2.5
		C434.6,1106.7,435.7,1105.6,437,1105.6"/>
	<line class="styled-10" x1="450.1" y1="1122.1" x2="437" y2="1108.1"/>
	<path class="styled-11" d="M437,521.8c1.4,0,2.5,1.1,2.5,2.5c0,1.4-1.1,2.5-2.5,2.5s-2.5-1.1-2.5-2.5C434.6,522.9,435.7,521.8,437,521.8
		"/>
	<line class="styled-10" x1="450.1" y1="507.8" x2="437" y2="524.3"/>
	<polygon class="styled-11" points="456.5,1049.9 443.5,1044.3 456.4,1038.9 	"/>
	<g>
		<path class="styled-2" d="M367,1061.9c-7.4,0-13.5-6.1-13.5-13.5s6.1-13.5,13.5-13.5c7.4,0,13.5,6.1,13.5,13.5
			C380.5,1056,374.4,1061.9,367,1061.9"/>
		<path class="styled-2" d="M367,598.3c-7.4,0-13.5-6.1-13.5-13.5s6.1-13.4,13.5-13.4c7.4,0,13.5,6.1,13.5,13.4
			C380.5,592.3,374.4,598.3,367,598.3"/>
	</g>
	<g>
		<text transform="matrix(0 -1 1 0 496.2637 1088.9384)" class="styled-12 styled-13">Cut slits to insert ends</text>
		<text transform="matrix(0 -1 1 0 514.1229 1088.9384)" class="styled-12 styled-13">of facemask</text>
	</g>
	<g>
		<text transform="matrix(0 -1 1 0 465.4082 514.5627)" class="styled-12 styled-14">Fold</text>
	</g>
	<g>
		<text transform="matrix(0 -1 1 0 465.4082 1143.8712)" class="styled-12 styled-14">Fold</text>
	</g>
	<g>
		<text transform="matrix(0 -1 1 0 633.7627 965.2836)" class="styled-12 styled-14">Fold</text>
	</g>
	<polygon class="styled-2" points="107.5,719.8 57.8,726 57.8,903.1 107.2,913.4 	"/>
	<g>
		<text transform="matrix(0 -1 1 0 89.2645 846.6195)" class="styled-15 styled-16">HELMET</text>
	</g>
	<path d="M614.3,983.7"/>
	<path class="styled-17" d="M614.3,983.7"/>
	<circle class="styled-18" cx="367" cy="1048.5" r="13.5"/>
	<circle class="styled-18" cx="367" cy="584.8" r="13.5"/>
	<path class="styled-19" d="M119.6,823.4v2l4.2-2.2v-2l-0.5,0.2l-2.2-1.2v-0.5l-0.6,0.2l-0.9-0.5v1.5l0.7,0.4v1.7L119.6,823.4z
		 M121,821.8l0.9,0.4l-0.9,0.4V821.8z M119.6,797c0-1.7,0.4-2.6,0.4-2.6l-0.4-0.9h2c0,0-1,1.2-1,3c0,0.5,0.1,0.7,0.4,0.7
		c0.6,0,0.4-3.7,2.5-3.7c0.9,0,1.7,1.4,1.7,3c0,1.4-0.4,2.2-0.4,2.2l0.4,0.9h-1.7c0,0,0.7-1,0.7-2.7c0-0.5-0.1-0.7-0.4-0.7
		c-0.6,0-0.4,4-2.5,4C120.2,800.1,119.6,798.5,119.6,797 M122.9,803.1h-0.7v2.7h-0.9v-2.7h-0.7v2.7h-0.9v-5.2l0.7,0.5h2.9l0.7-0.5
		v5.2h-0.9v-2.7H122.9z M123.9,819h-4.2v-1.9h1.6v-1.6h-1.6v-2.4l0.7,0.5h2.9l0.7-0.5v2.4h-1.6v1.6h1.6v1.9H123.9z M119.6,844.2
		c0-1.4,0.2-2,0.2-2l-0.2-0.6h1.6c0,0-0.7,1-0.7,2.4c0,0.4,0.1,0.6,0.4,0.6c0.5,0,0.2-2.9,2-2.9c0.7,0,1.4,1,1.4,2.4
		c0,1.1-0.2,1.7-0.2,1.7l0.2,0.6h-1.4c0,0,0.6-0.7,0.6-2.1c0-0.4-0.1-0.6-0.4-0.6c-0.5,0-0.2,3.1-2,3.1
		C120.1,846.6,119.6,845.4,119.6,844.2 M119.6,810.4v2l4.2-2.2v-2l-0.5,0.2l-2.2-1.2v-0.6l-0.6,0.2l-0.9-0.5v1.5l0.7,0.4v1.6
		L119.6,810.4z M121,808.8l0.9,0.4l-0.9,0.4V808.8z M120.2,832l-0.6,0.2v-1.9l2.2-1.1l-1.7-0.9l-0.6,0.2v-1.9l4.2-2v1.9l-2.2,1.1
		l1.7,0.9l0.6-0.2v1.9l-2.2,1.1l2.2,1.1v1.4L120.2,832z M121.3,837.3l-0.4-0.5h-1.2v-2.5l0.7,0.5h2.9l0.7-0.5v2.5h-2l1.4,1.6
		l0.6-0.4v2.2l-1.5-1.7l-2.7,2.1v-2.1L121.3,837.3z"/>
	<path class="styled-3" d="M218,816.5c1.4-1.1,2.6-2.6,3.6-4.5c0.9-1.6,1.6-3.6,2.2-5.8c2.5-9.7,3.8-16.7,4.8-21.3c0.2-1.1,0.4-2,0.6-2.9
		c0.9-4.2,7.6-20.8,7.6-21c0.1-0.4,8.6-20.5,10.5-25.7l7.4-15.9h-8.6l0.6-0.2l-44.5-0.4l-8.2,16.1l-2.6,4.8
		c-0.9,1.6-1.9,3.5-3.1,5.6l-1,1.9l0,0c0,0,0,0,0,0.1c-1.2,2.7-2.1,4.8-2.5,6.4c-0.7,3.1-2.4,11.5-4.1,20.6
		c-1.6,8.3-3.2,17-4.2,21.2c-1,4.3-2.6,8.8-4.5,12.2c-1,1.9-2,3.3-3,4.5l-0.2,0.2c-2,2-8.6,4.1-8.6,4.1"/>
	<path class="styled-3" d="M160.7,816.7l-0.2,0.1c0,0,6.7,2.1,8.7,4.1l0.2,0.2c1,1.1,2,2.6,3,4.5c1.9,3.5,3.5,7.9,4.5,12.2
		c1,4.2,2.6,12.9,4.2,21.2c1.7,8.9,3.3,17.4,4.1,20.6c0.4,1.6,1.2,3.7,2.5,6.4c0,0,0,0,0,0.1l0,0l1,1.9c1.1,2,2.1,4,3.1,5.6l2.6,4.8
		l8.2,16.1l44.5-0.4l-0.6-0.2h8.6l-7.4-15.9c-2-5.2-10.4-25.3-10.5-25.7c0-0.1-6.7-16.7-7.6-21c-0.1-0.9-0.4-1.7-0.6-2.9
		c-0.9-4.6-2.4-11.7-4.8-21.3c-0.6-2.2-1.4-4.2-2.2-5.8c-1-1.9-2.1-3.3-3.6-4.5l-0.5-0.2l0.5-0.2"/>
	<g>
		<g>
			<defs>
				<rect id="SVGID_6_" x="301.9" y="602.1" width="124.9" height="71.9"/>
			</defs>
			<clipPath id="SVGID_8_">
				<use xlink:href="#SVGID_6_"  style="overflow:visible;"/>
			</clipPath>
			<g class="styled-20">
				<path class="styled-3" d="M396.4,617.9c-7.4,1.5-17.1,1.9-21.3,1.9h-98c-6.1,0-12.4,0-15.6,5c-3.2,5.1-1.5,10,4.1,20
					c0.4,0.7,17.2,32.2,17.2,32.2s1.7-2.1,3.5-3.5c1.7-1.4,3.5-2.1,8.2-2.1c8.3,0,61.9,0.1,62.4,0.1c10.9,0,21.8-1.1,29-8.9
					c3.7-0.4,15.6-2,25.4-6.7c5.7-2.7,9.5-6.8,11-11.9c0.5-1.5,0.6-3.1,0.6-4.7c0-4.7-1.7-10-5.3-15.5
					c-7.3-11.5-14.1-15.6-14.5-15.9c-4.2-3-8.3-3.1-8.3-3.1s3.6,4.2,4.8,8.3C401,617.4,396.4,617.9,396.4,617.9"/>
				<path class="styled-4" d="M410,653.5c-11.2,5.3-25.5,6.6-25.5,6.6c-6.3,7.7-16.9,8.8-27.7,8.8c0,0-53.9-0.1-62.4-0.1
					c-9.8,0-10.8,3.8-10.8,3.8l-13.1-24.6h34c10.7,0,11.3,1.1,18.4,6.3c7.6,5.6,13.5,7.6,20.7,7.6c7.1,0,11.9-1.6,19.8-5.1
					c7.9-3.5,12.2-5.2,16.9-3.2c0,0-3.7-5-15-0.2c-11.3,4.7-14.3,5.7-21.1,5.7c-6.7,0-14.5-3.2-24.2-12.9l11.5-9.3
					c0,0-2.6-4.1-4.5-6.7c-1.7-2.6-1.6-4.3-0.6-5.7c1-1.2,2.1-1.9,6.3-1.9c4.2,0,38.4,0.1,42.3,0.1c3.3,0,13.8-0.4,21.8-2
					c10.8-2.1,3.8-11.3,3.8-11.3s7.2,4.7,14.4,16C423.2,637.9,421.2,648.1,410,653.5"/>
				<path class="styled-3" d="M390.2,651.4c-5.1,1.2-0.7,4.2-0.7,4.2c-7.3-1.5-10-7.4-10.7-9.2c-0.1-0.2-0.2-0.5-0.4-0.7
					c-4.1-8.2-7.7-7.7-14.6-7.7h-11.9c-9.5,0-14.1-4.7-18.7-12.9h5.5c5,7.4,8.7,9.4,18.5,9.9c22.4,0,40.3-6.4,49.7-11.4
					C420.3,646.3,400.3,650.1,390.2,651.4"/>
				<path class="styled-3" d="M348.5,625.3c2.5,3.8,7.6,5.1,15.9,4.6c20.3-1.1,32-5.1,41.1-8.6c-11.2,6.6-31.1,11.3-44.9,11.2
					c-6.8,0-12.7-1.2-16.1-7.3h4.1V625.3z"/>
				<path class="styled-3" d="M370.2,647.7c-2.6-3.7-6.1-5-16-4.2c-11.5,0.7-8.6,5.6-7.2,8.1l0,0c0.4,0.6,1,1.9,1.6,3
					c-8.8,0.5-15.3-6.2-15.3-6.2c6.6-6.4,10.9-7.2,16.9-7.2h11c10.3,0,12.8,4.6,13.8,6.7C373.3,647.5,371.7,647.5,370.2,647.7"/>
				<path class="styled-21" d="M365.2,648.8c-0.2,0.1-0.4,0.1-0.6,0.2c-1-1.1-2.7-1.7-4.5-1.5c-2.2,0.2-3.5,1.9-2.9,3.6
					c0.1,0.2,0.2,0.5,0.4,0.7c-1.1,0.5-2.2,0.9-3.3,1.2c-2.2-3.7-3.6-6.2,4.3-6.8c5-0.4,6.3,0.4,7.3,2.2
					C365.6,648.6,365.5,648.7,365.2,648.8"/>
				<path class="styled-5" d="M325.4,634.7c-4.1-7.1-5.7-8.7-2.9-12.2h-45.4c-6.7,0-11,0.2-13.3,3.7c-2.2,3.3-1.7,6.6,4.1,17.1h38.6
					c6.7,0,8.3-0.4,11.9-3.2C322.2,637.4,325.4,634.7,325.4,634.7"/>
			</g>
		</g>
	</g>
	<g>
		<g>
			<defs>
				<rect id="SVGID_10_" x="302.4" y="955.2" width="124.9" height="71.9"/>
			</defs>
			<clipPath id="SVGID_11_">
				<use xlink:href="#SVGID_10_"  style="overflow:visible;"/>
			</clipPath>
			<g class="styled-22">
				<path class="styled-3" d="M396.9,1011.2c-7.4-1.5-17.1-1.9-21.3-1.9h-98c-6.1,0-12.4,0-15.6-5c-3.2-5.1-1.5-10,4.1-20
					c0.4-0.7,17.2-32.2,17.2-32.2s1.7,2.1,3.5,3.5c1.7,1.4,3.5,2.1,8.2,2.1c8.3,0,61.9-0.1,62.4-0.1c10.9,0,21.8,1.1,29,8.9
					c3.7,0.4,15.6,2,25.4,6.7c5.7,2.7,9.5,6.8,11,11.9c0.5,1.5,0.6,3.1,0.6,4.7c0,4.7-1.7,10-5.3,15.5
					c-7.3,11.5-14.1,15.6-14.5,15.9c-4.2,3-8.3,3.1-8.3,3.1s3.6-4.2,4.8-8.3C401.3,1011.7,396.9,1011.2,396.9,1011.2"/>
				<path class="styled-4" d="M410.4,975.7c-11.2-5.3-25.5-6.6-25.5-6.6c-6.3-7.7-16.9-8.8-27.7-8.8c0,0-53.9,0.1-62.4,0.1
					c-9.8,0-10.8-3.8-10.8-3.8l-13.1,24.6h34c10.7,0,11.3-1.1,18.4-6.3c7.6-5.6,13.5-7.6,20.7-7.6c7.1,0,11.9,1.6,19.8,5.1
					c7.9,3.5,12.2,5.2,16.9,3.2c0,0-3.7,5-15,0.2s-14.3-5.7-21.1-5.7c-6.7,0-14.5,3.2-24.2,12.9l11.5,9.3c0,0-2.6,4.1-4.5,6.7
					c-1.7,2.6-1.6,4.3-0.6,5.7c1,1.2,2.1,1.9,6.3,1.9c4.2,0,38.4-0.1,42.3-0.1c3.3,0,13.8,0.4,21.8,2c10.8,2.1,3.8,11.3,3.8,11.3
					s7.2-4.7,14.4-16C423.5,991.4,421.5,981.1,410.4,975.7"/>
				<path class="styled-3" d="M390.5,977.7c-5.1-1.2-0.7-4.2-0.7-4.2c-7.3,1.5-10,7.4-10.7,9.2c-0.1,0.2-0.2,0.5-0.4,0.7
					c-4.1,8.2-7.7,7.7-14.6,7.7h-11.9c-9.5,0-14.1,4.7-18.7,12.9h5.5c5-7.4,8.7-9.4,18.5-9.9c22.4,0,40.3,6.4,49.7,11.4
					C420.7,982.9,400.8,979.1,390.5,977.7"/>
				<path class="styled-3" d="M348.9,1003.9c2.5-3.8,7.6-5.1,15.9-4.6c20.3,1.1,32,5.1,41.1,8.6c-11.2-6.6-31.1-11.3-44.9-11.2
					c-6.8,0-12.7,1.2-16.1,7.3h4.1V1003.9z"/>
				<path class="styled-3" d="M370.6,981.6c-2.6,3.7-6.1,5-16,4.2c-11.5-0.7-8.6-5.6-7.2-8.1l0,0c0.4-0.6,1-1.9,1.6-3
					c-8.8-0.5-15.3,6.2-15.3,6.2c6.6,6.4,10.9,7.2,16.9,7.2h11c10.3,0,12.8-4.6,13.8-6.7C373.8,981.7,372.2,981.7,370.6,981.6"/>
				<path class="styled-21" d="M365.6,980.5c-0.2-0.1-0.4-0.1-0.6-0.2c-1,1.1-2.7,1.7-4.5,1.5c-2.2-0.2-3.5-1.9-2.9-3.6
					c0.1-0.2,0.2-0.5,0.4-0.7c-1.1-0.5-2.2-0.9-3.3-1.2c-2.2,3.7-3.6,6.2,4.3,6.8c5,0.4,6.3-0.4,7.3-2.2
					C366.1,980.6,365.9,980.6,365.6,980.5"/>
				<path class="styled-5" d="M325.8,994.5c-4.1,7.1-5.7,8.7-2.9,12.2h-45.4c-6.7,0-11-0.2-13.3-3.7c-2.2-3.3-1.7-6.6,4.1-17.1h38.6
					c6.7,0,8.3,0.4,11.9,3.2C322.6,991.7,325.8,994.5,325.8,994.5"/>
			</g>
		</g>
	</g>
	<path class="styled-4" d="M212.3,816.7c3.1,0,7.3,2.2,9.8,11.2c3.3,11.8,4.5,19.6,5.3,24.1c0.1,0.4,0.1,0.7,0.4,1.2l0,0
		c1,3.6,3.3,10.3,5.1,15h0.1l8.1,21.7l10.9,23.9l-21.3,0.2c-11-27.4-20-46-22.3-54.6c-3-10.7-5.7-38.9-14.8-42.9l0,0
		c9.1-4,11.8-32.1,14.8-42.9c2.5-8.6,11.3-27.3,22.3-54.7l21.5,0.2l-10.9,23.9l-8.1,21.7H233c-1.7,4.7-4.1,11.4-5.1,15l0,0
		c-0.1,0.5-0.2,1-0.4,1.2c-0.9,4.5-2.1,12.3-5.3,24.1C219.5,814.6,215.3,816.7,212.3,816.7L212.3,816.7z"/>
	<path class="styled-5" d="M180.8,816.7c1.4,0,2.2-0.1,2.9-0.1c2.6-0.2,11.7-0.9,14.8-11.3c3.1-10.9,5.5-22.7,6.2-27.3
		c1.2-7.4,12-34.4,13.1-36.3c1.6-3.1,8.8-22.3,8.8-22.3l-21.1-0.4l-8.6,17.5c-0.4,0.6-7.2,13-9.1,18.4c-2,5.8-6.1,33.2-8.1,41.9
		c-2,8.7-7.7,18.4-12.3,20"/>
	<path class="styled-5" d="M180.8,816.7c1.4,0,2.2,0.1,2.9,0.1c2.6,0.2,11.7,0.9,14.8,11.3c3.1,10.9,5.5,22.7,6.2,27.3
		c1.2,7.4,12,34.4,13.1,36.3c1.6,3.1,9.2,22.4,9.2,22.4l-21.3,0.5l-8.7-17.7c-0.4-0.6-7.2-13-9.1-18.4c-2-5.8-6.1-33.2-8.1-41.9
		c-2-8.7-7.7-18.4-12.3-20"/>
	
		<pattern  id="SVGID_12_" xlink:href="#SVGID_15_" patternTransform="matrix(0 5.943391e-02 -5.943391e-02 0 -17413.8809 -903.3253)">
	</pattern>
	<polygon class="styled-23" points="487.5,840.7 219.6,816.7 487.4,794 	"/>
	<path class="styled-24" d="M367,1061.9c-7.4,0-13.5-6.1-13.5-13.5s6.1-13.5,13.5-13.5c7.4,0,13.5,6.1,13.5,13.5
		C380.5,1056,374.4,1061.9,367,1061.9"/>
	<path class="styled-24" d="M367,598.3c-7.4,0-13.5-6.1-13.5-13.5s6.1-13.4,13.5-13.4c7.4,0,13.5,6.1,13.5,13.4
		C380.5,592.3,374.4,598.3,367,598.3"/>
	<rect x="487.5" y="794.5" class="styled-9" width="17" height="45.8"/>
	<rect x="487.5" y="794.5" class="styled-3" width="17" height="45.8"/>
	<path class="styled-19" d="M497.9,814.9v-1.5l-3.2,1.7v1.6l0.4-0.2l1.7,1v0.5l0.5-0.2l0.6,0.4v-1.2l-0.5-0.2v-1.2L497.9,814.9z
		 M496.8,816.1l-0.6-0.4l0.6-0.4V816.1z M498.1,835.2c0,1.4-0.2,2-0.2,2l0.2,0.6h-1.6c0,0,0.7-1,0.7-2.4c0-0.4-0.1-0.6-0.2-0.6
		c-0.5,0-0.2,2.9-1.9,2.9c-0.7,0-1.4-1-1.4-2.2c0-1.1,0.2-1.7,0.2-1.7l-0.2-0.6h1.4c0,0-0.5,0.7-0.5,2.1c0,0.4,0.1,0.6,0.2,0.6
		c0.5,0,0.2-3.1,1.9-3.1C497.6,832.7,498.1,834,498.1,835.2 M495.3,830.5h0.6v-2.1h0.7v2.1h0.6v-2.1h0.7v4l-0.6-0.4h-2.1l-0.5,0.4
		v-4h0.7v2.1H495.3z M494.7,818.4h3.2v1.5h-1.2v1.2h1.2v1.9l-0.6-0.4h-2.1l-0.5,0.4v-1.9h1.2v-1.2h-1.2V818.4z M498.1,799
		c0,1.1-0.2,1.5-0.2,1.5l0.2,0.5h-1.2c0,0,0.6-0.7,0.6-1.9c0-0.4-0.1-0.5-0.2-0.5c-0.4,0-0.2,2.2-1.5,2.2c-0.5,0-1-0.7-1-1.7
		c0-0.9,0.1-1.4,0.1-1.4l-0.1-0.5h1.1c0,0-0.5,0.6-0.5,1.6c0,0.2,0.1,0.5,0.2,0.5c0.4,0,0.2-2.4,1.5-2.4
		C497.6,797.1,498.1,798.1,498.1,799 M497.9,824.9v-1.6l-3.2,1.7v1.6l0.4-0.1l1.7,0.9v0.5l0.5-0.2l0.6,0.4v-1.2l-0.5-0.2v-1.2
		L497.9,824.9z M496.8,826.2l-0.6-0.4l0.6-0.4V826.2z M497.4,808.3l0.5-0.2v1.4l-1.7,0.9l1.4,0.6l0.5-0.2v1.5l-3.2,1.5v-1.4l1.7-0.9
		l-1.4-0.6l-0.5,0.2v-1.5l1.7-0.9l-1.7-0.9v-1L497.4,808.3z M496.7,804.2l0.4,0.4h1v1.9l-0.6-0.4h-2.1l-0.5,0.4v-1.9h1.5l-1-1.2
		l-0.5,0.2v-1.7l1.1,1.4l2.1-1.6v1.6L496.7,804.2z"/>
	<polyline class="styled-2" points="631.5,914.6 107.2,914.6 300,914.7 	"/>
	<line class="styled-2" x1="107.2" y1="718.6" x2="631.5" y2="718.6"/>
	<g>
		<path class="styled-11" d="M282.5,621.9c0.5,2.4,0.9,4.7,0.9,7.2c0,17-13.8,30.8-30.8,30.8c-14.9,0-27.2-10.4-30.1-24.4
			c0,0,2.6-42.5-34.6-54.9c-37.2-12.4-72.8,33.5-72.8,33.5l-13.3-40.6l38.8-50.6h49.6c0,0,32.6-0.6,61.6,32.5
			S282.5,621.9,282.5,621.9"/>
		<path class="styled-25" d="M282.5,621.9c0.5,2.4,0.9,4.7,0.9,7.2c0,17-13.8,30.8-30.8,30.8c-14.9,0-27.2-10.4-30.1-24.4
			c0,0,2.6-42.5-34.6-54.9c-37.2-12.4-72.8,33.5-72.8,33.5l-13.3-40.6l38.8-50.6h49.6c0,0,32.6-0.6,61.6,32.5
			S282.5,621.9,282.5,621.9z"/>
		<path class="styled-11" d="M174.2,588.2l-33.5-66.1c0,0-37.1,8.8-60.8,37.5c-33.5,40.6-36.8,86.7-1.9,102.3
			c26.7,11.9,47.6-9.1,55.2-26.8C147.6,601.2,174.2,588.2,174.2,588.2"/>
		<path class="styled-25" d="M174.2,588.2l-33.5-66.1c0,0-37.1,8.8-60.8,37.5c-33.5,40.6-36.8,86.7-1.9,102.3
			c26.7,11.9,47.6-9.1,55.2-26.8C147.6,601.2,174.2,588.2,174.2,588.2z"/>
	</g>
	<g>
		<g>
			<defs>
				<path id="SVGID_13_" d="M115.2,614c0,0,35.6-45.9,72.8-33.5c37.2,12.4,34.6,54.9,34.6,54.9c3,14,15.3,24.4,30.1,24.4
					c17,0,30.8-13.8,30.8-30.8c0-2.5-0.2-5-0.9-7.2c0,0-1.6-33.5-30.5-66.6s-61.6-32.5-61.6-32.5h-49.6l-38.8,50.6L115.2,614z"/>
			</defs>
			<clipPath id="SVGID_14_">
				<use xlink:href="#SVGID_13_"  style="overflow:visible;"/>
			</clipPath>
			<path class="styled-26" d="M161.5,588.8L132.9,519l74-0.9c0,0,43.4,14.5,64.9,48.7c21.5,34.4,24.4,62.4,10.8,85.9s-47.1,14.9-57.4,3.7
				c-10.3-11.2-12.8-23.9-13.6-26c-0.9-2.1-4.6-28.5-4.6-28.5l-25.2-9.5l-15.3,5L161.5,588.8z"/>
		</g>
		<g>
			<defs>
				<path id="SVGID_16_" d="M115.2,614c0,0,35.6-45.9,72.8-33.5c37.2,12.4,34.6,54.9,34.6,54.9c3,14,15.3,24.4,30.1,24.4
					c17,0,30.8-13.8,30.8-30.8c0-2.5-0.2-5-0.9-7.2c0,0-1.6-33.5-30.5-66.6s-61.6-32.5-61.6-32.5h-49.6l-38.8,50.6L115.2,614z"/>
			</defs>
			<clipPath id="SVGID_17_">
				<use xlink:href="#SVGID_16_"  style="overflow:visible;"/>
			</clipPath>
			<path class="styled-27" d="M362.6,1087.5c-7.4,0-13.5-6.1-13.5-13.5s6.1-13.5,13.5-13.5c7.4,0,13.5,6.1,13.5,13.5
				C376,1081.5,370,1087.5,362.6,1087.5"/>
		</g>
		<g>
			<defs>
				<path id="SVGID_18_" d="M115.2,614c0,0,35.6-45.9,72.8-33.5c37.2,12.4,34.6,54.9,34.6,54.9c3,14,15.3,24.4,30.1,24.4
					c17,0,30.8-13.8,30.8-30.8c0-2.5-0.2-5-0.9-7.2c0,0-1.6-33.5-30.5-66.6s-61.6-32.5-61.6-32.5h-49.6l-38.8,50.6L115.2,614z"/>
			</defs>
			<clipPath id="SVGID_19_">
				<use xlink:href="#SVGID_18_"  style="overflow:visible;"/>
			</clipPath>
			<path class="styled-28" d="M362.6,623.9c-7.4,0-13.5-6.1-13.5-13.5c0-7.4,6.1-13.4,13.5-13.4c7.4,0,13.5,6.1,13.5,13.4
				C376,617.8,370,623.9,362.6,623.9"/>
		</g>
		<g>
			<defs>
				<path id="SVGID_20_" d="M115.2,614c0,0,35.6-45.9,72.8-33.5c37.2,12.4,34.6,54.9,34.6,54.9c3,14,15.3,24.4,30.1,24.4
					c17,0,30.8-13.8,30.8-30.8c0-2.5-0.2-5-0.9-7.2c0,0-1.6-33.5-30.5-66.6s-61.6-32.5-61.6-32.5h-49.6l-38.8,50.6L115.2,614z"/>
			</defs>
			<clipPath id="SVGID_21_">
				<use xlink:href="#SVGID_20_"  style="overflow:visible;"/>
			</clipPath>
			<path class="styled-29" d="M187,521.6l0.1,75.4l-68.8-27.2c0,0-34.7-29.8-41.7-69.7c-6.9-39.9,1-67,22.4-83.7
				c21.6-16.7,49.2,4,54.6,18.2c5.3,14.3,2.9,27,2.9,29.3s-6.6,28.2-6.6,28.2l19.7,18.4l16,1.1L187,521.6z"/>
		</g>
		<g>
			<defs>
				<path id="SVGID_22_" d="M115.2,614c0,0,35.6-45.9,72.8-33.5c37.2,12.4,34.6,54.9,34.6,54.9c3,14,15.3,24.4,30.1,24.4
					c17,0,30.8-13.8,30.8-30.8c0-2.5-0.2-5-0.9-7.2c0,0-1.6-33.5-30.5-66.6s-61.6-32.5-61.6-32.5h-49.6l-38.8,50.6L115.2,614z"/>
			</defs>
			<clipPath id="SVGID_23_">
				<use xlink:href="#SVGID_22_"  style="overflow:visible;"/>
			</clipPath>
			<path class="styled-30" d="M223.9,640.9l33.9-2.9c0,0,9.1-3.3,7.4-11.5c-1.6-8.3-10.3-9.1-10.3-9.1l-10.8,1.2c0,0-1.2-6.2-8.7-8.7
				s-15.8,3.7-15.8,3.7"/>
		</g>
		<g>
			<defs>
				<path id="SVGID_24_" d="M115.2,614c0,0,35.6-45.9,72.8-33.5c37.2,12.4,34.6,54.9,34.6,54.9c3,14,15.3,24.4,30.1,24.4
					c17,0,30.8-13.8,30.8-30.8c0-2.5-0.2-5-0.9-7.2c0,0-1.6-33.5-30.5-66.6s-61.6-32.5-61.6-32.5h-49.6l-38.8,50.6L115.2,614z"/>
			</defs>
			<clipPath id="SVGID_25_">
				<use xlink:href="#SVGID_24_"  style="overflow:visible;"/>
			</clipPath>
			<path class="styled-31" d="M250.8,659.1c0,0,7.8-10.3-3.7-20.2"/>
		</g>
		<g>
			<defs>
				<path id="SVGID_26_" d="M115.2,614c0,0,35.6-45.9,72.8-33.5c37.2,12.4,34.6,54.9,34.6,54.9c3,14,15.3,24.4,30.1,24.4
					c17,0,30.8-13.8,30.8-30.8c0-2.5-0.2-5-0.9-7.2c0,0-1.6-33.5-30.5-66.6s-61.6-32.5-61.6-32.5h-49.6l-38.8,50.6L115.2,614z"/>
			</defs>
			<clipPath id="SVGID_27_">
				<use xlink:href="#SVGID_26_"  style="overflow:visible;"/>
			</clipPath>
			<path class="styled-32" d="M261.9,658.2c0,0,7.8-10.3-3.7-20.2"/>
		</g>
		<g>
			<defs>
				<path id="SVGID_28_" d="M115.2,614c0,0,35.6-45.9,72.8-33.5c37.2,12.4,34.6,54.9,34.6,54.9c3,14,15.3,24.4,30.1,24.4
					c17,0,30.8-13.8,30.8-30.8c0-2.5-0.2-5-0.9-7.2c0,0-1.6-33.5-30.5-66.6s-61.6-32.5-61.6-32.5h-49.6l-38.8,50.6L115.2,614z"/>
			</defs>
			<clipPath id="SVGID_29_">
				<use xlink:href="#SVGID_28_"  style="overflow:visible;"/>
			</clipPath>
			<path class="styled-33" d="M272.2,651.5c0,0,8.7-12.3-7.1-20.1"/>
		</g>
		<g>
			<defs>
				<path id="SVGID_30_" d="M115.2,614c0,0,35.6-45.9,72.8-33.5c37.2,12.4,34.6,54.9,34.6,54.9c3,14,15.3,24.4,30.1,24.4
					c17,0,30.8-13.8,30.8-30.8c0-2.5-0.2-5-0.9-7.2c0,0-1.6-33.5-30.5-66.6s-61.6-32.5-61.6-32.5h-49.6l-38.8,50.6L115.2,614z"/>
			</defs>
			<clipPath id="SVGID_31_">
				<use xlink:href="#SVGID_30_"  style="overflow:visible;"/>
			</clipPath>
			<polygon class="styled-34" points="210.7,609.5 275.2,573.5 256.1,547.9 203.3,598.7 			"/>
		</g>
	</g>
	<g>
		<path class="styled-3" d="M174.2,588.2l-33.5-66.1c0,0-37.1,8.8-60.8,37.5c-33.5,40.6-36.8,86.7-1.9,102.3
			c26.7,11.9,47.6-9.1,55.2-26.8C147.6,601.2,174.2,588.2,174.2,588.2"/>
		<path class="styled-11" d="M282.5,420.9c0.5-2.4,0.9-4.7,0.9-7.2c0-17-13.8-30.8-30.8-30.8c-14.9,0-27.2,10.4-30.1,24.4
			c0,0,2.6,42.5-34.6,54.9c-37.2,12.4-72.8-33.5-72.8-33.5l-13.3,40.6l38.8,50.6h49.6c0,0,32.6,0.6,61.6-32.5
			S282.5,420.9,282.5,420.9"/>
		<path class="styled-25" d="M282.5,420.9c0.5-2.4,0.9-4.7,0.9-7.2c0-17-13.8-30.8-30.8-30.8c-14.9,0-27.2,10.4-30.1,24.4
			c0,0,2.6,42.5-34.6,54.9c-37.2,12.4-72.8-33.5-72.8-33.5l-13.3,40.6l38.8,50.6h49.6c0,0,32.6,0.6,61.6-32.5
			S282.5,420.9,282.5,420.9z"/>
		<path class="styled-11" d="M174.2,454.6l-33.5,66.1c0,0-37.1-8.8-60.8-37.5c-33.5-40.6-36.8-86.7-1.9-102.3
			c26.7-11.9,47.6,9.1,55.2,26.8C147.6,441.6,174.2,454.6,174.2,454.6"/>
		<path class="styled-25" d="M174.2,454.6l-33.5,66.1c0,0-37.1-8.8-60.8-37.5c-33.5-40.6-36.8-86.7-1.9-102.3
			c26.7-11.9,47.6,9.1,55.2,26.8C147.6,441.6,174.2,454.6,174.2,454.6z"/>
	</g>
	<g>
		<g>
			<defs>
				<path id="SVGID_32_" d="M140.8,520h49.6c0,0,32.6,0.6,61.6-32.5c28.9-33.1,30.5-66.6,30.5-66.6c0.5-2.4,0.9-4.7,0.9-7.2
					c0-17-13.8-30.8-30.8-30.8c-14.9,0-27.2,10.4-30.1,24.4c0,0,2.6,42.5-34.6,54.9c-37.2,12.4-72.8-33.5-72.8-33.5l-13.3,40.6
					L140.8,520z"/>
			</defs>
			<clipPath id="SVGID_33_">
				<use xlink:href="#SVGID_32_"  style="overflow:visible;"/>
			</clipPath>
			<path class="styled-35" d="M161.5,454l-28.5,69.8l74,0.9c0,0,43.4-14.5,64.9-48.7c21.5-34.4,24.4-62.4,10.8-85.9
				c-13.6-23.6-47.1-14.9-57.4-3.7c-10.3,11.2-12.8,23.9-13.6,26s-4.6,28.5-4.6,28.5l-25.2,9.5l-15.3-5L161.5,454z"/>
		</g>
		<g>
			<defs>
				<path id="SVGID_34_" d="M140.8,520h49.6c0,0,32.6,0.6,61.6-32.5c28.9-33.1,30.5-66.6,30.5-66.6c0.5-2.4,0.9-4.7,0.9-7.2
					c0-17-13.8-30.8-30.8-30.8c-14.9,0-27.2,10.4-30.1,24.4c0,0,2.6,42.5-34.6,54.9c-37.2,12.4-72.8-33.5-72.8-33.5l-13.3,40.6
					L140.8,520z"/>
			</defs>
			<clipPath id="SVGID_35_">
				<use xlink:href="#SVGID_34_"  style="overflow:visible;"/>
			</clipPath>
			<path class="styled-36" d="M187,521.2l0.1-75.4L118.3,473c0,0-34.7,29.8-41.7,69.7c-6.9,39.9,1,67,22.4,83.7
				c21.6,16.7,49.2-4,54.6-18.2c5.3-14.3,2.9-27,2.9-29.3s-6.6-28.2-6.6-28.2l19.7-18.4l16-1.1L187,521.2z"/>
		</g>
		<g>
			<defs>
				<path id="SVGID_36_" d="M140.8,520h49.6c0,0,32.6,0.6,61.6-32.5c28.9-33.1,30.5-66.6,30.5-66.6c0.5-2.4,0.9-4.7,0.9-7.2
					c0-17-13.8-30.8-30.8-30.8c-14.9,0-27.2,10.4-30.1,24.4c0,0,2.6,42.5-34.6,54.9c-37.2,12.4-72.8-33.5-72.8-33.5l-13.3,40.6
					L140.8,520z"/>
			</defs>
			<clipPath id="SVGID_37_">
				<use xlink:href="#SVGID_36_"  style="overflow:visible;"/>
			</clipPath>
			<path class="styled-37" d="M240.8,380.1c0,0,11.9,5.3,6.4,19.6"/>
		</g>
		<g>
			<defs>
				<path id="SVGID_38_" d="M140.8,520h49.6c0,0,32.6,0.6,61.6-32.5c28.9-33.1,30.5-66.6,30.5-66.6c0.5-2.4,0.9-4.7,0.9-7.2
					c0-17-13.8-30.8-30.8-30.8c-14.9,0-27.2,10.4-30.1,24.4c0,0,2.6,42.5-34.6,54.9c-37.2,12.4-72.8-33.5-72.8-33.5l-13.3,40.6
					L140.8,520z"/>
			</defs>
			<clipPath id="SVGID_39_">
				<use xlink:href="#SVGID_38_"  style="overflow:visible;"/>
			</clipPath>
			<path class="styled-38" d="M257,380.3c0,0,11.9,5.3,6.4,19.6"/>
		</g>
		<g>
			<defs>
				<path id="SVGID_40_" d="M140.8,520h49.6c0,0,32.6,0.6,61.6-32.5c28.9-33.1,30.5-66.6,30.5-66.6c0.5-2.4,0.9-4.7,0.9-7.2
					c0-17-13.8-30.8-30.8-30.8c-14.9,0-27.2,10.4-30.1,24.4c0,0,2.6,42.5-34.6,54.9c-37.2,12.4-72.8-33.5-72.8-33.5l-13.3,40.6
					L140.8,520z"/>
			</defs>
			<clipPath id="SVGID_41_">
				<use xlink:href="#SVGID_40_"  style="overflow:visible;"/>
			</clipPath>
			<path class="styled-39" d="M269.4,387.1c0,0,11.9,5.3,6.4,19.6"/>
		</g>
		<g>
			<defs>
				<path id="SVGID_42_" d="M140.8,520h49.6c0,0,32.6,0.6,61.6-32.5c28.9-33.1,30.5-66.6,30.5-66.6c0.5-2.4,0.9-4.7,0.9-7.2
					c0-17-13.8-30.8-30.8-30.8c-14.9,0-27.2,10.4-30.1,24.4c0,0,2.6,42.5-34.6,54.9c-37.2,12.4-72.8-33.5-72.8-33.5l-13.3,40.6
					L140.8,520z"/>
			</defs>
			<clipPath id="SVGID_43_">
				<use xlink:href="#SVGID_42_"  style="overflow:visible;"/>
			</clipPath>
			<polygon class="styled-40" points="210.7,433.3 275.2,469.2 256.1,494.9 203.3,444.1 			"/>
		</g>
	</g>
	<g>
		<path class="styled-3" d="M174.2,454.6l-33.5,66.1c0,0-37.1-8.8-60.8-37.5c-33.5-40.6-36.8-86.7-1.9-102.3
			c26.7-11.9,47.6,9.1,55.2,26.8C147.6,441.6,174.2,454.6,174.2,454.6"/>
		<path class="styled-11" d="M706.7,422.1c0.5-2.4,0.9-4.7,0.9-7.2c0-17-13.8-30.8-30.8-30.8c-14.9,0-27.2,10.4-30.1,24.4
			c0,0,2.6,42.5-34.6,54.9c-37.2,12.4-72.8-33.5-72.8-33.5L526,470.6l38.8,50.6h49.6c0,0,32.6,0.6,61.6-32.5
			C705.1,455.6,706.7,422.1,706.7,422.1"/>
		<path class="styled-25" d="M706.7,422.1c0.5-2.4,0.9-4.7,0.9-7.2c0-17-13.8-30.8-30.8-30.8c-14.9,0-27.2,10.4-30.1,24.4
			c0,0,2.6,42.5-34.6,54.9c-37.2,12.4-72.8-33.5-72.8-33.5L526,470.6l38.8,50.6h49.6c0,0,32.6,0.6,61.6-32.5
			C705.1,455.6,706.7,422.1,706.7,422.1z"/>
		<path class="styled-11" d="M598.4,455.8l-33.5,66.1c0,0-37.1-8.8-60.8-37.5c-33.5-40.6-36.8-86.7-1.9-102.3
			c26.7-11.9,47.6,9.1,55.2,26.8C571.7,442.8,598.4,455.8,598.4,455.8"/>
		<path class="styled-25" d="M598.4,455.8l-33.5,66.1c0,0-37.1-8.8-60.8-37.5c-33.5-40.6-36.8-86.7-1.9-102.3
			c26.7-11.9,47.6,9.1,55.2,26.8C571.7,442.8,598.4,455.8,598.4,455.8z"/>
	</g>
	<g>
		<g>
			<defs>
				<path id="SVGID_44_" d="M564.9,521.2h49.6c0,0,32.6,0.6,61.6-32.5c28.9-33.1,30.5-66.6,30.5-66.6c0.5-2.4,0.9-4.7,0.9-7.2
					c0-17-13.8-30.8-30.8-30.8c-14.9,0-27.2,10.4-30.1,24.4c0,0,2.6,42.5-34.6,54.9c-37.2,12.4-72.8-33.5-72.8-33.5L526,470.6
					L564.9,521.2z"/>
			</defs>
			<clipPath id="SVGID_45_">
				<use xlink:href="#SVGID_44_"  style="overflow:visible;"/>
			</clipPath>
			<path class="styled-41" d="M585.6,455.2L557.1,525l74,0.9c0,0,43.4-14.5,64.9-48.7c21.5-34.4,24.4-62.4,10.8-85.9s-47.1-14.9-57.4-3.7
				c-10.3,11.2-12.8,23.9-13.6,26c-0.9,2.1-4.6,28.5-4.6,28.5l-25.2,9.5l-15.3-5L585.6,455.2z"/>
		</g>
		<g>
			<defs>
				<path id="SVGID_46_" d="M564.9,521.2h49.6c0,0,32.6,0.6,61.6-32.5c28.9-33.1,30.5-66.6,30.5-66.6c0.5-2.4,0.9-4.7,0.9-7.2
					c0-17-13.8-30.8-30.8-30.8c-14.9,0-27.2,10.4-30.1,24.4c0,0,2.6,42.5-34.6,54.9c-37.2,12.4-72.8-33.5-72.8-33.5L526,470.6
					L564.9,521.2z"/>
			</defs>
			<clipPath id="SVGID_47_">
				<use xlink:href="#SVGID_46_"  style="overflow:visible;"/>
			</clipPath>
			<path class="styled-42" d="M611.2,522.4l0.1-75.4l-68.8,27.2c0,0-34.7,29.8-41.7,69.7s1,67,22.4,83.7c21.6,16.7,49.2-4,54.6-18.2
				s2.9-27,2.9-29.3c0-2.2-6.6-28.2-6.6-28.2l19.7-18.4l16-1.1L611.2,522.4z"/>
		</g>
		<g>
			<defs>
				<path id="SVGID_48_" d="M564.9,521.2h49.6c0,0,32.6,0.6,61.6-32.5c28.9-33.1,30.5-66.6,30.5-66.6c0.5-2.4,0.9-4.7,0.9-7.2
					c0-17-13.8-30.8-30.8-30.8c-14.9,0-27.2,10.4-30.1,24.4c0,0,2.6,42.5-34.6,54.9c-37.2,12.4-72.8-33.5-72.8-33.5L526,470.6
					L564.9,521.2z"/>
			</defs>
			<clipPath id="SVGID_49_">
				<use xlink:href="#SVGID_48_"  style="overflow:visible;"/>
			</clipPath>
			<path class="styled-43" d="M648,403.1l33.9,2.9c0,0,9.1,3.3,7.4,11.5c-1.6,8.3-10.3,9.1-10.3,9.1l-10.8-1.2c0,0-1.2,6.2-8.7,8.7
				c-7.4,2.5-15.8-3.7-15.8-3.7"/>
		</g>
		<g>
			<defs>
				<path id="SVGID_50_" d="M564.9,521.2h49.6c0,0,32.6,0.6,61.6-32.5c28.9-33.1,30.5-66.6,30.5-66.6c0.5-2.4,0.9-4.7,0.9-7.2
					c0-17-13.8-30.8-30.8-30.8c-14.9,0-27.2,10.4-30.1,24.4c0,0,2.6,42.5-34.6,54.9c-37.2,12.4-72.8-33.5-72.8-33.5L526,470.6
					L564.9,521.2z"/>
			</defs>
			<clipPath id="SVGID_51_">
				<use xlink:href="#SVGID_50_"  style="overflow:visible;"/>
			</clipPath>
			<path class="styled-44" d="M674.9,384.9c0,0,7.8,10.3-3.7,20.2"/>
		</g>
		<g>
			<defs>
				<path id="SVGID_52_" d="M564.9,521.2h49.6c0,0,32.6,0.6,61.6-32.5c28.9-33.1,30.5-66.6,30.5-66.6c0.5-2.4,0.9-4.7,0.9-7.2
					c0-17-13.8-30.8-30.8-30.8c-14.9,0-27.2,10.4-30.1,24.4c0,0,2.6,42.5-34.6,54.9c-37.2,12.4-72.8-33.5-72.8-33.5L526,470.6
					L564.9,521.2z"/>
			</defs>
			<clipPath id="SVGID_53_">
				<use xlink:href="#SVGID_52_"  style="overflow:visible;"/>
			</clipPath>
			<path class="styled-45" d="M686.1,385.8c0,0,7.8,10.3-3.7,20.2"/>
		</g>
		<g>
			<defs>
				<path id="SVGID_54_" d="M564.9,521.2h49.6c0,0,32.6,0.6,61.6-32.5c28.9-33.1,30.5-66.6,30.5-66.6c0.5-2.4,0.9-4.7,0.9-7.2
					c0-17-13.8-30.8-30.8-30.8c-14.9,0-27.2,10.4-30.1,24.4c0,0,2.6,42.5-34.6,54.9c-37.2,12.4-72.8-33.5-72.8-33.5L526,470.6
					L564.9,521.2z"/>
			</defs>
			<clipPath id="SVGID_55_">
				<use xlink:href="#SVGID_54_"  style="overflow:visible;"/>
			</clipPath>
			<path class="styled-46" d="M696.4,392.5c0,0,7.6,12.4-8.3,20.2"/>
		</g>
		<g>
			<defs>
				<path id="SVGID_56_" d="M564.9,521.2h49.6c0,0,32.6,0.6,61.6-32.5c28.9-33.1,30.5-66.6,30.5-66.6c0.5-2.4,0.9-4.7,0.9-7.2
					c0-17-13.8-30.8-30.8-30.8c-14.9,0-27.2,10.4-30.1,24.4c0,0,2.6,42.5-34.6,54.9c-37.2,12.4-72.8-33.5-72.8-33.5L526,470.6
					L564.9,521.2z"/>
			</defs>
			<clipPath id="SVGID_57_">
				<use xlink:href="#SVGID_56_"  style="overflow:visible;"/>
			</clipPath>
			<polygon class="styled-47" points="634.9,434.5 699.3,470.5 680.2,496.2 627.4,445.3 			"/>
		</g>
	</g>
	<g>
		<path class="styled-3" d="M598.4,455.8l-33.5,66.1c0,0-37.1-8.8-60.8-37.5c-33.5-40.6-36.8-86.7-1.9-102.3
			c26.7-11.9,47.6,9.1,55.2,26.8C571.7,442.8,598.4,455.8,598.4,455.8"/>
		<path class="styled-11" d="M706.7,623.1c0.5,2.4,0.9,4.7,0.9,7.2c0,17-13.8,30.8-30.8,30.8c-14.9,0-27.2-10.4-30.1-24.4
			c0,0,2.6-42.5-34.6-54.9s-72.8,33.5-72.8,33.5L526,574.7l38.8-50.6h49.6c0,0,32.6-0.6,61.6,32.5
			C705.1,589.7,706.7,623.1,706.7,623.1"/>
		<path class="styled-25" d="M706.7,623.1c0.5,2.4,0.9,4.7,0.9,7.2c0,17-13.8,30.8-30.8,30.8c-14.9,0-27.2-10.4-30.1-24.4
			c0,0,2.6-42.5-34.6-54.9s-72.8,33.5-72.8,33.5L526,574.7l38.8-50.6h49.6c0,0,32.6-0.6,61.6,32.5
			C705.1,589.7,706.7,623.1,706.7,623.1z"/>
		<path class="styled-11" d="M598.4,589.4l-33.5-66.1c0,0-37.1,8.8-60.8,37.5c-33.5,40.6-36.8,86.7-1.9,102.3
			c26.7,11.9,47.6-9.1,55.2-26.8C571.7,602.4,598.4,589.4,598.4,589.4"/>
		<path class="styled-25" d="M598.4,589.4l-33.5-66.1c0,0-37.1,8.8-60.8,37.5c-33.5,40.6-36.8,86.7-1.9,102.3
			c26.7,11.9,47.6-9.1,55.2-26.8C571.7,602.4,598.4,589.4,598.4,589.4z"/>
	</g>
	<g>
		<g>
			<defs>
				<path id="SVGID_58_" d="M539.4,615.2c0,0,35.6-45.9,72.8-33.5c37.2,12.4,34.6,54.9,34.6,54.9c3,14,15.3,24.4,30.1,24.4
					c17,0,30.8-13.8,30.8-30.8c0-2.5-0.2-5-0.9-7.2c0,0-1.6-33.5-30.5-66.6c-28.9-33.1-61.6-32.5-61.6-32.5H565l-38.8,50.6
					L539.4,615.2z"/>
			</defs>
			<clipPath id="SVGID_59_">
				<use xlink:href="#SVGID_58_"  style="overflow:visible;"/>
			</clipPath>
			<path class="styled-48" d="M585.6,590l-28.5-69.8l74-0.9c0,0,43.4,14.5,64.9,48.7c21.5,34.4,24.4,62.4,10.8,85.9
				c-13.6,23.6-47.1,14.9-57.4,3.7c-10.3-11.2-12.8-23.9-13.6-26c-0.9-2.1-4.6-28.5-4.6-28.5l-25.2-9.5l-15.3,5L585.6,590z"/>
		</g>
		<g>
			<defs>
				<path id="SVGID_60_" d="M539.4,615.2c0,0,35.6-45.9,72.8-33.5c37.2,12.4,34.6,54.9,34.6,54.9c3,14,15.3,24.4,30.1,24.4
					c17,0,30.8-13.8,30.8-30.8c0-2.5-0.2-5-0.9-7.2c0,0-1.6-33.5-30.5-66.6c-28.9-33.1-61.6-32.5-61.6-32.5H565l-38.8,50.6
					L539.4,615.2z"/>
			</defs>
			<clipPath id="SVGID_61_">
				<use xlink:href="#SVGID_60_"  style="overflow:visible;"/>
			</clipPath>
			<path class="styled-49" d="M611.2,522.8l0.1,75.4l-68.8-27.2c0,0-34.7-29.8-41.7-69.7s1-67,22.4-83.7c21.6-16.7,49.2,4,54.6,18.2
				c5.3,14.3,2.9,27,2.9,29.3s-6.6,28.2-6.6,28.2l19.7,18.4l16,1.1L611.2,522.8z"/>
		</g>
		<g>
			<defs>
				<path id="SVGID_62_" d="M539.4,615.2c0,0,35.6-45.9,72.8-33.5c37.2,12.4,34.6,54.9,34.6,54.9c3,14,15.3,24.4,30.1,24.4
					c17,0,30.8-13.8,30.8-30.8c0-2.5-0.2-5-0.9-7.2c0,0-1.6-33.5-30.5-66.6c-28.9-33.1-61.6-32.5-61.6-32.5H565l-38.8,50.6
					L539.4,615.2z"/>
			</defs>
			<clipPath id="SVGID_63_">
				<use xlink:href="#SVGID_62_"  style="overflow:visible;"/>
			</clipPath>
			<path class="styled-50" d="M665,664c0,0,11.9-5.3,6.4-19.6"/>
		</g>
		<g>
			<defs>
				<path id="SVGID_64_" d="M539.4,615.2c0,0,35.6-45.9,72.8-33.5c37.2,12.4,34.6,54.9,34.6,54.9c3,14,15.3,24.4,30.1,24.4
					c17,0,30.8-13.8,30.8-30.8c0-2.5-0.2-5-0.9-7.2c0,0-1.6-33.5-30.5-66.6c-28.9-33.1-61.6-32.5-61.6-32.5H565l-38.8,50.6
					L539.4,615.2z"/>
			</defs>
			<clipPath id="SVGID_65_">
				<use xlink:href="#SVGID_64_"  style="overflow:visible;"/>
			</clipPath>
			<path class="styled-51" d="M681.1,663.7c0,0,11.9-5.3,6.4-19.6"/>
		</g>
		<g>
			<defs>
				<path id="SVGID_66_" d="M539.4,615.2c0,0,35.6-45.9,72.8-33.5c37.2,12.4,34.6,54.9,34.6,54.9c3,14,15.3,24.4,30.1,24.4
					c17,0,30.8-13.8,30.8-30.8c0-2.5-0.2-5-0.9-7.2c0,0-1.6-33.5-30.5-66.6c-28.9-33.1-61.6-32.5-61.6-32.5H565l-38.8,50.6
					L539.4,615.2z"/>
			</defs>
			<clipPath id="SVGID_67_">
				<use xlink:href="#SVGID_66_"  style="overflow:visible;"/>
			</clipPath>
			<path class="styled-52" d="M693.5,656.9c0,0,11.9-5.3,6.4-19.6"/>
		</g>
		<g>
			<defs>
				<path id="SVGID_68_" d="M539.4,615.2c0,0,35.6-45.9,72.8-33.5c37.2,12.4,34.6,54.9,34.6,54.9c3,14,15.3,24.4,30.1,24.4
					c17,0,30.8-13.8,30.8-30.8c0-2.5-0.2-5-0.9-7.2c0,0-1.6-33.5-30.5-66.6c-28.9-33.1-61.6-32.5-61.6-32.5H565l-38.8,50.6
					L539.4,615.2z"/>
			</defs>
			<clipPath id="SVGID_69_">
				<use xlink:href="#SVGID_68_"  style="overflow:visible;"/>
			</clipPath>
			<polygon class="styled-53" points="634.9,610.7 699.3,574.8 680.2,549.1 627.4,600 			"/>
		</g>
	</g>
	<g>
		<path class="styled-3" d="M598.4,589.4l-33.5-66.1c0,0-37.1,8.8-60.8,37.5c-33.5,40.6-36.8,86.7-1.9,102.3
			c26.7,11.9,47.6-9.1,55.2-26.8C571.7,602.4,598.4,589.4,598.4,589.4"/>
		<line class="styled-54" x1="56.4" y1="595.4" x2="137" y2="627.6"/>
		<line class="styled-55" x1="142.6" y1="630.8" x2="153.3" y2="635.1"/>
		<line class="styled-55" x1="113.2" y1="521.8" x2="77.1" y2="521.8"/>
		<line class="styled-54" x1="480.6" y1="448.7" x2="561.2" y2="416.4"/>
		<line class="styled-54" x1="480.6" y1="596.6" x2="561.2" y2="628.9"/>
		<line class="styled-54" x1="539.7" y1="522.6" x2="660" y2="522.6"/>
		<line class="styled-55" x1="537.4" y1="522.2" x2="499.9" y2="522.2"/>
		<line class="styled-54" x1="115.6" y1="521.5" x2="235.9" y2="521.5"/>
	</g>
	<g>
		<text transform="matrix(0 -1 1 0 73.7119 537.4789)" class="styled-12 styled-14">Score</text>
	</g>
	<g>
		<text transform="matrix(0 -1 1 0 165.6385 647.7245)" class="styled-12 styled-14">Tab</text>
	</g>
	<g>
		<text transform="matrix(0 -1 1 0 165.6385 417.9729)" class="styled-12 styled-14">Tab</text>
	</g>
	<g>
		<text transform="matrix(0 -1 1 0 254.8702 533.1035)" class="styled-12 styled-14">Fold</text>
	</g>
	<g>
		<text transform="matrix(0 -1 1 0 494.6111 540.3298)" class="styled-12 styled-14">Score</text>
	</g>
	<g>
		<g>
			<text transform="matrix(0 -1 1 0 319.347 457.9885)" class="styled-15 styled-16">RIGHT ARM</text>
		</g>
	</g>
	<g>
		<g>
			<text transform="matrix(0 -1 1 0 456.494 457.9885)" class="styled-15 styled-16">LEFT ARM</text>
		</g>
	</g>
	<line class="styled-56" x1="56.4" y1="447.4" x2="137" y2="415.2"/>
	<line class="styled-55" x1="142.4" y1="412.8" x2="151.2" y2="409.3"/>
	<line class="styled-55" x1="567.6" y1="632.6" x2="578.3" y2="636.8"/>
	<g>
		<text transform="matrix(0 -1 1 0 590.6669 649.4729)" class="styled-12 styled-14">Tab</text>
	</g>
	<g>
		<text transform="matrix(0 -1 1 0 590.6669 419.7214)" class="styled-12 styled-14">Tab</text>
	</g>
	<line class="styled-55" x1="567.5" y1="414.5" x2="576.2" y2="411.1"/>
	<path class="styled-57" d="M96.1,491.8c0,0-5.2-7.8-4.2-17.6c0.6-6.4,1.2-8.8,2.4-15.8c1.1-7.3,1.5-21.1-0.5-25.3l15.3-6.1
		c0,0,4.5,15.9,1.1,29.8c-4.1,17-2,27.5,5.2,34.1l-13.3,8.9L96.1,491.8z"/>
	<path class="styled-57" d="M86.6,490.2v-0.6c0,0-3.7-17.5-0.7-26.8c3.8-11.9,1.4-27,1.4-27l-28.9,11.8c0,0,6.4,13.9,11.2,21.7
		C75,478.4,85.1,488.6,86.6,490.2z"/>
	<path class="styled-57" d="M96,550.8c0,0-5.2,7.8-4.2,17.6c0.6,6.4,1.2,8.8,2.4,15.8c1.1,7.3,1.5,21.1-0.5,25.3l15.3,6.1
		c0,0,4.5-15.9,1.1-29.8c-4.1-17-2-27.5,5.2-34.1l-13.3-8.9L96,550.8z"/>
	<path class="styled-57" d="M86.3,552.5v0.6c0,0-3.7,17.5-0.7,26.8c3.8,11.9,1.4,27,1.4,27L58,595.1c0,0,6.4-13.9,11.2-21.7
		C74.8,564.2,84.8,554.1,86.3,552.5z"/>
	<path class="styled-4" d="M520.4,492.7c0,0-5.2-7.8-4.2-17.6c0.6-6.4,1.2-8.8,2.4-15.8c1.1-7.3,1.5-21.1-0.5-25.3l15.3-6.1
		c0,0,4.5,15.9,1.1,29.8c-4.1,17-2,27.5,5.2,34.1l-13.3,8.9L520.4,492.7z"/>
	<path class="styled-4" d="M510.8,491.6v-1.1c0,0-3.7-17.5-0.7-26.8c3.8-11.9,1.4-27,1.4-27l-29,11.8c0,0,6,14.9,10.8,22.7
		C498.8,480.4,509.3,490,510.8,491.6z"/>
	<path class="styled-4" d="M520.3,552.5c0,0-5.2,7.8-4.2,17.6c0.6,6.4,1.2,8.8,2.4,15.8c1.1,7.3,1.5,21.1-0.5,25.3l15.3,6.1
		c0,0,4.5-15.9,1.1-29.8c-4.1-17-2-27.5,5.2-34.1l-13.3-8.9L520.3,552.5z"/>
	<path class="styled-4" d="M510.2,552.3l0.4,2.4c0,0-3.7,17.5-0.7,26.8c3.8,11.9,1.4,27,1.4,27l-28.9-11.8c0,0,6.4-13.9,11.2-21.7
		C499.2,565.7,508.9,553.9,510.2,552.3z"/>
	<g>
		<text transform="matrix(0 -1 1 0 681.1328 537.3495)" class="styled-12 styled-14">Fold</text>
	</g>
	<rect x="549" y="774" class="styled-0" width="139.4" height="93"/>
	<text transform="matrix(1 0 0 1 548.9892 782.7392)" class="styled-58 styled-59">NOTE:</text>
	<text transform="matrix(1 0 0 1 580.3662 782.7392)" class="styled-12 styled-59"> </text>
	<text transform="matrix(1 0 0 1 583.3427 782.7392)" class="styled-60 styled-59">To make the figure </text>
	<text transform="matrix(1 0 0 1 548.9892 796.3812)" class="styled-60 styled-59">sturdier, you may paste </text>
	<text transform="matrix(1 0 0 1 548.9892 810.0233)" class="styled-60 styled-59">pieces on to heavy paper </text>
	<text transform="matrix(1 0 0 1 548.9892 823.6651)" class="styled-60 styled-59">before trimming or print </text>
	<text transform="matrix(1 0 0 1 548.9892 837.3076)" class="styled-60 styled-59">our online version on </text>
	<text transform="matrix(1 0 0 1 548.9892 850.95)" class="styled-60 styled-59">heavier stock.</text>
	<g>
		<g>
			<path d="M65.5,1020.4c0,4.8-4,8.8-8.8,8.8c-4.8,0-8.8-4-8.8-8.8c0-4.8,4-8.8,8.8-8.8C61.5,1011.5,65.5,1015.4,65.5,1020.4"/>
			<g>
				<text transform="matrix(1 0 0 1 53.6503 1024.161)" class="styled-3 styled-15 styled-61">2</text>
			</g>
		</g>
		<g>
			<path d="M64.4,987.9c0,4.8-4,8.8-8.8,8.8c-4.8,0-8.8-4-8.8-8.8c0-4.8,4-8.8,8.8-8.8S64.4,983.1,64.4,987.9"/>
			<g>
				<text transform="matrix(1 0 0 1 52.4931 991.707)" class="styled-3 styled-15 styled-61">1</text>
			</g>
		</g>
		<g>
			<path d="M65,1054.6c0,4.8-4,8.8-8.8,8.8c-4.8,0-8.8-4-8.8-8.8c0-4.8,4-8.8,8.8-8.8C61,1045.8,65,1049.7,65,1054.6"/>
			<g>
				<text transform="matrix(1 0 0 1 53.1244 1058.4081)" class="styled-3 styled-15 styled-61">3</text>
			</g>
		</g>
		<g>
			<path d="M65,1097.5c0,4.8-4,8.8-8.8,8.8c-4.8,0-8.8-4-8.8-8.8c0-4.8,4-8.8,8.8-8.8S65,1092.7,65,1097.5"/>
			<g>
				<text transform="matrix(1 0 0 1 53.1244 1101.3427)" class="styled-3 styled-15 styled-61">4</text>
			</g>
		</g>
		<g>
			<path d="M65.1,1122.2c0,4.8-4,8.8-8.8,8.8s-8.8-4-8.8-8.8c0-4.8,4-8.8,8.8-8.8S65.1,1117.4,65.1,1122.2"/>
			<g>
				<text transform="matrix(1 0 0 1 53.3194 1126.0654)" class="styled-3 styled-15 styled-61">5</text>
			</g>
		</g>
		<g>
			<path d="M65.4,1171.3c0,4.8-4,8.8-8.8,8.8s-8.8-4-8.8-8.8s4-8.8,8.8-8.8C61.4,1162.4,65.4,1166.4,65.4,1171.3"/>
			<g>
				<text transform="matrix(1 0 0 1 53.4848 1175.078)" class="styled-3 styled-15 styled-61">6</text>
			</g>
		</g>
		<g>
			<path d="M65,1217.3c0,4.8-4,8.8-8.8,8.8c-4.8,0-8.8-4-8.8-8.8c0-4.8,4-8.8,8.8-8.8S65,1212.4,65,1217.3"/>
			<g>
				<text transform="matrix(1 0 0 1 53.1244 1221.1105)" class="styled-3 styled-15 styled-61">7</text>
			</g>
		</g>
		<polygon class="styled-0" points="303.8,1233 74.4,1233.2 75.9,965.4 305.3,965.2 		"/>
		<text transform="matrix(1 0 0 1 75.874 987.5731)" class="styled-60 styled-59">Trim out all pieces with scissors</text>
		<text transform="matrix(1 0 0 1 75.7499 1001.2149)" class="styled-60 styled-59">or a hobby knife.</text>
		<text transform="matrix(1 0 0 1 75.626 1021.0585)" class="styled-60 styled-59">Assemble the main figure by folding</text>
		<text transform="matrix(1 0 0 1 75.626 1034.701)" class="styled-60 styled-59">tabs and along lines.</text>
		<text transform="matrix(1 0 0 1 75.5019 1054.5439)" class="styled-60 styled-59">Cut slits for arms (dotted lines on</text>
		<text transform="matrix(1 0 0 1 75.3779 1068.1854)" class="styled-60 styled-59">figure’s sides). Fold arms in half,</text>
		<text transform="matrix(1 0 0 1 75.3779 1081.828)" class="styled-60 styled-59">tape and insert into slits on main body.</text>
		<text transform="matrix(1 0 0 1 75.2538 1101.6709)" class="styled-60 styled-59">Secure back to front with tape.</text>
		<text transform="matrix(1 0 0 1 75.1299 1121.5145)" class="styled-60 styled-59">Assemble helmet, cut slits for facemask</text>
		<text transform="matrix(1 0 0 1 75.0058 1135.1564)" class="styled-60 styled-59">and insert ends of facemask into slits.</text>
		<text transform="matrix(1 0 0 1 74.8818 1148.7988)" class="styled-60 styled-59">Secure with tape.</text>
		<text transform="matrix(1 0 0 1 74.7577 1174.8429)" class="styled-60 styled-59">Fold up tabs at base of main figure and</text>
		<text transform="matrix(1 0 0 1 74.7577 1188.4854)" class="styled-60 styled-59">base of helmet and tape them to the</text>
		<text transform="matrix(1 0 0 1 74.6338 1202.1268)" class="styled-60 styled-59">interior walls for stability.</text>
		<text transform="matrix(1 0 0 1 74.3857 1221.9707)" class="styled-60 styled-59">Put the helmet on the main figure.</text>
	</g>
	<g>
		<g>
			<text transform="matrix(1 0 0 1 578.6778 1076.5432)" class="styled-15 styled-16">DIRECTIONS</text>
		</g>
		<g>
			<text transform="matrix(1 0 0 1 593.2628 1111.9329)" class="styled-15 styled-62">Build</text>
			<text transform="matrix(1 0 0 1 568.459 1140.5814)" class="styled-15 styled-62">your own</text>
			<text transform="matrix(1 0 0 1 553.08 1172.5333)" class="styled-15 styled-62">Paper Hawk</text>
		</g>
		<text transform="matrix(1 0 0 1 560.0751 1201.0586)" class="styled-63 styled-14">(Second of two pages)</text>
	</g>
</g>
<g id="Layer_2">
</g>
</svg>
